<svg width="242" height="129" viewBox="0 0 242 129" fill="none" xmlns="http://www.w3.org/2000/svg">
<path d="M169.565 11.9883L170.478 23.5261C170.721 26.6078 173.325 28.965 176.416 28.9016L194.836 28.5237L176.445 29.6267C173.359 29.8117 170.953 32.3706 170.958 35.4618L170.975 47.0356L170.063 35.4978C169.819 32.4162 167.215 30.0589 164.125 30.1223L145.705 30.5002L164.096 29.3973C167.181 29.2122 169.588 26.6534 169.583 23.5621L169.565 11.9883Z" fill="white"/>
<path d="M72.4404 79.5645L73.6952 92.3177C73.9948 95.3623 76.6161 97.6456 79.673 97.5246L99.9885 96.7206L79.72 98.318C76.6701 98.5584 74.3364 101.135 74.3979 104.194L74.6558 117.006L73.4009 104.252C73.1014 101.208 70.4801 98.9246 67.4231 99.0456L47.1077 99.8496L67.3762 98.2522C70.4261 98.0118 72.7598 95.4354 72.6982 92.3767L72.4404 79.5645Z" fill="white"/>
<path d="M214.97 38.6164C217.699 41.2354 217.847 44.6002 215.599 48.4952C213.356 52.3814 208.759 56.7357 202.173 61.2871C189.006 70.3874 167.95 80.2354 142.124 88.6662C116.297 97.097 90.616 102.506 69.9808 104.441C59.6605 105.408 50.6255 105.504 43.4774 104.683C36.3134 103.861 31.1535 102.132 28.4243 99.5132C25.6951 96.8942 25.547 93.5294 27.795 89.6345C30.0381 85.7482 34.6357 81.3939 41.2212 76.8426C54.3888 67.7422 75.4445 57.8942 101.271 49.4634C127.097 41.0326 152.778 35.6235 173.414 33.6891C183.734 32.7217 192.769 32.6256 199.917 33.4463C207.081 34.2687 212.241 35.9975 214.97 38.6164Z" stroke="white" stroke-width="0.7"/>
</svg>
