<svg width="48" height="48" viewBox="0 0 48 48" fill="none" xmlns="http://www.w3.org/2000/svg">
<path fill-rule="evenodd" clip-rule="evenodd" d="M20.8263 14.6437L14.7539 0.273819L20.0241 14.9568C20.6539 16.7116 20.7502 18.5336 20.3927 20.2407C18.6725 20.5279 16.8561 20.357 15.1286 19.6559L0.673793 13.7887L14.7829 20.4446C16.469 21.24 17.8254 22.4602 18.7797 23.92C17.7664 25.3396 16.3611 26.5033 14.6437 27.2291L0.273819 33.3015L14.9568 28.0313C16.7117 27.4014 18.5337 27.3052 20.2409 27.6627C20.5281 29.383 20.3573 31.1994 19.6561 32.9269L13.789 47.3818L20.4448 33.2727C21.2403 31.5865 22.4604 30.2302 23.9202 29.2759C25.3398 30.2892 26.5034 31.6944 27.2291 33.4117L33.3015 47.7816L28.0313 33.0985C27.4015 31.3437 27.3052 29.5218 27.6626 27.8147C29.383 27.5274 31.1996 27.6982 32.9271 28.3994L47.382 34.2666L33.2729 27.6107C31.5867 26.8152 30.2303 25.595 29.2759 24.135C30.2892 22.7155 31.6944 21.552 33.4117 20.8263L47.7816 14.7539L33.0985 20.0241C31.3438 20.6539 29.522 20.7502 27.8149 20.3928C27.5276 18.6724 27.6985 16.8559 28.3997 15.1284L34.2668 0.673547L27.611 14.7826C26.8155 16.4689 25.5952 17.8253 24.1353 18.7796C22.7157 17.7663 21.552 16.361 20.8263 14.6437Z" fill="white"/>
</svg>
