<svg width="27" height="26" viewBox="0 0 27 26" fill="none" xmlns="http://www.w3.org/2000/svg">
<path d="M13.8147 0C6.68547 0 0.90332 5.78107 0.90332 12.9114C0.90332 18.6161 4.60243 23.4557 9.73363 25.1632C10.3781 25.2826 10.5869 24.8824 10.5869 24.5424V22.1387C6.99534 22.9199 6.24756 20.6152 6.24756 20.6152C5.66009 19.1228 4.81332 18.7258 4.81332 18.7258C3.64161 17.9242 4.90262 17.9414 4.90262 17.9414C6.19914 18.0318 6.88129 19.2724 6.88129 19.2724C8.03255 21.2457 9.90148 20.6754 10.6385 20.3451C10.7536 19.5112 11.0882 18.941 11.4584 18.6193C8.59097 18.2911 5.57616 17.184 5.57616 12.2378C5.57616 10.8273 6.08078 9.676 6.90604 8.77221C6.77262 8.44619 6.3304 7.13246 7.03192 5.355C7.03192 5.355 8.11648 5.00854 10.5836 6.67841C11.6133 6.39221 12.7172 6.24911 13.8147 6.24373C14.9122 6.24911 16.0172 6.39221 17.049 6.67841C19.514 5.00854 20.5964 5.355 20.5964 5.355C21.299 7.13354 20.8568 8.44727 20.7234 8.77221C21.5518 9.676 22.0522 10.8283 22.0522 12.2378C22.0522 17.1969 19.032 18.289 16.157 18.6085C16.6197 19.0088 17.0425 19.7942 17.0425 20.9993V24.5424C17.0425 24.8856 17.2491 25.2891 17.9044 25.1621C23.0313 23.4524 26.7261 18.6139 26.7261 12.9114C26.7261 5.78107 20.945 0 13.8147 0Z" fill="white"/>
</svg>
