<svg width="271" height="385" viewBox="0 0 271 385" fill="none" xmlns="http://www.w3.org/2000/svg">
<g clip-path="url(#clip0_958_1204)">
<path d="M33.9783 247L35.2983 243.9H40.9183L42.2383 247H45.0583L39.0583 233H37.1583L31.1583 247H33.9783ZM38.0983 237.36L39.8783 241.5H36.3183L38.0983 237.36ZM52.9692 237.3V243.6C52.6092 244.06 51.8092 244.8 50.7092 244.8C50.2092 244.8 49.6492 244.64 49.2492 244.2C48.9492 243.86 48.7692 243.42 48.7692 242.54V237.3H46.1692V242.44C46.1692 243.88 46.5292 244.88 47.1492 245.64C47.9092 246.58 49.1092 247.2 50.4492 247.2C51.3892 247.2 52.3092 246.9 53.0692 246.22V247H55.5692V237.3H52.9692ZM65.2763 243.6C64.7763 244.32 63.9163 244.8 62.9363 244.8C61.4763 244.8 60.3763 243.68 60.3763 242.16C60.3763 240.76 61.3563 239.5 62.8763 239.5C63.8763 239.5 64.7363 239.98 65.2763 240.7V243.6ZM67.8763 247V232.8H65.2763V238C64.5163 237.4 63.5963 237.1 62.5363 237.1C59.8963 237.1 57.7763 239.3 57.7763 242.16C57.7763 243.48 58.2563 244.68 59.0163 245.56C59.8763 246.56 61.2363 247.2 62.6763 247.2C63.6563 247.2 64.5763 246.9 65.3763 246.22V247H67.8763ZM73.481 237.3H70.881V247H73.481V237.3ZM70.481 233.86C70.481 234.8 71.241 235.52 72.181 235.52C73.121 235.52 73.881 234.8 73.881 233.86C73.881 232.92 73.121 232.2 72.181 232.2C71.241 232.2 70.481 232.92 70.481 233.86ZM75.6864 242.16C75.6864 244.96 77.9064 247.2 80.8464 247.2C83.7864 247.2 86.0064 244.96 86.0064 242.16C86.0064 239.36 83.7864 237.1 80.8464 237.1C77.9064 237.1 75.6864 239.36 75.6864 242.16ZM78.2864 242.16C78.2864 240.7 79.3264 239.5 80.8464 239.5C82.3664 239.5 83.4064 240.7 83.4064 242.16C83.4064 243.62 82.3664 244.8 80.8464 244.8C79.3264 244.8 78.2864 243.62 78.2864 242.16ZM92.9958 240.3V242.5H96.4958V246H98.6958V242.5H102.196V240.3H98.6958V236.8H96.4958V240.3H92.9958ZM111.783 240C111.783 237.36 113.743 235.2 116.383 235.2C119.023 235.2 120.983 237.36 120.983 240C120.983 242.64 119.023 244.8 116.383 244.8C113.743 244.8 111.783 242.64 111.783 240ZM109.083 240C109.083 243.98 112.063 247.2 116.383 247.2C120.703 247.2 123.683 243.98 123.683 240C123.683 236.02 120.703 232.8 116.383 232.8C112.063 232.8 109.083 236.02 109.083 240ZM128.383 247V240.7C128.743 240.2 129.643 239.5 130.743 239.5C131.343 239.5 131.863 239.7 132.203 240.04C132.563 240.4 132.783 240.9 132.783 241.86V247H135.383V242.06C135.383 240.4 135.023 239.42 134.383 238.66C133.583 237.7 132.363 237.1 131.023 237.1C129.943 237.1 129.023 237.48 128.283 238.08V237.3H125.783V247H128.383ZM140.786 232.8H138.186V247H140.786V232.8ZM146.391 237.3H143.791V247H146.391V237.3ZM143.391 233.86C143.391 234.8 144.151 235.52 145.091 235.52C146.031 235.52 146.791 234.8 146.791 233.86C146.791 232.92 146.031 232.2 145.091 232.2C144.151 232.2 143.391 232.92 143.391 233.86ZM151.997 247V240.7C152.357 240.2 153.257 239.5 154.357 239.5C154.957 239.5 155.477 239.7 155.817 240.04C156.177 240.4 156.397 240.9 156.397 241.86V247H158.997V242.06C158.997 240.4 158.637 239.42 157.997 238.66C157.197 237.7 155.977 237.1 154.637 237.1C153.557 237.1 152.637 237.48 151.897 238.08V237.3H149.397V247H151.997ZM168.579 243.98C168.119 244.48 167.239 245.1 166.139 245.1C164.759 245.1 163.659 244.16 163.519 242.8H170.239C170.279 242.58 170.299 242.32 170.299 242.06C170.299 239.36 168.399 237.1 165.719 237.1C162.839 237.1 160.999 239.46 160.999 242.16C160.999 245.2 163.179 247.2 166.079 247.2C167.579 247.2 169.119 246.58 170.059 245.46L168.579 243.98ZM163.639 240.9C163.759 240.02 164.639 239.2 165.719 239.2C166.779 239.2 167.559 240.04 167.639 240.9H163.639ZM176.202 245.1C177.642 246.42 179.382 247.2 181.262 247.2C183.782 247.2 186.002 245.48 186.002 243C186.002 238.28 179.542 238.98 179.542 236.72C179.542 235.64 180.682 235.2 181.702 235.2C182.622 235.2 183.562 235.6 184.122 236.12L185.522 234.12C184.202 233.14 182.882 232.8 181.462 232.8C179.142 232.8 176.842 234.24 176.842 236.74C176.842 238.32 177.722 239.28 178.822 239.92C180.702 241.02 183.302 241.24 183.302 243.04C183.302 244.06 182.462 244.8 181.262 244.8C179.982 244.8 178.762 244.14 177.962 243.26L176.202 245.1ZM194.708 237.3V243.6C194.348 244.06 193.548 244.8 192.448 244.8C191.948 244.8 191.388 244.64 190.988 244.2C190.688 243.86 190.508 243.42 190.508 242.54V237.3H187.908V242.44C187.908 243.88 188.268 244.88 188.888 245.64C189.648 246.58 190.848 247.2 192.188 247.2C193.128 247.2 194.048 246.9 194.808 246.22V247H197.308V237.3H194.708ZM206.515 237.18C206.235 237.14 206.015 237.1 205.635 237.1C204.455 237.1 203.395 237.56 202.815 238.28V237.3H200.315V247H202.915V240.9C203.235 240.32 204.135 239.5 205.275 239.5C205.655 239.5 206.035 239.54 206.215 239.6L206.515 237.18ZM210.523 237.3H207.823L212.283 247H214.083L218.543 237.3H215.843L213.183 243.22L210.523 237.3ZM226.723 243.98C226.263 244.48 225.383 245.1 224.283 245.1C222.903 245.1 221.803 244.16 221.663 242.8H228.383C228.423 242.58 228.443 242.32 228.443 242.06C228.443 239.36 226.543 237.1 223.863 237.1C220.983 237.1 219.143 239.46 219.143 242.16C219.143 245.2 221.323 247.2 224.223 247.2C225.723 247.2 227.263 246.58 228.203 245.46L226.723 243.98ZM221.783 240.9C221.903 240.02 222.783 239.2 223.863 239.2C224.923 239.2 225.703 240.04 225.783 240.9H221.783ZM233.629 251.8L240.309 237.3H237.569L234.949 243.12L232.109 237.3H229.249L233.589 246.02L230.909 251.8H233.629Z" fill="white"/>
<path d="M37.2383 282.876H33.0383V284.206H35.8383V286.726C35.3203 287.244 34.4663 287.636 33.4303 287.636C31.3443 287.636 29.7483 286.138 29.7483 283.926C29.7483 281.812 31.3023 280.216 33.3043 280.216C34.3543 280.216 35.3763 280.692 35.9503 281.322L36.8883 280.398C36.0343 279.46 34.7043 278.886 33.3043 278.886C30.4763 278.886 28.3483 281.098 28.3483 283.926C28.3483 286.824 30.5043 288.966 33.4303 288.966C34.9423 288.966 36.3983 288.21 37.2383 287.146V282.876ZM44.1452 288.826H45.4332V282.246H44.1452V282.848C43.5432 282.33 42.8292 282.106 42.0872 282.106C41.4712 282.106 40.9252 282.26 40.4772 282.526C39.4832 283.114 38.7832 284.22 38.7832 285.536C38.7832 286.852 39.4692 287.944 40.4632 288.532C40.9112 288.798 41.5272 288.966 42.1152 288.966C42.8992 288.966 43.6132 288.7 44.1452 288.224V288.826ZM44.1032 286.768C43.6552 287.37 42.9692 287.706 42.2972 287.706C41.0232 287.706 40.1132 286.712 40.1132 285.536C40.1132 284.388 40.9532 283.366 42.2272 283.366C43.0252 283.366 43.6972 283.772 44.1032 284.304V286.768ZM51.6138 287.622C51.4178 287.678 51.0818 287.706 50.8858 287.706C50.5358 287.706 50.1578 287.58 49.9758 287.356C49.8078 287.16 49.7798 286.866 49.7798 286.516V283.436H51.8798V282.246H49.7798V280.426H48.4498V282.246H46.7698V283.436H48.4498V286.446C48.4498 287.16 48.5898 287.762 48.9818 288.196C49.4018 288.672 50.0178 288.966 50.8438 288.966C51.2218 288.966 51.6278 288.91 51.8798 288.826L51.6138 287.622ZM55.0287 278.886H53.6987V288.826H55.0287V284.304C55.4207 283.828 56.0507 283.366 56.9187 283.366C57.4647 283.366 57.9687 283.618 58.2767 284.01C58.5147 284.304 58.6687 284.696 58.6687 285.536V288.826H59.9987V285.606C59.9987 284.472 59.7747 283.8 59.3547 283.268C58.7947 282.554 57.9267 282.106 56.9607 282.106C56.0507 282.106 55.3927 282.512 55.0287 282.82V278.886ZM68.0396 285.816C68.0536 285.69 68.0536 285.592 68.0536 285.536C68.0536 283.59 66.7236 282.106 64.8896 282.106C63.0276 282.106 61.6836 283.562 61.6836 285.536C61.6836 287.51 63.1676 288.966 65.0856 288.966C66.4296 288.966 67.3676 288.364 67.8576 287.734L66.9896 286.908C66.6116 287.328 66.0796 287.804 65.0996 287.804C63.9516 287.804 63.0416 286.922 62.9716 285.816H68.0396ZM64.9316 283.268C65.7156 283.268 66.4716 283.856 66.6676 284.696H63.0836C63.3076 283.842 64.0776 283.268 64.9316 283.268ZM73.6525 282.148C73.4985 282.12 73.2745 282.106 73.1345 282.106C72.1685 282.106 71.4825 282.554 71.1605 283.002V282.246H69.8725V288.826H71.2025V284.472C71.5665 283.842 72.2945 283.366 72.9805 283.366C73.1905 283.366 73.3445 283.38 73.4985 283.422L73.6525 282.148ZM80.7818 285.816C80.7958 285.69 80.7958 285.592 80.7958 285.536C80.7958 283.59 79.4658 282.106 77.6318 282.106C75.7698 282.106 74.4258 283.562 74.4258 285.536C74.4258 287.51 75.9098 288.966 77.8278 288.966C79.1718 288.966 80.1098 288.364 80.5998 287.734L79.7318 286.908C79.3538 287.328 78.8218 287.804 77.8418 287.804C76.6938 287.804 75.7838 286.922 75.7138 285.816H80.7818ZM77.6738 283.268C78.4578 283.268 79.2138 283.856 79.4098 284.696H75.8258C76.0498 283.842 76.8198 283.268 77.6738 283.268ZM87.4167 288.826H88.7047V278.886H87.3747V282.82C86.7867 282.33 86.0727 282.106 85.3587 282.106C84.7427 282.106 84.1967 282.26 83.7487 282.526C82.7547 283.114 82.0547 284.22 82.0547 285.536C82.0547 286.852 82.7407 287.944 83.7347 288.532C84.1827 288.798 84.7987 288.966 85.3867 288.966C86.1707 288.966 86.8847 288.7 87.4167 288.224V288.826ZM87.3747 286.768C86.9267 287.37 86.2407 287.706 85.5687 287.706C84.2947 287.706 83.3847 286.712 83.3847 285.536C83.3847 284.388 84.2247 283.366 85.4987 283.366C86.2967 283.366 86.9687 283.772 87.3747 284.304V286.768ZM57.3759 295.844C57.1939 295.788 56.8719 295.746 56.5919 295.746C55.6959 295.746 54.9119 296.152 54.4359 296.838C54.1419 297.258 54.0159 297.804 54.0159 298.686V299.246H52.4759V300.436H54.0159V305.826H55.3459V300.436H57.3759V299.246H55.3459V298.644C55.3459 298.042 55.4159 297.706 55.5979 297.468C55.8219 297.174 56.2279 297.006 56.6059 297.006C56.7879 297.006 56.9979 297.034 57.0959 297.062L57.3759 295.844ZM62.633 299.148C62.479 299.12 62.255 299.106 62.115 299.106C61.149 299.106 60.463 299.554 60.141 300.002V299.246H58.853V305.826H60.183V301.472C60.547 300.842 61.275 300.366 61.961 300.366C62.171 300.366 62.325 300.38 62.479 300.422L62.633 299.148ZM63.4063 302.536C63.4063 304.496 64.8623 305.966 66.8083 305.966C68.7543 305.966 70.2103 304.496 70.2103 302.536C70.2103 300.576 68.7543 299.106 66.8083 299.106C64.8623 299.106 63.4063 300.576 63.4063 302.536ZM64.7363 302.536C64.7363 301.332 65.5903 300.366 66.8083 300.366C68.0263 300.366 68.8803 301.332 68.8803 302.536C68.8803 303.74 68.0263 304.706 66.8083 304.706C65.5903 304.706 64.7363 303.74 64.7363 302.536ZM72.0327 299.246V305.826H73.3627V301.304C73.7407 300.856 74.3987 300.366 75.2107 300.366C75.7147 300.366 76.1907 300.59 76.4847 300.94C76.7227 301.22 76.8627 301.584 76.8627 302.256V305.826H78.1927V302.466C78.1927 302.004 78.1507 301.626 78.0807 301.304C78.5147 300.856 79.1307 300.366 80.0827 300.366C80.5727 300.366 81.0207 300.59 81.3147 300.94C81.5527 301.22 81.6927 301.584 81.6927 302.256V305.826H83.0227V302.466C83.0227 301.36 82.8267 300.716 82.4207 300.212C81.8747 299.526 81.0207 299.106 80.0827 299.106C78.8927 299.106 78.1787 299.596 77.5767 300.198C77.0307 299.54 76.2187 299.106 75.2527 299.106C74.3567 299.106 73.5867 299.582 73.3207 299.876V299.246H72.0327ZM93.8425 305.826H95.1305V299.246H93.8425V299.848C93.2405 299.33 92.5265 299.106 91.7845 299.106C91.1685 299.106 90.6225 299.26 90.1745 299.526C89.1805 300.114 88.4805 301.22 88.4805 302.536C88.4805 303.852 89.1665 304.944 90.1605 305.532C90.6085 305.798 91.2245 305.966 91.8125 305.966C92.5965 305.966 93.3105 305.7 93.8425 305.224V305.826ZM93.8005 303.768C93.3525 304.37 92.6665 304.706 91.9945 304.706C90.7205 304.706 89.8105 303.712 89.8105 302.536C89.8105 301.388 90.6505 300.366 91.9245 300.366C92.7225 300.366 93.3945 300.772 93.8005 301.304V303.768ZM102.62 305.252C103.152 305.714 103.824 305.966 104.608 305.966C105.196 305.966 105.812 305.798 106.26 305.532C107.254 304.944 107.94 303.852 107.94 302.536C107.94 301.22 107.24 300.114 106.246 299.526C105.798 299.26 105.252 299.106 104.636 299.106C103.894 299.106 103.18 299.33 102.578 299.848V299.246H101.29V309.186H102.62V305.252ZM102.62 301.304C103.026 300.772 103.698 300.366 104.496 300.366C105.77 300.366 106.61 301.388 106.61 302.536C106.61 303.712 105.7 304.706 104.426 304.706C103.754 304.706 103.068 304.37 102.62 303.768V301.304ZM109.207 302.536C109.207 304.496 110.663 305.966 112.609 305.966C114.555 305.966 116.011 304.496 116.011 302.536C116.011 300.576 114.555 299.106 112.609 299.106C110.663 299.106 109.207 300.576 109.207 302.536ZM110.537 302.536C110.537 301.332 111.391 300.366 112.609 300.366C113.827 300.366 114.681 301.332 114.681 302.536C114.681 303.74 113.827 304.706 112.609 304.706C111.391 304.706 110.537 303.74 110.537 302.536ZM117.273 302.536C117.273 304.496 118.729 305.966 120.675 305.966C122.621 305.966 124.077 304.496 124.077 302.536C124.077 300.576 122.621 299.106 120.675 299.106C118.729 299.106 117.273 300.576 117.273 302.536ZM118.603 302.536C118.603 301.332 119.457 300.366 120.675 300.366C121.893 300.366 122.747 301.332 122.747 302.536C122.747 303.74 121.893 304.706 120.675 304.706C119.457 304.706 118.603 303.74 118.603 302.536ZM125.9 305.826H127.23V295.886H125.9V305.826ZM132.818 302.536C132.818 304.496 134.274 305.966 136.22 305.966C138.166 305.966 139.622 304.496 139.622 302.536C139.622 300.576 138.166 299.106 136.22 299.106C134.274 299.106 132.818 300.576 132.818 302.536ZM134.148 302.536C134.148 301.332 135.002 300.366 136.22 300.366C137.438 300.366 138.292 301.332 138.292 302.536C138.292 303.74 137.438 304.706 136.22 304.706C135.002 304.706 134.148 303.74 134.148 302.536ZM145.436 295.844C145.254 295.788 144.932 295.746 144.652 295.746C143.756 295.746 142.972 296.152 142.496 296.838C142.202 297.258 142.076 297.804 142.076 298.686V299.246H140.536V300.436H142.076V305.826H143.406V300.436H145.436V299.246H143.406V298.644C143.406 298.042 143.476 297.706 143.658 297.468C143.882 297.174 144.288 297.006 144.666 297.006C144.848 297.006 145.058 297.034 145.156 297.062L145.436 295.844ZM151.39 297.776V305.826H152.79V296.026H151.81L149.5 297.342V298.728L151.39 297.776ZM160.564 300.926C160.564 302.886 160.144 304.636 158.604 304.636C157.064 304.636 156.644 302.886 156.644 300.926C156.644 298.966 157.064 297.216 158.604 297.216C160.144 297.216 160.564 298.966 160.564 300.926ZM155.244 300.926C155.244 303.712 156.154 305.966 158.604 305.966C161.054 305.966 161.964 303.712 161.964 300.926C161.964 298.14 161.054 295.886 158.604 295.886C156.154 295.886 155.244 298.14 155.244 300.926ZM168.821 300.926C168.821 302.886 168.401 304.636 166.861 304.636C165.321 304.636 164.901 302.886 164.901 300.926C164.901 298.966 165.321 297.216 166.861 297.216C168.401 297.216 168.821 298.966 168.821 300.926ZM163.501 300.926C163.501 303.712 164.411 305.966 166.861 305.966C169.311 305.966 170.221 303.712 170.221 300.926C170.221 298.14 169.311 295.886 166.861 295.886C164.411 295.886 163.501 298.14 163.501 300.926ZM180.755 305.826H182.043V295.886H180.713V299.82C180.125 299.33 179.411 299.106 178.697 299.106C178.081 299.106 177.535 299.26 177.087 299.526C176.093 300.114 175.393 301.22 175.393 302.536C175.393 303.852 176.079 304.944 177.073 305.532C177.521 305.798 178.137 305.966 178.725 305.966C179.509 305.966 180.223 305.7 180.755 305.224V305.826ZM180.713 303.768C180.265 304.37 179.579 304.706 178.907 304.706C177.633 304.706 176.723 303.712 176.723 302.536C176.723 301.388 177.563 300.366 178.837 300.366C179.635 300.366 180.307 300.772 180.713 301.304V303.768ZM184.429 305.826H185.759V299.246H184.429V305.826ZM184.219 296.908C184.219 297.398 184.597 297.776 185.087 297.776C185.577 297.776 185.969 297.398 185.969 296.908C185.969 296.418 185.577 296.026 185.087 296.026C184.597 296.026 184.219 296.418 184.219 296.908ZM189.94 305.826H190.864L193.72 299.246H192.348L190.402 303.726L188.456 299.246H187.084L189.94 305.826ZM200.78 302.816C200.794 302.69 200.794 302.592 200.794 302.536C200.794 300.59 199.464 299.106 197.63 299.106C195.768 299.106 194.424 300.562 194.424 302.536C194.424 304.51 195.908 305.966 197.826 305.966C199.17 305.966 200.108 305.364 200.598 304.734L199.73 303.908C199.352 304.328 198.82 304.804 197.84 304.804C196.692 304.804 195.782 303.922 195.712 302.816H200.78ZM197.672 300.268C198.456 300.268 199.212 300.856 199.408 301.696H195.824C196.048 300.842 196.818 300.268 197.672 300.268ZM206.393 299.148C206.239 299.12 206.015 299.106 205.875 299.106C204.909 299.106 204.223 299.554 203.901 300.002V299.246H202.613V305.826H203.943V301.472C204.307 300.842 205.035 300.366 205.721 300.366C205.931 300.366 206.085 300.38 206.239 300.422L206.393 299.148ZM207.301 305.056C208.029 305.644 208.911 305.966 209.961 305.966C211.249 305.966 212.411 305.196 212.411 303.95C212.411 302.592 211.053 302.13 210.017 301.864C209.359 301.696 208.841 301.542 208.841 301.094C208.841 300.576 209.387 300.268 210.031 300.268C210.563 300.268 211.039 300.478 211.445 300.786L212.131 299.834C211.613 299.414 210.913 299.106 209.947 299.106C208.771 299.106 207.511 299.75 207.511 301.164C207.511 302.088 208.225 302.592 209.023 302.858C209.989 303.18 211.081 303.222 211.081 303.978C211.081 304.496 210.507 304.804 209.933 304.804C209.275 304.804 208.603 304.552 207.987 304.076L207.301 305.056ZM220.098 302.816C220.112 302.69 220.112 302.592 220.112 302.536C220.112 300.59 218.782 299.106 216.948 299.106C215.086 299.106 213.742 300.562 213.742 302.536C213.742 304.51 215.226 305.966 217.144 305.966C218.488 305.966 219.426 305.364 219.916 304.734L219.048 303.908C218.67 304.328 218.138 304.804 217.158 304.804C216.01 304.804 215.1 303.922 215.03 302.816H220.098ZM216.99 300.268C217.774 300.268 218.53 300.856 218.726 301.696H215.142C215.366 300.842 216.136 300.268 216.99 300.268ZM117.631 322.252V322.616C117.631 323.442 117.505 323.946 117.267 324.31C116.945 324.8 116.385 325.066 115.671 325.066C114.593 325.066 113.977 324.52 113.501 323.89L112.521 324.8C112.941 325.458 114.019 326.326 115.727 326.326C117.029 326.326 118.037 325.724 118.569 324.702C118.835 324.184 118.961 323.526 118.961 322.546V316.246H117.673V316.848C117.071 316.33 116.357 316.106 115.615 316.106C114.999 316.106 114.453 316.26 114.005 316.526C113.011 317.114 112.311 318.22 112.311 319.536C112.311 320.852 112.997 321.944 113.991 322.532C114.439 322.798 115.055 322.966 115.643 322.966C116.427 322.966 117.099 322.714 117.631 322.252ZM117.631 320.768C117.183 321.37 116.497 321.706 115.825 321.706C114.551 321.706 113.641 320.712 113.641 319.536C113.641 318.388 114.481 317.366 115.755 317.366C116.553 317.366 117.225 317.772 117.631 318.304V320.768ZM126.149 322.826H127.437V316.246H126.149V316.848C125.547 316.33 124.833 316.106 124.091 316.106C123.475 316.106 122.929 316.26 122.481 316.526C121.487 317.114 120.787 318.22 120.787 319.536C120.787 320.852 121.473 321.944 122.467 322.532C122.915 322.798 123.531 322.966 124.119 322.966C124.903 322.966 125.617 322.7 126.149 322.224V322.826ZM126.107 320.768C125.659 321.37 124.973 321.706 124.301 321.706C123.027 321.706 122.117 320.712 122.117 319.536C122.117 318.388 122.957 317.366 124.231 317.366C125.029 317.366 125.701 317.772 126.107 318.304V320.768ZM129.824 316.246V322.826H131.154V318.304C131.532 317.856 132.19 317.366 133.002 317.366C133.506 317.366 133.982 317.59 134.276 317.94C134.514 318.22 134.654 318.584 134.654 319.256V322.826H135.984V319.466C135.984 319.004 135.942 318.626 135.872 318.304C136.306 317.856 136.922 317.366 137.874 317.366C138.364 317.366 138.812 317.59 139.106 317.94C139.344 318.22 139.484 318.584 139.484 319.256V322.826H140.814V319.466C140.814 318.36 140.618 317.716 140.212 317.212C139.666 316.526 138.812 316.106 137.874 316.106C136.684 316.106 135.97 316.596 135.368 317.198C134.822 316.54 134.01 316.106 133.044 316.106C132.148 316.106 131.378 316.582 131.112 316.876V316.246H129.824ZM148.854 319.816C148.868 319.69 148.868 319.592 148.868 319.536C148.868 317.59 147.538 316.106 145.704 316.106C143.842 316.106 142.498 317.562 142.498 319.536C142.498 321.51 143.982 322.966 145.9 322.966C147.244 322.966 148.182 322.364 148.672 321.734L147.804 320.908C147.426 321.328 146.894 321.804 145.914 321.804C144.766 321.804 143.856 320.922 143.786 319.816H148.854ZM145.746 317.268C146.53 317.268 147.286 317.856 147.482 318.696H143.898C144.122 317.842 144.892 317.268 145.746 317.268ZM154.467 316.148C154.313 316.12 154.089 316.106 153.949 316.106C152.983 316.106 152.297 316.554 151.975 317.002V316.246H150.687V322.826H152.017V318.472C152.381 317.842 153.109 317.366 153.795 317.366C154.005 317.366 154.159 317.38 154.313 317.422L154.467 316.148ZM155.375 322.056C156.103 322.644 156.985 322.966 158.035 322.966C159.323 322.966 160.485 322.196 160.485 320.95C160.485 319.592 159.127 319.13 158.091 318.864C157.433 318.696 156.915 318.542 156.915 318.094C156.915 317.576 157.461 317.268 158.105 317.268C158.637 317.268 159.113 317.478 159.519 317.786L160.205 316.834C159.687 316.414 158.987 316.106 158.021 316.106C156.845 316.106 155.585 316.75 155.585 318.164C155.585 319.088 156.299 319.592 157.097 319.858C158.063 320.18 159.155 320.222 159.155 320.978C159.155 321.496 158.581 321.804 158.007 321.804C157.349 321.804 156.677 321.552 156.061 321.076L155.375 322.056ZM115.566 356.252V356.616C115.566 357.442 115.44 357.946 115.202 358.31C114.88 358.8 114.32 359.066 113.606 359.066C112.528 359.066 111.912 358.52 111.436 357.89L110.456 358.8C110.876 359.458 111.954 360.326 113.662 360.326C114.964 360.326 115.972 359.724 116.504 358.702C116.77 358.184 116.896 357.526 116.896 356.546V350.246H115.608V350.848C115.006 350.33 114.292 350.106 113.55 350.106C112.934 350.106 112.388 350.26 111.94 350.526C110.946 351.114 110.246 352.22 110.246 353.536C110.246 354.852 110.932 355.944 111.926 356.532C112.374 356.798 112.99 356.966 113.578 356.966C114.362 356.966 115.034 356.714 115.566 356.252ZM115.566 354.768C115.118 355.37 114.432 355.706 113.76 355.706C112.486 355.706 111.576 354.712 111.576 353.536C111.576 352.388 112.416 351.366 113.69 351.366C114.488 351.366 115.16 351.772 115.566 352.304V354.768ZM124.085 356.826H125.373V350.246H124.085V350.848C123.483 350.33 122.769 350.106 122.027 350.106C121.411 350.106 120.865 350.26 120.417 350.526C119.423 351.114 118.723 352.22 118.723 353.536C118.723 354.852 119.409 355.944 120.403 356.532C120.851 356.798 121.467 356.966 122.055 356.966C122.839 356.966 123.553 356.7 124.085 356.224V356.826ZM124.043 354.768C123.595 355.37 122.909 355.706 122.237 355.706C120.963 355.706 120.053 354.712 120.053 353.536C120.053 352.388 120.893 351.366 122.167 351.366C122.965 351.366 123.637 351.772 124.043 352.304V354.768ZM127.759 350.246V356.826H129.089V352.304C129.467 351.856 130.125 351.366 130.937 351.366C131.441 351.366 131.917 351.59 132.211 351.94C132.449 352.22 132.589 352.584 132.589 353.256V356.826H133.919V353.466C133.919 353.004 133.877 352.626 133.807 352.304C134.241 351.856 134.857 351.366 135.809 351.366C136.299 351.366 136.747 351.59 137.041 351.94C137.279 352.22 137.419 352.584 137.419 353.256V356.826H138.749V353.466C138.749 352.36 138.553 351.716 138.147 351.212C137.601 350.526 136.747 350.106 135.809 350.106C134.619 350.106 133.905 350.596 133.303 351.198C132.757 350.54 131.945 350.106 130.979 350.106C130.083 350.106 129.313 350.582 129.047 350.876V350.246H127.759ZM140.994 356.826H142.324V350.246H140.994V356.826ZM140.784 347.908C140.784 348.398 141.162 348.776 141.652 348.776C142.142 348.776 142.534 348.398 142.534 347.908C142.534 347.418 142.142 347.026 141.652 347.026C141.162 347.026 140.784 347.418 140.784 347.908ZM145.987 350.246H144.699V356.826H146.029V352.304C146.421 351.828 147.051 351.366 147.919 351.366C148.465 351.366 148.969 351.618 149.277 352.01C149.515 352.304 149.669 352.696 149.669 353.536V356.826H150.999V353.606C150.999 352.472 150.775 351.8 150.355 351.268C149.795 350.554 148.927 350.106 147.961 350.106C147.009 350.106 146.337 350.54 145.987 350.876V350.246ZM158.004 356.252V356.616C158.004 357.442 157.878 357.946 157.64 358.31C157.318 358.8 156.758 359.066 156.044 359.066C154.966 359.066 154.35 358.52 153.874 357.89L152.894 358.8C153.314 359.458 154.392 360.326 156.1 360.326C157.402 360.326 158.41 359.724 158.942 358.702C159.208 358.184 159.334 357.526 159.334 356.546V350.246H158.046V350.848C157.444 350.33 156.73 350.106 155.988 350.106C155.372 350.106 154.826 350.26 154.378 350.526C153.384 351.114 152.684 352.22 152.684 353.536C152.684 354.852 153.37 355.944 154.364 356.532C154.812 356.798 155.428 356.966 156.016 356.966C156.8 356.966 157.472 356.714 158.004 356.252ZM158.004 354.768C157.556 355.37 156.87 355.706 156.198 355.706C154.924 355.706 154.014 354.712 154.014 353.536C154.014 352.388 154.854 351.366 156.128 351.366C156.926 351.366 157.598 351.772 158.004 352.304V354.768ZM166.824 356.252C167.356 356.714 168.028 356.966 168.812 356.966C169.4 356.966 170.016 356.798 170.464 356.532C171.458 355.944 172.144 354.852 172.144 353.536C172.144 352.22 171.444 351.114 170.45 350.526C170.002 350.26 169.456 350.106 168.84 350.106C168.098 350.106 167.384 350.33 166.782 350.848V350.246H165.494V360.186H166.824V356.252ZM166.824 352.304C167.23 351.772 167.902 351.366 168.7 351.366C169.974 351.366 170.814 352.388 170.814 353.536C170.814 354.712 169.904 355.706 168.63 355.706C167.958 355.706 167.272 355.37 166.824 354.768V352.304ZM178.772 356.826H180.06V350.246H178.772V350.848C178.17 350.33 177.456 350.106 176.714 350.106C176.098 350.106 175.552 350.26 175.104 350.526C174.11 351.114 173.41 352.22 173.41 353.536C173.41 354.852 174.096 355.944 175.09 356.532C175.538 356.798 176.154 356.966 176.742 356.966C177.526 356.966 178.24 356.7 178.772 356.224V356.826ZM178.73 354.768C178.282 355.37 177.596 355.706 176.924 355.706C175.65 355.706 174.74 354.712 174.74 353.536C174.74 352.388 175.58 351.366 176.854 351.366C177.652 351.366 178.324 351.772 178.73 352.304V354.768ZM186.241 355.622C186.045 355.678 185.709 355.706 185.513 355.706C185.163 355.706 184.785 355.58 184.603 355.356C184.435 355.16 184.407 354.866 184.407 354.516V351.436H186.507V350.246H184.407V348.426H183.077V350.246H181.397V351.436H183.077V354.446C183.077 355.16 183.217 355.762 183.609 356.196C184.029 356.672 184.645 356.966 185.471 356.966C185.849 356.966 186.255 356.91 186.507 356.826L186.241 355.622ZM192.12 355.622C191.924 355.678 191.588 355.706 191.392 355.706C191.042 355.706 190.664 355.58 190.482 355.356C190.314 355.16 190.286 354.866 190.286 354.516V351.436H192.386V350.246H190.286V348.426H188.956V350.246H187.276V351.436H188.956V354.446C188.956 355.16 189.096 355.762 189.488 356.196C189.908 356.672 190.524 356.966 191.35 356.966C191.728 356.966 192.134 356.91 192.386 356.826L192.12 355.622ZM200.001 353.816C200.015 353.69 200.015 353.592 200.015 353.536C200.015 351.59 198.685 350.106 196.851 350.106C194.989 350.106 193.645 351.562 193.645 353.536C193.645 355.51 195.129 356.966 197.047 356.966C198.391 356.966 199.329 356.364 199.819 355.734L198.951 354.908C198.573 355.328 198.041 355.804 197.061 355.804C195.913 355.804 195.003 354.922 194.933 353.816H200.001ZM196.893 351.268C197.677 351.268 198.433 351.856 198.629 352.696H195.045C195.269 351.842 196.039 351.268 196.893 351.268ZM205.613 350.148C205.459 350.12 205.235 350.106 205.095 350.106C204.129 350.106 203.443 350.554 203.121 351.002V350.246H201.833V356.826H203.163V352.472C203.527 351.842 204.255 351.366 204.941 351.366C205.151 351.366 205.305 351.38 205.459 351.422L205.613 350.148ZM208.508 350.246H207.22V356.826H208.55V352.304C208.942 351.828 209.572 351.366 210.44 351.366C210.986 351.366 211.49 351.618 211.798 352.01C212.036 352.304 212.19 352.696 212.19 353.536V356.826H213.52V353.606C213.52 352.472 213.296 351.8 212.876 351.268C212.316 350.554 211.448 350.106 210.482 350.106C209.53 350.106 208.858 350.54 208.508 350.876V350.246ZM215.135 356.056C215.863 356.644 216.745 356.966 217.795 356.966C219.083 356.966 220.245 356.196 220.245 354.95C220.245 353.592 218.887 353.13 217.851 352.864C217.193 352.696 216.675 352.542 216.675 352.094C216.675 351.576 217.221 351.268 217.865 351.268C218.397 351.268 218.873 351.478 219.279 351.786L219.965 350.834C219.447 350.414 218.747 350.106 217.781 350.106C216.605 350.106 215.345 350.75 215.345 352.164C215.345 353.088 216.059 353.592 216.857 353.858C217.823 354.18 218.915 354.222 218.915 354.978C218.915 355.496 218.341 355.804 217.767 355.804C217.109 355.804 216.437 355.552 215.821 355.076L215.135 356.056ZM222.626 355.146L221.576 358.786H222.486L224.166 355.146H222.626ZM61.6244 373.224C62.1564 373.7 62.8704 373.966 63.6544 373.966C64.2424 373.966 64.8584 373.798 65.3064 373.532C66.3004 372.944 66.9864 371.852 66.9864 370.536C66.9864 369.22 66.2864 368.114 65.2924 367.526C64.8444 367.26 64.2984 367.106 63.6824 367.106C62.9684 367.106 62.2544 367.33 61.6664 367.82V363.886H60.3364V373.826H61.6244V373.224ZM61.6664 369.304C62.0724 368.772 62.7444 368.366 63.5424 368.366C64.8164 368.366 65.6564 369.388 65.6564 370.536C65.6564 371.712 64.7464 372.706 63.4724 372.706C62.8004 372.706 62.1144 372.37 61.6664 371.768V369.304ZM74.609 370.816C74.623 370.69 74.623 370.592 74.623 370.536C74.623 368.59 73.293 367.106 71.459 367.106C69.597 367.106 68.253 368.562 68.253 370.536C68.253 372.51 69.737 373.966 71.655 373.966C72.999 373.966 73.937 373.364 74.427 372.734L73.559 371.908C73.181 372.328 72.649 372.804 71.669 372.804C70.521 372.804 69.611 371.922 69.541 370.816H74.609ZM71.501 368.268C72.285 368.268 73.041 368.856 73.237 369.696H69.653C69.877 368.842 70.647 368.268 71.501 368.268ZM77.7719 363.886H76.4419V373.826H77.7719V369.304C78.1639 368.828 78.7939 368.366 79.6619 368.366C80.2079 368.366 80.7119 368.618 81.0199 369.01C81.2579 369.304 81.4119 369.696 81.4119 370.536V373.826H82.7419V370.606C82.7419 369.472 82.5179 368.8 82.0979 368.268C81.5379 367.554 80.6699 367.106 79.7039 367.106C78.7939 367.106 78.1359 367.512 77.7719 367.82V363.886ZM89.7888 373.826H91.0768V367.246H89.7888V367.848C89.1868 367.33 88.4728 367.106 87.7308 367.106C87.1148 367.106 86.5688 367.26 86.1208 367.526C85.1268 368.114 84.4268 369.22 84.4268 370.536C84.4268 371.852 85.1128 372.944 86.1068 373.532C86.5548 373.798 87.1708 373.966 87.7588 373.966C88.5428 373.966 89.2568 373.7 89.7888 373.224V373.826ZM89.7468 371.768C89.2988 372.37 88.6128 372.706 87.9408 372.706C86.6668 372.706 85.7568 371.712 85.7568 370.536C85.7568 369.388 86.5968 368.366 87.8708 368.366C88.6688 368.366 89.3408 368.772 89.7468 369.304V371.768ZM95.2693 373.826H96.1933L99.0493 367.246H97.6773L95.7313 371.726L93.7853 367.246H92.4133L95.2693 373.826ZM100.381 373.826H101.711V367.246H100.381V373.826ZM100.171 364.908C100.171 365.398 100.549 365.776 101.039 365.776C101.529 365.776 101.921 365.398 101.921 364.908C101.921 364.418 101.529 364.026 101.039 364.026C100.549 364.026 100.171 364.418 100.171 364.908ZM103.526 370.536C103.526 372.496 104.982 373.966 106.928 373.966C108.874 373.966 110.33 372.496 110.33 370.536C110.33 368.576 108.874 367.106 106.928 367.106C104.982 367.106 103.526 368.576 103.526 370.536ZM104.856 370.536C104.856 369.332 105.71 368.366 106.928 368.366C108.146 368.366 109 369.332 109 370.536C109 371.74 108.146 372.706 106.928 372.706C105.71 372.706 104.856 371.74 104.856 370.536ZM115.933 367.148C115.779 367.12 115.555 367.106 115.415 367.106C114.449 367.106 113.763 367.554 113.441 368.002V367.246H112.153V373.826H113.483V369.472C113.847 368.842 114.575 368.366 115.261 368.366C115.471 368.366 115.625 368.38 115.779 368.422L115.933 367.148ZM117.469 372.146L116.419 375.786H117.329L119.009 372.146H117.469ZM129.615 373.826H130.903V367.246H129.615V367.848C129.013 367.33 128.299 367.106 127.557 367.106C126.941 367.106 126.395 367.26 125.947 367.526C124.953 368.114 124.253 369.22 124.253 370.536C124.253 371.852 124.939 372.944 125.933 373.532C126.381 373.798 126.997 373.966 127.585 373.966C128.369 373.966 129.083 373.7 129.615 373.224V373.826ZM129.573 371.768C129.125 372.37 128.439 372.706 127.767 372.706C126.493 372.706 125.583 371.712 125.583 370.536C125.583 369.388 126.423 368.366 127.697 368.366C128.495 368.366 129.167 368.772 129.573 369.304V371.768ZM134.578 367.246H133.29V373.826H134.62V369.304C135.012 368.828 135.642 368.366 136.51 368.366C137.056 368.366 137.56 368.618 137.868 369.01C138.106 369.304 138.26 369.696 138.26 370.536V373.826H139.59V370.606C139.59 369.472 139.366 368.8 138.946 368.268C138.386 367.554 137.518 367.106 136.552 367.106C135.6 367.106 134.928 367.54 134.578 367.876V367.246ZM146.636 373.826H147.924V363.886H146.594V367.82C146.006 367.33 145.292 367.106 144.578 367.106C143.962 367.106 143.416 367.26 142.968 367.526C141.974 368.114 141.274 369.22 141.274 370.536C141.274 371.852 141.96 372.944 142.954 373.532C143.402 373.798 144.018 373.966 144.606 373.966C145.39 373.966 146.104 373.7 146.636 373.224V373.826ZM146.594 371.768C146.146 372.37 145.46 372.706 144.788 372.706C143.514 372.706 142.604 371.712 142.604 370.536C142.604 369.388 143.444 368.366 144.718 368.366C145.516 368.366 146.188 368.772 146.594 369.304V371.768ZM158.886 373.826H160.174V367.246H158.886V367.848C158.284 367.33 157.57 367.106 156.828 367.106C156.212 367.106 155.666 367.26 155.218 367.526C154.224 368.114 153.524 369.22 153.524 370.536C153.524 371.852 154.21 372.944 155.204 373.532C155.652 373.798 156.268 373.966 156.856 373.966C157.64 373.966 158.354 373.7 158.886 373.224V373.826ZM158.844 371.768C158.396 372.37 157.71 372.706 157.038 372.706C155.764 372.706 154.854 371.712 154.854 370.536C154.854 369.388 155.694 368.366 156.968 368.366C157.766 368.366 158.438 368.772 158.844 369.304V371.768ZM166.355 372.622C166.159 372.678 165.823 372.706 165.627 372.706C165.277 372.706 164.899 372.58 164.717 372.356C164.549 372.16 164.521 371.866 164.521 371.516V368.436H166.621V367.246H164.521V365.426H163.191V367.246H161.511V368.436H163.191V371.446C163.191 372.16 163.331 372.762 163.723 373.196C164.143 373.672 164.759 373.966 165.585 373.966C165.963 373.966 166.369 373.91 166.621 373.826L166.355 372.622ZM172.371 372.622C172.175 372.678 171.839 372.706 171.643 372.706C171.293 372.706 170.915 372.58 170.733 372.356C170.565 372.16 170.537 371.866 170.537 371.516V368.436H172.637V367.246H170.537V365.426H169.207V367.246H167.527V368.436H169.207V371.446C169.207 372.16 169.347 372.762 169.739 373.196C170.159 373.672 170.775 373.966 171.601 373.966C171.979 373.966 172.385 373.91 172.637 373.826L172.371 372.622ZM174.456 373.826H175.786V367.246H174.456V373.826ZM174.246 364.908C174.246 365.398 174.624 365.776 175.114 365.776C175.604 365.776 175.996 365.398 175.996 364.908C175.996 364.418 175.604 364.026 175.114 364.026C174.624 364.026 174.246 364.418 174.246 364.908ZM181.955 372.622C181.759 372.678 181.423 372.706 181.227 372.706C180.877 372.706 180.499 372.58 180.317 372.356C180.149 372.16 180.121 371.866 180.121 371.516V368.436H182.221V367.246H180.121V365.426H178.791V367.246H177.111V368.436H178.791V371.446C178.791 372.16 178.931 372.762 179.323 373.196C179.743 373.672 180.359 373.966 181.185 373.966C181.563 373.966 181.969 373.91 182.221 373.826L181.955 372.622ZM186.84 373.966C187.75 373.966 188.478 373.504 188.772 373.224V373.826H190.06V367.246H188.73V371.768C188.352 372.216 187.694 372.706 186.882 372.706C186.378 372.706 185.902 372.482 185.608 372.132C185.37 371.852 185.23 371.488 185.23 370.816V367.246H183.9V370.606C183.9 371.712 184.096 372.356 184.502 372.86C185.048 373.546 185.902 373.966 186.84 373.966ZM197.236 373.826H198.524V363.886H197.194V367.82C196.606 367.33 195.892 367.106 195.178 367.106C194.562 367.106 194.016 367.26 193.568 367.526C192.574 368.114 191.874 369.22 191.874 370.536C191.874 371.852 192.56 372.944 193.554 373.532C194.002 373.798 194.618 373.966 195.206 373.966C195.99 373.966 196.704 373.7 197.236 373.224V373.826ZM197.194 371.768C196.746 372.37 196.06 372.706 195.388 372.706C194.114 372.706 193.204 371.712 193.204 370.536C193.204 369.388 194.044 368.366 195.318 368.366C196.116 368.366 196.788 368.772 197.194 369.304V371.768ZM206.707 370.816C206.721 370.69 206.721 370.592 206.721 370.536C206.721 368.59 205.391 367.106 203.557 367.106C201.695 367.106 200.351 368.562 200.351 370.536C200.351 372.51 201.835 373.966 203.753 373.966C205.097 373.966 206.035 373.364 206.525 372.734L205.657 371.908C205.279 372.328 204.747 372.804 203.767 372.804C202.619 372.804 201.709 371.922 201.639 370.816H206.707ZM203.599 368.268C204.383 368.268 205.139 368.856 205.335 369.696H201.751C201.975 368.842 202.745 368.268 203.599 368.268ZM207.91 373.056C208.638 373.644 209.52 373.966 210.57 373.966C211.858 373.966 213.02 373.196 213.02 371.95C213.02 370.592 211.662 370.13 210.626 369.864C209.968 369.696 209.45 369.542 209.45 369.094C209.45 368.576 209.996 368.268 210.64 368.268C211.172 368.268 211.648 368.478 212.054 368.786L212.74 367.834C212.222 367.414 211.522 367.106 210.556 367.106C209.38 367.106 208.12 367.75 208.12 369.164C208.12 370.088 208.834 370.592 209.632 370.858C210.598 371.18 211.69 371.222 211.69 371.978C211.69 372.496 211.116 372.804 210.542 372.804C209.884 372.804 209.212 372.552 208.596 372.076L207.91 373.056Z" fill="white" fill-opacity="0.5"/>
<path d="M96.5447 282.036H94.7247V288.826H96.5447V282.036ZM94.4447 279.628C94.4447 280.286 94.9767 280.79 95.6347 280.79C96.2927 280.79 96.8247 280.286 96.8247 279.628C96.8247 278.97 96.2927 278.466 95.6347 278.466C94.9767 278.466 94.4447 278.97 94.4447 279.628ZM100.469 288.826V284.416C100.721 284.066 101.351 283.576 102.121 283.576C102.541 283.576 102.905 283.716 103.143 283.954C103.395 284.206 103.549 284.556 103.549 285.228V288.826H105.369V285.368C105.369 284.206 105.117 283.52 104.669 282.988C104.109 282.316 103.255 281.896 102.317 281.896C101.561 281.896 100.917 282.162 100.399 282.582V282.036H98.6485V288.826H100.469ZM106.658 288.056C107.456 288.644 108.45 288.966 109.388 288.966C110.816 288.966 112.09 288.168 112.09 286.866C112.09 284.514 108.8 284.864 108.8 283.982C108.8 283.632 109.22 283.436 109.724 283.436C110.214 283.436 110.676 283.646 111.026 283.898L111.88 282.582C111.432 282.232 110.466 281.896 109.584 281.896C108.24 281.896 106.98 282.708 106.98 284.01C106.98 286.194 110.27 285.83 110.27 286.852C110.27 287.188 109.892 287.426 109.402 287.426C108.716 287.426 108.002 287.174 107.54 286.754L106.658 288.056ZM115.59 282.036H113.77V288.826H115.59V282.036ZM113.49 279.628C113.49 280.286 114.022 280.79 114.68 280.79C115.338 280.79 115.87 280.286 115.87 279.628C115.87 278.97 115.338 278.466 114.68 278.466C114.022 278.466 113.49 278.97 113.49 279.628ZM124.203 282.036H122.453V282.582C121.921 282.148 121.235 281.896 120.465 281.896C118.617 281.896 117.133 283.436 117.133 285.438C117.133 286.362 117.455 287.202 117.987 287.818C118.589 288.518 119.555 288.966 120.563 288.966C121.249 288.966 121.837 288.77 122.383 288.35V288.574C122.383 289.442 122.243 289.862 121.963 290.17C121.655 290.534 121.165 290.716 120.577 290.716C119.457 290.716 118.827 290.128 118.463 289.736L117.315 290.926C117.987 291.71 119.247 292.326 120.577 292.326C121.879 292.326 122.971 291.822 123.587 290.968C123.993 290.394 124.203 289.666 124.203 288.448V282.036ZM122.383 286.446C122.033 286.95 121.431 287.286 120.745 287.286C119.723 287.286 118.953 286.502 118.953 285.438C118.953 284.458 119.639 283.576 120.703 283.576C121.403 283.576 122.005 283.912 122.383 284.416V286.446ZM128.127 284.416C128.379 284.066 129.009 283.576 129.779 283.576C130.199 283.576 130.563 283.716 130.801 283.954C131.053 284.206 131.207 284.556 131.207 285.228V288.826H133.027V285.368C133.027 284.206 132.775 283.52 132.327 282.988C131.767 282.316 130.913 281.896 129.975 281.896C129.275 281.896 128.631 282.134 128.127 282.526V278.886H126.307V288.826H128.127V284.416ZM139.682 287.286C139.556 287.314 139.206 287.356 138.94 287.356C138.492 287.356 138.198 287.23 138.016 287.02C137.862 286.838 137.792 286.586 137.792 286.166V283.576H140.032V282.036H137.792V280.146H135.972V282.036H134.082V283.576H135.972V285.956C135.972 286.922 136.126 287.524 136.476 287.986C136.938 288.602 137.736 288.966 138.828 288.966C139.178 288.966 139.724 288.91 139.962 288.826L139.682 287.286ZM141.111 288.056C141.909 288.644 142.903 288.966 143.841 288.966C145.269 288.966 146.543 288.168 146.543 286.866C146.543 284.514 143.253 284.864 143.253 283.982C143.253 283.632 143.673 283.436 144.177 283.436C144.667 283.436 145.129 283.646 145.479 283.898L146.333 282.582C145.885 282.232 144.919 281.896 144.037 281.896C142.693 281.896 141.433 282.708 141.433 284.01C141.433 286.194 144.723 285.83 144.723 286.852C144.723 287.188 144.345 287.426 143.855 287.426C143.169 287.426 142.455 287.174 141.993 286.754L141.111 288.056ZM151.576 284.136V285.676H154.026V288.126H155.566V285.676H158.016V284.136H155.566V281.686H154.026V284.136H151.576ZM165.287 288.826V284.416C165.539 284.094 166.099 283.576 166.869 283.576C167.219 283.576 167.611 283.688 167.891 283.996C168.101 284.234 168.227 284.542 168.227 285.158V288.826H170.047V285.228C170.047 284.948 170.019 284.696 169.991 284.472C170.229 284.122 170.845 283.576 171.629 283.576C171.979 283.576 172.371 283.688 172.651 283.996C172.861 284.234 172.987 284.542 172.987 285.158V288.826H174.807V285.228C174.807 284.22 174.555 283.52 174.121 282.988C173.575 282.316 172.679 281.896 171.741 281.896C170.733 281.896 169.879 282.386 169.333 282.96C168.801 282.316 167.975 281.896 167.051 281.896C166.393 281.896 165.749 282.106 165.217 282.582V282.036H163.467V288.826H165.287ZM176.21 285.438C176.21 287.398 177.764 288.966 179.822 288.966C181.88 288.966 183.434 287.398 183.434 285.438C183.434 283.478 181.88 281.896 179.822 281.896C177.764 281.896 176.21 283.478 176.21 285.438ZM178.03 285.438C178.03 284.416 178.758 283.576 179.822 283.576C180.886 283.576 181.614 284.416 181.614 285.438C181.614 286.46 180.886 287.286 179.822 287.286C178.758 287.286 178.03 286.46 178.03 285.438ZM189.666 287.286C189.54 287.314 189.19 287.356 188.924 287.356C188.476 287.356 188.182 287.23 188 287.02C187.846 286.838 187.776 286.586 187.776 286.166V283.576H190.016V282.036H187.776V280.146H185.956V282.036H184.066V283.576H185.956V285.956C185.956 286.922 186.11 287.524 186.46 287.986C186.922 288.602 187.72 288.966 188.812 288.966C189.162 288.966 189.708 288.91 189.946 288.826L189.666 287.286ZM193.588 282.036H191.768V288.826H193.588V282.036ZM191.488 279.628C191.488 280.286 192.02 280.79 192.678 280.79C193.336 280.79 193.868 280.286 193.868 279.628C193.868 278.97 193.336 278.466 192.678 278.466C192.02 278.466 191.488 278.97 191.488 279.628ZM196.672 282.036H194.782L197.904 288.826H199.164L202.286 282.036H200.396L198.534 286.18L196.672 282.036ZM207.956 286.446C207.606 286.95 207.004 287.286 206.318 287.286C205.296 287.286 204.526 286.502 204.526 285.438C204.526 284.458 205.212 283.576 206.276 283.576C206.976 283.576 207.578 283.912 207.956 284.416V286.446ZM209.776 282.036H208.026V282.582C207.494 282.148 206.808 281.896 206.038 281.896C204.19 281.896 202.706 283.436 202.706 285.438C202.706 286.362 203.042 287.202 203.574 287.818C204.176 288.518 205.128 288.966 206.136 288.966C206.822 288.966 207.466 288.756 208.026 288.28V288.826H209.776V282.036ZM216.709 287.286C216.583 287.314 216.233 287.356 215.967 287.356C215.519 287.356 215.225 287.23 215.043 287.02C214.889 286.838 214.819 286.586 214.819 286.166V283.576H217.059V282.036H214.819V280.146H212.999V282.036H211.109V283.576H212.999V285.956C212.999 286.922 213.153 287.524 213.503 287.986C213.965 288.602 214.763 288.966 215.855 288.966C216.205 288.966 216.751 288.91 216.989 288.826L216.709 287.286ZM220.631 282.036H218.811V288.826H220.631V282.036ZM218.531 279.628C218.531 280.286 219.063 280.79 219.721 280.79C220.379 280.79 220.911 280.286 220.911 279.628C220.911 278.97 220.379 278.466 219.721 278.466C219.063 278.466 218.531 278.97 218.531 279.628ZM222.175 285.438C222.175 287.398 223.729 288.966 225.787 288.966C227.845 288.966 229.399 287.398 229.399 285.438C229.399 283.478 227.845 281.896 225.787 281.896C223.729 281.896 222.175 283.478 222.175 285.438ZM223.995 285.438C223.995 284.416 224.723 283.576 225.787 283.576C226.851 283.576 227.579 284.416 227.579 285.438C227.579 286.46 226.851 287.286 225.787 287.286C224.723 287.286 223.995 286.46 223.995 285.438ZM232.758 288.826V284.416C233.01 284.066 233.64 283.576 234.41 283.576C234.83 283.576 235.194 283.716 235.432 283.954C235.684 284.206 235.838 284.556 235.838 285.228V288.826H237.658V285.368C237.658 284.206 237.406 283.52 236.958 282.988C236.398 282.316 235.544 281.896 234.606 281.896C233.85 281.896 233.206 282.162 232.688 282.582V282.036H230.938V288.826H232.758ZM238.947 288.056C239.745 288.644 240.739 288.966 241.677 288.966C243.105 288.966 244.379 288.168 244.379 286.866C244.379 284.514 241.089 284.864 241.089 283.982C241.089 283.632 241.509 283.436 242.013 283.436C242.503 283.436 242.965 283.646 243.315 283.898L244.169 282.582C243.721 282.232 242.755 281.896 241.873 281.896C240.529 281.896 239.269 282.708 239.269 284.01C239.269 286.194 242.559 285.83 242.559 286.852C242.559 287.188 242.181 287.426 241.691 287.426C241.005 287.426 240.291 287.174 239.829 286.754L238.947 288.056ZM51.965 352.836C53.225 352.836 53.981 352.528 54.513 351.968C55.003 351.464 55.283 350.708 55.283 349.938C55.283 349.168 55.003 348.412 54.513 347.908C53.967 347.334 53.225 347.026 51.965 347.026H48.283V356.826H50.173V352.836H51.965ZM50.173 351.156V348.706H51.881C52.525 348.706 52.847 348.86 53.071 349.098C53.281 349.322 53.393 349.616 53.393 349.938C53.393 350.26 53.281 350.54 53.071 350.764C52.847 351.002 52.525 351.156 51.881 351.156H50.173ZM61.2275 350.036V354.446C60.9755 354.768 60.4155 355.286 59.6455 355.286C59.2955 355.286 58.9035 355.174 58.6235 354.866C58.4135 354.628 58.2875 354.32 58.2875 353.704V350.036H56.4675V353.634C56.4675 354.642 56.7195 355.342 57.1535 355.874C57.6855 356.532 58.5255 356.966 59.4635 356.966C60.1215 356.966 60.7655 356.756 61.2975 356.28V356.826H63.0475V350.036H61.2275ZM69.4924 349.952C69.2964 349.924 69.1424 349.896 68.8764 349.896C68.0504 349.896 67.3084 350.218 66.9024 350.722V350.036H65.1524V356.826H66.9724V352.556C67.1964 352.15 67.8264 351.576 68.6244 351.576C68.8904 351.576 69.1564 351.604 69.2824 351.646L69.4924 349.952ZM70.8946 360.186H72.7146V356.35C73.2606 356.77 73.8486 356.966 74.5346 356.966C75.5426 356.966 76.5086 356.518 77.1106 355.818C77.6426 355.202 77.9646 354.362 77.9646 353.438C77.9646 351.436 76.4806 349.896 74.6326 349.896C73.8626 349.896 73.1766 350.148 72.6446 350.582V350.036H70.8946V360.186ZM72.7146 352.416C73.0926 351.912 73.6946 351.576 74.3946 351.576C75.4586 351.576 76.1446 352.458 76.1446 353.438C76.1446 354.502 75.3746 355.286 74.3526 355.286C73.6666 355.286 73.0646 354.95 72.7146 354.446V352.416ZM78.9479 353.438C78.9479 355.398 80.5019 356.966 82.5599 356.966C84.6179 356.966 86.1719 355.398 86.1719 353.438C86.1719 351.478 84.6179 349.896 82.5599 349.896C80.5019 349.896 78.9479 351.478 78.9479 353.438ZM80.7679 353.438C80.7679 352.416 81.4959 351.576 82.5599 351.576C83.6239 351.576 84.3519 352.416 84.3519 353.438C84.3519 354.46 83.6239 355.286 82.5599 355.286C81.4959 355.286 80.7679 354.46 80.7679 353.438ZM87.039 356.056C87.837 356.644 88.831 356.966 89.769 356.966C91.197 356.966 92.471 356.168 92.471 354.866C92.471 352.514 89.181 352.864 89.181 351.982C89.181 351.632 89.601 351.436 90.105 351.436C90.595 351.436 91.057 351.646 91.407 351.898L92.261 350.582C91.813 350.232 90.847 349.896 89.965 349.896C88.621 349.896 87.361 350.708 87.361 352.01C87.361 354.194 90.651 353.83 90.651 354.852C90.651 355.188 90.273 355.426 89.783 355.426C89.097 355.426 88.383 355.174 87.921 354.754L87.039 356.056ZM98.8965 354.712C98.5745 355.062 97.9585 355.496 97.1885 355.496C96.2225 355.496 95.4525 354.838 95.3545 353.886H100.058C100.086 353.732 100.1 353.55 100.1 353.368C100.1 351.478 98.7705 349.896 96.8945 349.896C94.8785 349.896 93.5905 351.548 93.5905 353.438C93.5905 355.566 95.1165 356.966 97.1465 356.966C98.1965 356.966 99.2745 356.532 99.9325 355.748L98.8965 354.712ZM95.4385 352.556C95.5225 351.94 96.1385 351.366 96.8945 351.366C97.6365 351.366 98.1825 351.954 98.2385 352.556H95.4385ZM102.133 351.1C102.133 351.786 102.665 352.29 103.351 352.29C104.037 352.29 104.583 351.786 104.583 351.1C104.583 350.414 104.037 349.896 103.351 349.896C102.665 349.896 102.133 350.414 102.133 351.1ZM102.133 355.776C102.133 356.462 102.665 356.966 103.351 356.966C104.037 356.966 104.583 356.462 104.583 355.776C104.583 355.09 104.037 354.572 103.351 354.572C102.665 354.572 102.133 355.09 102.133 355.776Z" fill="white" fill-opacity="0.8"/>
<path d="M112.203 77.7188C112.203 77.7188 84.4176 80.9586 74.5019 88.5497C64.5863 96.1408 66.5113 107.771 98.8153 101.662C131.119 95.5524 112.203 77.7188 112.203 77.7188Z" fill="#13B2EA"/>
<path opacity="0.08" d="M112.203 77.7188C112.203 77.7188 84.4176 80.9586 74.5019 88.5497C64.5863 96.1408 66.5113 107.771 98.8153 101.662C131.119 95.5524 112.203 77.7188 112.203 77.7188Z" fill="black"/>
<path d="M101.206 58.6507C102.176 58.5323 103.117 58.2447 103.988 57.8008C105.441 57.0744 108.564 56.348 108.499 59.3989C108.456 61.3385 105.441 59.043 105.237 61.6508C105.034 64.2587 105.405 67.5566 100.022 66.7358C95.1111 65.9513 96.4768 59.2537 101.206 58.6507Z" fill="#F4A28C"/>
<path d="M187.722 74.9365C208.279 74.9365 224.944 60.7012 224.944 43.141C224.944 25.5809 208.279 11.3456 187.722 11.3456C167.165 11.3456 150.5 25.5809 150.5 43.141C150.5 60.7012 167.165 74.9365 187.722 74.9365Z" fill="#A5A5A5"/>
<path d="M116.264 185.956C116.264 185.956 115.225 189.022 112.479 189.298C109.733 189.574 109.05 192.283 111.542 192.93C114.034 193.576 120.353 190.293 120.353 190.293L120.085 185.934L116.264 185.956Z" fill="#13B2EA"/>
<path d="M145.146 182.535C145.146 182.535 145.953 185.673 143.803 187.409C141.652 189.145 142.575 191.768 145.016 190.968C147.456 190.169 150.951 183.937 150.951 183.937L148.568 180.755L145.146 182.535Z" fill="#13B2EA"/>
<path d="M121.523 56.6888C121.523 56.6888 124.167 61.3307 124.828 64.9264C124.891 65.2747 124.884 65.6319 124.809 65.9776C124.733 66.3233 124.59 66.6506 124.387 66.9409C124.185 67.2311 123.927 67.4785 123.629 67.6688C123.331 67.8592 122.998 67.9887 122.649 68.0501C120.84 68.3551 118.29 68.2462 116.576 65.9289L113.184 62.3549C112.579 61.5666 112.234 60.6106 112.195 59.6182C112.156 58.6258 112.425 57.6456 112.966 56.8123C114.804 53.5652 120.056 53.7759 121.523 56.6888Z" fill="#F4A28C"/>
<path d="M114.427 63.14L114.499 80.654L124.146 79.9204L120.318 67.7891L114.427 63.14Z" fill="#F4A28C"/>
<path d="M123.042 59.7041L125.221 60.9535C125.35 61.0229 125.459 61.1243 125.537 61.248C125.615 61.3716 125.66 61.5134 125.667 61.6595C125.675 61.8056 125.644 61.9511 125.579 62.082C125.513 62.2128 125.415 62.3246 125.294 62.4064L123.601 63.6123L123.042 59.7041Z" fill="#F4A28C"/>
<path opacity="0.31" d="M120.427 68.1301C119.245 68.0128 118.118 67.5758 117.165 66.8661C117.165 66.8661 116.831 70.6871 121.524 71.6024L120.427 68.1301Z" fill="#CE8172"/>
<path d="M189.081 23.2957C192.96 23.5209 196.004 24.7486 198.212 26.9278C199.254 27.9379 200.061 29.1653 200.574 30.5226C201.088 31.8798 201.296 33.3336 201.183 34.7805C201.165 36.6485 200.665 38.4802 199.73 40.0979C198.815 41.4926 198.35 42.3498 196.941 43.3086C195.883 44.083 194.749 44.7475 193.556 45.2918C192.757 45.7058 192.219 45.9383 192.008 46.0836C189.829 47.2531 188.602 48.3718 188.485 50.3913C188.413 51.6843 187.977 52.0257 186.735 51.9531L184.664 51.8296C183.422 51.7569 183.03 51.3719 183.103 50.0789C183.364 45.6768 185.282 43.6646 188.572 41.725C188.522 41.725 190.672 40.5555 190.752 40.5047C191.423 40.1142 192.057 39.6644 192.648 39.1608C193.219 38.6056 193.708 37.9721 194.101 37.2793C194.443 36.4452 194.654 35.563 194.725 34.6642C194.907 31.5116 192.699 29.2524 188.565 29.0127C184.577 28.7802 182.369 30.2549 180.727 33.4293C180.081 34.6933 179.659 34.8822 178.439 34.3882L176.005 33.3639C174.836 32.9353 174.553 32.1363 175.047 31.0757C177.633 25.4968 182.311 22.9035 189.081 23.2957ZM185.79 54.7135C188.275 54.8588 189.052 55.7377 188.907 58.2148V58.687C188.761 61.2149 187.89 61.9486 185.405 61.8033H184.991C182.507 61.6581 181.73 60.8372 181.875 58.302V57.8371C182.02 55.3527 182.892 54.5754 185.376 54.7207L185.79 54.7135Z" fill="white"/>
<path d="M120.347 77.0507H130.016C130.016 77.0507 160.983 79.7166 161.477 95.0296C161.971 110.343 141.943 140.932 141.943 140.932H108.572C108.572 140.932 70.1802 77.0507 120.347 77.0507Z" fill="#13B2EA"/>
<path opacity="0.08" d="M139.837 91.2668C139.837 91.2668 132.849 101.233 135.769 108.992C138.689 116.75 139.989 129.179 117.485 117.142L114.216 106.711L105.426 103.689L101.889 118.079L107.947 120.135C109.34 120.586 110.5 121.565 111.18 122.862C111.859 124.159 112.002 125.671 111.579 127.072C110.773 129.542 108.782 131.983 104.119 132.455L108.601 140.903H141.973L146.397 133.704L158.557 106.994L139.837 91.2668Z" fill="black"/>
<path d="M114.441 66.6409C114.441 66.6409 112.204 62.5439 109.53 60.7351C106.857 58.9263 109.044 53.1077 113.744 52.0689C117.259 51.2844 119.272 50.1294 119.301 48.1462C119.314 47.9358 119.384 47.7329 119.503 47.5589C119.622 47.3849 119.785 47.2463 119.977 47.1577C120.168 47.0691 120.38 47.0339 120.589 47.0557C120.799 47.0776 120.999 47.1557 121.168 47.2818C122.78 48.4949 124.429 50.478 123.63 53.2239C123.317 54.2199 122.751 55.1176 121.987 55.8293C121.223 56.5411 120.287 57.0425 119.272 57.2846L116.104 58.1273C116.104 58.1273 120.347 63.8442 114.441 66.6409Z" fill="#24285B"/>
<path d="M118.269 63.2125C118.269 63.2125 117.375 61.3601 116.039 62.1519C114.702 62.9437 115.973 65.6242 118 64.9995L118.269 63.2125Z" fill="#F4A28C"/>
<path d="M158.12 52.0037L139.749 66.2706L162.929 61.3382L158.12 52.0037Z" fill="#A5A5A5"/>
<path d="M139.997 95.8944C137.44 86.5526 148.648 79.6008 155.978 85.9787C159.472 89.0297 162.45 92.9524 163.351 97.8267C165.945 111.832 174.248 124.021 161.535 132.317C148.823 140.613 118.734 122.205 118.734 122.205L122.875 114.687C122.875 114.687 137.934 120.651 147.275 120.128C153.719 119.772 143.607 109.086 139.997 95.8944Z" fill="#13B2EA"/>
<path d="M120.755 104.306L111.676 102.138L108.178 116.785L117.258 118.953L120.755 104.306Z" fill="white"/>
<path opacity="0.3" d="M139.997 95.8944C137.44 86.5526 148.648 79.6008 155.978 85.9787C159.472 89.0297 162.45 92.9524 163.351 97.8267C165.945 111.832 174.248 124.021 161.535 132.317C148.823 140.613 118.734 122.205 118.734 122.205L122.875 114.687C122.875 114.687 137.934 120.651 147.275 120.128C153.719 119.772 143.607 109.086 139.997 95.8944Z" fill="white"/>
<path d="M122.323 115.631C121.982 114.201 121.304 112.874 120.347 111.759C118.72 109.812 118.168 108.948 115.923 108.991C113.678 109.035 113.453 117.28 119.65 120.483L122.323 115.631Z" fill="#F4A28C"/>
<path d="M141.943 140.932C141.943 140.932 135.26 168.682 148.641 180.348L143.926 184.758C143.926 184.758 126.579 174.689 124.16 147.027L141.943 140.932Z" fill="#24285B"/>
<path d="M97.2323 61.7891L100.022 66.7215L79.6238 98.8656C76.4712 103.827 68.6185 101.771 68.5459 95.8946C68.5459 93.185 69.3668 89.9234 71.7857 86.0733C80.5464 72.0825 97.2323 61.7891 97.2323 61.7891Z" fill="#13B2EA"/>
<path d="M95.1536 52.331L94.9609 53.771L102.528 54.7834L102.721 53.3434L95.1536 52.331Z" fill="#C673D3"/>
<path d="M101.016 43.1493L99.8984 44.0779L104.778 49.9495L105.896 49.0208L101.016 43.1493Z" fill="#C673D3"/>
<path d="M110.578 40.785L109.873 48.3871L111.32 48.5213L112.025 40.9192L110.578 40.785Z" fill="#C673D3"/>
<path d="M108.571 140.932C108.571 140.932 101.714 166.837 115.232 185.934L120.695 185.673C120.695 185.673 112.777 159.834 124.538 150.383L141.972 140.94L108.571 140.932Z" fill="#24285B"/>
</g>
<defs>
<clipPath id="clip0_958_1204">
<rect width="271" height="385" fill="white"/>
</clipPath>
</defs>
</svg>
