<svg width="226" height="40" viewBox="0 0 226 45" fill="none" xmlns="http://www.w3.org/2000/svg">
<path d="M176.451 34.2443L171.703 28.3558L167.008 34.19L165.271 32.6704L170.292 26.8362L165.461 21.2461L167.361 19.5908L171.73 25.2351L176.017 19.6994L177.835 21.2461L173.141 26.7276L178.297 32.6704L176.451 34.2443Z" fill="white"/>
<path d="M218.251 2.96084C218.251 4.59612 216.975 5.92174 215.4 5.92174C213.825 5.92174 212.549 4.59612 212.549 2.96084C212.548 1.32556 213.824 -6.10352e-05 215.399 -6.10352e-05C216.975 -6.10352e-05 218.251 1.32556 218.251 2.96084Z" fill="white"/>
<path d="M201.921 22.8589H199.348V13.5786H209.035C209.035 13.5786 211.173 14.0161 211.958 15.701V7.97357H192.974V27.6654L201.921 22.8589Z" fill="white"/>
<path d="M215.521 23.7333L206.887 28.373H209.838C212.923 28.491 212.867 31.8894 212.867 31.8894C213.046 35.5912 209.125 35.9621 209.125 35.9621H199.348V31.5202L205.092 28.3739H205.212L216.577 22.2666L216.593 22.2968C218.577 20.7618 218.637 19.0484 218.637 14.7299C218.637 10.36 214.414 8.65816 212.727 8.1524V17.9517L192.983 28.5602L192.974 28.5407V28.704V41.804H209.637C209.637 41.804 218.793 41.8697 219.93 32.9852C220.791 26.2515 217.274 24.2897 215.521 23.7333Z" fill="white"/>
<g clip-path="url(#clip0_859_542)">
<path d="M16.7257 5H0V45L16.7257 5Z" fill="white"/>
<path d="M28.4937 5H45.1975V45L28.4937 5Z" fill="white"/>
<path d="M22.6102 19.7426L33.2558 45H26.2713L23.0896 36.9586H15.2988L22.6102 19.7426Z" fill="white"/>
<path d="M72.4841 30.4374L74.4563 36.0925C74.5217 36.2342 74.6197 36.2996 74.7941 36.2996H78.586C78.793 36.2996 78.8257 36.2015 78.793 35.9945L70.9586 14.2347C70.9259 14.0604 70.8932 14.0277 70.7189 14.0277H66.0117C65.881 14.0277 65.8047 14.1258 65.8047 14.2674C65.7393 15.4115 65.6413 15.7602 65.4996 16.098L58.5151 35.9618C58.4824 36.2015 58.5587 36.2996 58.7549 36.2996H62.1436C62.3506 36.2996 62.4487 36.2342 62.5249 36.0271L64.3882 30.4374H72.4841ZM65.4669 26.7436C66.4912 23.6491 67.8423 19.6828 68.3871 17.4164H68.4198C69.0954 19.7918 70.6862 24.499 71.4054 26.7436H65.4669Z" fill="white"/>
<path d="M88.8658 36.6374C90.9034 36.6374 93.0717 36.2669 95.2727 35.3189C95.4471 35.2535 95.4798 35.1773 95.4798 35.0138C95.4144 34.4036 95.3381 33.5211 95.3381 32.8455V12.3606C95.3381 12.2299 95.3381 12.1645 95.1747 12.1645H91.4809C91.3392 12.1645 91.2738 12.2299 91.2738 12.4042V19.3451C90.6963 19.2797 90.2932 19.247 89.8137 19.247C83.8535 19.247 80.1924 23.1806 80.1924 28.0947C80.1924 33.7935 83.9516 36.6374 88.8658 36.6374ZM91.2738 32.8455C90.6636 33.0416 89.9881 33.1179 89.3016 33.1179C86.5994 33.1179 84.3874 31.5924 84.3874 27.8877C84.3874 24.608 86.6647 22.6684 89.683 22.6684C90.2932 22.6684 90.8271 22.7338 91.2738 22.9081V32.8455Z" fill="white"/>
<path d="M107.263 19.247C102.175 19.247 99.0259 23.1478 99.0259 27.964C99.0259 32.268 101.532 36.6374 107.187 36.6374C111.971 36.6374 115.327 33.1179 115.327 27.855C115.327 23.2132 112.483 19.247 107.263 19.247ZM107.056 22.6684C109.933 22.6684 111.153 25.1419 111.153 27.964C111.153 31.4508 109.355 33.1833 107.263 33.1833C104.681 33.1833 103.156 31.0149 103.156 27.8877C103.156 24.6733 104.779 22.6684 107.056 22.6684Z" fill="white"/>
<path d="M119.146 12.1645C119.004 12.1645 118.906 12.2299 118.906 12.4042V35.5913C118.906 35.6894 119.004 35.8637 119.146 35.8964C120.77 36.3976 122.469 36.6374 124.224 36.6374C129.247 36.6374 134.128 33.5211 134.128 27.2448C134.128 22.7011 131.012 19.247 126.13 19.247C125.008 19.247 123.962 19.4214 123.047 19.7265L123.003 12.4369C123.003 12.1972 122.938 12.1645 122.698 12.1645H119.146ZM129.955 27.6589C129.955 31.4181 127.383 33.1833 124.605 33.1833C124.027 33.1833 123.515 33.1506 123.047 33.0089V23.1152C123.581 22.9081 124.224 22.7338 125.411 22.7338C128.092 22.7338 129.955 24.4336 129.955 27.6589Z" fill="white"/>
<path d="M147.913 28.8793C149.569 28.8793 150.931 28.8466 151.399 28.7376C151.574 28.7049 151.639 28.6395 151.672 28.4979C151.77 28.1274 151.813 27.3538 151.813 26.4058C151.813 23.1805 149.874 19.247 144.862 19.247C139.74 19.247 136.896 23.4203 136.896 28.1274C136.896 32.3007 139.098 36.6374 145.265 36.6374C147.575 36.6374 149.068 36.2669 150.353 35.6567C150.484 35.5913 150.549 35.4824 150.549 35.2862V32.4641C150.549 32.3007 150.451 32.268 150.353 32.3334C149.068 32.8782 147.673 33.1506 146.147 33.1506C142.693 33.1506 141.124 31.2437 141.026 28.8793H147.913ZM141.026 25.9591C141.299 24.3028 142.345 22.505 144.687 22.505C147.27 22.505 147.945 24.6733 147.945 25.654C147.945 25.6867 147.945 25.8283 147.945 25.9264C147.804 25.9591 147.368 25.9591 146.082 25.9591H141.026Z" fill="white"/>
</g>
<defs>
<clipPath id="clip0_859_542">
<rect width="151.813" height="40" fill="white" transform="translate(0 5)"/>
</clipPath>
</defs>
</svg>
