<svg width="1235" height="887" viewBox="0 0 1235 887" fill="none" xmlns="http://www.w3.org/2000/svg">
<g clip-path="url(#clip0_843_205)">
<path fill-rule="evenodd" clip-rule="evenodd" d="M872.171 14.3504C973.023 42.357 923.073 134.268 998.321 204.453C1122.28 306.716 1136.39 279.303 1212.83 404.291C1284.52 501.387 1124.44 786.106 1009.37 855.54C893.853 925.246 733.911 823.512 591.896 826.962C494.063 829.338 379.433 894.166 282.389 873.811C176.219 851.542 84.9244 879.201 26.64 792.435C-30.654 707.144 47.165 570.924 41.4515 473.499C35.2734 368.153 9.31438 246.047 96.1979 183.238C190.508 115.06 238.161 119.981 358.79 100.976C462.812 84.5874 768.002 -14.5775 872.171 14.3504Z" fill="white"/>
<path d="M300.917 518.659C292.753 518.659 285.663 516.833 279.647 513.18C273.702 509.527 269.155 504.657 266.003 498.57C262.852 492.411 261.277 485.643 261.277 478.266C261.277 470.46 262.96 463.477 266.326 457.318C269.763 451.158 274.562 446.36 280.721 442.922C286.88 439.413 293.863 437.658 301.669 437.658C305.179 437.658 308.437 438.052 311.445 438.84C314.525 439.556 317.067 440.416 319.073 441.418C321.078 442.349 322.403 443.137 323.048 443.782L317.784 454.524C313.415 450.657 307.721 448.723 300.703 448.723C295.761 448.723 291.285 449.941 287.274 452.376C283.263 454.811 280.112 458.284 277.82 462.796C275.529 467.308 274.383 472.537 274.383 478.481C274.383 483.924 275.385 488.866 277.391 493.306C279.468 497.746 282.476 501.256 286.415 503.834C290.354 506.412 295.045 507.701 300.488 507.701C306.79 507.701 312.878 505.911 318.75 502.33L322.296 512.535C320.72 513.968 317.819 515.364 313.594 516.725C309.44 518.014 305.215 518.659 300.917 518.659ZM357.039 518.981C351.954 518.981 347.442 517.835 343.503 515.543C339.564 513.252 336.521 510.136 334.372 506.197C332.223 502.258 331.149 497.889 331.149 493.091C331.149 488.364 332.188 484.031 334.265 480.092C336.413 476.153 339.457 473.038 343.396 470.746C347.335 468.454 351.883 467.308 357.039 467.308C362.196 467.308 366.708 468.454 370.575 470.746C374.514 473.038 377.522 476.153 379.599 480.092C381.748 484.031 382.822 488.364 382.822 493.091C382.822 497.889 381.748 502.258 379.599 506.197C377.45 510.136 374.407 513.252 370.468 515.543C366.6 517.835 362.124 518.981 357.039 518.981ZM357.361 509.527C361.515 509.527 364.774 507.988 367.137 504.908C369.572 501.829 370.79 497.961 370.79 493.306C370.79 488.651 369.501 484.747 366.923 481.596C364.344 478.373 360.942 476.762 356.717 476.762C352.635 476.762 349.34 478.338 346.834 481.489C344.399 484.64 343.181 488.579 343.181 493.306C343.181 497.889 344.506 501.757 347.156 504.908C349.806 507.988 353.208 509.527 357.361 509.527ZM395.212 468.598H406.814V477.514C408.39 474.148 410.682 471.606 413.69 469.887C416.769 468.168 420.279 467.308 424.218 467.308C433.027 467.38 438.434 470.424 440.439 476.44C442.015 473.647 444.378 471.426 447.529 469.779C450.681 468.132 454.011 467.308 457.52 467.308C462.677 467.308 466.58 468.311 469.23 470.316C471.88 472.25 473.634 475.043 474.494 478.696C475.425 482.277 475.89 487.111 475.89 493.198V517.907H464.181V493.091C464.181 487.29 463.572 483.136 462.354 480.629C461.209 478.123 458.953 476.869 455.587 476.869C451.075 476.869 447.637 478.409 445.273 481.489C442.982 484.497 441.836 488.472 441.836 493.413V517.907H430.234V491.372C430.234 487.576 430.09 484.747 429.804 482.885C429.517 481.023 428.73 479.555 427.44 478.481C426.151 477.407 424.074 476.869 421.21 476.869C418.703 476.869 416.34 477.621 414.119 479.125C411.971 480.629 410.216 482.671 408.855 485.249C407.566 487.755 406.922 490.477 406.922 493.413V517.907H395.212V468.598ZM491.54 468.598H503.571V517.907H491.54V468.598ZM497.448 459.359C495.228 459.359 493.366 458.607 491.862 457.103C490.358 455.599 489.606 453.737 489.606 451.517C489.606 449.511 490.358 447.792 491.862 446.36C493.366 444.928 495.228 444.211 497.448 444.211C499.597 444.211 501.423 444.928 502.927 446.36C504.431 447.792 505.183 449.511 505.183 451.517C505.183 453.737 504.431 455.599 502.927 457.103C501.495 458.607 499.668 459.359 497.448 459.359ZM519.635 468.598H531.023L531.13 477.621C532.491 474.613 534.639 472.143 537.576 470.209C540.512 468.275 543.95 467.308 547.889 467.308C552.974 467.308 556.877 468.383 559.598 470.531C562.32 472.608 564.146 475.545 565.077 479.34C566.008 483.136 566.474 488.078 566.474 494.165V517.907H554.872V494.488C554.872 488.257 554.263 483.781 553.045 481.059C551.828 478.266 549.321 476.869 545.525 476.869C543.377 476.869 541.192 477.55 538.972 478.911C536.752 480.2 534.89 482.098 533.386 484.604C531.954 487.111 531.237 490.047 531.237 493.413V517.907H519.635V468.598ZM605.384 543.69C601.731 543.69 598.114 543.188 594.533 542.186C591.024 541.183 588.517 540.252 587.013 539.392L589.592 528.65C594.319 531.729 599.475 533.269 605.061 533.269C609.358 533.269 612.975 532.231 615.912 530.154C618.848 528.077 620.352 524.03 620.423 518.014V509.205C618.919 511.998 616.484 514.326 613.118 516.188C609.752 518.05 606.028 518.981 601.946 518.981C597.649 518.981 593.71 517.943 590.129 515.866C586.548 513.717 583.719 510.673 581.642 506.734C579.565 502.795 578.527 498.212 578.527 492.984C578.527 487.97 579.494 483.53 581.427 479.663C583.433 475.724 586.261 472.68 589.914 470.531C593.567 468.383 597.828 467.308 602.698 467.308C605.563 467.308 608.248 467.81 610.755 468.812C613.262 469.815 615.374 471.068 617.093 472.572C618.884 474.005 620.065 475.437 620.638 476.869L620.853 468.598H631.811V517.585C631.811 525.964 629.662 532.41 625.365 536.922C621.068 541.434 614.408 543.69 605.384 543.69ZM605.169 509.205C609.251 509.205 612.689 507.809 615.482 505.016C618.275 502.151 619.671 498.427 619.671 493.843V493.091C619.671 490.011 619.027 487.254 617.738 484.819C616.449 482.384 614.694 480.486 612.474 479.125C610.254 477.765 607.819 477.084 605.169 477.084C600.585 477.084 597.04 478.588 594.533 481.596C592.027 484.533 590.773 488.364 590.773 493.091C590.773 497.889 591.991 501.793 594.426 504.801C596.933 507.737 600.514 509.205 605.169 509.205ZM691.921 518.981C687.624 518.981 683.362 518.229 679.137 516.725C674.911 515.221 671.868 513.538 670.006 511.676L675.699 501.47C677.203 502.831 679.531 504.264 682.682 505.768C685.905 507.2 688.984 507.916 691.921 507.916C695.717 507.916 698.796 507.021 701.16 505.23C703.595 503.44 704.812 500.969 704.812 497.818C704.812 495.383 704.168 493.27 702.878 491.48C701.589 489.689 700.014 488.221 698.152 487.075C696.29 485.858 693.64 484.389 690.202 482.671C686.12 480.665 683.327 479.161 681.823 478.159C674.876 473.503 671.402 467.058 671.402 458.822C671.402 452.018 673.658 446.826 678.17 443.245C682.682 439.592 688.376 437.766 695.251 437.766C702.628 437.766 708.894 439.879 714.051 444.104L708.357 453.88C706.997 452.448 705.063 451.23 702.556 450.227C700.121 449.153 697.507 448.616 694.714 448.616C691.133 448.616 688.304 449.44 686.227 451.087C684.222 452.662 683.219 455.026 683.219 458.177C683.219 460.397 683.864 462.403 685.153 464.193C686.442 465.912 688.053 467.416 689.987 468.705C691.992 469.994 694.678 471.57 698.044 473.432C701.267 475.222 703.738 476.655 705.457 477.729C707.176 478.732 708.787 479.949 710.291 481.381C712.368 483.244 714.051 485.464 715.34 488.042C716.629 490.62 717.274 493.449 717.274 496.529C717.274 501.327 716.164 505.409 713.944 508.776C711.795 512.142 708.787 514.684 704.92 516.403C701.124 518.122 696.791 518.981 691.921 518.981ZM752.445 518.981C747.36 518.981 742.848 517.835 738.909 515.543C734.97 513.252 731.926 510.136 729.777 506.197C727.629 502.258 726.555 497.889 726.555 493.091C726.555 488.364 727.593 484.031 729.67 480.092C731.818 476.153 734.862 473.038 738.801 470.746C742.74 468.454 747.288 467.308 752.445 467.308C757.601 467.308 762.113 468.454 765.98 470.746C769.92 473.038 772.927 476.153 775.004 480.092C777.153 484.031 778.227 488.364 778.227 493.091C778.227 497.889 777.153 502.258 775.004 506.197C772.856 510.136 769.812 513.252 765.873 515.543C762.006 517.835 757.53 518.981 752.445 518.981ZM752.767 509.527C756.921 509.527 760.179 507.988 762.543 504.908C764.978 501.829 766.195 497.961 766.195 493.306C766.195 488.651 764.906 484.747 762.328 481.596C759.75 478.373 756.348 476.762 752.122 476.762C748.04 476.762 744.746 478.338 742.239 481.489C739.804 484.64 738.586 488.579 738.586 493.306C738.586 497.889 739.911 501.757 742.561 504.908C745.211 507.988 748.613 509.527 752.767 509.527ZM813.607 518.981C808.522 518.981 804.01 517.835 800.071 515.543C796.132 513.252 793.088 510.136 790.94 506.197C788.791 502.258 787.717 497.889 787.717 493.091C787.717 488.364 788.755 484.031 790.832 480.092C792.981 476.153 796.025 473.038 799.964 470.746C803.903 468.454 808.451 467.308 813.607 467.308C818.764 467.308 823.276 468.454 827.143 470.746C831.082 473.038 834.09 476.153 836.167 480.092C838.315 484.031 839.39 488.364 839.39 493.091C839.39 497.889 838.315 502.258 836.167 506.197C834.018 510.136 830.975 513.252 827.036 515.543C823.168 517.835 818.692 518.981 813.607 518.981ZM813.929 509.527C818.083 509.527 821.342 507.988 823.705 504.908C826.14 501.829 827.358 497.961 827.358 493.306C827.358 488.651 826.069 484.747 823.49 481.596C820.912 478.373 817.51 476.762 813.285 476.762C809.203 476.762 805.908 478.338 803.401 481.489C800.966 484.64 799.749 488.579 799.749 493.306C799.749 497.889 801.074 501.757 803.724 504.908C806.374 507.988 809.775 509.527 813.929 509.527ZM851.78 468.598H863.167L863.275 477.621C864.636 474.613 866.784 472.143 869.72 470.209C872.657 468.275 876.094 467.308 880.034 467.308C885.118 467.308 889.022 468.383 891.743 470.531C894.465 472.608 896.291 475.545 897.222 479.34C898.153 483.136 898.619 488.078 898.619 494.165V517.907H887.016V494.488C887.016 488.257 886.408 483.781 885.19 481.059C883.973 478.266 881.466 476.869 877.67 476.869C875.522 476.869 873.337 477.55 871.117 478.911C868.897 480.2 867.035 482.098 865.531 484.604C864.098 487.111 863.382 490.047 863.382 493.413V517.907H851.78V468.598ZM914.861 436.369H928.612L926.571 489.868H916.902L914.861 436.369ZM921.522 519.089C919.373 519.089 917.547 518.372 916.043 516.94C914.539 515.436 913.787 513.574 913.787 511.354C913.787 509.205 914.503 507.379 915.935 505.875C917.439 504.371 919.301 503.619 921.522 503.619C923.742 503.619 925.568 504.371 927 505.875C928.504 507.379 929.256 509.205 929.256 511.354C929.256 513.574 928.504 515.436 927 516.94C925.568 518.372 923.742 519.089 921.522 519.089Z" fill="#0A0E60"/>
<path d="M300.917 518.659C292.753 518.659 285.663 516.833 279.647 513.18C273.702 509.527 269.155 504.657 266.003 498.57C262.852 492.411 261.277 485.643 261.277 478.266C261.277 470.46 262.96 463.477 266.326 457.318C269.763 451.158 274.562 446.36 280.721 442.922C286.88 439.413 293.863 437.658 301.669 437.658C305.179 437.658 308.437 438.052 311.445 438.84C314.525 439.556 317.067 440.416 319.073 441.418C321.078 442.349 322.403 443.137 323.048 443.782L317.784 454.524C313.415 450.657 307.721 448.723 300.703 448.723C295.761 448.723 291.285 449.941 287.274 452.376C283.263 454.811 280.112 458.284 277.82 462.796C275.529 467.308 274.383 472.537 274.383 478.481C274.383 483.924 275.385 488.866 277.391 493.306C279.468 497.746 282.476 501.256 286.415 503.834C290.354 506.412 295.045 507.701 300.488 507.701C306.79 507.701 312.878 505.911 318.75 502.33L322.296 512.535C320.72 513.968 317.819 515.364 313.594 516.725C309.44 518.014 305.215 518.659 300.917 518.659ZM357.039 518.981C351.954 518.981 347.442 517.835 343.503 515.543C339.564 513.252 336.521 510.136 334.372 506.197C332.223 502.258 331.149 497.889 331.149 493.091C331.149 488.364 332.188 484.031 334.265 480.092C336.413 476.153 339.457 473.038 343.396 470.746C347.335 468.454 351.883 467.308 357.039 467.308C362.196 467.308 366.708 468.454 370.575 470.746C374.514 473.038 377.522 476.153 379.599 480.092C381.748 484.031 382.822 488.364 382.822 493.091C382.822 497.889 381.748 502.258 379.599 506.197C377.45 510.136 374.407 513.252 370.468 515.543C366.6 517.835 362.124 518.981 357.039 518.981ZM357.361 509.527C361.515 509.527 364.774 507.988 367.137 504.908C369.572 501.829 370.79 497.961 370.79 493.306C370.79 488.651 369.501 484.747 366.923 481.596C364.344 478.373 360.942 476.762 356.717 476.762C352.635 476.762 349.34 478.338 346.834 481.489C344.399 484.64 343.181 488.579 343.181 493.306C343.181 497.889 344.506 501.757 347.156 504.908C349.806 507.988 353.208 509.527 357.361 509.527ZM395.212 468.598H406.814V477.514C408.39 474.148 410.682 471.606 413.69 469.887C416.769 468.168 420.279 467.308 424.218 467.308C433.027 467.38 438.434 470.424 440.439 476.44C442.015 473.647 444.378 471.426 447.529 469.779C450.681 468.132 454.011 467.308 457.52 467.308C462.677 467.308 466.58 468.311 469.23 470.316C471.88 472.25 473.634 475.043 474.494 478.696C475.425 482.277 475.89 487.111 475.89 493.198V517.907H464.181V493.091C464.181 487.29 463.572 483.136 462.354 480.629C461.209 478.123 458.953 476.869 455.587 476.869C451.075 476.869 447.637 478.409 445.273 481.489C442.982 484.497 441.836 488.472 441.836 493.413V517.907H430.234V491.372C430.234 487.576 430.09 484.747 429.804 482.885C429.517 481.023 428.73 479.555 427.44 478.481C426.151 477.407 424.074 476.869 421.21 476.869C418.703 476.869 416.34 477.621 414.119 479.125C411.971 480.629 410.216 482.671 408.855 485.249C407.566 487.755 406.922 490.477 406.922 493.413V517.907H395.212V468.598ZM491.54 468.598H503.571V517.907H491.54V468.598ZM497.448 459.359C495.228 459.359 493.366 458.607 491.862 457.103C490.358 455.599 489.606 453.737 489.606 451.517C489.606 449.511 490.358 447.792 491.862 446.36C493.366 444.928 495.228 444.211 497.448 444.211C499.597 444.211 501.423 444.928 502.927 446.36C504.431 447.792 505.183 449.511 505.183 451.517C505.183 453.737 504.431 455.599 502.927 457.103C501.495 458.607 499.668 459.359 497.448 459.359ZM519.635 468.598H531.023L531.13 477.621C532.491 474.613 534.639 472.143 537.576 470.209C540.512 468.275 543.95 467.308 547.889 467.308C552.974 467.308 556.877 468.383 559.598 470.531C562.32 472.608 564.146 475.545 565.077 479.34C566.008 483.136 566.474 488.078 566.474 494.165V517.907H554.872V494.488C554.872 488.257 554.263 483.781 553.045 481.059C551.828 478.266 549.321 476.869 545.525 476.869C543.377 476.869 541.192 477.55 538.972 478.911C536.752 480.2 534.89 482.098 533.386 484.604C531.954 487.111 531.237 490.047 531.237 493.413V517.907H519.635V468.598ZM605.384 543.69C601.731 543.69 598.114 543.188 594.533 542.186C591.024 541.183 588.517 540.252 587.013 539.392L589.592 528.65C594.319 531.729 599.475 533.269 605.061 533.269C609.358 533.269 612.975 532.231 615.912 530.154C618.848 528.077 620.352 524.03 620.423 518.014V509.205C618.919 511.998 616.484 514.326 613.118 516.188C609.752 518.05 606.028 518.981 601.946 518.981C597.649 518.981 593.71 517.943 590.129 515.866C586.548 513.717 583.719 510.673 581.642 506.734C579.565 502.795 578.527 498.212 578.527 492.984C578.527 487.97 579.494 483.53 581.427 479.663C583.433 475.724 586.261 472.68 589.914 470.531C593.567 468.383 597.828 467.308 602.698 467.308C605.563 467.308 608.248 467.81 610.755 468.812C613.262 469.815 615.374 471.068 617.093 472.572C618.884 474.005 620.065 475.437 620.638 476.869L620.853 468.598H631.811V517.585C631.811 525.964 629.662 532.41 625.365 536.922C621.068 541.434 614.408 543.69 605.384 543.69ZM605.169 509.205C609.251 509.205 612.689 507.809 615.482 505.016C618.275 502.151 619.671 498.427 619.671 493.843V493.091C619.671 490.011 619.027 487.254 617.738 484.819C616.449 482.384 614.694 480.486 612.474 479.125C610.254 477.765 607.819 477.084 605.169 477.084C600.585 477.084 597.04 478.588 594.533 481.596C592.027 484.533 590.773 488.364 590.773 493.091C590.773 497.889 591.991 501.793 594.426 504.801C596.933 507.737 600.514 509.205 605.169 509.205ZM691.921 518.981C687.624 518.981 683.362 518.229 679.137 516.725C674.911 515.221 671.868 513.538 670.006 511.676L675.699 501.47C677.203 502.831 679.531 504.264 682.682 505.768C685.905 507.2 688.984 507.916 691.921 507.916C695.717 507.916 698.796 507.021 701.16 505.23C703.595 503.44 704.812 500.969 704.812 497.818C704.812 495.383 704.168 493.27 702.878 491.48C701.589 489.689 700.014 488.221 698.152 487.075C696.29 485.858 693.64 484.389 690.202 482.671C686.12 480.665 683.327 479.161 681.823 478.159C674.876 473.503 671.402 467.058 671.402 458.822C671.402 452.018 673.658 446.826 678.17 443.245C682.682 439.592 688.376 437.766 695.251 437.766C702.628 437.766 708.894 439.879 714.051 444.104L708.357 453.88C706.997 452.448 705.063 451.23 702.556 450.227C700.121 449.153 697.507 448.616 694.714 448.616C691.133 448.616 688.304 449.44 686.227 451.087C684.222 452.662 683.219 455.026 683.219 458.177C683.219 460.397 683.864 462.403 685.153 464.193C686.442 465.912 688.053 467.416 689.987 468.705C691.992 469.994 694.678 471.57 698.044 473.432C701.267 475.222 703.738 476.655 705.457 477.729C707.176 478.732 708.787 479.949 710.291 481.381C712.368 483.244 714.051 485.464 715.34 488.042C716.629 490.62 717.274 493.449 717.274 496.529C717.274 501.327 716.164 505.409 713.944 508.776C711.795 512.142 708.787 514.684 704.92 516.403C701.124 518.122 696.791 518.981 691.921 518.981ZM752.445 518.981C747.36 518.981 742.848 517.835 738.909 515.543C734.97 513.252 731.926 510.136 729.777 506.197C727.629 502.258 726.555 497.889 726.555 493.091C726.555 488.364 727.593 484.031 729.67 480.092C731.818 476.153 734.862 473.038 738.801 470.746C742.74 468.454 747.288 467.308 752.445 467.308C757.601 467.308 762.113 468.454 765.98 470.746C769.92 473.038 772.927 476.153 775.004 480.092C777.153 484.031 778.227 488.364 778.227 493.091C778.227 497.889 777.153 502.258 775.004 506.197C772.856 510.136 769.812 513.252 765.873 515.543C762.006 517.835 757.53 518.981 752.445 518.981ZM752.767 509.527C756.921 509.527 760.179 507.988 762.543 504.908C764.978 501.829 766.195 497.961 766.195 493.306C766.195 488.651 764.906 484.747 762.328 481.596C759.75 478.373 756.348 476.762 752.122 476.762C748.04 476.762 744.746 478.338 742.239 481.489C739.804 484.64 738.586 488.579 738.586 493.306C738.586 497.889 739.911 501.757 742.561 504.908C745.211 507.988 748.613 509.527 752.767 509.527ZM813.607 518.981C808.522 518.981 804.01 517.835 800.071 515.543C796.132 513.252 793.088 510.136 790.94 506.197C788.791 502.258 787.717 497.889 787.717 493.091C787.717 488.364 788.755 484.031 790.832 480.092C792.981 476.153 796.025 473.038 799.964 470.746C803.903 468.454 808.451 467.308 813.607 467.308C818.764 467.308 823.276 468.454 827.143 470.746C831.082 473.038 834.09 476.153 836.167 480.092C838.315 484.031 839.39 488.364 839.39 493.091C839.39 497.889 838.315 502.258 836.167 506.197C834.018 510.136 830.975 513.252 827.036 515.543C823.168 517.835 818.692 518.981 813.607 518.981ZM813.929 509.527C818.083 509.527 821.342 507.988 823.705 504.908C826.14 501.829 827.358 497.961 827.358 493.306C827.358 488.651 826.069 484.747 823.49 481.596C820.912 478.373 817.51 476.762 813.285 476.762C809.203 476.762 805.908 478.338 803.401 481.489C800.966 484.64 799.749 488.579 799.749 493.306C799.749 497.889 801.074 501.757 803.724 504.908C806.374 507.988 809.775 509.527 813.929 509.527ZM851.78 468.598H863.167L863.275 477.621C864.636 474.613 866.784 472.143 869.72 470.209C872.657 468.275 876.094 467.308 880.034 467.308C885.118 467.308 889.022 468.383 891.743 470.531C894.465 472.608 896.291 475.545 897.222 479.34C898.153 483.136 898.619 488.078 898.619 494.165V517.907H887.016V494.488C887.016 488.257 886.408 483.781 885.19 481.059C883.973 478.266 881.466 476.869 877.67 476.869C875.522 476.869 873.337 477.55 871.117 478.911C868.897 480.2 867.035 482.098 865.531 484.604C864.098 487.111 863.382 490.047 863.382 493.413V517.907H851.78V468.598ZM914.861 436.369H928.612L926.571 489.868H916.902L914.861 436.369ZM921.522 519.089C919.373 519.089 917.547 518.372 916.043 516.94C914.539 515.436 913.787 513.574 913.787 511.354C913.787 509.205 914.503 507.379 915.935 505.875C917.439 504.371 919.301 503.619 921.522 503.619C923.742 503.619 925.568 504.371 927 505.875C928.504 507.379 929.256 509.205 929.256 511.354C929.256 513.574 928.504 515.436 927 516.94C925.568 518.372 923.742 519.089 921.522 519.089Z" fill="black" fill-opacity="0.2"/>
<path d="M348.66 352.294L349.983 369.02C350.336 373.488 354.111 376.905 358.592 376.813L385.295 376.265L358.634 377.864C354.161 378.133 350.672 381.842 350.679 386.324L350.705 403.102L349.382 386.376C349.029 381.908 345.254 378.491 340.773 378.583L314.07 379.131L340.731 377.532C345.204 377.263 348.693 373.554 348.686 369.072L348.66 352.294Z" fill="#0A0E60"/>
<path d="M207.86 450.26L209.679 468.748C210.114 473.162 213.914 476.472 218.345 476.297L247.797 475.131L218.414 477.447C213.992 477.795 210.609 481.53 210.698 485.965L211.072 504.539L209.253 486.05C208.818 481.636 205.018 478.326 200.587 478.502L171.135 479.667L200.519 477.351C204.94 477.003 208.323 473.268 208.234 468.834L207.86 450.26Z" fill="#0A0E60"/>
<path d="M414.485 390.897C418.442 394.693 418.656 399.572 415.397 405.218C412.146 410.852 405.48 417.164 395.933 423.763C376.844 436.955 346.319 451.232 308.879 463.454C271.438 475.677 234.208 483.518 204.293 486.323C189.331 487.725 176.233 487.864 165.87 486.675C155.485 485.482 148.004 482.976 144.048 479.179C140.091 475.383 139.877 470.505 143.136 464.858C146.387 459.224 153.053 452.912 162.6 446.314C181.689 433.121 212.214 418.844 249.654 406.622C287.094 394.399 324.325 386.558 354.24 383.754C369.202 382.351 382.3 382.212 392.662 383.401C403.048 384.594 410.528 387.1 414.485 390.897Z" stroke="#0A0E60" stroke-width="1.0148"/>
<path fill-rule="evenodd" clip-rule="evenodd" d="M774.461 380.605L765.301 358.931L773.251 381.078C774.201 383.724 774.346 386.472 773.807 389.047C771.212 389.481 768.472 389.223 765.866 388.165L744.063 379.316L765.344 389.355C767.888 390.555 769.934 392.395 771.373 394.598C769.845 396.739 767.725 398.494 765.135 399.588L743.461 408.748L765.608 400.798C768.254 399.848 771.002 399.703 773.577 400.242C774.01 402.837 773.752 405.577 772.695 408.182L763.845 429.985L773.884 408.704C775.084 406.161 776.925 404.115 779.127 402.675C781.268 404.204 783.023 406.323 784.118 408.914L793.277 430.588L785.328 408.442C784.378 405.795 784.233 403.046 784.772 400.471C787.367 400.038 790.106 400.296 792.712 401.353L814.515 410.203L793.233 400.164C790.69 398.964 788.645 397.124 787.205 394.922C788.734 392.781 790.853 391.026 793.444 389.931L815.118 380.772L792.971 388.721C790.324 389.671 787.576 389.816 785.001 389.277C784.568 386.682 784.825 383.942 785.883 381.336L794.733 359.534L784.693 380.815C783.493 383.358 781.653 385.404 779.451 386.843C777.31 385.315 775.555 383.196 774.461 380.605Z" fill="#0A0E60"/>
<path d="M936.008 537.919L936.774 550.543C937.427 561.306 946.375 569.683 957.158 569.625L969.804 569.557L957.181 570.323C946.418 570.976 938.041 579.924 938.099 590.707L938.167 603.353L937.401 590.73C936.748 579.967 927.8 571.59 917.017 571.648L904.371 571.716L916.994 570.95C927.757 570.297 936.134 561.349 936.076 550.566L936.008 537.919Z" fill="#0A0E60"/>
<path d="M972.475 502.691L969.679 509.917C967.295 516.078 970.14 523.028 976.159 525.748L983.22 528.939L975.994 526.143C969.833 523.759 962.883 526.604 960.163 532.623L956.972 539.684L959.768 532.458C962.153 526.297 959.307 519.347 953.288 516.627L946.227 513.436L953.453 516.232C959.614 518.617 966.564 515.772 969.284 509.752L972.475 502.691Z" fill="#0A0E60"/>
</g>
<defs>
<clipPath id="clip0_843_205">
<rect width="1235" height="886.879" fill="white"/>
</clipPath>
</defs>
</svg>
