<svg width="60" height="47" viewBox="0 0 65 47" fill="none" xmlns="http://www.w3.org/2000/svg">
<path d="M8.4 35.4L8.12 29.24L22.8 14H28.64L16.44 26.96L13.56 30.12L8.4 35.4ZM3.76 42V14H8.96V42H3.76ZM23.28 42L12.56 29.24L16 25.44L29.36 42H23.28Z" fill="white"/>
<path d="M25.76 42V14H30.96V37.6H45.6V42H25.76Z" fill="white"/>
<path d="M38.7419 0.574621L38.8003 5.04838C38.8402 8.11485 41.2693 10.6157 44.3333 10.745L48.6106 10.9256L44.3299 10.986C41.2635 11.0293 38.7652 13.4611 38.6392 16.5252L38.4554 20.9956L38.3971 16.5218C38.3571 13.4553 35.9281 10.9545 32.8641 10.8251L28.5867 10.6446L32.8674 10.5842C35.9339 10.5408 38.4321 8.10912 38.5581 5.04498L38.7419 0.574621Z" fill="white"/>
<path d="M45.0219 15.0162L45.0524 17.3255C45.0811 19.4985 46.7956 21.2741 48.9662 21.3787V21.3787V21.3787C46.7948 21.4657 45.0659 23.2272 45.0195 25.3999L44.9702 27.7089L44.9397 25.3996C44.911 23.2266 43.1965 21.451 41.0259 21.3464V21.3464V21.3464C43.1973 21.2594 44.9262 19.4979 44.9726 17.3252L45.0219 15.0162Z" fill="white"/>
</svg>
