<svg width="249" height="45" viewBox="0 0 249 44" fill="none" xmlns="http://www.w3.org/2000/svg">
<path d="M146.836 12.3077C145.141 12.3077 142.589 13.6419 142.589 15.4089C142.589 16.8873 143.69 17.6445 145.268 17.6445C147.241 17.6445 150.357 16.8512 150.357 14.5795C150.357 12.7044 148.533 12.3077 146.836 12.3077ZM49.2597 13.6239C49.0492 13.5792 49.0301 13.7862 49.0301 13.7862C47.788 16.3933 45.1362 18.2532 42.1806 19.0509C42.1806 19.0509 42.0467 19.0768 42.0467 19.2312V20.8899C42.0467 21.1329 42.1806 21.0702 42.1806 21.0702H43.8451C44.0326 21.0702 43.9791 21.2144 43.9791 21.2144V31.7438C43.9791 34.8802 45.3635 36.5036 48.9535 36.5036C52.1548 36.5036 52.3906 36.4293 54.9229 34.7187C54.9229 34.7187 55.0852 34.6653 54.9995 34.4843C54.9306 34.3386 54.2725 32.8797 54.2151 32.6994C54.1446 32.4787 53.9855 32.6092 53.9855 32.6092C53.5225 32.8313 53.4145 32.8256 52.8184 32.8256C52.2268 32.8256 51.2113 32.6092 51.2113 31.4914V21.2144C51.2113 21.2144 51.1727 21.0702 51.3834 21.0702H53.928C53.928 21.0702 54.0911 21.1466 54.1385 20.9259C54.1949 20.6577 54.6742 18.4198 54.6742 18.4198C54.6742 18.4198 54.7469 18.2575 54.5594 18.2575H51.3452C51.3452 18.2575 51.2113 18.3124 51.2113 18.1133V16.8152C51.2113 16.0413 51.2615 15.0223 51.4408 14.1648C51.4408 14.1648 51.5411 14.0285 51.3069 13.9845C50.9817 13.9232 49.4709 13.6672 49.2597 13.6239ZM92.423 14.9401C90.2924 14.9401 89.5861 15.481 89.1131 16.8152C89.1131 16.8152 88.7924 17.6914 88.6922 18.0051C88.6218 18.2265 88.4626 18.1674 88.4626 18.1674C87.4087 18.0138 86.2761 17.7167 84.2917 17.7167C79.9922 17.7167 75.4906 19.9523 75.4906 25.1449C75.4906 28.8237 78.7019 30.9447 81.9957 31.4914C81.9957 31.4914 82.5162 31.5649 81.9957 31.7077C81.0184 31.9746 78.9712 33.1205 76.6386 33.4746C76.6386 33.4746 76.4067 33.4984 76.5238 33.7631C76.5813 33.8929 77.2279 35.424 77.3274 35.6743C77.3978 35.851 77.6335 35.8185 77.6335 35.8185C78.7233 35.6086 81.8557 35.8784 82.4167 35.9447C82.9072 36.0031 82.4167 36.0709 82.4167 36.0709C80.7712 36.3349 78.858 37.4578 78.858 39.136C78.858 42.0561 82.4083 42.7419 85.8797 42.7419C88.2468 42.7419 93.9537 41.8044 93.9537 37.8739C93.9537 33.9333 87.496 33.1667 84.3299 32.8797C83.7912 32.8313 84.3299 32.7354 84.3299 32.7354C89.0527 31.6356 94.5851 30.4579 94.5851 24.8564C94.5851 20.6375 90.8733 19.5196 90.8733 18.7984C90.8733 18.4018 91.1274 18.0304 91.6004 18.0051C92.4208 17.9604 92.4552 18.0282 92.8631 18.2575C92.8631 18.2575 92.984 18.4501 93.0544 18.1854C93.0961 18.0289 93.8006 15.411 93.8389 15.2105C93.8861 14.9675 93.6667 15.0302 93.6667 15.0302C93.2542 14.9927 92.8272 14.9401 92.423 14.9401ZM27.4867 16.8873C27.4028 16.9112 27.391 17.0135 27.391 17.0135C27.391 17.0135 25.1127 22.2919 25.0186 22.5126C24.9252 22.7332 25.0951 22.747 25.0951 22.747C25.0951 22.747 26.9885 23.3794 27.1997 23.4681C27.4101 23.5561 27.4867 23.4141 27.4867 23.4141C28.5183 22.2176 29.5545 21.4669 31.7724 21.4669C33.5081 21.4669 34.3744 22.0799 34.3744 23.5583V24.1172C34.3744 24.3156 34.2979 24.3336 34.2979 24.3336L28.9599 24.4598C25.4494 24.4598 22.6078 26.8404 22.6078 31.0226C22.6078 34.3769 25.2941 36.5037 28.8834 36.5037C31.0056 36.5037 32.6816 35.6418 34.2214 34.4843C34.2214 34.4843 34.4762 34.1086 34.5466 34.4843C34.6171 34.8601 34.7663 35.3425 34.8719 35.7644C34.927 35.983 35.0824 35.9628 35.0824 35.9628H42.5632C42.5632 35.9628 42.8502 36.0522 42.8502 35.7644V33.9975C42.8502 33.9975 42.9061 33.7992 42.6015 33.7992H41.7405C41.553 33.7992 41.5875 33.4747 41.5875 33.4747V23.7026C41.5875 19.4475 38.6778 17.7167 34.2597 17.7167C32.6984 17.7167 31.1961 17.9208 29.7252 18.4559C29.7252 18.4559 29.4038 18.6413 29.5913 18.2215C29.6808 18.021 29.7635 17.7888 29.7635 17.7888C29.7635 17.7888 29.8637 17.589 29.6295 17.5003C29.3716 17.4116 27.88 16.9854 27.6015 16.8873C27.5546 16.8708 27.5146 16.8794 27.4867 16.8873V16.8873ZM60.0314 16.8873C59.9473 16.9112 59.9358 17.0135 59.9358 17.0135C59.9358 17.0135 57.6574 22.2919 57.5633 22.5126C57.4699 22.734 57.6398 22.747 57.6398 22.747C57.6398 22.747 59.5332 23.3802 59.7444 23.4681C59.9557 23.5568 60.0314 23.4141 60.0314 23.4141C61.0623 22.2176 62.0801 21.4669 64.298 21.4669C66.0337 21.4669 66.9001 22.0799 66.9001 23.5583V24.1172C66.9001 24.3163 66.8425 24.3336 66.8425 24.3336L61.5045 24.4598C57.9933 24.4598 55.1524 26.8397 55.1524 31.0226C55.1524 34.3754 57.8379 36.5037 61.4279 36.5037C63.5494 36.5037 65.2078 35.6418 66.7469 34.4843C66.7469 34.4843 67.0201 34.1086 67.0912 34.4843C67.1617 34.8594 67.3101 35.3425 67.4165 35.7644C67.471 35.9837 67.6269 35.9628 67.6269 35.9628H75.0887C75.0887 35.9628 75.3949 36.0515 75.3949 35.7644V33.9975C75.3949 33.9975 75.4506 33.7992 75.1461 33.7992H74.2851C74.0976 33.7992 74.132 33.4747 74.132 33.4747V23.7026C74.132 19.4475 71.204 17.7167 66.7851 17.7167C65.2247 17.7167 63.7415 17.9208 62.2698 18.4559C62.2698 18.4559 61.9484 18.6413 62.1359 18.2215C62.2254 18.021 62.2889 17.7708 62.2889 17.7708C62.2889 17.7708 62.3892 17.589 62.155 17.5003C61.8971 17.4123 60.4239 16.9854 60.1461 16.8873C60.0989 16.8708 60.0593 16.8794 60.0313 16.8873L60.0314 16.8873ZM156.25 16.8873C156.166 16.9112 156.154 17.0135 156.154 17.0135C156.154 17.0135 153.876 22.2919 153.782 22.5126C153.688 22.734 153.858 22.747 153.858 22.747C153.858 22.747 155.752 23.3802 155.963 23.4681C156.174 23.5568 156.25 23.4141 156.25 23.4141C157.281 22.2176 158.298 21.4669 160.516 21.4669C162.252 21.4669 163.118 22.0799 163.118 23.5583V24.1172C163.118 24.3163 163.061 24.3336 163.061 24.3336L157.723 24.4598C154.211 24.4598 151.371 26.8397 151.371 31.0226C151.371 34.3754 154.056 36.5037 157.646 36.5037C159.768 36.5037 161.426 35.6418 162.965 34.4843C162.965 34.4843 163.238 34.1086 163.31 34.4843C163.38 34.8594 163.528 35.3425 163.635 35.7644C163.689 35.9837 163.845 35.9628 163.845 35.9628H171.307C171.307 35.9628 171.613 36.0515 171.613 35.7644V33.9975C171.613 33.9975 171.669 33.7992 171.365 33.7992H170.503C170.316 33.7992 170.35 33.4747 170.35 33.4747V23.7026C170.35 19.4475 167.422 17.7167 163.003 17.7167C161.443 17.7167 159.96 17.9208 158.488 18.4559C158.488 18.4559 158.166 18.6413 158.354 18.2215C158.443 18.021 158.507 17.7708 158.507 17.7708C158.507 17.7708 158.608 17.589 158.373 17.5003C158.115 17.4123 156.642 16.9854 156.364 16.8873C156.317 16.8708 156.278 16.8794 156.25 16.8873L156.25 16.8873ZM106.486 17.7167C100.214 17.7167 95.3695 21.2858 95.3695 27.0921C95.3695 32.933 100.214 36.5036 106.486 36.5036C112.798 36.5036 117.659 32.933 117.659 27.0921C117.659 21.2858 112.798 17.7167 106.486 17.7167ZM132.965 17.7167C130.329 17.7167 128.352 19.0956 126.403 20.4932C126.403 20.4932 126.211 20.7449 126.211 20.4572V17.8609C126.211 17.6618 126.02 17.7707 126.02 17.7707L117.697 19.8442C117.697 19.8442 117.525 19.8442 117.525 20.0425V21.8455C117.525 22.0445 117.717 21.9536 117.717 21.9536C117.717 21.9536 118.449 21.7899 118.731 21.7012C119.011 21.6125 118.922 21.8274 118.922 21.8274V33.6369C118.922 33.6369 118.976 33.7992 118.788 33.7992H117.659C117.659 33.7992 117.525 33.7408 117.525 33.9614V35.7824C117.525 36.0255 117.659 35.9627 117.659 35.9627H127.532C127.532 35.9627 127.666 35.9916 127.666 35.8365V33.9614C127.666 33.7408 127.474 33.7992 127.474 33.7992H126.288C126.1 33.7992 126.135 33.673 126.135 33.673V23.6845C126.135 23.5078 126.269 23.4141 126.269 23.4141C127.169 22.7001 128.095 22.0438 129.368 22.0438C130.433 22.0438 131.454 22.5854 131.454 23.6304V33.673C131.454 33.673 131.508 33.7992 131.32 33.7992H130.172C130.172 33.7992 129.961 33.7847 129.961 33.9614V35.8365C129.961 35.9916 130.134 35.9627 130.134 35.9627H139.834C139.834 35.9627 140.025 36.0255 140.025 35.7824V33.9614C140.025 33.7631 139.853 33.7992 139.853 33.7992H138.82C138.656 33.7992 138.686 33.6189 138.686 33.6189V22.8371C138.686 20.8531 137.976 17.7167 132.965 17.7167ZM14.5338 17.7347C12.7843 17.7347 11.4542 18.4046 9.76979 19.3573C9.76979 19.3573 9.57847 19.4439 9.57847 19.2672V17.915C9.57847 17.7166 9.38714 17.7707 9.38714 17.7707L1.14094 19.772C1.14094 19.772 0.96875 19.772 0.96875 19.9703V21.7733C0.96875 22.0164 1.16008 21.9356 1.16008 21.9356L2.11671 21.7192C2.11671 21.7192 2.3463 21.6204 2.3463 21.8635V39.154C2.3463 39.154 2.35549 39.4064 2.09758 39.4064H1.19834C1.19834 39.4064 0.96875 39.3754 0.96875 39.6408V41.3356C0.96875 41.5786 1.27487 41.57 1.27487 41.57H11.9318C11.9318 41.57 12.1422 41.4942 12.1422 41.3175V39.6408C12.1422 39.3977 11.9127 39.4064 11.9127 39.4064H9.80806C9.57311 39.4064 9.57847 39.0999 9.57847 39.0999V35.9807C9.57847 35.8041 9.73153 35.8726 9.73153 35.8726C10.7899 36.3803 12.2815 36.5216 13.405 36.5216C19.2435 36.5216 22.627 31.4373 22.627 26.3529C22.627 21.1964 19.0706 17.7347 14.5338 17.7347ZM149.936 17.7527C149.888 17.7486 149.84 17.7707 149.84 17.7707L141.556 19.9162C141.556 19.9162 141.403 19.9234 141.403 20.0785V21.8273C141.403 22.0704 141.632 21.9716 141.632 21.9716C141.632 21.9716 142.175 21.862 142.646 21.7913C142.883 21.7545 142.819 21.9615 142.819 22.1158V33.6188C142.819 33.6188 142.881 33.7991 142.646 33.7991H141.479C141.479 33.7991 141.326 33.7363 141.326 33.9794V35.8184C141.326 36.0391 141.479 35.9627 141.479 35.9627H151.18C151.414 35.9627 151.333 35.7824 151.333 35.7824C151.333 35.7824 151.327 34.2657 151.333 33.9794C151.339 33.7356 151.16 33.7991 151.16 33.7991H150.204C149.97 33.7991 150.032 33.6368 150.032 33.6368V17.8969C150.032 17.7862 149.983 17.7565 149.936 17.7526V17.7527ZM83.9855 19.9883C86.945 19.9883 88.1565 25.4326 88.1565 27.3805C88.1565 29.1107 87.5687 29.7965 86.1093 29.7965C83.1506 29.7965 81.9192 24.3515 81.9192 22.4043C81.9192 20.6728 82.5261 19.9883 83.9855 19.9883ZM105.261 20.4571C109.246 20.4571 110.446 27.0928 110.446 29.6883C110.446 31.6355 109.878 33.7631 107.748 33.7631C103.764 33.7631 102.583 27.1274 102.583 24.5318C102.583 23.1969 102.576 20.4571 105.261 20.4571ZM10.7073 21.5569C11.9303 21.5569 15.4139 21.8822 15.4139 28.3722C15.4139 32.4115 14.3747 33.7811 12.0083 33.7811C10.1149 33.7811 9.57847 32.4469 9.57847 30.8603V22.0077C9.57847 21.7639 9.78893 21.7012 9.78893 21.7012L10.7073 21.5569ZM33.2265 26.6233H34.1831C34.4173 26.6233 34.3744 26.7675 34.3744 26.7675V30.085C34.3744 31.4553 34.0079 32.7173 32.1933 32.7173C30.2594 32.7173 29.84 31.1307 29.84 29.7244C29.84 27.8854 31.2535 26.6233 33.2265 26.6233ZM65.7712 26.6233H66.7278C66.962 26.6233 66.9001 26.7675 66.9001 26.7675V30.085C66.9001 31.4553 66.5526 32.7173 64.738 32.7173C62.8056 32.7173 62.3656 31.1314 62.3656 29.7244C62.3656 27.8854 63.799 26.6233 65.7712 26.6233ZM161.99 26.6233H162.946C163.18 26.6233 163.118 26.7675 163.118 26.7675V30.085C163.118 31.4553 162.772 32.7173 160.956 32.7173C159.024 32.7173 158.584 31.1314 158.584 29.7244C158.584 27.8854 160.017 26.6233 161.99 26.6233ZM85.21 36.756C85.2572 36.7561 85.2866 36.774 85.2866 36.774C86.5861 37.5198 87.5251 38.0823 87.5251 39.6768C87.5251 40.5776 87.0192 41.011 86.0328 41.011C84.9276 41.011 84.4065 40.0367 84.4065 39.1359C84.4065 38.3405 84.7103 37.1498 84.9995 36.8642C85.0872 36.7773 85.1627 36.7559 85.21 36.756V36.756Z" fill="white"/>
<path d="M172.523 15.4816C172.398 15.4175 172.197 15.3857 171.919 15.3857H171.493V16.3182H171.944C172.155 16.3182 172.314 16.2987 172.419 16.2613C172.615 16.1906 172.712 16.0565 172.712 15.8581C172.712 15.6713 172.649 15.5459 172.523 15.4817V15.4816ZM171.994 15.0612C172.338 15.0612 172.591 15.093 172.751 15.155C173.038 15.2675 173.181 15.4874 173.181 15.8156C173.181 16.0478 173.091 16.2202 172.912 16.3298C172.817 16.3882 172.685 16.43 172.515 16.456C172.727 16.4884 172.883 16.5728 172.981 16.7106C173.08 16.8476 173.129 16.9825 173.129 17.113V17.3034C173.129 17.3633 173.131 17.4274 173.136 17.4967C173.141 17.5652 173.15 17.6099 173.163 17.6315L173.181 17.664H172.726C172.723 17.6553 172.721 17.6467 172.719 17.638C172.716 17.6293 172.714 17.62 172.712 17.6092L172.702 17.5255V17.32C172.702 17.0199 172.613 16.8223 172.436 16.7257C172.331 16.6702 172.147 16.6428 171.884 16.6428H171.493V17.664H171.024V15.0612H171.994L171.994 15.0612ZM170.511 14.9336C170.088 15.3309 169.878 15.8105 169.878 16.3731C169.878 16.9392 170.088 17.4217 170.507 17.8212C170.929 18.22 171.441 18.4198 172.044 18.4198C172.646 18.4198 173.159 18.22 173.58 17.8212C174.002 17.4217 174.213 16.9392 174.213 16.3731C174.213 15.8105 174.002 15.3309 173.58 14.9336C173.156 14.5348 172.644 14.335 172.044 14.335C171.445 14.335 170.935 14.5348 170.511 14.9336ZM173.82 18.0477C173.33 18.5121 172.736 18.7436 172.04 18.7436C171.343 18.7436 170.752 18.5121 170.263 18.0477C169.777 17.5861 169.534 17.0265 169.534 16.3695C169.534 15.7182 169.779 15.1622 170.27 14.7006C170.759 14.2405 171.348 14.0112 172.04 14.0112C172.736 14.0112 173.33 14.2405 173.82 14.7006C174.311 15.16 174.556 15.7168 174.556 16.3695C174.556 17.0243 174.311 17.5839 173.82 18.0477Z" fill="white"/>
<path d="M199.451 34.2442L194.703 28.3557L190.008 34.19L188.271 32.6703L193.292 26.8361L188.461 21.2461L190.361 19.5908L194.73 25.2351L199.017 19.6993L200.835 21.2461L196.141 26.7276L201.297 32.6703L199.451 34.2442Z" fill="white"/>
<path d="M241.251 2.96078C241.251 4.59606 239.975 5.92168 238.4 5.92168C236.825 5.92168 235.549 4.59606 235.549 2.96078C235.548 1.3255 236.824 -0.00012207 238.399 -0.00012207C239.975 -0.00012207 241.251 1.3255 241.251 2.96078Z" fill="white"/>
<path d="M224.92 22.8588H222.348V13.5786H232.034C232.034 13.5786 234.173 14.016 234.958 15.701V7.97351H215.973V27.6653L224.92 22.8588Z" fill="white"/>
<path d="M238.521 23.7333L229.886 28.3729H232.837C235.922 28.491 235.867 31.8893 235.867 31.8893C236.045 35.5911 232.125 35.962 232.125 35.962H222.348V31.5202L228.091 28.3738H228.211L239.577 22.2666L239.592 22.2967C241.577 20.7617 241.637 19.0483 241.637 14.7299C241.637 10.3599 237.413 8.6581 235.727 8.15234V17.9516L215.983 28.5602L215.973 28.5406V28.7039V41.804H232.636C232.636 41.804 241.793 41.8696 242.929 32.9851C243.791 26.2514 240.274 24.2896 238.521 23.7333Z" fill="white"/>
</svg>
