<svg width="165" height="28" viewBox="0 0 165 52" fill="none" xmlns="http://www.w3.org/2000/svg">
<g clip-path="url(#clip0_832_233)">
<path d="M109.319 25.4677C109.319 25.2275 109.259 24.8671 109.199 24.4466C109.139 23.7859 108.959 23.0651 108.778 22.4044C107.217 17.479 103.012 14.2955 98.0867 14.2955C97.6062 14.2955 97.0656 14.3556 96.5851 14.4157C90.2782 15.2566 85.9535 20.9628 86.7944 27.4499C87.5752 33.3363 92.2604 37.3607 98.0266 37.3607C98.5072 37.3607 99.0478 37.3006 99.5283 37.2406C102.592 36.8802 105.295 35.5587 107.337 33.036C107.457 32.9158 107.517 32.7356 107.457 32.5555C107.457 32.4353 107.337 32.2551 107.217 32.135C106.856 31.8947 105.655 31.2941 104.994 30.9937C104.814 30.8736 104.634 30.8136 104.574 30.7535C104.394 30.6334 104.213 30.6334 104.093 30.6334C103.913 30.6334 103.793 30.6934 103.613 30.8736C102.291 32.3753 100.67 33.1561 98.9877 33.3964C98.6273 33.4564 98.327 33.4564 98.0266 33.4564C94.9633 33.4564 91.8399 31.4142 90.9389 28.5911V28.5311L90.999 28.471C91.1792 28.4109 92.6208 27.7502 94.723 27.7502C94.9633 27.7502 95.2636 27.7502 95.5039 27.8103C96.1046 27.8703 96.7052 27.9304 97.3659 27.9905C98.5672 28.1707 99.7686 28.2908 101.27 28.2908C102.171 28.2908 103.012 28.2307 103.913 28.1106C107.397 27.4499 108.838 26.4288 108.838 26.4288C109.379 26.1885 109.319 25.9482 109.319 25.4677ZM105.355 24.0261C104.754 24.2063 103.973 24.3865 103.012 24.5067C102.532 24.5667 102.051 24.6268 101.39 24.6268C100.369 24.6268 99.228 24.5667 98.2068 24.4466H98.1468C97.1257 24.3865 96.2247 24.3265 95.3237 24.3265C94.663 24.3265 94.0623 24.3865 93.5217 24.4466C91.8399 24.6268 90.5185 25.1674 90.5185 25.1674V25.0473C90.8188 21.6836 93.7019 18.7404 97.1257 18.3199C97.426 18.2599 97.7864 18.2599 98.0867 18.2599C101.33 18.2599 104.454 20.7225 105.415 23.9661V24.0261H105.355Z" fill="white"/>
<path d="M164.339 15.617C164.339 15.3167 164.099 15.0764 163.799 15.0764H160.916C160.615 15.0764 160.375 15.3167 160.375 15.617V36.2795C160.375 36.5799 160.615 36.8201 160.916 36.8201H163.799C164.099 36.8201 164.339 36.5799 164.339 36.2795V15.617Z" fill="white"/>
<path d="M162.357 7.68835C160.915 7.68835 159.714 8.88967 159.714 10.3312C159.714 11.7728 160.915 12.9741 162.357 12.9741C163.798 12.9741 165 11.7728 165 10.3312C164.94 8.88967 163.798 7.68835 162.357 7.68835Z" fill="white"/>
<path d="M123.735 37.3607C123.915 37.3607 124.095 37.3607 124.275 37.3607C127.279 37.3607 130.042 36.2194 132.084 34.1172C134.186 32.0149 135.327 29.0717 135.327 25.9482C135.327 19.4011 130.282 14.2955 123.855 14.2955C118.629 14.2955 114.244 17.7193 112.863 22.8248C112.623 23.6658 112.382 25.8882 112.382 28.1106V44.3283C112.382 44.6286 112.623 44.8689 112.923 44.8689H115.806C116.106 44.8689 116.347 44.6286 116.347 44.3283V34.1172L116.527 34.2373C117.968 35.6789 120.611 37.2406 123.735 37.3607ZM123.855 18.2599C127.999 18.2599 131.183 21.6235 131.183 26.0083C131.183 30.3931 128.119 33.6366 124.035 33.6366C121.993 33.6366 120.071 32.9158 118.689 31.5944C117.248 30.2129 116.467 28.2908 116.467 26.1284C116.527 21.7437 119.83 18.2599 123.855 18.2599Z" fill="white"/>
<path d="M71.8983 37.3607C72.0785 37.3607 72.2587 37.3607 72.4389 37.3607C75.4421 37.3607 78.2052 36.2194 80.2474 34.1172C82.3497 32.0149 83.4909 29.0717 83.4909 25.9482C83.4909 19.4011 78.4454 14.2955 72.0184 14.2955C66.7927 14.2955 62.4079 17.7193 61.0264 22.8248C60.7862 23.6658 60.5459 25.8882 60.5459 28.1106V44.3283C60.5459 44.6286 60.7862 44.8689 61.0865 44.8689H63.9696C64.27 44.8689 64.5102 44.6286 64.5102 44.3283V34.1172L64.6304 34.2373C66.132 35.6789 68.7749 37.2406 71.8983 37.3607ZM72.0184 18.2599C76.1629 18.2599 79.3464 21.6235 79.3464 26.0083C79.3464 30.3931 76.2831 33.6366 72.1986 33.6366C70.1564 33.6366 68.2343 32.9158 66.8528 31.5944C65.4112 30.2129 64.6304 28.2908 64.6304 26.1284C64.6904 21.7437 67.994 18.2599 72.0184 18.2599Z" fill="white"/>
<path d="M138.15 33.7569C140.673 36.0394 143.376 37.3608 146.98 37.3608H147.1C153.227 37.3008 155.99 33.9371 155.99 30.6335C155.99 26.0685 151.665 24.8071 150.344 24.5068C149.923 24.4467 149.503 24.3266 149.022 24.2665C147.941 24.0863 146.86 23.8461 145.839 23.5458C145.118 23.3656 142.836 22.5847 142.836 20.8428C142.836 18.9207 144.938 17.8996 146.92 17.8996C148.602 17.8996 149.983 18.1999 151.725 19.5814C151.845 19.7016 152.086 19.8217 152.266 19.8217C152.446 19.8217 152.626 19.7616 152.806 19.6415C153.287 19.2811 154.188 18.5002 154.789 17.8996C154.909 17.7795 154.969 17.5993 154.969 17.4191C154.969 17.1788 154.789 16.9385 154.668 16.8785C152.326 15.0164 150.043 14.2356 146.8 14.2356C142.175 14.2356 138.691 17.1788 138.691 21.1431C138.691 24.2665 141.274 26.489 145.899 27.3899L148.782 27.9305C150.704 28.2909 151.785 29.312 151.725 30.6935C151.665 32.0751 149.983 33.5166 147.22 33.5166C144.938 33.5166 142.956 32.6156 141.274 31.114C141.154 30.9939 141.034 30.8737 140.793 30.8737C140.673 30.8737 140.493 30.9338 140.373 31.0539C140.193 31.1741 138.271 32.7358 138.03 32.916C137.91 33.0361 137.91 33.0962 137.91 33.2163C137.91 33.4566 138.03 33.6368 138.15 33.7569Z" fill="white"/>
<path d="M44.0881 44.0881C33.9971 54.1791 17.6593 54.1791 7.56826 44.0881C-2.52275 33.9971 -2.52275 17.6593 7.56826 7.56826C17.6593 -2.52275 33.9971 -2.52275 44.0881 7.56826C54.1791 17.6593 54.1791 33.9971 44.0881 44.0881Z" fill="white"/>
<path d="M46.4308 12.4937C46.9113 14.1154 47.2117 15.7973 47.2117 17.5392C47.2117 23.2454 44.3886 28.2308 40.1239 31.4143C32.7359 36.8803 21.9241 36.8803 7.02783 41.5654C11.5327 46.9713 18.2601 50.395 25.8283 50.395C39.4031 50.395 50.3351 39.403 50.3351 25.8883C50.3351 20.9028 48.8935 16.3378 46.4308 12.4937Z" fill="#005992"/>
<path d="M40.5441 6.18673C36.4596 3.12338 31.3541 1.26135 25.828 1.26135C12.2532 1.26135 1.32129 12.2533 1.32129 25.8282C1.32129 31.2941 3.12325 36.3396 6.12653 40.364C22.5845 35.5588 35.6187 22.6447 40.5441 6.18673Z" fill="#ED1A38"/>
</g>
<defs>
<clipPath id="clip0_832_233">
<rect width="165" height="51.6564" fill="white"/>
</clipPath>
</defs>
</svg>
