<svg width="781" height="169" viewBox="0 0 781 169" fill="none" xmlns="http://www.w3.org/2000/svg">
<path d="M39.76 111L54.88 77.4H61.024L76.192 111H69.664L56.656 80.712H59.152L46.192 111H39.76ZM46.72 103.224L48.4 98.328H66.544L68.224 103.224H46.72ZM94.0971 111.336C91.9211 111.336 89.9851 110.856 88.2891 109.896C86.5931 108.936 85.2491 107.496 84.2571 105.576C83.2971 103.624 82.8171 101.16 82.8171 98.184C82.8171 95.176 83.3131 92.712 84.3051 90.792C85.3291 88.872 86.6891 87.448 88.3851 86.52C90.1131 85.56 92.0171 85.08 94.0971 85.08C96.6251 85.08 98.8491 85.624 100.769 86.712C102.721 87.8 104.257 89.32 105.377 91.272C106.529 93.224 107.105 95.528 107.105 98.184C107.105 100.84 106.529 103.144 105.377 105.096C104.257 107.048 102.721 108.584 100.769 109.704C98.8491 110.792 96.6251 111.336 94.0971 111.336ZM79.8891 111V75.384H85.8891V91.32L85.4091 98.136L85.6011 104.952V111H79.8891ZM93.4251 106.2C94.8651 106.2 96.1451 105.88 97.2651 105.24C98.4171 104.6 99.3291 103.672 100.001 102.456C100.673 101.24 101.009 99.816 101.009 98.184C101.009 96.52 100.673 95.096 100.001 93.912C99.3291 92.696 98.4171 91.768 97.2651 91.128C96.1451 90.488 94.8651 90.168 93.4251 90.168C91.9851 90.168 90.6891 90.488 89.5371 91.128C88.3851 91.768 87.4731 92.696 86.8011 93.912C86.1291 95.096 85.7931 96.52 85.7931 98.184C85.7931 99.816 86.1291 101.24 86.8011 102.456C87.4731 103.672 88.3851 104.6 89.5371 105.24C90.6891 105.88 91.9851 106.2 93.4251 106.2ZM124.315 111.336C121.691 111.336 119.355 110.776 117.307 109.656C115.259 108.504 113.643 106.936 112.459 104.952C111.275 102.968 110.683 100.712 110.683 98.184C110.683 95.624 111.275 93.368 112.459 91.416C113.643 89.432 115.259 87.88 117.307 86.76C119.355 85.64 121.691 85.08 124.315 85.08C126.971 85.08 129.323 85.64 131.371 86.76C133.451 87.88 135.067 89.416 136.219 91.368C137.403 93.32 137.995 95.592 137.995 98.184C137.995 100.712 137.403 102.968 136.219 104.952C135.067 106.936 133.451 108.504 131.371 109.656C129.323 110.776 126.971 111.336 124.315 111.336ZM124.315 106.2C125.787 106.2 127.099 105.88 128.251 105.24C129.403 104.6 130.299 103.672 130.939 102.456C131.611 101.24 131.947 99.816 131.947 98.184C131.947 96.52 131.611 95.096 130.939 93.912C130.299 92.696 129.403 91.768 128.251 91.128C127.099 90.488 125.803 90.168 124.363 90.168C122.891 90.168 121.579 90.488 120.427 91.128C119.307 91.768 118.411 92.696 117.739 93.912C117.067 95.096 116.731 96.52 116.731 98.184C116.731 99.816 117.067 101.24 117.739 102.456C118.411 103.672 119.307 104.6 120.427 105.24C121.579 105.88 122.875 106.2 124.315 106.2ZM154.581 111.336C152.405 111.336 150.485 110.936 148.821 110.136C147.157 109.304 145.861 108.056 144.933 106.392C144.005 104.696 143.541 102.568 143.541 100.008V85.368H149.541V99.192C149.541 101.496 150.053 103.224 151.077 104.376C152.133 105.496 153.621 106.056 155.541 106.056C156.949 106.056 158.165 105.768 159.189 105.192C160.245 104.616 161.061 103.752 161.637 102.6C162.245 101.448 162.549 100.024 162.549 98.328V85.368H168.549V111H162.837V104.088L163.845 106.2C162.981 107.864 161.717 109.144 160.053 110.04C158.389 110.904 156.565 111.336 154.581 111.336ZM186.053 111.336C183.237 111.336 181.061 110.616 179.525 109.176C177.989 107.704 177.221 105.544 177.221 102.696V79.704H183.221V102.552C183.221 103.768 183.525 104.712 184.133 105.384C184.773 106.056 185.653 106.392 186.773 106.392C188.117 106.392 189.237 106.04 190.133 105.336L191.813 109.608C191.109 110.184 190.245 110.616 189.221 110.904C188.197 111.192 187.141 111.336 186.053 111.336ZM172.997 90.36V85.56H190.085V90.36H172.997ZM210.59 111V77.4H215.726L230.414 101.928H227.726L242.174 77.4H247.31L247.358 111H241.454L241.406 86.664H242.654L230.366 107.16H227.582L215.102 86.664H216.542V111H210.59ZM267.906 111.336C265.058 111.336 262.562 110.776 260.418 109.656C258.306 108.504 256.658 106.936 255.474 104.952C254.322 102.968 253.746 100.712 253.746 98.184C253.746 95.624 254.306 93.368 255.426 91.416C256.578 89.432 258.146 87.88 260.13 86.76C262.146 85.64 264.434 85.08 266.994 85.08C269.49 85.08 271.714 85.624 273.666 86.712C275.618 87.8 277.154 89.336 278.274 91.32C279.394 93.304 279.954 95.64 279.954 98.328C279.954 98.584 279.938 98.872 279.906 99.192C279.906 99.512 279.89 99.816 279.858 100.104H258.498V96.12H276.69L274.338 97.368C274.37 95.896 274.066 94.6 273.426 93.48C272.786 92.36 271.906 91.48 270.786 90.84C269.698 90.2 268.434 89.88 266.994 89.88C265.522 89.88 264.226 90.2 263.106 90.84C262.018 91.48 261.154 92.376 260.514 93.528C259.906 94.648 259.602 95.976 259.602 97.512V98.472C259.602 100.008 259.954 101.368 260.658 102.552C261.362 103.736 262.354 104.648 263.634 105.288C264.914 105.928 266.386 106.248 268.05 106.248C269.49 106.248 270.786 106.024 271.938 105.576C273.09 105.128 274.114 104.424 275.01 103.464L278.226 107.16C277.074 108.504 275.618 109.544 273.858 110.28C272.13 110.984 270.146 111.336 267.906 111.336Z" fill="white"/>
<path fill-rule="evenodd" clip-rule="evenodd" d="M38.4436 30.4747L30.6167 11.9532L37.4096 30.8784C38.2214 33.1401 38.3455 35.4885 37.8847 37.6888C35.6675 38.059 33.3264 37.8387 31.0999 36.935L12.4688 29.3727L30.6542 37.9516C32.8275 38.9768 34.5757 40.5495 35.8057 42.431C34.4996 44.2609 32.6883 45.7608 30.4747 46.6962L11.9532 54.5231L30.8784 47.7302C33.1403 46.9184 35.4887 46.7943 37.6891 47.2551C38.0594 49.4724 37.8392 51.8137 36.9354 54.0402L29.3731 72.6713L37.952 54.4859C38.9772 52.3127 40.5499 50.5644 42.4315 49.3344C44.2611 50.6405 45.7609 52.4517 46.6962 54.6651L54.5231 73.1866L47.7302 54.2615C46.9184 51.9997 46.7943 49.6514 47.2551 47.4511C49.4725 47.0807 51.8139 47.3009 54.0406 48.2047L72.6717 55.767L54.4863 47.1881C52.3129 46.1628 50.5646 44.59 49.3345 42.7082C50.6406 40.8786 52.4517 39.3789 54.6651 38.4436L73.1866 30.6167L54.2614 37.4096C51.9998 38.2214 49.6516 38.3455 47.4514 37.8848C47.0811 35.6675 47.3013 33.3262 48.2051 31.0995L55.7674 12.4684L47.1885 30.6538C46.1632 32.8272 44.5904 34.5756 42.7086 35.8056C40.8789 34.4995 39.379 32.6883 38.4436 30.4747Z" fill="white"/>
<path fill-rule="evenodd" clip-rule="evenodd" d="M13.7305 66.9766L13.439 58.9739L13.2884 66.9805C13.2704 67.9374 12.9842 68.8291 12.5012 69.583C11.6233 69.4069 10.783 68.9935 10.082 68.3419L4.21711 62.8892L9.7722 68.6572C10.4361 69.3465 10.8642 70.1795 11.0558 71.0541C10.3105 71.5503 9.424 71.8522 8.4676 71.887L0.464893 72.1785L8.4715 72.329C9.42836 72.347 10.3201 72.6333 11.0739 73.1163C10.8979 73.9941 10.4844 74.8345 9.83278 75.5355L4.38015 81.4004L10.1481 75.8453C10.8375 75.1814 11.6704 74.7532 12.5451 74.5617C13.0413 75.3069 13.3432 76.1935 13.378 77.1499L13.6695 85.1526L13.8201 77.146C13.838 76.1891 14.1243 75.2974 14.6073 74.5436C15.4851 74.7196 16.3255 75.1331 17.0264 75.7847L22.8913 81.2373L17.3362 75.4694C16.6723 74.78 16.2442 73.9471 16.0527 73.0725C16.7979 72.5762 17.6845 72.2743 18.6409 72.2395L26.6436 71.948L18.637 71.7974C17.6801 71.7794 16.7884 71.4932 16.0345 71.0102C16.2106 70.1324 16.624 69.292 17.2756 68.5911L22.7283 62.7262L16.9603 68.2813C16.271 68.9452 15.438 69.3733 14.5635 69.5648C14.0672 68.8196 13.7653 67.933 13.7305 66.9766Z" fill="white"/>
</svg>
