<svg width="1294" height="930" viewBox="0 0 1294 930" fill="none" xmlns="http://www.w3.org/2000/svg">
<g clip-path="url(#clip0_875_516)">
<mask id="mask0_875_516" style="mask-type:alpha" maskUnits="userSpaceOnUse" x="5" y="2" width="1282" height="928">
<path fill-rule="evenodd" clip-rule="evenodd" d="M6.93906 566.654C15.9153 477.093 47.9733 273.479 122.062 204.131C189.91 140.623 282.341 188.022 366.423 138.677C466.095 80.1828 531.499 -1.09493 652.386 2.76571C773.54 6.63485 883.885 126.186 986.051 175.767C1102 232.04 1192.28 205.611 1262.25 298.735C1327.8 385.967 1248.04 620.894 1185.69 713.578C1136.01 787.409 1147.9 855.126 1070.05 911.539C997.965 963.775 770.45 881.312 676.237 895.758C583.28 910.011 544.019 858.151 451.011 849.985C321.102 838.581 234.889 874.998 134.062 810.668C38.4506 749.665 -3.06866 666.508 6.93906 566.654Z" fill="white"/>
</mask>
<g mask="url(#mask0_875_516)">
<rect x="-15.8662" y="-0.48877" width="1357.3" height="982.318" fill="#D9D9D9"/>
<path d="M99.612 453.603L330.957 218.991L535.804 437.327L425.852 544.856L323.845 644.186L314.948 653.015L291.445 631.244L215.537 560.882L99.612 453.603Z" fill="#ADDEC9"/>
<path d="M614.787 706.771L885.49 437.799L1125.19 688.114L996.532 811.39L877.171 925.267L866.759 935.389L839.258 910.429L750.436 829.762L614.787 706.771Z" fill="#ADDEC9"/>
<path d="M200.005 68.4952L483.813 -116.453L662.72 68.4952L545.636 172.738L432.95 272.608L423.397 281.719L399.103 258.305L320.639 182.634L200.005 68.4952Z" fill="#ADDEC9"/>
<path d="M825.663 -0.401331L1175.44 -0.300334L1319.36 -5.28018L1158.56 157.724C1147.75 168.445 1135.36 176.643 1122.33 182.632C1077.21 202.806 1021.94 194.589 984.779 157.674L825.663 -0.401331Z" fill="#ADDEC9"/>
<path d="M645.662 655.631L702.545 599.185L713.667 588.149L1108.99 195.87L1122.33 182.626L1175.4 129.965L1175.39 152.361L668.218 655.637L645.662 655.631Z" fill="white"/>
<path d="M645.662 655.631L702.545 599.185L713.667 588.149L1108.99 195.87L1122.33 182.626L1175.4 129.965L1175.39 152.361L668.218 655.637L645.662 655.631Z" fill="white"/>
<path d="M1052.1 252.316L1108.99 195.87L1120.11 184.834L1515.43 -207.444L1528.77 -220.689L1581.84 -273.35L1581.84 -250.954L1074.66 252.322L1052.1 252.316Z" fill="white"/>
<path d="M264.345 1033.53L321.228 977.08L332.35 966.044L727.668 573.766L741.015 560.521L794.084 507.86L794.078 530.256L286.901 1033.53L264.345 1033.53Z" fill="white"/>
<path d="M326.696 680.775L334.64 672.892L339.407 668.162L553.908 454.995L877.409 134.298L913.636 98.0347L919.356 92.6741L920.309 91.7281L931.425 102.771L930.472 103.717L925.069 109.393L578.053 453.424L566.931 464.777L349.251 680.781L337.815 680.778L333.684 684.878L329.555 680.776L326.696 680.775Z" fill="white"/>
<path d="M-83.4539 1087.41L-75.5094 1079.53L-70.7427 1074.8L143.759 861.633L467.259 540.936L503.486 504.673L509.206 499.312L510.16 498.366L521.276 509.409L520.322 510.355L514.92 516.031L167.904 860.062L156.781 871.415L-60.898 1087.42L-72.3348 1087.42L-76.4659 1091.52L-80.5947 1087.41L-83.4539 1087.41Z" fill="white"/>
<path d="M98.4732 -0.614164L121.029 -0.607651L541.528 417.138L552.644 428.182L719.383 593.829L707.943 604.866L702.544 599.187L541.522 439.534L530.406 428.175L484.354 382.74L333.178 232.554L325.238 224.667L322.062 221.511L147.701 47.9759L136.267 36.9326L98.4732 -0.614164Z" fill="white"/>
<path d="M575.623 712.627L598.179 712.633L1018.68 1130.38L1029.79 1141.42L1196.53 1307.07L1185.09 1318.11L1179.69 1312.43L1018.67 1152.77L1007.56 1141.42L961.504 1095.98L810.327 945.795L802.387 937.907L799.211 934.752L624.85 761.217L613.417 750.173L575.623 712.627Z" fill="white"/>
<path d="M814.544 -0.40747L837.099 -0.400957L990.499 151.995C1035.28 196.483 1108.35 196.504 1153.16 152.042L1175.4 129.968L1175.39 152.048L1164.27 163.085C1148.38 178.852 1129.32 189.886 1108.98 195.558C1064.5 208.478 1014.31 197.739 979.377 163.032L899.66 83.8362L888.544 72.793L814.544 -0.40747Z" fill="white"/>
<path d="M-15.9624 227.407L-15.9557 204.144L144.272 47.2493L150.293 41.3526L161.994 53.1498L156.309 58.7186L-15.9624 227.407Z" fill="white"/>
<path d="M-16.0625 579.108L-16.0562 557.028L322.062 221.511L327.782 215.835L330.958 218.991L331.275 219.306L338.898 226.879L338.58 227.194L333.178 232.555L117.087 447.298L105.647 458.335L105.329 458.966L-16.0625 579.108Z" fill="white"/>
<path d="M100.151 454.022L112.291 441.705L118.531 448.043L333.463 666.357L339.703 672.696L334.5 677.622L331.725 680.438L327.216 685.013L322.709 680.435L321.322 678.675L121.297 475.501L106.044 460.36L100.151 454.022Z" fill="white"/>
<path d="M900.199 414.086L911.639 402.734L917.356 408.414L1166.04 655.781L1143.8 655.774L905.916 419.45L900.199 414.086Z" fill="white"/>
<path d="M574.731 -49.6419L586.093 -61.0719L591.849 -55.4318L842.213 190.229L819.975 190.375L580.484 -44.3172L574.731 -49.6419Z" fill="white"/>
<path d="M1075.33 588.314L1086.77 576.962L1092.49 582.641L1341.17 830.008L1318.93 830.002L1081.05 593.678L1075.33 588.314Z" fill="white"/>
<path d="M197.39 192.59C197.394 197.637 191.678 201.742 190.093 206.159C188.508 210.891 190.736 217.514 187.88 221.616C185.024 225.719 177.717 225.409 173.907 228.566C170.096 231.407 167.877 238.033 163.113 239.613C158.667 241.194 152.945 236.782 147.862 236.785C142.779 236.789 137.063 240.894 132.615 239.635C127.848 238.061 125.62 231.439 121.806 228.603C117.674 225.767 110.685 225.772 107.822 221.673C104.961 217.89 107.179 210.949 105.588 206.219C103.996 201.804 98.2747 197.708 98.2711 192.661C98.2675 187.614 103.983 183.509 105.568 179.092C107.153 174.36 104.925 167.737 107.781 163.635C110.637 159.532 117.944 159.842 121.754 156.685C125.565 153.844 127.784 147.218 132.548 145.638C136.994 144.057 142.716 148.469 147.799 148.466C152.882 148.462 158.597 144.357 163.046 145.616C167.812 147.19 170.041 153.812 173.855 156.648C177.987 159.484 184.976 159.479 187.839 163.578C190.7 167.361 188.482 174.302 190.073 179.032C191.665 183.447 197.386 187.543 197.39 192.59Z" fill="#06C167"/>
<path d="M150.369 188.523L144.65 188.527L144.706 267.069L150.425 267.065L150.369 188.523Z" fill="#4F545B"/>
<path d="M168.945 193.841L144.476 218.168L148.523 222.181L172.991 197.853L168.945 193.841Z" fill="#4F545B"/>
<path d="M175.155 703.853C202.701 703.833 225.016 681.645 224.997 654.295C224.977 626.945 202.631 604.789 175.084 604.808C147.538 604.828 125.223 627.016 125.242 654.366C125.262 681.717 147.608 703.872 175.155 703.853Z" fill="#66D19E"/>
<path d="M178.933 654.328L171.626 654.334L171.677 725.936L178.984 725.93L178.933 654.328Z" fill="#4F545B"/>
<path d="M989.897 773.737C974.331 773.748 961.632 786.374 961.643 801.83L961.673 844.097C961.684 859.553 974.401 872.161 989.967 872.15C1005.53 872.139 1018.23 859.513 1018.22 844.057L1018.19 801.79C1018.5 786.333 1005.46 773.726 989.897 773.737Z" fill="#06C167"/>
<path d="M993.422 815.371L987.068 815.376L987.129 900.541L993.483 900.537L993.422 815.371Z" fill="#4F545B"/>
<path d="M1231.27 476.333C1231.28 481.38 1225.56 485.484 1223.98 489.902C1222.39 494.634 1224.62 501.256 1221.76 505.359C1218.91 509.462 1211.6 509.151 1207.79 512.308C1203.98 515.15 1201.76 521.776 1197 523.356C1192.55 524.936 1186.83 520.524 1181.75 520.528C1176.66 520.532 1170.95 524.636 1166.5 523.378C1161.73 521.804 1159.5 515.182 1155.69 512.346C1151.56 509.51 1144.57 509.515 1141.71 505.416C1138.84 501.633 1141.06 494.692 1139.47 489.962C1137.56 485.547 1131.84 481.451 1131.84 476.404C1131.83 471.357 1137.55 467.252 1139.13 462.835C1140.72 458.103 1138.49 451.165 1141.35 447.378C1144.2 443.275 1151.51 443.585 1155.32 440.428C1159.13 437.587 1161.35 430.961 1166.11 429.381C1170.88 427.8 1176.6 432.212 1181.68 432.208C1186.77 432.205 1192.48 428.1 1196.93 429.359C1201.7 430.932 1203.92 437.555 1207.74 440.391C1211.87 443.227 1218.86 443.222 1221.72 447.32C1224.58 451.103 1222.36 458.044 1223.96 462.775C1225.55 467.19 1231.27 471.286 1231.27 476.333Z" fill="#06C167"/>
<path d="M1184.25 472.266L1178.53 472.27L1178.59 550.812L1184.31 550.808L1184.25 472.266Z" fill="#4F545B"/>
<path d="M1202.83 477.646L1178.36 501.974L1182.41 505.986L1206.88 481.657L1202.83 477.646Z" fill="#4F545B"/>
<path d="M1183.64 645.515L1128.12 647.654L1129.38 650.16L1041.52 563.398L1027 565.754C1026.34 582.289 1030.32 587.143 1034.84 594.519L1039.55 601.428L1047.51 620.856C1049.77 626.813 1053.3 632.278 1057.84 636.861L1077.41 656.722C1083.08 662.675 1090.04 667.229 1097.69 669.971L1116.66 677.515L1136.97 690.619C1148.54 697.556 1156.58 695.327 1165.96 689.321C1166.35 688.932 1167.77 688.063 1167.77 688.063C1193.23 669.822 1183.64 645.515 1183.64 645.515Z" fill="#A0BFF8"/>
<path d="M1148.12 646.904L1144.76 650.299L1175.81 681.038C1180.27 676.213 1183.33 670.243 1184.71 663.697L1167.04 646.197L1148.12 646.904Z" fill="#CBCBCB"/>
<mask id="mask1_875_516" style="mask-type:alpha" maskUnits="userSpaceOnUse" x="1026" y="523" width="158" height="157">
<path d="M1042.36 539.128C1034.96 546.47 1029.68 555.703 1027.03 565.955C1026.95 566.288 1026.94 566.638 1027 566.984C1027.07 567.328 1027.2 567.662 1027.39 567.964C1035.26 580.001 1044.43 591.179 1054.74 601.27L1128.74 674.526C1133.71 679.444 1145.05 680.487 1150.1 679.393C1158.13 676.974 1165.34 672.652 1171.15 666.78C1176.96 660.908 1181.21 653.652 1183.55 645.603C1184.52 640.506 1183.38 629.155 1178.47 624.293L1104.38 550.943C1094.21 540.717 1082.97 531.623 1070.88 523.843C1070.58 523.654 1070.24 523.525 1069.9 523.466C1069.55 523.406 1069.2 523.417 1068.87 523.496C1058.71 526.292 1049.59 531.671 1042.36 539.128Z" fill="white"/>
</mask>
<g mask="url(#mask1_875_516)">
<path d="M1042.36 539.128C1034.96 546.47 1029.68 555.703 1027.03 565.955C1026.95 566.288 1026.94 566.638 1027 566.984C1027.07 567.328 1027.2 567.662 1027.39 567.964C1035.26 580.001 1044.43 591.179 1054.74 601.27L1128.74 674.526C1133.71 679.444 1145.05 680.487 1150.1 679.393C1158.13 676.974 1165.34 672.652 1171.15 666.78C1176.96 660.908 1181.21 653.652 1183.55 645.603C1184.52 640.506 1183.38 629.155 1178.47 624.293L1104.38 550.943C1094.21 540.717 1082.97 531.623 1070.88 523.843C1070.58 523.654 1070.24 523.525 1069.9 523.466C1069.55 523.406 1069.2 523.417 1068.87 523.496C1058.71 526.292 1049.59 531.671 1042.36 539.128Z" fill="white"/>
<path fill-rule="evenodd" clip-rule="evenodd" d="M1182.45 656.672C1182.45 656.674 1182.45 656.675 1181.42 656.52C1180.4 656.365 1180.4 656.365 1180.4 656.366L1180.4 656.365L1180.4 656.339C1180.4 656.315 1180.4 656.272 1180.41 656.212C1180.41 656.093 1180.41 655.906 1180.4 655.655C1180.39 655.15 1180.35 654.383 1180.2 653.369C1179.92 651.339 1179.26 648.317 1177.72 644.423C1174.65 636.635 1168.1 625.331 1154.12 611.495L1155.52 610.081C1169.69 624.104 1176.43 635.666 1179.63 643.779C1181.23 647.836 1181.94 651.023 1182.24 653.215C1182.4 654.312 1182.45 655.159 1182.47 655.741C1182.47 656.031 1182.47 656.256 1182.46 656.412C1182.46 656.49 1182.46 656.553 1182.46 656.596L1182.45 656.649L1182.45 656.665L1182.45 656.671L1182.45 656.672Z" fill="#E2E2E2"/>
<path fill-rule="evenodd" clip-rule="evenodd" d="M1065.03 524.025C1072.23 529.211 1077.34 536.848 1079.27 545.344L1077.26 545.674C1075.45 537.702 1070.66 530.535 1063.9 525.667L1065.03 524.025Z" fill="#E2E2E2"/>
<path fill-rule="evenodd" clip-rule="evenodd" d="M1161 675.953C1161 675.952 1161 675.952 1161.17 676.977C1161.34 678.001 1161.34 678.001 1161.34 678L1161.34 678.001L1161.33 678.002L1161.31 678.003L1161.26 678.007C1161.22 678.01 1161.16 678.015 1161.08 678.018C1160.92 678.027 1160.7 678.032 1160.4 678.031C1159.82 678.027 1158.97 677.989 1157.87 677.853C1155.66 677.58 1152.46 676.92 1148.37 675.375C1140.2 672.286 1128.53 665.673 1114.33 651.612L1115.73 650.197C1129.74 664.069 1141.14 670.492 1148.99 673.456C1152.91 674.938 1155.95 675.558 1157.99 675.809C1159.01 675.935 1159.78 675.969 1160.28 675.973C1160.53 675.975 1160.72 675.968 1160.84 675.963C1160.9 675.96 1160.94 675.957 1160.97 675.954L1161 675.952L1161 675.953Z" fill="#E2E2E2"/>
<path fill-rule="evenodd" clip-rule="evenodd" d="M1029.21 560.715C1034.18 567.472 1041.44 572.23 1049.48 574.004L1049.17 576.014C1040.6 574.123 1032.87 569.057 1027.58 561.86L1029.21 560.715Z" fill="#E2E2E2"/>
<path d="M1151.05 602.887C1151.14 602.987 1151.2 603.115 1151.22 603.25C1151.23 603.384 1151.19 603.515 1151.12 603.62C1151.04 603.725 1150.93 603.796 1150.8 603.822C1150.67 603.847 1150.53 603.826 1150.41 603.76C1143.53 599.716 1128.79 590.801 1122.98 585.042L1103.33 565.597C1098.65 560.967 1094.52 555.824 1091.01 550.28C1090.96 550.182 1090.94 550.071 1090.95 549.965C1090.96 549.859 1091.01 549.761 1091.08 549.687C1091.16 549.613 1091.25 549.565 1091.36 549.551C1091.47 549.537 1091.58 549.557 1091.68 549.609L1099.56 552.972C1100.77 553.472 1101.87 554.208 1102.81 555.134L1151.05 602.887Z" fill="#1F1F1F"/>
<path d="M1153.13 600.292C1153.13 600.292 1154.12 596.686 1154.86 594.162C1155.6 591.639 1155.38 589.853 1153.16 588.319L1148.68 597.079L1151.11 598.401L1150.93 599.413L1153.13 600.292Z" fill="white"/>
<path d="M1183.64 645.515C1183.4 646.72 1183.08 647.908 1182.7 649.068C1182.31 646.576 1181.59 644.123 1180.57 641.777C1180.31 641.217 1180.26 640.594 1180.43 640.029C1181.19 637.456 1181.41 634.723 1181.08 631.992C1180.75 629.261 1179.88 626.588 1178.52 624.131C1183.53 629.122 1184.74 640.403 1183.64 645.515Z" fill="#FFC043"/>
<path d="M1065.73 526.099L1064.36 524.952C1065.82 524.384 1067.31 523.897 1068.83 523.496C1069.17 523.411 1069.52 523.397 1069.87 523.453C1070.22 523.51 1070.56 523.637 1070.86 523.826C1071.76 524.396 1073.17 525.271 1075.19 526.636L1074.62 526.42C1072.78 526.169 1070.95 526.323 1069.23 526.869C1068.65 527.039 1068.03 527.057 1067.41 526.924C1066.8 526.788 1066.23 526.506 1065.73 526.099Z" fill="#E85C4A"/>
<path d="M1114.87 610.907C1110.43 615.279 1105.57 619.212 1100.36 622.658C1099.58 623.186 1099.05 624.009 1098.89 624.954C1098.72 625.901 1098.94 626.899 1099.48 627.739L1114.62 651.02C1114.67 651.107 1114.75 651.176 1114.84 651.213C1114.94 651.248 1115.04 651.249 1115.13 651.216C1133.49 643.65 1147.82 629.179 1155.2 610.743C1155.23 610.652 1155.23 610.549 1155.19 610.454C1155.16 610.36 1155.09 610.28 1155 610.229L1131.62 595.385C1130.78 594.849 1129.78 594.647 1128.83 594.821C1127.89 594.993 1127.07 595.529 1126.55 596.316C1123.13 601.551 1119.22 606.436 1114.87 610.907Z" fill="#1F1F1F"/>
<path d="M1107.23 647.144C1107.33 647.24 1107.46 647.298 1107.6 647.309C1107.73 647.322 1107.86 647.284 1107.97 647.206C1108.07 647.129 1108.14 647.014 1108.17 646.884C1108.19 646.754 1108.17 646.617 1108.1 646.496C1103.99 639.658 1094.92 625.015 1089.11 619.256L1069.46 599.81C1064.79 595.177 1059.6 591.092 1054.02 587.641C1053.93 587.589 1053.81 587.57 1053.71 587.584C1053.6 587.598 1053.51 587.646 1053.43 587.72C1053.36 587.794 1053.31 587.892 1053.3 587.998C1053.29 588.104 1053.31 588.215 1053.36 588.313L1056.8 596.168C1057.31 597.368 1058.06 598.465 1059 599.391L1107.23 647.144Z" fill="#1F1F1F"/>
<path d="M1049.07 560.992C1048.02 562.045 1047.22 563.316 1046.72 564.726C1046.21 566.136 1046.01 567.657 1046.12 569.189C1046.24 570.723 1046.67 572.237 1047.38 573.636C1048.1 575.036 1049.09 576.291 1050.29 577.324L1059.58 586.524C1059.72 586.669 1059.9 586.783 1060.08 586.86C1060.27 586.934 1060.47 586.969 1060.67 586.961C1060.86 586.953 1061.05 586.9 1061.22 586.81C1061.39 586.721 1061.54 586.592 1061.65 586.436C1069.77 575.661 1079.3 566.042 1089.99 557.81C1090.14 557.697 1090.27 557.55 1090.36 557.381C1090.45 557.21 1090.5 557.018 1090.5 556.821C1090.51 556.624 1090.47 556.426 1090.4 556.239C1090.32 556.053 1090.2 555.882 1090.05 555.74L1080.76 546.541C1079.7 545.336 1078.42 544.351 1076.99 543.645C1075.56 542.942 1074.02 542.534 1072.47 542.449C1070.92 542.366 1069.38 542.606 1067.97 543.157C1066.56 543.705 1065.29 544.554 1064.26 545.644C1058.89 550.618 1054.04 555.516 1049.07 560.992Z" fill="#1F1F1F"/>
<path d="M1104.66 649.252C1104.66 649.252 1101.06 650.278 1098.55 651.044C1096.03 651.81 1094.24 651.614 1092.69 649.409L1101.4 644.837L1102.75 647.255L1103.76 647.065L1104.66 649.252Z" fill="white"/>
<path d="M1150.19 679.304C1151.39 679.055 1152.58 678.729 1153.73 678.331C1151.24 677.964 1148.78 677.273 1146.42 676.274C1145.86 676.018 1145.23 675.974 1144.67 676.152C1142.11 676.935 1139.37 677.184 1136.64 676.882C1133.91 676.581 1131.22 675.738 1128.75 674.399C1133.8 679.355 1145.14 680.399 1150.19 679.304Z" fill="#FFC043"/>
<path d="M1029.5 562.7L1028.34 561.341C1027.83 562.784 1027.39 564.257 1027.04 565.756C1026.96 566.092 1026.94 566.444 1027 566.792C1027.06 567.141 1027.2 567.478 1027.39 567.783C1027.97 568.671 1028.84 570.095 1030.24 572.078L1030.02 571.509C1029.74 569.676 1029.87 567.829 1030.4 566.104C1030.53 565.525 1030.52 564.913 1030.37 564.318C1030.21 563.726 1029.91 563.17 1029.5 562.7Z" fill="#E85C4A"/>
</g>
<path d="M117.384 481.405L118.276 425.851L115.704 426.971L207.128 343.978L205.567 329.347C189.093 327.785 184.029 331.497 176.418 335.604L169.262 339.936L149.429 346.819C143.358 348.756 137.708 351.983 132.884 356.264L111.986 374.72C105.733 380.057 100.806 386.764 97.6508 394.246L89.0842 412.779L74.8919 432.344C67.3345 443.518 69.1213 451.668 74.6072 461.368C74.9746 461.774 75.7647 463.24 75.7647 463.24C92.5899 489.659 117.384 481.405 117.384 481.405Z" fill="#A0BFF8"/>
<path d="M117.934 445.863L114.728 442.323L82.3418 471.651C86.9161 476.363 92.7104 479.749 99.1708 481.484L117.61 464.787L117.934 445.863Z" fill="#CBCBCB"/>
<mask id="mask2_875_516" style="mask-type:alpha" maskUnits="userSpaceOnUse" x="85" y="329" width="161" height="153">
<path d="M231.317 346.14C224.389 338.35 215.458 332.575 205.367 329.362C205.038 329.267 204.688 329.241 204.34 329.284C203.993 329.33 203.653 329.443 203.341 329.619C190.892 336.817 179.231 345.37 168.593 355.111L91.4103 425.006C86.2294 429.698 84.5688 440.97 85.3866 446.069C87.3647 454.214 91.2869 461.651 96.8332 467.776C102.38 473.9 109.393 478.539 117.302 481.312C122.338 482.558 133.735 482.038 138.857 477.4L216.138 407.416C226.904 397.823 236.596 387.097 245.024 375.45C245.23 375.157 245.376 374.83 245.455 374.488C245.533 374.146 245.542 373.796 245.48 373.459C243.243 363.157 238.37 353.757 231.317 346.14Z" fill="white"/>
</mask>
<g mask="url(#mask2_875_516)">
<path d="M231.317 346.14C224.389 338.35 215.458 332.575 205.367 329.362C205.038 329.267 204.688 329.241 204.34 329.284C203.993 329.33 203.653 329.443 203.341 329.619C190.892 336.817 179.231 345.37 168.593 355.111L91.4103 425.006C86.2294 429.698 84.5688 440.97 85.3866 446.069C87.3647 454.214 91.2869 461.651 96.8332 467.776C102.38 473.9 109.393 478.539 117.302 481.312C122.338 482.558 133.735 482.038 138.857 477.4L216.138 407.416C226.904 397.823 236.596 387.097 245.024 375.45C245.23 375.157 245.376 374.83 245.455 374.488C245.533 374.146 245.542 373.796 245.48 373.459C243.243 363.157 238.37 353.757 231.317 346.14Z" fill="white"/>
<path fill-rule="evenodd" clip-rule="evenodd" d="M106.309 479.609C106.307 479.608 106.307 479.608 106.517 478.592C106.728 477.575 106.727 477.576 106.727 477.576L106.728 477.575L106.753 477.579C106.778 477.58 106.821 477.585 106.881 477.591C106.999 477.602 107.185 477.614 107.437 477.621C107.942 477.638 108.71 477.633 109.73 477.545C111.772 477.374 114.827 476.874 118.799 475.553C126.742 472.914 138.387 466.984 152.964 453.784L154.3 455.259C139.525 468.639 127.612 474.744 119.337 477.496C115.199 478.87 111.978 479.403 109.772 479.592C108.669 479.685 107.82 479.691 107.239 479.674C106.948 479.665 106.724 479.65 106.568 479.637C106.49 479.63 106.428 479.622 106.385 479.618L106.333 479.611L106.316 479.609L106.31 479.608L106.309 479.609Z" fill="#E2E2E2"/>
<path fill-rule="evenodd" clip-rule="evenodd" d="M245.16 369.6C239.589 376.508 231.686 381.184 223.097 382.655L222.877 380.633C230.936 379.252 238.354 374.864 243.583 368.383L245.16 369.6Z" fill="#E2E2E2"/>
<path fill-rule="evenodd" clip-rule="evenodd" d="M88.2275 457.138C88.2279 457.138 88.2282 457.137 87.1957 457.253C86.1633 457.369 86.1637 457.369 86.1641 457.369L86.1636 457.366L86.163 457.359L86.1626 457.343L86.1613 457.291C86.161 457.247 86.1594 457.185 86.1602 457.107C86.1603 456.949 86.167 456.725 86.1849 456.433C86.2207 455.85 86.305 455.002 86.5003 453.909C86.8935 451.723 87.7273 448.558 89.4923 444.563C93.0225 436.57 100.262 425.282 115.077 411.865L116.413 413.34C101.798 426.576 94.7619 437.613 91.3752 445.282C89.6816 449.118 88.8966 452.118 88.5351 454.141C88.3534 455.151 88.2774 455.918 88.2463 456.423C88.2305 456.675 88.2268 456.863 88.2254 456.982C88.2255 457.042 88.2261 457.085 88.2271 457.111L88.228 457.137L88.2275 457.138Z" fill="#E2E2E2"/>
<path fill-rule="evenodd" clip-rule="evenodd" d="M210.479 331.827C203.461 336.424 198.313 343.411 196.104 351.35L194.114 350.923C196.47 342.473 201.949 335.03 209.424 330.137L210.479 331.827Z" fill="#E2E2E2"/>
<path d="M161.727 451.185C161.622 451.275 161.49 451.328 161.356 451.334C161.221 451.339 161.092 451.297 160.992 451.215C160.891 451.132 160.826 451.015 160.807 450.884C160.789 450.753 160.818 450.616 160.89 450.499C165.304 443.851 175.009 429.624 181.076 424.13L201.563 405.577C206.441 401.156 211.802 397.305 217.529 394.106C217.63 394.058 217.742 394.044 217.847 394.063C217.952 394.082 218.047 394.133 218.117 394.211C218.187 394.288 218.23 394.388 218.238 394.494C218.246 394.601 218.221 394.711 218.164 394.807L214.375 402.501C213.81 403.676 213.015 404.739 212.039 405.623L161.727 451.185Z" fill="#1F1F1F"/>
<path d="M164.206 453.405C164.206 453.405 167.753 454.59 170.232 455.467C172.711 456.343 174.506 456.228 176.159 454.094L167.656 449.139L166.204 451.495L165.203 451.26L164.206 453.405Z" fill="white"/>
<path d="M117.383 481.404C116.193 481.095 115.025 480.717 113.886 480.274C116.397 480.018 118.884 479.437 121.283 478.544C121.856 478.313 122.482 478.297 123.036 478.5C125.564 479.397 128.281 479.766 131.026 479.587C133.771 479.408 136.487 478.683 139.015 477.457C133.758 482.184 122.428 482.777 117.383 481.404Z" fill="#FFC043"/>
<path d="M243.051 370.187L244.27 368.881C244.758 370.366 245.163 371.883 245.48 373.424C245.547 373.762 245.542 374.115 245.467 374.46C245.391 374.806 245.246 375.137 245.041 375.433C244.423 376.295 243.472 377.66 241.999 379.597L242.246 379.038C242.596 377.223 242.543 375.38 242.091 373.64C241.953 373.05 241.969 372.425 242.136 371.821C242.304 371.218 242.618 370.656 243.051 370.187Z" fill="#E85C4A"/>
<path d="M155.69 414.626C151.567 409.951 147.904 404.887 144.748 399.495C144.263 398.685 143.47 398.114 142.535 397.9C141.599 397.684 140.591 397.842 139.722 398.34L115.651 412.183C115.561 412.231 115.488 412.307 115.445 412.399C115.405 412.493 115.399 412.596 115.427 412.688C121.98 431.434 135.648 446.527 153.655 454.902C153.744 454.94 153.847 454.943 153.943 454.911C154.04 454.879 154.124 454.815 154.179 454.729L170.275 432.198C170.857 431.382 171.113 430.395 170.991 429.442C170.87 428.49 170.38 427.645 169.623 427.082C164.582 423.384 159.917 419.213 155.69 414.626Z" fill="#1F1F1F"/>
<path d="M119.926 405.025C119.825 405.119 119.76 405.245 119.742 405.379C119.722 405.512 119.752 405.645 119.825 405.754C119.896 405.861 120.007 405.938 120.135 405.97C120.264 406.001 120.401 405.984 120.526 405.925C127.578 402.19 142.694 393.939 148.761 388.444L169.249 369.891C174.13 365.474 178.492 360.52 182.242 355.138C182.299 355.042 182.324 354.932 182.316 354.826C182.308 354.719 182.265 354.62 182.195 354.542C182.125 354.465 182.031 354.413 181.925 354.394C181.82 354.376 181.708 354.39 181.607 354.437L173.576 357.447C172.35 357.892 171.214 358.579 170.238 359.463L119.926 405.025Z" fill="#1F1F1F"/>
<path d="M209.121 351.64C208.126 350.541 206.901 349.673 205.52 349.091C204.14 348.508 202.632 348.222 201.096 348.254C199.558 348.283 198.023 348.629 196.587 349.269C195.15 349.909 193.843 350.827 192.746 351.968L183.054 360.745C182.901 360.881 182.778 361.046 182.691 361.228C182.606 361.413 182.56 361.609 182.558 361.806C182.555 362.003 182.597 362.196 182.679 362.371C182.758 362.544 182.879 362.696 183.029 362.816C193.345 371.515 202.43 381.548 210.067 392.674C210.171 392.834 210.311 392.969 210.475 393.066C210.641 393.164 210.83 393.225 211.026 393.242C211.222 393.259 211.422 393.232 211.613 393.166C211.804 393.098 211.98 392.992 212.13 392.853L221.822 384.076C223.083 383.086 224.136 381.856 224.919 380.469C225.7 379.081 226.191 377.566 226.36 376.019C226.528 374.471 226.371 372.928 225.899 371.486C225.428 370.046 224.65 368.737 223.617 367.648C218.944 362.012 214.318 356.903 209.121 351.64Z" fill="#1F1F1F"/>
<path d="M117.959 402.339C117.959 402.339 117.13 398.692 116.503 396.139C115.876 393.585 116.168 391.81 118.455 390.376L122.545 399.327L120.058 400.539L120.192 401.559L117.959 402.339Z" fill="white"/>
<path d="M85.4697 446.161C85.6532 447.378 85.9142 448.578 86.2481 449.753C86.7508 447.28 87.575 444.862 88.7012 442.563C88.9875 442.015 89.0648 441.395 88.918 440.823C88.2757 438.219 88.1766 435.479 88.6267 432.766C89.0766 430.052 90.0646 427.419 91.5358 425.026C86.3124 429.79 84.6519 441.061 85.4697 446.161Z" fill="#FFC043"/>
<path d="M208.481 332.012L209.901 330.927C208.489 330.333 207.041 329.818 205.564 329.384C205.233 329.284 204.882 329.253 204.531 329.295C204.179 329.335 203.836 329.448 203.521 329.622C202.602 330.152 201.134 330.945 199.077 332.237L199.657 332.047C201.503 331.87 203.339 332.1 205.033 332.717C205.604 332.885 206.216 332.908 206.818 332.786C207.418 332.662 207.989 332.397 208.481 332.012Z" fill="#E85C4A"/>
</g>
</g>
<path d="M386.395 672.439V343.92C386.395 298.597 423.135 261.856 468.459 261.856H796.978C842.301 261.856 879.042 298.597 879.042 343.92V672.439C879.042 717.763 842.301 754.503 796.978 754.503H468.459C423.135 754.503 386.395 717.763 386.395 672.439Z" fill="#333232"/>
<path d="M797.743 424.528C786.894 424.528 779.198 433.023 779.198 446.051V493.849H762.634V409.694H779.001V419.962C783.117 413.033 790.66 408.872 798.718 409.091H804.662V424.506L797.743 424.528ZM751.183 451.777C751.183 426.684 733.327 407.92 709.176 407.92C685.267 408.073 666.01 427.604 666.163 451.525C666.163 451.612 666.163 451.7 666.163 451.787C666.163 476.858 685.507 495.819 710.742 495.819C725.04 496.093 738.582 489.382 747.034 477.854L735.013 469.041C729.408 476.847 720.343 481.423 710.731 481.281C696.805 481.204 684.993 470.979 682.968 457.196H751.227L751.183 451.777ZM683.329 444.058C686.285 431.217 696.543 422.535 708.979 422.535C721.416 422.535 731.652 431.217 734.422 444.058H683.329ZM613.69 407.92C602.513 407.931 591.795 412.409 583.934 420.357V379.215H567.382V493.849H583.748V483.175C591.675 491.199 602.458 495.743 613.734 495.808C638.005 496.323 658.094 477.066 658.609 452.795C659.123 428.524 639.866 408.435 615.595 407.92C614.982 407.909 614.347 407.909 613.734 407.92H613.69ZM612.497 481.007C596.404 481.084 583.3 468.1 583.223 452.006C583.146 435.913 596.13 422.809 612.223 422.732C628.316 422.656 641.421 435.64 641.498 451.733C641.498 451.82 641.498 451.886 641.498 451.974C641.53 467.946 628.59 480.919 612.607 480.93C612.563 480.93 612.519 480.93 612.497 480.93V481.007ZM506.381 480.219C522.375 480.219 534.779 467.957 534.779 449.587V379.215H551.945V493.849H534.976V482.912C526.963 491.188 515.916 495.819 504.41 495.754C479.756 495.754 460.762 477.788 460.762 450.528V379.215H478.245V449.686C478.256 468.154 490.145 480.219 506.381 480.219Z" fill="white"/>
<path d="M462.58 522.51H542.936V542.172H484.289V570.099H541.305V589.094H484.289V617.481H542.936V637.143H462.58C462.58 637.132 462.58 522.51 462.58 522.51ZM764.212 638.917C788.767 638.917 802.616 627.148 802.616 611C802.616 599.494 794.416 590.911 777.272 587.189L759.132 583.478C748.6 581.518 745.294 579.547 745.294 575.639C745.294 570.57 750.363 567.439 759.723 567.439C769.85 567.439 777.36 570.165 779.319 579.536H800.569C799.408 561.9 786.731 550.251 761.004 550.251C738.78 550.251 723.18 559.425 723.18 577.205C723.18 589.499 731.762 597.491 750.286 601.388L770.561 606.074C778.553 607.639 780.688 609.796 780.688 613.113C780.688 618.39 774.656 621.696 764.879 621.696C752.618 621.696 745.589 618.97 742.874 609.599H721.515C724.625 627.225 737.685 638.917 764.212 638.917ZM715.341 618.04H699.368C694.486 618.04 691.376 615.894 691.376 611.394V571.567H715.352V552.452H691.376V528.432H670.017V552.452H653.771V571.577H669.952V616.868C669.952 628.199 677.944 637.176 692.373 637.176H715.374L715.341 618.04ZM644.509 552.452V637.132H623.205V629.108C615.684 635.468 606.137 638.95 596.295 638.906C595.682 638.917 595.047 638.917 594.434 638.906C569.966 638.391 550.534 618.127 551.049 593.659C551.563 569.191 571.827 549.759 596.295 550.273C606.148 550.24 615.684 553.711 623.205 560.071V552.452H644.509V552.452ZM598.014 620.371C598.102 620.371 598.2 620.371 598.288 620.371C612.356 620.24 623.665 608.723 623.533 594.655C623.533 594.557 623.533 594.436 623.533 594.338C623.38 580.095 611.699 568.687 597.467 568.862C583.224 569.016 571.816 580.697 571.992 594.929C572.145 609.172 583.826 620.579 598.058 620.404L598.014 620.371Z" fill="#A0D2A1"/>
</g>
<defs>
<clipPath id="clip0_875_516">
<rect width="1294" height="929.248" fill="white" transform="translate(0 0.483261)"/>
</clipPath>
</defs>
</svg>
