<svg width="105" height="14" viewBox="0 0 105 38" fill="none" xmlns="http://www.w3.org/2000/svg">
<g clip-path="url(#clip0_865_203)">
<path d="M6.17976 26.7213C6.61925 27.8876 7.22772 28.8848 8.00527 29.713C8.78283 30.5413 9.704 31.1751 10.7688 31.6146C11.8337 32.0541 12.9915 32.2738 14.2423 32.2738C15.4594 32.2738 16.6002 32.0455 17.6651 31.5891C18.73 31.1327 19.6596 30.4904 20.454 29.6623C21.2484 28.834 21.8654 27.8453 22.3049 26.6959C22.7444 25.5465 22.9641 24.262 22.9641 22.8421V0.936401H28.2883V36.4317H23.0148V33.1357C21.8316 34.3864 20.4371 35.3499 18.8313 36.0261C17.2255 36.7021 15.4931 37.0402 13.6338 37.0402C11.7407 37.0402 9.9744 36.7105 8.33481 36.0513C6.69532 35.3922 5.27541 34.4542 4.07542 33.2371C2.87543 32.0201 1.92879 30.5582 1.23583 28.8509C0.542767 27.1438 0.196289 25.2423 0.196289 23.1463V0.936401H5.52057V22.8421C5.52057 24.262 5.74026 25.5549 6.17976 26.7213Z" fill="white"/>
<path d="M37.4657 0.936462V13.8669C38.6488 12.6837 40.018 11.7457 41.573 11.0526C43.128 10.3596 44.8183 10.0131 46.6437 10.0131C48.5369 10.0131 50.3115 10.368 51.968 11.0779C53.6244 11.7878 55.0611 12.7513 56.2781 13.9683C57.4952 15.1853 58.4586 16.622 59.1685 18.2784C59.8784 19.9349 60.2333 21.6928 60.2333 23.5521C60.2333 25.4113 59.8784 27.1607 59.1685 28.8002C58.4586 30.4398 57.4952 31.8681 56.2781 33.0849C55.0611 34.302 53.6244 35.2654 51.968 35.9753C50.3115 36.6852 48.5368 37.0401 46.6437 37.0401C44.8182 37.0401 43.1196 36.6937 41.5477 36.0006C39.9757 35.3076 38.5981 34.3695 37.4149 33.1864V36.4317H32.3442V0.936462H37.4657ZM38.0488 27.0509C38.5051 28.1327 39.139 29.0792 39.9504 29.8906C40.7617 30.7019 41.7082 31.3442 42.7899 31.8175C43.8718 32.2908 45.038 32.5274 46.2888 32.5274C47.5059 32.5274 48.6552 32.2908 49.7369 31.8175C50.8186 31.3442 51.7566 30.702 52.5512 29.8906C53.3456 29.0793 53.9794 28.1327 54.4527 27.0509C54.926 25.9691 55.1626 24.8029 55.1626 23.5521C55.1626 22.3013 54.926 21.1265 54.4527 20.0278C53.9794 18.9292 53.3456 17.9742 52.5512 17.1629C51.7567 16.3517 50.8187 15.7177 49.7369 15.2614C48.655 14.8051 47.5058 14.5768 46.2888 14.5768C45.0719 14.5768 43.9225 14.805 42.8408 15.2614C41.759 15.7179 40.8125 16.3517 40.0011 17.1629C39.1899 17.9742 38.5475 18.9292 38.0742 20.0278C37.601 21.1265 37.3643 22.3013 37.3643 23.5521C37.3642 24.8029 37.5924 25.9691 38.0488 27.0509Z" fill="white"/>
<path d="M63.1233 18.3292C63.7993 16.7066 64.7292 15.2784 65.9122 14.0445C67.0953 12.8106 68.4983 11.8387 70.121 11.1288C71.7436 10.4189 73.5015 10.064 75.3946 10.064C77.2539 10.064 78.9779 10.4021 80.5668 11.0781C82.1556 11.7542 83.5247 12.6923 84.6741 13.8924C85.8234 15.0924 86.7194 16.5123 87.3615 18.1518C88.0039 19.7914 88.325 21.5746 88.325 23.5016V25.175H67.2814C67.4505 26.2229 67.7886 27.1948 68.2956 28.0905C68.8027 28.9863 69.4365 29.7639 70.1971 30.4231C70.9577 31.0823 71.8197 31.5979 72.7832 31.9696C73.7467 32.3415 74.7692 32.5275 75.851 32.5275C78.9273 32.5275 81.412 31.2597 83.3051 28.7243L87.0067 31.4625C85.7221 33.1866 84.1334 34.5388 82.2403 35.5191C80.3471 36.4994 78.2174 36.9896 75.8511 36.9896C73.9242 36.9896 72.1241 36.6515 70.4508 35.9754C68.7774 35.2994 67.3238 34.3528 66.0899 33.1357C64.8561 31.9187 63.8842 30.4905 63.1743 28.851C62.4644 27.2115 62.1094 25.4282 62.1094 23.5014C62.1092 21.676 62.4473 19.9519 63.1233 18.3292ZM70.2478 16.3262C68.811 17.5263 67.8561 19.1236 67.3828 21.1181H83.1529C82.7134 19.1236 81.7753 17.5263 80.3386 16.3262C78.9019 15.1262 77.2201 14.5262 75.2932 14.5262C73.3663 14.5262 71.6845 15.1262 70.2478 16.3262Z" fill="white"/>
<path d="M97.9087 16.9093C96.827 18.0924 96.2861 19.6981 96.2861 21.7265V36.4318H91.1646V10.5709H96.2353V13.7655C96.8776 12.7175 97.7143 11.8893 98.7453 11.2808C99.7763 10.6722 101.002 10.3679 102.422 10.3679H104.196V15.1345H102.067C100.376 15.1346 98.9905 15.7261 97.9087 16.9093Z" fill="white"/>
</g>
<defs>
<clipPath id="clip0_865_203">
<rect width="104" height="36.1038" fill="white" transform="translate(0.196289 0.936401)"/>
</clipPath>
</defs>
</svg>
