<svg width="271" height="385" viewBox="0 0 271 385" fill="none" xmlns="http://www.w3.org/2000/svg">
<g clip-path="url(#clip0_958_1298)">
<path d="M46.4578 245.699C48.2578 245.699 49.3378 245.259 50.0978 244.459C50.7978 243.739 51.1978 242.659 51.1978 241.559C51.1978 240.459 50.7978 239.379 50.0978 238.659C49.3178 237.839 48.2578 237.399 46.4578 237.399H41.1978V251.399H43.8978V245.699H46.4578ZM43.8978 243.299V239.799H46.3378C47.2578 239.799 47.7178 240.019 48.0378 240.359C48.3378 240.679 48.4978 241.099 48.4978 241.559C48.4978 242.019 48.3378 242.419 48.0378 242.739C47.7178 243.079 47.2578 243.299 46.3378 243.299H43.8978ZM59.3993 247.999C58.8993 248.719 58.0393 249.199 57.0593 249.199C55.5993 249.199 54.4993 248.079 54.4993 246.559C54.4993 245.159 55.4793 243.899 56.9993 243.899C57.9993 243.899 58.8593 244.379 59.3993 245.099V247.999ZM61.9993 241.699H59.4993V242.479C58.7393 241.859 57.7593 241.499 56.6593 241.499C54.0193 241.499 51.8993 243.699 51.8993 246.559C51.8993 247.879 52.3793 249.079 53.1393 249.959C53.9993 250.959 55.3593 251.599 56.7993 251.599C57.7793 251.599 58.6993 251.299 59.4993 250.619V251.399H61.9993V241.699ZM71.204 241.579C70.924 241.539 70.704 241.499 70.324 241.499C69.144 241.499 68.084 241.959 67.504 242.679V241.699H65.004V251.399H67.604V245.299C67.924 244.719 68.824 243.899 69.964 243.899C70.344 243.899 70.724 243.939 70.904 243.999L71.204 241.579ZM80.7126 249.199C80.5326 249.239 80.0326 249.299 79.6526 249.299C79.0126 249.299 78.5926 249.119 78.3326 248.819C78.1126 248.559 78.0126 248.199 78.0126 247.599V243.899H81.2126V241.699H78.0126V238.999H75.4126V241.699H72.7126V243.899H75.4126V247.299C75.4126 248.679 75.6326 249.539 76.1326 250.199C76.7926 251.079 77.9326 251.599 79.4926 251.599C79.9926 251.599 80.7726 251.519 81.1126 251.399L80.7126 249.199ZM86.315 241.699H83.715V251.399H86.315V241.699ZM83.315 238.259C83.315 239.199 84.075 239.919 85.015 239.919C85.955 239.919 86.715 239.199 86.715 238.259C86.715 237.319 85.955 236.599 85.015 236.599C84.075 236.599 83.315 237.319 83.315 238.259ZM96.1204 247.919C95.7004 248.559 94.8604 249.199 93.8004 249.199C92.2204 249.199 91.1204 248.079 91.1204 246.559C91.1204 245.079 92.2404 243.899 93.7404 243.899C94.6804 243.899 95.4604 244.379 95.9804 245.059L97.8204 243.439C96.9204 242.279 95.4204 241.499 93.7404 241.499C90.7804 241.499 88.5204 243.739 88.5204 246.559C88.5204 249.359 90.7204 251.599 93.7204 251.599C95.5404 251.599 96.9804 250.939 98.1204 249.419L96.1204 247.919ZM102.721 241.699H100.121V251.399H102.721V241.699ZM99.7212 238.259C99.7212 239.199 100.481 239.919 101.421 239.919C102.361 239.919 103.121 239.199 103.121 238.259C103.121 237.319 102.361 236.599 101.421 236.599C100.481 236.599 99.7212 237.319 99.7212 238.259ZM105.727 256.199H108.327V250.719C109.107 251.319 109.947 251.599 110.927 251.599C112.367 251.599 113.747 250.959 114.607 249.959C115.367 249.079 115.827 247.879 115.827 246.559C115.827 243.699 113.707 241.499 111.067 241.499C109.967 241.499 108.987 241.859 108.227 242.479V241.699H105.727V256.199ZM108.327 245.099C108.867 244.379 109.727 243.899 110.727 243.899C112.247 243.899 113.227 245.159 113.227 246.559C113.227 248.079 112.127 249.199 110.667 249.199C109.687 249.199 108.827 248.719 108.327 247.999V245.099ZM124.927 247.999C124.427 248.719 123.567 249.199 122.587 249.199C121.127 249.199 120.027 248.079 120.027 246.559C120.027 245.159 121.007 243.899 122.527 243.899C123.527 243.899 124.387 244.379 124.927 245.099V247.999ZM127.527 241.699H125.027V242.479C124.267 241.859 123.287 241.499 122.187 241.499C119.547 241.499 117.427 243.699 117.427 246.559C117.427 247.879 117.907 249.079 118.667 249.959C119.527 250.959 120.887 251.599 122.327 251.599C123.307 251.599 124.227 251.299 125.027 250.619V251.399H127.527V241.699ZM137.431 249.199C137.251 249.239 136.751 249.299 136.371 249.299C135.731 249.299 135.311 249.119 135.051 248.819C134.831 248.559 134.731 248.199 134.731 247.599V243.899H137.931V241.699H134.731V238.999H132.131V241.699H129.431V243.899H132.131V247.299C132.131 248.679 132.351 249.539 132.851 250.199C133.511 251.079 134.651 251.599 136.211 251.599C136.711 251.599 137.491 251.519 137.831 251.399L137.431 249.199ZM139.341 246.559C139.341 249.359 141.561 251.599 144.501 251.599C147.441 251.599 149.661 249.359 149.661 246.559C149.661 243.759 147.441 241.499 144.501 241.499C141.561 241.499 139.341 243.759 139.341 246.559ZM141.941 246.559C141.941 245.099 142.981 243.899 144.501 243.899C146.021 243.899 147.061 245.099 147.061 246.559C147.061 248.019 146.021 249.199 144.501 249.199C142.981 249.199 141.941 248.019 141.941 246.559ZM158.06 241.579C157.78 241.539 157.56 241.499 157.18 241.499C156 241.499 154.94 241.959 154.36 242.679V241.699H151.86V251.399H154.46V245.299C154.78 244.719 155.68 243.899 156.82 243.899C157.2 243.899 157.58 243.939 157.76 243.999L158.06 241.579ZM163.846 256.199L170.526 241.699H167.786L165.166 247.519L162.326 241.699H159.466L163.806 250.419L161.126 256.199H163.846ZM175.54 249.499C176.98 250.819 178.72 251.599 180.6 251.599C183.12 251.599 185.34 249.879 185.34 247.399C185.34 242.679 178.88 243.379 178.88 241.119C178.88 240.039 180.02 239.599 181.04 239.599C181.96 239.599 182.9 239.999 183.46 240.519L184.86 238.519C183.54 237.539 182.22 237.199 180.8 237.199C178.48 237.199 176.18 238.639 176.18 241.139C176.18 242.719 177.06 243.679 178.16 244.319C180.04 245.419 182.64 245.639 182.64 247.439C182.64 248.459 181.8 249.199 180.6 249.199C179.32 249.199 178.1 248.539 177.3 247.659L175.54 249.499ZM194.052 249.199C193.872 249.239 193.372 249.299 192.992 249.299C192.352 249.299 191.932 249.119 191.672 248.819C191.452 248.559 191.352 248.199 191.352 247.599V243.899H194.552V241.699H191.352V238.999H188.752V241.699H186.052V243.899H188.752V247.299C188.752 248.679 188.972 249.539 189.472 250.199C190.132 251.079 191.272 251.599 192.832 251.599C193.332 251.599 194.112 251.519 194.452 251.399L194.052 249.199ZM203.655 241.699V247.999C203.295 248.459 202.495 249.199 201.395 249.199C200.895 249.199 200.335 249.039 199.935 248.599C199.635 248.259 199.455 247.819 199.455 246.939V241.699H196.855V246.839C196.855 248.279 197.215 249.279 197.835 250.039C198.595 250.979 199.795 251.599 201.135 251.599C202.075 251.599 202.995 251.299 203.755 250.619V251.399H206.255V241.699H203.655ZM215.962 247.999C215.462 248.719 214.602 249.199 213.622 249.199C212.162 249.199 211.062 248.079 211.062 246.559C211.062 245.159 212.042 243.899 213.562 243.899C214.562 243.899 215.422 244.379 215.962 245.099V247.999ZM218.562 251.399V237.199H215.962V242.399C215.202 241.799 214.282 241.499 213.222 241.499C210.582 241.499 208.462 243.699 208.462 246.559C208.462 247.879 208.942 249.079 209.702 249.959C210.562 250.959 211.922 251.599 213.362 251.599C214.342 251.599 215.262 251.299 216.062 250.619V251.399H218.562ZM224.647 256.199L231.327 241.699H228.587L225.967 247.519L223.127 241.699H220.267L224.607 250.419L221.927 256.199H224.647Z" fill="white"/>
<path d="M44.7156 287.275V284.755H48.9156V283.425H43.3156V293.225H49.0556V291.895H44.7156V288.605H47.9356V287.275H44.7156ZM52.0941 286.645H50.8061V293.225H52.1361V288.703C52.5281 288.227 53.1581 287.765 54.0261 287.765C54.5721 287.765 55.0761 288.017 55.3841 288.409C55.6221 288.703 55.7761 289.095 55.7761 289.935V293.225H57.1061V290.005C57.1061 288.871 56.8821 288.199 56.4621 287.667C55.9021 286.953 55.0341 286.505 54.0681 286.505C53.1161 286.505 52.4441 286.939 52.0941 287.275V286.645ZM64.111 292.651V293.015C64.111 293.841 63.985 294.345 63.747 294.709C63.425 295.199 62.865 295.465 62.151 295.465C61.073 295.465 60.457 294.919 59.981 294.289L59.001 295.199C59.421 295.857 60.499 296.725 62.207 296.725C63.509 296.725 64.517 296.123 65.049 295.101C65.315 294.583 65.441 293.925 65.441 292.945V286.645H64.153V287.247C63.551 286.729 62.837 286.505 62.095 286.505C61.479 286.505 60.933 286.659 60.485 286.925C59.491 287.513 58.791 288.619 58.791 289.935C58.791 291.251 59.477 292.343 60.471 292.931C60.919 293.197 61.535 293.365 62.123 293.365C62.907 293.365 63.579 293.113 64.111 292.651ZM64.111 291.167C63.663 291.769 62.977 292.105 62.305 292.105C61.031 292.105 60.121 291.111 60.121 289.935C60.121 288.787 60.961 287.765 62.235 287.765C63.033 287.765 63.705 288.171 64.111 288.703V291.167ZM72.6296 293.225H73.9176V286.645H72.6296V287.247C72.0276 286.729 71.3136 286.505 70.5716 286.505C69.9556 286.505 69.4096 286.659 68.9616 286.925C67.9676 287.513 67.2676 288.619 67.2676 289.935C67.2676 291.251 67.9536 292.343 68.9476 292.931C69.3956 293.197 70.0116 293.365 70.5996 293.365C71.3836 293.365 72.0976 293.099 72.6296 292.623V293.225ZM72.5876 291.167C72.1396 291.769 71.4536 292.105 70.7816 292.105C69.5076 292.105 68.5976 291.111 68.5976 289.935C68.5976 288.787 69.4376 287.765 70.7116 287.765C71.5096 287.765 72.1816 288.171 72.5876 288.703V291.167ZM81.0642 292.651V293.015C81.0642 293.841 80.9382 294.345 80.7002 294.709C80.3782 295.199 79.8182 295.465 79.1042 295.465C78.0262 295.465 77.4102 294.919 76.9342 294.289L75.9542 295.199C76.3742 295.857 77.4522 296.725 79.1602 296.725C80.4622 296.725 81.4702 296.123 82.0022 295.101C82.2682 294.583 82.3942 293.925 82.3942 292.945V286.645H81.1062V287.247C80.5042 286.729 79.7902 286.505 79.0482 286.505C78.4322 286.505 77.8862 286.659 77.4382 286.925C76.4442 287.513 75.7442 288.619 75.7442 289.935C75.7442 291.251 76.4302 292.343 77.4242 292.931C77.8722 293.197 78.4882 293.365 79.0762 293.365C79.8602 293.365 80.5322 293.113 81.0642 292.651ZM81.0642 291.167C80.6162 291.769 79.9302 292.105 79.2582 292.105C77.9842 292.105 77.0742 291.111 77.0742 289.935C77.0742 288.787 77.9142 287.765 79.1882 287.765C79.9862 287.765 80.6582 288.171 81.0642 288.703V291.167ZM90.5767 290.215C90.5907 290.089 90.5907 289.991 90.5907 289.935C90.5907 287.989 89.2607 286.505 87.4267 286.505C85.5647 286.505 84.2207 287.961 84.2207 289.935C84.2207 291.909 85.7047 293.365 87.6227 293.365C88.9667 293.365 89.9047 292.763 90.3947 292.133L89.5267 291.307C89.1487 291.727 88.6167 292.203 87.6367 292.203C86.4887 292.203 85.5787 291.321 85.5087 290.215H90.5767ZM87.4687 287.667C88.2527 287.667 89.0087 288.255 89.2047 289.095H85.6207C85.8447 288.241 86.6147 287.667 87.4687 287.667ZM97.2116 293.225H98.4996V283.285H97.1696V287.219C96.5816 286.729 95.8676 286.505 95.1536 286.505C94.5376 286.505 93.9916 286.659 93.5436 286.925C92.5496 287.513 91.8496 288.619 91.8496 289.935C91.8496 291.251 92.5356 292.343 93.5296 292.931C93.9776 293.197 94.5936 293.365 95.1816 293.365C95.9656 293.365 96.6796 293.099 97.2116 292.623V293.225ZM97.1696 291.167C96.7216 291.769 96.0356 292.105 95.3636 292.105C94.0896 292.105 93.1796 291.111 93.1796 289.935C93.1796 288.787 94.0196 287.765 95.2936 287.765C96.0916 287.765 96.7636 288.171 97.1696 288.703V291.167ZM104.66 293.225H105.99V286.645H104.66V293.225ZM104.45 284.307C104.45 284.797 104.828 285.175 105.318 285.175C105.808 285.175 106.2 284.797 106.2 284.307C106.2 283.817 105.808 283.425 105.318 283.425C104.828 283.425 104.45 283.817 104.45 284.307ZM109.653 286.645H108.365V293.225H109.695V288.703C110.087 288.227 110.717 287.765 111.585 287.765C112.131 287.765 112.635 288.017 112.943 288.409C113.181 288.703 113.335 289.095 113.335 289.935V293.225H114.665V290.005C114.665 288.871 114.441 288.199 114.021 287.667C113.461 286.953 112.593 286.505 111.627 286.505C110.675 286.505 110.003 286.939 109.653 287.275V286.645ZM32.3661 303.645L30.5601 308.139L28.7541 303.645H27.3821L30.0561 310.225H30.9801L32.8281 305.605L34.6761 310.225H35.6001L38.2741 303.645H36.9021L35.0961 308.139L33.2901 303.645H32.3661ZM39.602 310.225H40.932V303.645H39.602V310.225ZM39.392 301.307C39.392 301.797 39.77 302.175 40.26 302.175C40.75 302.175 41.142 301.797 41.142 301.307C41.142 300.817 40.75 300.425 40.26 300.425C39.77 300.425 39.392 300.817 39.392 301.307ZM47.1011 309.021C46.9051 309.077 46.5691 309.105 46.3731 309.105C46.0231 309.105 45.6451 308.979 45.4631 308.755C45.2951 308.559 45.2671 308.265 45.2671 307.915V304.835H47.3671V303.645H45.2671V301.825H43.9371V303.645H42.2571V304.835H43.9371V307.845C43.9371 308.559 44.0771 309.161 44.4691 309.595C44.8891 310.071 45.5051 310.365 46.3311 310.365C46.7091 310.365 47.1151 310.309 47.3671 310.225L47.1011 309.021ZM50.516 300.285H49.186V310.225H50.516V305.703C50.908 305.227 51.538 304.765 52.406 304.765C52.952 304.765 53.456 305.017 53.764 305.409C54.002 305.703 54.156 306.095 54.156 306.935V310.225H55.486V307.005C55.486 305.871 55.262 305.199 54.842 304.667C54.282 303.953 53.414 303.505 52.448 303.505C51.538 303.505 50.88 303.911 50.516 304.219V300.285ZM67.3004 307.215C67.3144 307.089 67.3144 306.991 67.3144 306.935C67.3144 304.989 65.9844 303.505 64.1504 303.505C62.2884 303.505 60.9444 304.961 60.9444 306.935C60.9444 308.909 62.4284 310.365 64.3464 310.365C65.6904 310.365 66.6284 309.763 67.1184 309.133L66.2504 308.307C65.8724 308.727 65.3404 309.203 64.3604 309.203C63.2124 309.203 62.3024 308.321 62.2324 307.215H67.3004ZM64.1924 304.667C64.9764 304.667 65.7324 305.255 65.9284 306.095H62.3444C62.5684 305.241 63.3384 304.667 64.1924 304.667ZM68.5033 309.455C69.2313 310.043 70.1133 310.365 71.1633 310.365C72.4513 310.365 73.6133 309.595 73.6133 308.349C73.6133 306.991 72.2553 306.529 71.2193 306.263C70.5613 306.095 70.0433 305.941 70.0433 305.493C70.0433 304.975 70.5893 304.667 71.2333 304.667C71.7653 304.667 72.2413 304.877 72.6473 305.185L73.3333 304.233C72.8153 303.813 72.1153 303.505 71.1493 303.505C69.9733 303.505 68.7133 304.149 68.7133 305.563C68.7133 306.487 69.4273 306.991 70.2253 307.257C71.1913 307.579 72.2833 307.621 72.2833 308.377C72.2833 308.895 71.7093 309.203 71.1353 309.203C70.4773 309.203 69.8053 308.951 69.1893 308.475L68.5033 309.455ZM79.23 309.021C79.034 309.077 78.698 309.105 78.502 309.105C78.152 309.105 77.774 308.979 77.592 308.755C77.424 308.559 77.396 308.265 77.396 307.915V304.835H79.496V303.645H77.396V301.825H76.066V303.645H74.386V304.835H76.066V307.845C76.066 308.559 76.206 309.161 76.598 309.595C77.018 310.071 77.634 310.365 78.46 310.365C78.838 310.365 79.244 310.309 79.496 310.225L79.23 309.021ZM85.9118 310.225H87.1998V303.645H85.9118V304.247C85.3098 303.729 84.5958 303.505 83.8538 303.505C83.2378 303.505 82.6918 303.659 82.2438 303.925C81.2498 304.513 80.5498 305.619 80.5498 306.935C80.5498 308.251 81.2358 309.343 82.2298 309.931C82.6778 310.197 83.2938 310.365 83.8818 310.365C84.6658 310.365 85.3798 310.099 85.9118 309.623V310.225ZM85.8698 308.167C85.4218 308.769 84.7358 309.105 84.0638 309.105C82.7898 309.105 81.8798 308.111 81.8798 306.935C81.8798 305.787 82.7198 304.765 83.9938 304.765C84.7918 304.765 85.4638 305.171 85.8698 305.703V308.167ZM90.8744 309.623C91.4064 310.099 92.1204 310.365 92.9044 310.365C93.4924 310.365 94.1084 310.197 94.5564 309.931C95.5504 309.343 96.2364 308.251 96.2364 306.935C96.2364 305.619 95.5364 304.513 94.5424 303.925C94.0944 303.659 93.5484 303.505 92.9324 303.505C92.2184 303.505 91.5044 303.729 90.9164 304.219V300.285H89.5864V310.225H90.8744V309.623ZM90.9164 305.703C91.3224 305.171 91.9944 304.765 92.7924 304.765C94.0664 304.765 94.9064 305.787 94.9064 306.935C94.9064 308.111 93.9964 309.105 92.7224 309.105C92.0504 309.105 91.3644 308.769 90.9164 308.167V305.703ZM98.063 310.225H99.393V300.285H98.063V310.225ZM101.768 310.225H103.098V303.645H101.768V310.225ZM101.558 301.307C101.558 301.797 101.936 302.175 102.426 302.175C102.916 302.175 103.308 301.797 103.308 301.307C103.308 300.817 102.916 300.425 102.426 300.425C101.936 300.425 101.558 300.817 101.558 301.307ZM104.843 309.455C105.571 310.043 106.453 310.365 107.503 310.365C108.791 310.365 109.953 309.595 109.953 308.349C109.953 306.991 108.595 306.529 107.559 306.263C106.901 306.095 106.383 305.941 106.383 305.493C106.383 304.975 106.929 304.667 107.573 304.667C108.105 304.667 108.581 304.877 108.987 305.185L109.673 304.233C109.155 303.813 108.455 303.505 107.489 303.505C106.313 303.505 105.053 304.149 105.053 305.563C105.053 306.487 105.767 306.991 106.565 307.257C107.531 307.579 108.623 307.621 108.623 308.377C108.623 308.895 108.049 309.203 107.475 309.203C106.817 309.203 106.145 308.951 105.529 308.475L104.843 309.455ZM113.174 300.285H111.844V310.225H113.174V305.703C113.566 305.227 114.196 304.765 115.064 304.765C115.61 304.765 116.114 305.017 116.422 305.409C116.66 305.703 116.814 306.095 116.814 306.935V310.225H118.144V307.005C118.144 305.871 117.92 305.199 117.5 304.667C116.94 303.953 116.072 303.505 115.106 303.505C114.196 303.505 113.538 303.911 113.174 304.219V300.285ZM126.185 307.215C126.199 307.089 126.199 306.991 126.199 306.935C126.199 304.989 124.869 303.505 123.035 303.505C121.173 303.505 119.829 304.961 119.829 306.935C119.829 308.909 121.313 310.365 123.231 310.365C124.575 310.365 125.513 309.763 126.003 309.133L125.135 308.307C124.757 308.727 124.225 309.203 123.245 309.203C122.097 309.203 121.187 308.321 121.117 307.215H126.185ZM123.077 304.667C123.861 304.667 124.617 305.255 124.813 306.095H121.229C121.453 305.241 122.223 304.667 123.077 304.667ZM132.82 310.225H134.108V300.285H132.778V304.219C132.19 303.729 131.476 303.505 130.762 303.505C130.146 303.505 129.6 303.659 129.152 303.925C128.158 304.513 127.458 305.619 127.458 306.935C127.458 308.251 128.144 309.343 129.138 309.931C129.586 310.197 130.202 310.365 130.79 310.365C131.574 310.365 132.288 310.099 132.82 309.623V310.225ZM132.778 308.167C132.33 308.769 131.644 309.105 130.972 309.105C129.698 309.105 128.788 308.111 128.788 306.935C128.788 305.787 129.628 304.765 130.902 304.765C131.7 304.765 132.372 305.171 132.778 305.703V308.167ZM145.126 308.083C144.706 308.643 144.09 309.105 143.222 309.105C141.962 309.105 141.038 308.223 141.038 306.935C141.038 305.689 141.948 304.765 143.138 304.765C143.978 304.765 144.594 305.255 144.958 305.759L145.938 304.933C145.322 304.079 144.286 303.505 143.138 303.505C141.164 303.505 139.708 304.989 139.708 306.935C139.708 308.881 141.192 310.365 143.222 310.365C144.426 310.365 145.602 309.735 146.148 308.825L145.126 308.083ZM147.132 306.935C147.132 308.895 148.588 310.365 150.534 310.365C152.48 310.365 153.936 308.895 153.936 306.935C153.936 304.975 152.48 303.505 150.534 303.505C148.588 303.505 147.132 304.975 147.132 306.935ZM148.462 306.935C148.462 305.731 149.316 304.765 150.534 304.765C151.752 304.765 152.606 305.731 152.606 306.935C152.606 308.139 151.752 309.105 150.534 309.105C149.316 309.105 148.462 308.139 148.462 306.935ZM155.758 303.645V310.225H157.088V305.703C157.466 305.255 158.124 304.765 158.936 304.765C159.44 304.765 159.916 304.989 160.21 305.339C160.448 305.619 160.588 305.983 160.588 306.655V310.225H161.918V306.865C161.918 306.403 161.876 306.025 161.806 305.703C162.24 305.255 162.856 304.765 163.808 304.765C164.298 304.765 164.746 304.989 165.04 305.339C165.278 305.619 165.418 305.983 165.418 306.655V310.225H166.748V306.865C166.748 305.759 166.552 305.115 166.146 304.611C165.6 303.925 164.746 303.505 163.808 303.505C162.618 303.505 161.904 303.995 161.302 304.597C160.756 303.939 159.944 303.505 158.978 303.505C158.082 303.505 157.312 303.981 157.046 304.275V303.645H155.758ZM168.993 303.645V310.225H170.323V305.703C170.701 305.255 171.359 304.765 172.171 304.765C172.675 304.765 173.151 304.989 173.445 305.339C173.683 305.619 173.823 305.983 173.823 306.655V310.225H175.153V306.865C175.153 306.403 175.111 306.025 175.041 305.703C175.475 305.255 176.091 304.765 177.043 304.765C177.533 304.765 177.981 304.989 178.275 305.339C178.513 305.619 178.653 305.983 178.653 306.655V310.225H179.983V306.865C179.983 305.759 179.787 305.115 179.381 304.611C178.835 303.925 177.981 303.505 177.043 303.505C175.853 303.505 175.139 303.995 174.537 304.597C173.991 303.939 173.179 303.505 172.213 303.505C171.317 303.505 170.547 303.981 170.281 304.275V303.645H168.993ZM185.027 310.365C185.937 310.365 186.665 309.903 186.959 309.623V310.225H188.247V303.645H186.917V308.167C186.539 308.615 185.881 309.105 185.069 309.105C184.565 309.105 184.089 308.881 183.795 308.531C183.557 308.251 183.417 307.887 183.417 307.215V303.645H182.087V307.005C182.087 308.111 182.283 308.755 182.689 309.259C183.235 309.945 184.089 310.365 185.027 310.365ZM191.91 303.645H190.622V310.225H191.952V305.703C192.344 305.227 192.974 304.765 193.842 304.765C194.388 304.765 194.892 305.017 195.2 305.409C195.438 305.703 195.592 306.095 195.592 306.935V310.225H196.922V307.005C196.922 305.871 196.698 305.199 196.278 304.667C195.718 303.953 194.85 303.505 193.884 303.505C192.932 303.505 192.26 303.939 191.91 304.275V303.645ZM199.167 310.225H200.497V303.645H199.167V310.225ZM198.957 301.307C198.957 301.797 199.335 302.175 199.825 302.175C200.315 302.175 200.707 301.797 200.707 301.307C200.707 300.817 200.315 300.425 199.825 300.425C199.335 300.425 198.957 300.817 198.957 301.307ZM206.666 309.021C206.47 309.077 206.134 309.105 205.938 309.105C205.588 309.105 205.21 308.979 205.028 308.755C204.86 308.559 204.832 308.265 204.832 307.915V304.835H206.932V303.645H204.832V301.825H203.502V303.645H201.822V304.835H203.502V307.845C203.502 308.559 203.642 309.161 204.034 309.595C204.454 310.071 205.07 310.365 205.896 310.365C206.274 310.365 206.68 310.309 206.932 310.225L206.666 309.021ZM208.75 310.225H210.08V303.645H208.75V310.225ZM208.54 301.307C208.54 301.797 208.918 302.175 209.408 302.175C209.898 302.175 210.29 301.797 210.29 301.307C210.29 300.817 209.898 300.425 209.408 300.425C208.918 300.425 208.54 300.817 208.54 301.307ZM218.252 307.215C218.266 307.089 218.266 306.991 218.266 306.935C218.266 304.989 216.936 303.505 215.102 303.505C213.24 303.505 211.896 304.961 211.896 306.935C211.896 308.909 213.38 310.365 215.298 310.365C216.642 310.365 217.58 309.763 218.07 309.133L217.202 308.307C216.824 308.727 216.292 309.203 215.312 309.203C214.164 309.203 213.254 308.321 213.184 307.215H218.252ZM215.144 304.667C215.928 304.667 216.684 305.255 216.88 306.095H213.296C213.52 305.241 214.29 304.667 215.144 304.667ZM219.454 309.455C220.182 310.043 221.064 310.365 222.114 310.365C223.402 310.365 224.564 309.595 224.564 308.349C224.564 306.991 223.206 306.529 222.17 306.263C221.512 306.095 220.994 305.941 220.994 305.493C220.994 304.975 221.54 304.667 222.184 304.667C222.716 304.667 223.192 304.877 223.598 305.185L224.284 304.233C223.766 303.813 223.066 303.505 222.1 303.505C220.924 303.505 219.664 304.149 219.664 305.563C219.664 306.487 220.378 306.991 221.176 307.257C222.142 307.579 223.234 307.621 223.234 308.377C223.234 308.895 222.66 309.203 222.086 309.203C221.428 309.203 220.756 308.951 220.14 308.475L219.454 309.455ZM235.031 310.225H236.319V303.645H235.031V304.247C234.429 303.729 233.715 303.505 232.973 303.505C232.357 303.505 231.811 303.659 231.363 303.925C230.369 304.513 229.669 305.619 229.669 306.935C229.669 308.251 230.355 309.343 231.349 309.931C231.797 310.197 232.413 310.365 233.001 310.365C233.785 310.365 234.499 310.099 235.031 309.623V310.225ZM234.989 308.167C234.541 308.769 233.855 309.105 233.183 309.105C231.909 309.105 230.999 308.111 230.999 306.935C230.999 305.787 231.839 304.765 233.113 304.765C233.911 304.765 234.583 305.171 234.989 305.703V308.167ZM238.076 309.455C238.804 310.043 239.686 310.365 240.736 310.365C242.024 310.365 243.186 309.595 243.186 308.349C243.186 306.991 241.828 306.529 240.792 306.263C240.134 306.095 239.616 305.941 239.616 305.493C239.616 304.975 240.162 304.667 240.806 304.667C241.338 304.667 241.814 304.877 242.22 305.185L242.906 304.233C242.388 303.813 241.688 303.505 240.722 303.505C239.546 303.505 238.286 304.149 238.286 305.563C238.286 306.487 239 306.991 239.798 307.257C240.764 307.579 241.856 307.621 241.856 308.377C241.856 308.895 241.282 309.203 240.708 309.203C240.05 309.203 239.378 308.951 238.762 308.475L238.076 309.455ZM35.0266 320.925L36.0766 317.285H35.1666L33.4866 320.925H35.0266ZM32.0866 320.925L33.1366 317.285H32.2266L30.5466 320.925H32.0866ZM39.1195 320.645H37.8315V327.225H39.1615V322.703C39.5535 322.227 40.1835 321.765 41.0515 321.765C41.5975 321.765 42.1015 322.017 42.4095 322.409C42.6475 322.703 42.8015 323.095 42.8015 323.935V327.225H44.1315V324.005C44.1315 322.871 43.9075 322.199 43.4875 321.667C42.9275 320.953 42.0595 320.505 41.0935 320.505C40.1415 320.505 39.4695 320.939 39.1195 321.275V320.645ZM52.1724 324.215C52.1864 324.089 52.1864 323.991 52.1864 323.935C52.1864 321.989 50.8564 320.505 49.0224 320.505C47.1604 320.505 45.8164 321.961 45.8164 323.935C45.8164 325.909 47.3004 327.365 49.2184 327.365C50.5624 327.365 51.5004 326.763 51.9904 326.133L51.1224 325.307C50.7444 325.727 50.2124 326.203 49.2324 326.203C48.0844 326.203 47.1744 325.321 47.1044 324.215H52.1724ZM49.0644 321.667C49.8484 321.667 50.6044 322.255 50.8004 323.095H47.2164C47.4404 322.241 48.2104 321.667 49.0644 321.667ZM57.871 320.645L56.065 325.139L54.259 320.645H52.887L55.561 327.225H56.485L58.333 322.605L60.181 327.225H61.105L63.779 320.645H62.407L60.601 325.139L58.795 320.645H57.871ZM68.7436 320.645V327.225H70.0736V322.703C70.4516 322.255 71.1096 321.765 71.9216 321.765C72.4256 321.765 72.9016 321.989 73.1956 322.339C73.4336 322.619 73.5736 322.983 73.5736 323.655V327.225H74.9036V323.865C74.9036 323.403 74.8616 323.025 74.7916 322.703C75.2256 322.255 75.8416 321.765 76.7936 321.765C77.2836 321.765 77.7316 321.989 78.0256 322.339C78.2636 322.619 78.4036 322.983 78.4036 323.655V327.225H79.7336V323.865C79.7336 322.759 79.5376 322.115 79.1316 321.611C78.5856 320.925 77.7316 320.505 76.7936 320.505C75.6036 320.505 74.8896 320.995 74.2876 321.597C73.7416 320.939 72.9296 320.505 71.9636 320.505C71.0676 320.505 70.2976 320.981 70.0316 321.275V320.645H68.7436ZM87.774 324.215C87.788 324.089 87.788 323.991 87.788 323.935C87.788 321.989 86.458 320.505 84.624 320.505C82.762 320.505 81.418 321.961 81.418 323.935C81.418 325.909 82.902 327.365 84.82 327.365C86.164 327.365 87.102 326.763 87.592 326.133L86.724 325.307C86.346 325.727 85.814 326.203 84.834 326.203C83.686 326.203 82.776 325.321 82.706 324.215H87.774ZM84.666 321.667C85.45 321.667 86.206 322.255 86.402 323.095H82.818C83.042 322.241 83.812 321.667 84.666 321.667ZM89.6069 320.645V327.225H90.9369V322.703C91.3149 322.255 91.9729 321.765 92.7849 321.765C93.2889 321.765 93.7649 321.989 94.0589 322.339C94.2969 322.619 94.4369 322.983 94.4369 323.655V327.225H95.7669V323.865C95.7669 323.403 95.7249 323.025 95.6549 322.703C96.0889 322.255 96.7049 321.765 97.6569 321.765C98.1469 321.765 98.5949 321.989 98.8889 322.339C99.1269 322.619 99.2669 322.983 99.2669 323.655V327.225H100.597V323.865C100.597 322.759 100.401 322.115 99.9949 321.611C99.4489 320.925 98.5949 320.505 97.6569 320.505C96.4669 320.505 95.7529 320.995 95.1509 321.597C94.6049 320.939 93.7929 320.505 92.8269 320.505C91.9309 320.505 91.1609 320.981 90.8949 321.275V320.645H89.6069ZM104.129 326.623C104.661 327.099 105.375 327.365 106.159 327.365C106.747 327.365 107.363 327.197 107.811 326.931C108.805 326.343 109.491 325.251 109.491 323.935C109.491 322.619 108.791 321.513 107.797 320.925C107.349 320.659 106.803 320.505 106.187 320.505C105.473 320.505 104.759 320.729 104.171 321.219V317.285H102.841V327.225H104.129V326.623ZM104.171 322.703C104.577 322.171 105.249 321.765 106.047 321.765C107.321 321.765 108.161 322.787 108.161 323.935C108.161 325.111 107.251 326.105 105.977 326.105C105.305 326.105 104.619 325.769 104.171 325.167V322.703ZM117.114 324.215C117.128 324.089 117.128 323.991 117.128 323.935C117.128 321.989 115.798 320.505 113.964 320.505C112.102 320.505 110.758 321.961 110.758 323.935C110.758 325.909 112.242 327.365 114.16 327.365C115.504 327.365 116.442 326.763 116.932 326.133L116.064 325.307C115.686 325.727 115.154 326.203 114.174 326.203C113.026 326.203 112.116 325.321 112.046 324.215H117.114ZM114.006 321.667C114.79 321.667 115.546 322.255 115.742 323.095H112.158C112.382 322.241 113.152 321.667 114.006 321.667ZM122.727 320.547C122.573 320.519 122.349 320.505 122.209 320.505C121.243 320.505 120.557 320.953 120.235 321.401V320.645H118.947V327.225H120.277V322.871C120.641 322.241 121.369 321.765 122.055 321.765C122.265 321.765 122.419 321.779 122.573 321.821L122.727 320.547ZM123.635 326.455C124.363 327.043 125.245 327.365 126.295 327.365C127.583 327.365 128.745 326.595 128.745 325.349C128.745 323.991 127.387 323.529 126.351 323.263C125.693 323.095 125.175 322.941 125.175 322.493C125.175 321.975 125.721 321.667 126.365 321.667C126.897 321.667 127.373 321.877 127.779 322.185L128.465 321.233C127.947 320.813 127.247 320.505 126.281 320.505C125.105 320.505 123.845 321.149 123.845 322.563C123.845 323.487 124.559 323.991 125.357 324.257C126.323 324.579 127.415 324.621 127.415 325.377C127.415 325.895 126.841 326.203 126.267 326.203C125.609 326.203 124.937 325.951 124.321 325.475L123.635 326.455ZM131.333 317.285L130.283 320.925H131.193L132.873 317.285H131.333ZM134.273 317.285L133.223 320.925H134.133L135.813 317.285H134.273ZM143.718 323.725C143.718 321.611 144.404 319.623 145.538 318.027L144.46 317.285C143.158 319.105 142.388 321.317 142.388 323.725C142.388 326.133 143.158 328.345 144.46 330.165L145.538 329.423C144.404 327.827 143.718 325.839 143.718 323.725ZM147.222 322.955V324.215H149.672V326.665H150.932V324.215H153.382V322.955H150.932V320.505H149.672V322.955H147.222ZM237.848 323.725C237.848 325.839 237.162 327.827 236.028 329.423L237.106 330.165C238.408 328.345 239.178 326.133 239.178 323.725C239.178 321.317 238.408 319.105 237.106 317.285L236.028 318.027C237.162 319.623 237.848 321.611 237.848 323.725ZM114.579 360.021C114.383 360.077 114.047 360.105 113.851 360.105C113.501 360.105 113.123 359.979 112.941 359.755C112.773 359.559 112.745 359.265 112.745 358.915V355.835H114.845V354.645H112.745V352.825H111.415V354.645H109.735V355.835H111.415V358.845C111.415 359.559 111.555 360.161 111.947 360.595C112.367 361.071 112.983 361.365 113.809 361.365C114.187 361.365 114.593 361.309 114.845 361.225L114.579 360.021ZM117.994 351.285H116.664V361.225H117.994V356.703C118.386 356.227 119.016 355.765 119.884 355.765C120.43 355.765 120.934 356.017 121.242 356.409C121.48 356.703 121.634 357.095 121.634 357.935V361.225H122.964V358.005C122.964 356.871 122.74 356.199 122.32 355.667C121.76 354.953 120.892 354.505 119.926 354.505C119.016 354.505 118.358 354.911 117.994 355.219V351.285ZM131.004 358.215C131.018 358.089 131.018 357.991 131.018 357.935C131.018 355.989 129.688 354.505 127.854 354.505C125.992 354.505 124.648 355.961 124.648 357.935C124.648 359.909 126.132 361.365 128.05 361.365C129.394 361.365 130.332 360.763 130.822 360.133L129.954 359.307C129.576 359.727 129.044 360.203 128.064 360.203C126.916 360.203 126.006 359.321 125.936 358.215H131.004ZM127.896 355.667C128.68 355.667 129.436 356.255 129.632 357.095H126.048C126.272 356.241 127.042 355.667 127.896 355.667ZM142.407 358.215C142.421 358.089 142.421 357.991 142.421 357.935C142.421 355.989 141.091 354.505 139.257 354.505C137.395 354.505 136.051 355.961 136.051 357.935C136.051 359.909 137.535 361.365 139.453 361.365C140.797 361.365 141.735 360.763 142.225 360.133L141.357 359.307C140.979 359.727 140.447 360.203 139.467 360.203C138.319 360.203 137.409 359.321 137.339 358.215H142.407ZM139.299 355.667C140.083 355.667 140.839 356.255 141.035 357.095H137.451C137.675 356.241 138.445 355.667 139.299 355.667ZM148.398 361.225H149.98L147.488 357.767L149.742 354.645H148.174L146.62 356.773L145.066 354.645H143.498L145.752 357.767L143.26 361.225H144.842L146.62 358.761L148.398 361.225ZM152.706 360.651C153.238 361.113 153.91 361.365 154.694 361.365C155.282 361.365 155.898 361.197 156.346 360.931C157.34 360.343 158.026 359.251 158.026 357.935C158.026 356.619 157.326 355.513 156.332 354.925C155.884 354.659 155.338 354.505 154.722 354.505C153.98 354.505 153.266 354.729 152.664 355.247V354.645H151.376V364.585H152.706V360.651ZM152.706 356.703C153.112 356.171 153.784 355.765 154.582 355.765C155.856 355.765 156.696 356.787 156.696 357.935C156.696 359.111 155.786 360.105 154.512 360.105C153.84 360.105 153.154 359.769 152.706 359.167V356.703ZM165.649 358.215C165.663 358.089 165.663 357.991 165.663 357.935C165.663 355.989 164.333 354.505 162.499 354.505C160.637 354.505 159.293 355.961 159.293 357.935C159.293 359.909 160.777 361.365 162.695 361.365C164.039 361.365 164.977 360.763 165.467 360.133L164.599 359.307C164.221 359.727 163.689 360.203 162.709 360.203C161.561 360.203 160.651 359.321 160.581 358.215H165.649ZM162.541 355.667C163.325 355.667 164.081 356.255 164.277 357.095H160.693C160.917 356.241 161.687 355.667 162.541 355.667ZM171.262 354.547C171.108 354.519 170.884 354.505 170.744 354.505C169.778 354.505 169.092 354.953 168.77 355.401V354.645H167.482V361.225H168.812V356.871C169.176 356.241 169.904 355.765 170.59 355.765C170.8 355.765 170.954 355.779 171.108 355.821L171.262 354.547ZM172.869 361.225H174.199V354.645H172.869V361.225ZM172.659 352.307C172.659 352.797 173.037 353.175 173.527 353.175C174.017 353.175 174.409 352.797 174.409 352.307C174.409 351.817 174.017 351.425 173.527 351.425C173.037 351.425 172.659 351.817 172.659 352.307ZM182.37 358.215C182.384 358.089 182.384 357.991 182.384 357.935C182.384 355.989 181.054 354.505 179.22 354.505C177.358 354.505 176.014 355.961 176.014 357.935C176.014 359.909 177.498 361.365 179.416 361.365C180.76 361.365 181.698 360.763 182.188 360.133L181.32 359.307C180.942 359.727 180.41 360.203 179.43 360.203C178.282 360.203 177.372 359.321 177.302 358.215H182.37ZM179.262 355.667C180.046 355.667 180.802 356.255 180.998 357.095H177.414C177.638 356.241 178.408 355.667 179.262 355.667ZM185.491 354.645H184.203V361.225H185.533V356.703C185.925 356.227 186.555 355.765 187.423 355.765C187.969 355.765 188.473 356.017 188.781 356.409C189.019 356.703 189.173 357.095 189.173 357.935V361.225H190.503V358.005C190.503 356.871 190.279 356.199 189.859 355.667C189.299 354.953 188.431 354.505 187.465 354.505C186.513 354.505 185.841 354.939 185.491 355.275V354.645ZM197.606 359.083C197.186 359.643 196.57 360.105 195.702 360.105C194.442 360.105 193.518 359.223 193.518 357.935C193.518 356.689 194.428 355.765 195.618 355.765C196.458 355.765 197.074 356.255 197.438 356.759L198.418 355.933C197.802 355.079 196.766 354.505 195.618 354.505C193.644 354.505 192.188 355.989 192.188 357.935C192.188 359.881 193.672 361.365 195.702 361.365C196.906 361.365 198.082 360.735 198.628 359.825L197.606 359.083ZM205.967 358.215C205.981 358.089 205.981 357.991 205.981 357.935C205.981 355.989 204.651 354.505 202.817 354.505C200.955 354.505 199.611 355.961 199.611 357.935C199.611 359.909 201.095 361.365 203.013 361.365C204.357 361.365 205.295 360.763 205.785 360.133L204.917 359.307C204.539 359.727 204.007 360.203 203.027 360.203C201.879 360.203 200.969 359.321 200.899 358.215H205.967ZM202.859 355.667C203.643 355.667 204.399 356.255 204.595 357.095H201.011C201.235 356.241 202.005 355.667 202.859 355.667ZM211.014 357.935C211.014 359.895 212.47 361.365 214.416 361.365C216.362 361.365 217.818 359.895 217.818 357.935C217.818 355.975 216.362 354.505 214.416 354.505C212.47 354.505 211.014 355.975 211.014 357.935ZM212.344 357.935C212.344 356.731 213.198 355.765 214.416 355.765C215.634 355.765 216.488 356.731 216.488 357.935C216.488 359.139 215.634 360.105 214.416 360.105C213.198 360.105 212.344 359.139 212.344 357.935ZM223.7 351.243C223.518 351.187 223.196 351.145 222.916 351.145C222.02 351.145 221.236 351.551 220.76 352.237C220.466 352.657 220.34 353.203 220.34 354.085V354.645H218.8V355.835H220.34V361.225H221.67V355.835H223.7V354.645H221.67V354.043C221.67 353.441 221.74 353.105 221.922 352.867C222.146 352.573 222.552 352.405 222.93 352.405C223.112 352.405 223.322 352.433 223.42 352.461L223.7 351.243ZM69.0466 377.651V378.015C69.0466 378.841 68.9206 379.345 68.6826 379.709C68.3606 380.199 67.8006 380.465 67.0866 380.465C66.0086 380.465 65.3926 379.919 64.9166 379.289L63.9366 380.199C64.3566 380.857 65.4346 381.725 67.1426 381.725C68.4446 381.725 69.4526 381.123 69.9846 380.101C70.2506 379.583 70.3766 378.925 70.3766 377.945V371.645H69.0886V372.247C68.4866 371.729 67.7726 371.505 67.0306 371.505C66.4146 371.505 65.8686 371.659 65.4206 371.925C64.4266 372.513 63.7266 373.619 63.7266 374.935C63.7266 376.251 64.4126 377.343 65.4066 377.931C65.8546 378.197 66.4706 378.365 67.0586 378.365C67.8426 378.365 68.5146 378.113 69.0466 377.651ZM69.0466 376.167C68.5986 376.769 67.9126 377.105 67.2406 377.105C65.9666 377.105 65.0566 376.111 65.0566 374.935C65.0566 373.787 65.8966 372.765 67.1706 372.765C67.9686 372.765 68.6406 373.171 69.0466 373.703V376.167ZM77.5652 378.225H78.8532V371.645H77.5652V372.247C76.9632 371.729 76.2492 371.505 75.5072 371.505C74.8912 371.505 74.3452 371.659 73.8972 371.925C72.9032 372.513 72.2032 373.619 72.2032 374.935C72.2032 376.251 72.8892 377.343 73.8832 377.931C74.3312 378.197 74.9472 378.365 75.5352 378.365C76.3192 378.365 77.0332 378.099 77.5652 377.623V378.225ZM77.5232 376.167C77.0752 376.769 76.3892 377.105 75.7172 377.105C74.4432 377.105 73.5332 376.111 73.5332 374.935C73.5332 373.787 74.3732 372.765 75.6472 372.765C76.4452 372.765 77.1172 373.171 77.5232 373.703V376.167ZM81.2397 371.645V378.225H82.5697V373.703C82.9477 373.255 83.6057 372.765 84.4177 372.765C84.9217 372.765 85.3977 372.989 85.6917 373.339C85.9297 373.619 86.0697 373.983 86.0697 374.655V378.225H87.3997V374.865C87.3997 374.403 87.3577 374.025 87.2877 373.703C87.7217 373.255 88.3377 372.765 89.2897 372.765C89.7797 372.765 90.2277 372.989 90.5217 373.339C90.7597 373.619 90.8997 373.983 90.8997 374.655V378.225H92.2297V374.865C92.2297 373.759 92.0337 373.115 91.6277 372.611C91.0817 371.925 90.2277 371.505 89.2897 371.505C88.0997 371.505 87.3857 371.995 86.7837 372.597C86.2377 371.939 85.4257 371.505 84.4597 371.505C83.5637 371.505 82.7937 371.981 82.5277 372.275V371.645H81.2397ZM94.4741 378.225H95.8041V371.645H94.4741V378.225ZM94.2641 369.307C94.2641 369.797 94.6421 370.175 95.1321 370.175C95.6221 370.175 96.0141 369.797 96.0141 369.307C96.0141 368.817 95.6221 368.425 95.1321 368.425C94.6421 368.425 94.2641 368.817 94.2641 369.307ZM99.4672 371.645H98.1792V378.225H99.5092V373.703C99.9012 373.227 100.531 372.765 101.399 372.765C101.945 372.765 102.449 373.017 102.757 373.409C102.995 373.703 103.149 374.095 103.149 374.935V378.225H104.479V375.005C104.479 373.871 104.255 373.199 103.835 372.667C103.275 371.953 102.407 371.505 101.441 371.505C100.489 371.505 99.8172 371.939 99.4672 372.275V371.645ZM111.484 377.651V378.015C111.484 378.841 111.358 379.345 111.12 379.709C110.798 380.199 110.238 380.465 109.524 380.465C108.446 380.465 107.83 379.919 107.354 379.289L106.374 380.199C106.794 380.857 107.872 381.725 109.58 381.725C110.882 381.725 111.89 381.123 112.422 380.101C112.688 379.583 112.814 378.925 112.814 377.945V371.645H111.526V372.247C110.924 371.729 110.21 371.505 109.468 371.505C108.852 371.505 108.306 371.659 107.858 371.925C106.864 372.513 106.164 373.619 106.164 374.935C106.164 376.251 106.85 377.343 107.844 377.931C108.292 378.197 108.908 378.365 109.496 378.365C110.28 378.365 110.952 378.113 111.484 377.651ZM111.484 376.167C111.036 376.769 110.35 377.105 109.678 377.105C108.404 377.105 107.494 376.111 107.494 374.935C107.494 373.787 108.334 372.765 109.608 372.765C110.406 372.765 111.078 373.171 111.484 373.703V376.167ZM115.691 376.545L114.641 380.185H115.551L117.231 376.545H115.691ZM127.893 376.083C127.473 376.643 126.857 377.105 125.989 377.105C124.729 377.105 123.805 376.223 123.805 374.935C123.805 373.689 124.715 372.765 125.905 372.765C126.745 372.765 127.361 373.255 127.725 373.759L128.705 372.933C128.089 372.079 127.053 371.505 125.905 371.505C123.931 371.505 122.475 372.989 122.475 374.935C122.475 376.881 123.959 378.365 125.989 378.365C127.193 378.365 128.369 377.735 128.915 376.825L127.893 376.083ZM129.898 374.935C129.898 376.895 131.354 378.365 133.3 378.365C135.246 378.365 136.702 376.895 136.702 374.935C136.702 372.975 135.246 371.505 133.3 371.505C131.354 371.505 129.898 372.975 129.898 374.935ZM131.228 374.935C131.228 373.731 132.082 372.765 133.3 372.765C134.518 372.765 135.372 373.731 135.372 374.935C135.372 376.139 134.518 377.105 133.3 377.105C132.082 377.105 131.228 376.139 131.228 374.935ZM138.525 371.645V378.225H139.855V373.703C140.233 373.255 140.891 372.765 141.703 372.765C142.207 372.765 142.683 372.989 142.977 373.339C143.215 373.619 143.355 373.983 143.355 374.655V378.225H144.685V374.865C144.685 374.403 144.643 374.025 144.573 373.703C145.007 373.255 145.623 372.765 146.575 372.765C147.065 372.765 147.513 372.989 147.807 373.339C148.045 373.619 148.185 373.983 148.185 374.655V378.225H149.515V374.865C149.515 373.759 149.319 373.115 148.913 372.611C148.367 371.925 147.513 371.505 146.575 371.505C145.385 371.505 144.671 371.995 144.069 372.597C143.523 371.939 142.711 371.505 141.745 371.505C140.849 371.505 140.079 371.981 139.813 372.275V371.645H138.525ZM151.759 371.645V378.225H153.089V373.703C153.467 373.255 154.125 372.765 154.937 372.765C155.441 372.765 155.917 372.989 156.211 373.339C156.449 373.619 156.589 373.983 156.589 374.655V378.225H157.919V374.865C157.919 374.403 157.877 374.025 157.807 373.703C158.241 373.255 158.857 372.765 159.809 372.765C160.299 372.765 160.747 372.989 161.041 373.339C161.279 373.619 161.419 373.983 161.419 374.655V378.225H162.749V374.865C162.749 373.759 162.553 373.115 162.147 372.611C161.601 371.925 160.747 371.505 159.809 371.505C158.619 371.505 157.905 371.995 157.303 372.597C156.757 371.939 155.945 371.505 154.979 371.505C154.083 371.505 153.313 371.981 153.047 372.275V371.645H151.759ZM167.794 378.365C168.704 378.365 169.432 377.903 169.726 377.623V378.225H171.014V371.645H169.684V376.167C169.306 376.615 168.648 377.105 167.836 377.105C167.332 377.105 166.856 376.881 166.562 376.531C166.324 376.251 166.184 375.887 166.184 375.215V371.645H164.854V375.005C164.854 376.111 165.05 376.755 165.456 377.259C166.002 377.945 166.856 378.365 167.794 378.365ZM174.676 371.645H173.388V378.225H174.718V373.703C175.11 373.227 175.74 372.765 176.608 372.765C177.154 372.765 177.658 373.017 177.966 373.409C178.204 373.703 178.358 374.095 178.358 374.935V378.225H179.688V375.005C179.688 373.871 179.464 373.199 179.044 372.667C178.484 371.953 177.616 371.505 176.65 371.505C175.698 371.505 175.026 371.939 174.676 372.275V371.645ZM181.933 378.225H183.263V371.645H181.933V378.225ZM181.723 369.307C181.723 369.797 182.101 370.175 182.591 370.175C183.081 370.175 183.473 369.797 183.473 369.307C183.473 368.817 183.081 368.425 182.591 368.425C182.101 368.425 181.723 368.817 181.723 369.307ZM189.432 377.021C189.236 377.077 188.9 377.105 188.704 377.105C188.354 377.105 187.976 376.979 187.794 376.755C187.626 376.559 187.598 376.265 187.598 375.915V372.835H189.698V371.645H187.598V369.825H186.268V371.645H184.588V372.835H186.268V375.845C186.268 376.559 186.408 377.161 186.8 377.595C187.22 378.071 187.836 378.365 188.662 378.365C189.04 378.365 189.446 378.309 189.698 378.225L189.432 377.021ZM191.517 378.225H192.847V371.645H191.517V378.225ZM191.307 369.307C191.307 369.797 191.685 370.175 192.175 370.175C192.665 370.175 193.057 369.797 193.057 369.307C193.057 368.817 192.665 368.425 192.175 368.425C191.685 368.425 191.307 368.817 191.307 369.307ZM201.018 375.215C201.032 375.089 201.032 374.991 201.032 374.935C201.032 372.989 199.702 371.505 197.868 371.505C196.006 371.505 194.662 372.961 194.662 374.935C194.662 376.909 196.146 378.365 198.064 378.365C199.408 378.365 200.346 377.763 200.836 377.133L199.968 376.307C199.59 376.727 199.058 377.203 198.078 377.203C196.93 377.203 196.02 376.321 195.95 375.215H201.018ZM197.91 372.667C198.694 372.667 199.45 373.255 199.646 374.095H196.062C196.286 373.241 197.056 372.667 197.91 372.667ZM202.221 377.455C202.949 378.043 203.831 378.365 204.881 378.365C206.169 378.365 207.331 377.595 207.331 376.349C207.331 374.991 205.973 374.529 204.937 374.263C204.279 374.095 203.761 373.941 203.761 373.493C203.761 372.975 204.307 372.667 204.951 372.667C205.483 372.667 205.959 372.877 206.365 373.185L207.051 372.233C206.533 371.813 205.833 371.505 204.867 371.505C203.691 371.505 202.431 372.149 202.431 373.563C202.431 374.487 203.145 374.991 203.943 375.257C204.909 375.579 206.001 375.621 206.001 376.377C206.001 376.895 205.427 377.203 204.853 377.203C204.195 377.203 203.523 376.951 202.907 376.475L202.221 377.455Z" fill="white" fill-opacity="0.5"/>
<path d="M127.053 286.435H125.303V286.981C124.771 286.547 124.085 286.295 123.315 286.295C121.467 286.295 119.983 287.835 119.983 289.837C119.983 290.761 120.305 291.601 120.837 292.217C121.439 292.917 122.405 293.365 123.413 293.365C124.099 293.365 124.687 293.169 125.233 292.749V292.973C125.233 293.841 125.093 294.261 124.813 294.569C124.505 294.933 124.015 295.115 123.427 295.115C122.307 295.115 121.677 294.527 121.313 294.135L120.165 295.325C120.837 296.109 122.097 296.725 123.427 296.725C124.729 296.725 125.821 296.221 126.437 295.367C126.843 294.793 127.053 294.065 127.053 292.847V286.435ZM125.233 290.845C124.883 291.349 124.281 291.685 123.595 291.685C122.573 291.685 121.803 290.901 121.803 289.837C121.803 288.857 122.489 287.975 123.553 287.975C124.253 287.975 124.855 288.311 125.233 288.815V290.845ZM133.846 290.845C133.496 291.349 132.894 291.685 132.208 291.685C131.186 291.685 130.416 290.901 130.416 289.837C130.416 288.857 131.102 287.975 132.166 287.975C132.866 287.975 133.468 288.311 133.846 288.815V290.845ZM135.666 286.435H133.916V286.981C133.384 286.547 132.698 286.295 131.928 286.295C130.08 286.295 128.596 287.835 128.596 289.837C128.596 290.761 128.932 291.601 129.464 292.217C130.066 292.917 131.018 293.365 132.026 293.365C132.712 293.365 133.356 293.155 133.916 292.679V293.225H135.666V286.435ZM139.59 293.225V288.815C139.842 288.493 140.402 287.975 141.172 287.975C141.522 287.975 141.914 288.087 142.194 288.395C142.404 288.633 142.53 288.941 142.53 289.557V293.225H144.35V289.627C144.35 289.347 144.322 289.095 144.294 288.871C144.532 288.521 145.148 287.975 145.932 287.975C146.282 287.975 146.674 288.087 146.954 288.395C147.164 288.633 147.29 288.941 147.29 289.557V293.225H149.11V289.627C149.11 288.619 148.858 287.919 148.424 287.387C147.878 286.715 146.982 286.295 146.044 286.295C145.036 286.295 144.182 286.785 143.636 287.359C143.104 286.715 142.278 286.295 141.354 286.295C140.696 286.295 140.052 286.505 139.52 286.981V286.435H137.77V293.225H139.59ZM152.892 286.435H151.072V293.225H152.892V286.435ZM150.792 284.027C150.792 284.685 151.324 285.189 151.982 285.189C152.64 285.189 153.172 284.685 153.172 284.027C153.172 283.369 152.64 282.865 151.982 282.865C151.324 282.865 150.792 283.369 150.792 284.027ZM156.816 293.225V288.815C157.068 288.465 157.698 287.975 158.468 287.975C158.888 287.975 159.252 288.115 159.49 288.353C159.742 288.605 159.896 288.955 159.896 289.627V293.225H161.716V289.767C161.716 288.605 161.464 287.919 161.016 287.387C160.456 286.715 159.602 286.295 158.664 286.295C157.908 286.295 157.264 286.561 156.746 286.981V286.435H154.996V293.225H156.816ZM170.188 286.435H168.438V286.981C167.906 286.547 167.22 286.295 166.45 286.295C164.602 286.295 163.118 287.835 163.118 289.837C163.118 290.761 163.44 291.601 163.972 292.217C164.574 292.917 165.54 293.365 166.548 293.365C167.234 293.365 167.822 293.169 168.368 292.749V292.973C168.368 293.841 168.228 294.261 167.948 294.569C167.64 294.933 167.15 295.115 166.562 295.115C165.442 295.115 164.812 294.527 164.448 294.135L163.3 295.325C163.972 296.109 165.232 296.725 166.562 296.725C167.864 296.725 168.956 296.221 169.572 295.367C169.978 294.793 170.188 294.065 170.188 292.847V286.435ZM168.368 290.845C168.018 291.349 167.416 291.685 166.73 291.685C165.708 291.685 164.938 290.901 164.938 289.837C164.938 288.857 165.624 287.975 166.688 287.975C167.388 287.975 167.99 288.311 168.368 288.815V290.845ZM175.393 292.455C176.191 293.043 177.185 293.365 178.123 293.365C179.551 293.365 180.825 292.567 180.825 291.265C180.825 288.913 177.535 289.263 177.535 288.381C177.535 288.031 177.955 287.835 178.459 287.835C178.949 287.835 179.411 288.045 179.761 288.297L180.615 286.981C180.167 286.631 179.201 286.295 178.319 286.295C176.975 286.295 175.715 287.107 175.715 288.409C175.715 290.593 179.005 290.229 179.005 291.251C179.005 291.587 178.627 291.825 178.137 291.825C177.451 291.825 176.737 291.573 176.275 291.153L175.393 292.455ZM187.25 291.111C186.928 291.461 186.312 291.895 185.542 291.895C184.576 291.895 183.806 291.237 183.708 290.285H188.412C188.44 290.131 188.454 289.949 188.454 289.767C188.454 287.877 187.124 286.295 185.248 286.295C183.232 286.295 181.944 287.947 181.944 289.837C181.944 291.965 183.47 293.365 185.5 293.365C186.55 293.365 187.628 292.931 188.286 292.147L187.25 291.111ZM183.792 288.955C183.876 288.339 184.492 287.765 185.248 287.765C185.99 287.765 186.536 288.353 186.592 288.955H183.792ZM189.393 292.455C190.191 293.043 191.185 293.365 192.123 293.365C193.551 293.365 194.825 292.567 194.825 291.265C194.825 288.913 191.535 289.263 191.535 288.381C191.535 288.031 191.955 287.835 192.459 287.835C192.949 287.835 193.411 288.045 193.761 288.297L194.615 286.981C194.167 286.631 193.201 286.295 192.319 286.295C190.975 286.295 189.715 287.107 189.715 288.409C189.715 290.593 193.005 290.229 193.005 291.251C193.005 291.587 192.627 291.825 192.137 291.825C191.451 291.825 190.737 291.573 190.275 291.153L189.393 292.455ZM195.764 292.455C196.562 293.043 197.556 293.365 198.494 293.365C199.922 293.365 201.196 292.567 201.196 291.265C201.196 288.913 197.906 289.263 197.906 288.381C197.906 288.031 198.326 287.835 198.83 287.835C199.32 287.835 199.782 288.045 200.132 288.297L200.986 286.981C200.538 286.631 199.572 286.295 198.69 286.295C197.346 286.295 196.086 287.107 196.086 288.409C196.086 290.593 199.376 290.229 199.376 291.251C199.376 291.587 198.998 291.825 198.508 291.825C197.822 291.825 197.108 291.573 196.646 291.153L195.764 292.455ZM204.695 286.435H202.875V293.225H204.695V286.435ZM202.595 284.027C202.595 284.685 203.127 285.189 203.785 285.189C204.443 285.189 204.975 284.685 204.975 284.027C204.975 283.369 204.443 282.865 203.785 282.865C203.127 282.865 202.595 283.369 202.595 284.027ZM206.239 289.837C206.239 291.797 207.793 293.365 209.851 293.365C211.909 293.365 213.463 291.797 213.463 289.837C213.463 287.877 211.909 286.295 209.851 286.295C207.793 286.295 206.239 287.877 206.239 289.837ZM208.059 289.837C208.059 288.815 208.787 287.975 209.851 287.975C210.915 287.975 211.643 288.815 211.643 289.837C211.643 290.859 210.915 291.685 209.851 291.685C208.787 291.685 208.059 290.859 208.059 289.837ZM216.822 293.225V288.815C217.074 288.465 217.704 287.975 218.474 287.975C218.894 287.975 219.258 288.115 219.496 288.353C219.748 288.605 219.902 288.955 219.902 289.627V293.225H221.722V289.767C221.722 288.605 221.47 287.919 221.022 287.387C220.462 286.715 219.608 286.295 218.67 286.295C217.914 286.295 217.27 286.561 216.752 286.981V286.435H215.002V293.225H216.822ZM223.012 292.455C223.81 293.043 224.804 293.365 225.742 293.365C227.17 293.365 228.444 292.567 228.444 291.265C228.444 288.913 225.154 289.263 225.154 288.381C225.154 288.031 225.574 287.835 226.078 287.835C226.568 287.835 227.03 288.045 227.38 288.297L228.234 286.981C227.786 286.631 226.82 286.295 225.938 286.295C224.594 286.295 223.334 287.107 223.334 288.409C223.334 290.593 226.624 290.229 226.624 291.251C226.624 291.587 226.246 291.825 225.756 291.825C225.07 291.825 224.356 291.573 223.894 291.153L223.012 292.455ZM163.596 324.845C163.246 325.349 162.644 325.685 161.958 325.685C160.936 325.685 160.166 324.901 160.166 323.837C160.166 322.857 160.852 321.975 161.916 321.975C162.616 321.975 163.218 322.311 163.596 322.815V324.845ZM165.416 327.225V317.285H163.596V320.925C163.064 320.505 162.42 320.295 161.678 320.295C159.83 320.295 158.346 321.835 158.346 323.837C158.346 324.761 158.682 325.601 159.214 326.217C159.816 326.917 160.768 327.365 161.776 327.365C162.462 327.365 163.106 327.155 163.666 326.679V327.225H165.416ZM169.34 320.435H167.52V327.225H169.34V320.435ZM167.24 318.027C167.24 318.685 167.772 319.189 168.43 319.189C169.088 319.189 169.62 318.685 169.62 318.027C169.62 317.369 169.088 316.865 168.43 316.865C167.772 316.865 167.24 317.369 167.24 318.027ZM176.133 324.845C175.783 325.349 175.181 325.685 174.495 325.685C173.473 325.685 172.703 324.901 172.703 323.837C172.703 322.857 173.389 321.975 174.453 321.975C175.153 321.975 175.755 322.311 176.133 322.815V324.845ZM177.953 320.435H176.203V320.981C175.671 320.547 174.985 320.295 174.215 320.295C172.367 320.295 170.883 321.835 170.883 323.837C170.883 324.761 171.219 325.601 171.751 326.217C172.353 326.917 173.305 327.365 174.313 327.365C174.999 327.365 175.643 327.155 176.203 326.679V327.225H177.953V320.435ZM184.397 320.351C184.201 320.323 184.047 320.295 183.781 320.295C182.955 320.295 182.213 320.617 181.807 321.121V320.435H180.057V327.225H181.877V322.955C182.101 322.549 182.731 321.975 183.529 321.975C183.795 321.975 184.061 322.003 184.187 322.045L184.397 320.351ZM188.447 330.585L193.123 320.435H191.205L189.371 324.509L187.383 320.435H185.381L188.419 326.539L186.543 330.585H188.447ZM197.145 326.455C197.943 327.043 198.937 327.365 199.875 327.365C201.303 327.365 202.577 326.567 202.577 325.265C202.577 322.913 199.287 323.263 199.287 322.381C199.287 322.031 199.707 321.835 200.211 321.835C200.701 321.835 201.163 322.045 201.513 322.297L202.367 320.981C201.919 320.631 200.953 320.295 200.071 320.295C198.727 320.295 197.467 321.107 197.467 322.409C197.467 324.593 200.757 324.229 200.757 325.251C200.757 325.587 200.379 325.825 199.889 325.825C199.203 325.825 198.489 325.573 198.027 325.153L197.145 326.455ZM208.813 325.685C208.687 325.713 208.337 325.755 208.071 325.755C207.623 325.755 207.329 325.629 207.147 325.419C206.993 325.237 206.923 324.985 206.923 324.565V321.975H209.163V320.435H206.923V318.545H205.103V320.435H203.213V321.975H205.103V324.355C205.103 325.321 205.257 325.923 205.607 326.385C206.069 327.001 206.867 327.365 207.959 327.365C208.309 327.365 208.855 327.309 209.093 327.225L208.813 325.685ZM215.534 320.435V324.845C215.282 325.167 214.722 325.685 213.952 325.685C213.602 325.685 213.21 325.573 212.93 325.265C212.72 325.027 212.594 324.719 212.594 324.103V320.435H210.774V324.033C210.774 325.041 211.026 325.741 211.46 326.273C211.992 326.931 212.832 327.365 213.77 327.365C214.428 327.365 215.072 327.155 215.604 326.679V327.225H217.354V320.435H215.534ZM224.149 324.845C223.799 325.349 223.197 325.685 222.511 325.685C221.489 325.685 220.719 324.901 220.719 323.837C220.719 322.857 221.405 321.975 222.469 321.975C223.169 321.975 223.771 322.311 224.149 322.815V324.845ZM225.969 327.225V317.285H224.149V320.925C223.617 320.505 222.973 320.295 222.231 320.295C220.383 320.295 218.899 321.835 218.899 323.837C218.899 324.761 219.235 325.601 219.767 326.217C220.369 326.917 221.321 327.365 222.329 327.365C223.015 327.365 223.659 327.155 224.219 326.679V327.225H225.969ZM230.228 330.585L234.904 320.435H232.986L231.152 324.509L229.164 320.435H227.162L230.2 326.539L228.324 330.585H230.228ZM51.9435 357.235C53.2035 357.235 53.9595 356.927 54.4915 356.367C54.9815 355.863 55.2615 355.107 55.2615 354.337C55.2615 353.567 54.9815 352.811 54.4915 352.307C53.9455 351.733 53.2035 351.425 51.9435 351.425H48.2615V361.225H50.1515V357.235H51.9435ZM50.1515 355.555V353.105H51.8595C52.5035 353.105 52.8255 353.259 53.0495 353.497C53.2595 353.721 53.3715 354.015 53.3715 354.337C53.3715 354.659 53.2595 354.939 53.0495 355.163C52.8255 355.401 52.5035 355.555 51.8595 355.555H50.1515ZM61.206 354.435V358.845C60.954 359.167 60.394 359.685 59.624 359.685C59.274 359.685 58.882 359.573 58.602 359.265C58.392 359.027 58.266 358.719 58.266 358.103V354.435H56.446V358.033C56.446 359.041 56.698 359.741 57.132 360.273C57.664 360.931 58.504 361.365 59.442 361.365C60.1 361.365 60.744 361.155 61.276 360.679V361.225H63.026V354.435H61.206ZM69.471 354.351C69.275 354.323 69.121 354.295 68.855 354.295C68.029 354.295 67.287 354.617 66.881 355.121V354.435H65.131V361.225H66.951V356.955C67.175 356.549 67.805 355.975 68.603 355.975C68.869 355.975 69.135 356.003 69.261 356.045L69.471 354.351ZM70.8732 364.585H72.6932V360.749C73.2392 361.169 73.8272 361.365 74.5132 361.365C75.5212 361.365 76.4872 360.917 77.0892 360.217C77.6212 359.601 77.9432 358.761 77.9432 357.837C77.9432 355.835 76.4592 354.295 74.6112 354.295C73.8412 354.295 73.1552 354.547 72.6232 354.981V354.435H70.8732V364.585ZM72.6932 356.815C73.0712 356.311 73.6732 355.975 74.3732 355.975C75.4372 355.975 76.1232 356.857 76.1232 357.837C76.1232 358.901 75.3532 359.685 74.3312 359.685C73.6452 359.685 73.0432 359.349 72.6932 358.845V356.815ZM78.9264 357.837C78.9264 359.797 80.4804 361.365 82.5384 361.365C84.5964 361.365 86.1504 359.797 86.1504 357.837C86.1504 355.877 84.5964 354.295 82.5384 354.295C80.4804 354.295 78.9264 355.877 78.9264 357.837ZM80.7464 357.837C80.7464 356.815 81.4744 355.975 82.5384 355.975C83.6024 355.975 84.3304 356.815 84.3304 357.837C84.3304 358.859 83.6024 359.685 82.5384 359.685C81.4744 359.685 80.7464 358.859 80.7464 357.837ZM87.0176 360.455C87.8156 361.043 88.8096 361.365 89.7476 361.365C91.1756 361.365 92.4496 360.567 92.4496 359.265C92.4496 356.913 89.1596 357.263 89.1596 356.381C89.1596 356.031 89.5796 355.835 90.0836 355.835C90.5736 355.835 91.0356 356.045 91.3856 356.297L92.2396 354.981C91.7916 354.631 90.8256 354.295 89.9436 354.295C88.5996 354.295 87.3396 355.107 87.3396 356.409C87.3396 358.593 90.6296 358.229 90.6296 359.251C90.6296 359.587 90.2516 359.825 89.7616 359.825C89.0756 359.825 88.3616 359.573 87.8996 359.153L87.0176 360.455ZM98.875 359.111C98.553 359.461 97.937 359.895 97.167 359.895C96.201 359.895 95.431 359.237 95.333 358.285H100.037C100.065 358.131 100.079 357.949 100.079 357.767C100.079 355.877 98.749 354.295 96.873 354.295C94.857 354.295 93.569 355.947 93.569 357.837C93.569 359.965 95.095 361.365 97.125 361.365C98.175 361.365 99.253 360.931 99.911 360.147L98.875 359.111ZM95.417 356.955C95.501 356.339 96.117 355.765 96.873 355.765C97.615 355.765 98.161 356.353 98.217 356.955H95.417ZM102.111 355.499C102.111 356.185 102.643 356.689 103.329 356.689C104.015 356.689 104.561 356.185 104.561 355.499C104.561 354.813 104.015 354.295 103.329 354.295C102.643 354.295 102.111 354.813 102.111 355.499ZM102.111 360.175C102.111 360.861 102.643 361.365 103.329 361.365C104.015 361.365 104.561 360.861 104.561 360.175C104.561 359.489 104.015 358.971 103.329 358.971C102.643 358.971 102.111 359.489 102.111 360.175Z" fill="white" fill-opacity="0.8"/>
<path d="M193.968 42.9712H75.1426V202.118H193.968V42.9712Z" fill="#13B2EA"/>
<path d="M183.324 61.1177H84.9707V188.69H183.324V61.1177Z" fill="#24285B"/>
<path opacity="0.12" d="M148.795 49.191H123.915V52.822H148.795V49.191Z" fill="black"/>
<path d="M114.904 55.4502C117.141 55.4502 118.955 53.6366 118.955 51.3994C118.955 49.1622 117.141 47.3486 114.904 47.3486C112.667 47.3486 110.854 49.1622 110.854 51.3994C110.854 53.6366 112.667 55.4502 114.904 55.4502Z" fill="white"/>
<path d="M183.324 157.209H84.9707V188.69H183.324V157.209Z" fill="#24285B"/>
<path d="M112.019 178.42C114.501 178.42 116.513 176.408 116.513 173.926C116.513 171.444 114.501 169.432 112.019 169.432C109.537 169.432 107.525 171.444 107.525 173.926C107.525 176.408 109.537 178.42 112.019 178.42Z" fill="white"/>
<path opacity="0.29" d="M157.092 178.42C159.574 178.42 161.586 176.408 161.586 173.926C161.586 171.444 159.574 169.432 157.092 169.432C154.61 169.432 152.598 171.444 152.598 173.926C152.598 176.408 154.61 178.42 157.092 178.42Z" fill="white"/>
<path d="M134.94 183.698C140.978 183.698 145.872 178.804 145.872 172.766C145.872 166.729 140.978 161.835 134.94 161.835C128.903 161.835 124.009 166.729 124.009 172.766C124.009 178.804 128.903 183.698 134.94 183.698Z" fill="#C673D3"/>
<path d="M134.334 173.56C133.557 172.832 133.043 171.867 132.872 170.815C132.863 170.753 132.868 170.689 132.889 170.63C132.909 170.57 132.943 170.516 132.989 170.473L133.945 169.517C134.013 169.451 134.056 169.364 134.067 169.271C134.078 169.178 134.057 169.083 134.008 169.004L132.53 166.718C132.477 166.629 132.392 166.564 132.292 166.535C132.193 166.506 132.086 166.516 131.994 166.562L129.661 167.674C129.586 167.712 129.524 167.771 129.484 167.845C129.444 167.918 129.427 168.003 129.436 168.086C129.823 170.705 131.043 173.13 132.915 175.002C134.787 176.874 137.212 178.094 139.831 178.481C139.915 178.491 139.999 178.475 140.073 178.435C140.147 178.394 140.207 178.332 140.243 178.256L141.355 175.923C141.4 175.831 141.41 175.726 141.383 175.627C141.356 175.528 141.293 175.443 141.207 175.387L138.921 173.917C138.842 173.868 138.748 173.847 138.655 173.856C138.563 173.866 138.476 173.907 138.408 173.972L137.483 174.897C137.439 174.943 137.386 174.977 137.326 174.999C137.267 175.021 137.204 175.028 137.141 175.021C136.091 174.847 135.127 174.334 134.396 173.56H134.334Z" fill="white"/>
<path d="M183.324 73.1609H135.749V112.44H183.324V73.1609Z" fill="white"/>
<path d="M166.725 87.553C166.725 87.553 171.452 87.6618 173.823 93.5942C176.195 99.5265 176.436 101.54 176.436 101.54H170.534L166.725 87.553Z" fill="#BEBEBE"/>
<path d="M132.546 73.1609H84.9707V112.44H132.546V73.1609Z" fill="white"/>
<path d="M103.304 92.5834C103.304 92.5834 101.858 86.1846 110.449 85.3294C119.04 84.4741 131.706 82.9191 128.891 101.54H107.899L103.304 92.5834Z" fill="#13B2EA"/>
<path opacity="0.08" d="M103.304 92.5834C103.304 92.5834 101.858 86.1846 110.449 85.3294C119.04 84.4741 131.706 82.9191 128.891 101.54H107.899L103.304 92.5834Z" fill="black"/>
<path d="M132.546 115.24H84.9707V157.209H132.546V115.24Z" fill="white"/>
<path d="M183.324 115.24H135.749V157.209H183.324V115.24Z" fill="white"/>
<path d="M99.6415 92.5834C99.6415 92.5834 98.1954 86.1846 106.787 85.3294C115.378 84.4741 128.044 82.9191 125.229 101.54H104.237L99.6415 92.5834Z" fill="#13B2EA"/>
<path d="M104.688 83.5486C104.24 84.5044 103.923 85.5166 103.747 86.5576C103.734 86.6827 103.746 86.8091 103.782 86.9296C103.818 87.0501 103.878 87.1623 103.957 87.2598C104.037 87.3573 104.134 87.4381 104.245 87.4978C104.356 87.5574 104.477 87.5946 104.602 87.6072C105.004 87.674 105.416 87.6229 105.788 87.4601C106.161 87.2972 106.478 87.0296 106.702 86.6897L107.806 85.3291C108 85.0327 108.097 84.6832 108.083 84.3292C108.069 83.9753 107.945 83.6344 107.728 83.3543C107.546 83.1139 107.307 82.9225 107.032 82.797C106.758 82.6715 106.457 82.6159 106.156 82.6352C105.855 82.6544 105.563 82.7479 105.307 82.9073C105.051 83.0667 104.838 83.287 104.688 83.5486V83.5486Z" fill="#F4A28C"/>
<path d="M107.005 85.5468L108.381 91.6346L104.976 92.1477L105.341 87.5138L107.005 85.5468Z" fill="#F4A28C"/>
<path d="M105.107 83.7819C105.651 84.0089 106.22 84.1707 106.802 84.264C106.55 84.4445 106.357 84.6965 106.249 84.9875C106.141 85.2784 106.122 85.5951 106.196 85.8967C106.26 86.1893 106.424 86.4506 106.659 86.6363C106.895 86.8219 107.187 86.9205 107.487 86.9152L108.264 84.5827C108.394 84.2579 108.432 83.904 108.376 83.5589C108.32 83.2138 108.171 82.8904 107.945 82.6234C107.748 82.3918 107.537 82.1712 107.315 81.9626C106.748 81.4572 105.621 81.5427 105.193 80.8818C105.152 80.816 105.094 80.7617 105.026 80.724C104.958 80.6864 104.882 80.6666 104.804 80.6666C104.726 80.6666 104.65 80.6864 104.582 80.724C104.514 80.7617 104.457 80.816 104.415 80.8818C104.058 81.5349 103.778 82.6856 104.579 83.4087C104.731 83.5645 104.91 83.691 105.107 83.7819V83.7819Z" fill="#24285B"/>
<path d="M106.025 85.7723C106.025 85.7723 106.29 85.0881 106.803 85.3292C107.316 85.5702 106.927 86.5654 106.189 86.4021L106.025 85.7723Z" fill="#F4A28C"/>
<path d="M104.237 84.6605L103.459 85.1581C103.416 85.1864 103.381 85.225 103.356 85.2705C103.331 85.316 103.318 85.3669 103.318 85.4186C103.318 85.4703 103.331 85.5212 103.356 85.5667C103.381 85.6122 103.416 85.6508 103.459 85.679L104.097 86.0522L104.237 84.6605Z" fill="#F4A28C"/>
<path d="M102.401 124.461C102.259 125.508 102.259 126.57 102.401 127.618C102.423 127.743 102.469 127.864 102.538 127.971C102.607 128.079 102.696 128.172 102.801 128.244C102.906 128.317 103.025 128.367 103.15 128.393C103.275 128.419 103.404 128.42 103.529 128.395C103.931 128.34 104.308 128.169 104.616 127.905C104.924 127.64 105.148 127.292 105.263 126.902L105.924 125.277C106.022 124.938 106.013 124.576 105.897 124.242C105.782 123.908 105.565 123.618 105.278 123.411C105.035 123.229 104.75 123.11 104.449 123.065C104.148 123.021 103.841 123.052 103.555 123.156C103.27 123.261 103.014 123.435 102.813 123.662C102.611 123.89 102.47 124.165 102.401 124.461V124.461Z" fill="#F4A28C"/>
<path d="M105.061 125.713L108.319 131.031L105.263 132.609L104.12 128.107L105.061 125.713Z" fill="#F4A28C"/>
<path d="M104.33 126.195C104.33 126.195 104.384 125.464 104.929 125.557C105.473 125.65 105.403 126.7 104.649 126.755L104.33 126.195Z" fill="#F4A28C"/>
<path d="M102.293 125.651L101.717 126.35C101.684 126.39 101.661 126.438 101.652 126.488C101.642 126.539 101.646 126.592 101.662 126.641C101.678 126.69 101.707 126.734 101.745 126.769C101.784 126.804 101.83 126.828 101.88 126.84L102.604 127.019L102.293 125.651Z" fill="#F4A28C"/>
<path d="M92.1234 101.54C92.1234 101.54 91.789 93.4925 101.811 92.1552C111.833 90.8179 122.57 86.9148 123.122 101.54H92.1234Z" fill="#BEBEBE"/>
<path d="M167.292 137.282C167.292 137.282 168.738 130.883 160.147 130.028C151.556 129.172 138.89 127.617 141.705 146.239H162.697L167.292 137.282Z" fill="#13B2EA"/>
<path opacity="0.08" d="M114.617 93.2126C114.617 93.2126 110.488 94.4411 109.882 101.54H117.525L114.617 93.2126Z" fill="black"/>
<path opacity="0.08" d="M167.292 137.282C167.292 137.282 168.738 130.883 160.147 130.028C151.556 129.172 138.89 127.617 141.705 146.239H162.697L167.292 137.282Z" fill="black"/>
<path d="M115.075 101.541C115.075 101.541 112.206 94.6907 115.557 92.1483C118.908 89.6059 123.62 94.7763 123.122 101.541H115.075Z" fill="#BEBEBE"/>
<path opacity="0.46" d="M115.075 101.541C115.075 101.541 112.206 94.6907 115.557 92.1483C118.908 89.6059 123.62 94.7763 123.122 101.541H115.075Z" fill="white"/>
<path d="M171.569 137.282C171.569 137.282 173.015 130.883 164.423 130.028C155.832 129.172 143.166 127.617 145.981 146.239H166.973L171.569 137.282Z" fill="#13B2EA"/>
<path d="M167.331 129.538C167.378 130.582 167.286 131.628 167.058 132.648C167.023 132.769 166.964 132.881 166.885 132.979C166.805 133.076 166.708 133.157 166.597 133.217C166.487 133.277 166.366 133.315 166.241 133.328C166.116 133.341 165.989 133.329 165.869 133.293C165.472 133.202 165.111 132.998 164.828 132.705C164.545 132.413 164.353 132.044 164.275 131.645L163.77 129.966C163.704 129.618 163.748 129.258 163.896 128.937C164.044 128.615 164.287 128.347 164.594 128.17C164.856 128.016 165.152 127.931 165.456 127.921C165.76 127.911 166.061 127.977 166.333 128.113C166.604 128.249 166.838 128.45 167.012 128.699C167.186 128.948 167.296 129.236 167.331 129.538V129.538Z" fill="#F4A28C"/>
<path d="M164.205 130.253L162.837 136.333L166.235 136.847L165.869 132.213L164.205 130.253Z" fill="#F4A28C"/>
<path d="M167.331 130.743L167.828 131.521C167.856 131.563 167.873 131.612 167.877 131.663C167.881 131.714 167.872 131.765 167.852 131.812C167.831 131.858 167.798 131.899 167.758 131.929C167.717 131.96 167.669 131.98 167.619 131.987L166.888 132.096L167.331 130.743Z" fill="#F4A28C"/>
<path d="M179.087 146.239C179.087 146.239 179.421 138.191 169.399 136.854C159.377 135.517 148.64 131.614 148.088 146.239H179.087Z" fill="#BEBEBE"/>
<path opacity="0.08" d="M156.593 137.911C156.593 137.911 160.722 139.14 161.328 146.239H153.686L156.593 137.911Z" fill="black"/>
<path opacity="0.08" d="M166.725 87.553C166.725 87.553 171.452 87.6618 173.823 93.5942C176.195 99.5265 176.436 101.54 176.436 101.54H170.534L166.725 87.553Z" fill="black"/>
<path d="M156.135 146.239C156.135 146.239 159.004 139.389 155.653 136.847C152.302 134.304 147.591 139.475 148.088 146.239H156.135Z" fill="#BEBEBE"/>
<path opacity="0.46" d="M156.135 146.239C156.135 146.239 159.004 139.389 155.653 136.847C152.302 134.304 147.591 139.475 148.088 146.239H156.135Z" fill="white"/>
<path d="M130.065 75.6025H116.257V79.49H130.065V75.6025Z" fill="#BEBEBE"/>
<path d="M130.065 121.164H116.257V125.051H130.065V121.164Z" fill="#BEBEBE"/>
<path d="M152.48 75.6025H138.672V79.49H152.48V75.6025Z" fill="#BEBEBE"/>
<path d="M152.48 121.164H138.672V125.051H152.48V121.164Z" fill="#BEBEBE"/>
<path d="M163.77 132.197C163.77 132.197 165.099 132.244 164.773 130.689C164.446 129.134 167.805 130.852 168.139 129.009C168.474 127.166 167.129 126.459 165.543 126.925C163.956 127.392 162.129 128.099 163.77 132.197Z" fill="#24285B"/>
<path d="M165.248 131.093C165.248 131.093 165.248 130.362 164.711 130.393C164.175 130.424 164.136 131.489 164.874 131.613L165.248 131.093Z" fill="#F4A28C"/>
<path d="M89.3008 101.54L94.1368 90.6704L96.9514 91.4868L94.8055 101.54H89.3008Z" fill="#BEBEBE"/>
<path opacity="0.46" d="M89.3008 101.54L94.1368 90.6704L96.9514 91.4868L94.8055 101.54H89.3008Z" fill="white"/>
<path d="M94.79 90.8573C94.79 90.8573 95.6064 87.825 98.421 88.8513C101.236 89.8776 96.9515 91.4871 96.9515 91.4871L94.79 90.8573Z" fill="#F4A28C"/>
<path d="M146.681 101.54C146.681 101.54 143.345 94.348 148.648 90.2505C153.95 86.1531 165.31 84.6214 168.863 89.2709C172.416 93.9203 171.343 101.54 171.343 101.54H146.681Z" fill="#BEBEBE"/>
<path opacity="0.08" d="M151.905 93.4929L157.503 94.5503L166.234 93.4929L164.78 101.54H146.206L145.576 96.5174L151.905 93.4929Z" fill="black"/>
<path d="M149.705 89.4343C146.595 90.9893 140.461 95.11 140.251 99.0053C140.235 99.3318 140.286 99.6581 140.401 99.9642C140.515 100.27 140.691 100.55 140.917 100.786C141.144 101.021 141.416 101.209 141.717 101.336C142.018 101.463 142.342 101.527 142.669 101.524H157.053V100.218L147.163 98.4922C147.163 98.4922 154.541 96.8594 153.632 91.3547C153.559 90.9344 153.387 90.5374 153.131 90.1962C152.875 89.8551 152.542 89.5795 152.159 89.392C151.776 89.2046 151.353 89.1107 150.927 89.1181C150.5 89.1254 150.082 89.2338 149.705 89.4343V89.4343Z" fill="#BEBEBE"/>
<path d="M112.595 133.379C112.595 133.379 118.395 129.624 123.62 133.239C128.844 136.854 127.445 146.231 127.445 146.231H110.954L112.595 133.379Z" fill="#13B2EA"/>
<path opacity="0.08" d="M112.595 133.379C112.595 133.379 118.395 129.624 123.62 133.239C128.844 136.854 127.445 146.231 127.445 146.231H110.954L112.595 133.379Z" fill="black"/>
<path opacity="0.46" d="M149.705 89.4343C146.595 90.9893 140.461 95.11 140.251 99.0053C140.235 99.3318 140.286 99.6581 140.401 99.9642C140.515 100.27 140.691 100.55 140.917 100.786C141.144 101.021 141.416 101.209 141.717 101.336C142.018 101.463 142.342 101.527 142.669 101.524H157.053V100.218L147.163 98.4922C147.163 98.4922 154.541 96.8594 153.632 91.3547C153.559 90.9344 153.387 90.5374 153.131 90.1962C152.875 89.8551 152.542 89.5795 152.159 89.392C151.776 89.2046 151.353 89.1107 150.927 89.1181C150.5 89.1254 150.082 89.2338 149.705 89.4343V89.4343Z" fill="white"/>
<path d="M155.054 99.9541L153.11 93.2132L163.956 92.6145L162.596 100.079L162.526 101.54H155.373L155.054 99.9541Z" fill="#13B2EA"/>
<path d="M158.802 97.0848C159.322 97.0848 159.743 96.6636 159.743 96.144C159.743 95.6244 159.322 95.2032 158.802 95.2032C158.283 95.2032 157.861 95.6244 157.861 96.144C157.861 96.6636 158.283 97.0848 158.802 97.0848Z" fill="white"/>
<path d="M105.745 131.42C105.745 131.42 95.093 133.581 96.8191 140.75C98.0242 145.772 94.541 146.192 94.541 146.192H101.539L105.745 131.42Z" fill="#F4A28C"/>
<path opacity="0.08" d="M163.443 95.4526C163.443 95.4526 161.616 100.623 155.124 100.312L155.373 101.54H162.526L162.596 100.079L163.443 95.4526Z" fill="black"/>
<path d="M156.376 86.4798C156.376 86.4798 155.396 88.6413 156.726 89.1777C158.055 89.7142 158.343 88.8434 158.343 88.8434C158.343 88.8434 159.416 89.7997 160.116 88.8434C160.435 88.3213 160.551 87.7002 160.442 87.0982C160.333 86.4962 160.006 85.9552 159.525 85.5779C158.576 84.9248 156.376 86.4798 156.376 86.4798Z" fill="white"/>
<path d="M156.671 86.5114C156.779 86.8666 156.867 87.2274 156.936 87.5921C156.945 87.9095 157.069 88.2128 157.285 88.4458C157.501 88.6788 157.794 88.8257 158.11 88.8594C159.377 88.9138 159.424 86.9234 159.424 86.9234C159.424 86.9234 159.945 84.9875 158.576 84.9253C157.348 84.8708 156.189 84.8631 156.671 86.5114Z" fill="#F4A28C"/>
<path d="M109.221 133.379C109.221 133.379 115.021 129.624 120.253 133.239C125.486 136.854 124.071 146.231 124.071 146.231H107.58L109.221 133.379Z" fill="#13B2EA"/>
<path d="M159.361 87.0087C159.361 87.0087 159.361 86.41 159.867 86.3633C160.372 86.3167 160.38 87.4518 159.361 87.0087Z" fill="#F4A28C"/>
<path d="M99.1678 146.231C99.1678 146.231 95.4281 138.665 100.723 134.568C106.018 130.471 112.867 128.908 116.413 133.55C119.958 138.191 118.185 146.231 118.185 146.231H99.1678Z" fill="#BEBEBE"/>
<path opacity="0.08" d="M112.509 135.369C112.509 135.369 108.684 137.857 110.69 143.486L99.0273 141.302L99.1673 146.231H109.578L116.055 145.158V140.796L112.509 135.369Z" fill="black"/>
<path d="M157.044 87.0009C157.044 87.0009 157.145 86.41 156.64 86.2856C156.134 86.1612 156.01 87.2886 157.044 87.0009Z" fill="#F4A28C"/>
<path d="M156.671 86.5114C156.671 86.5114 154.634 86.5114 155.318 84.9098C156.002 83.3081 156.36 84.3889 156.617 83.1915C156.873 81.9942 157.231 81.722 157.915 82.1185C158.599 82.5151 158.148 83.6191 159.042 83.1993C159.937 82.7794 160.535 82.4218 160.823 83.1993C161.111 83.9768 160.986 84.3422 160.419 84.6921C159.851 85.042 160.947 85.9594 159.493 86.597C158.039 87.2345 157.021 85.6873 157.021 85.6873L156.671 86.5114Z" fill="#24285B"/>
<path d="M102.845 133.13C102.845 133.13 102.254 130.968 105.761 129.965C109.267 128.962 110.021 130.743 110.021 130.743C110.021 130.743 106.002 133.837 102.845 133.13Z" fill="#BEBEBE"/>
<path opacity="0.46" d="M102.845 133.13C102.845 133.13 102.254 130.968 105.761 129.965C109.267 128.962 110.021 130.743 110.021 130.743C110.021 130.743 106.002 133.837 102.845 133.13Z" fill="white"/>
<path d="M101.64 123.986C101.946 124.352 102.374 124.595 102.845 124.67C103.105 124.711 103.347 124.825 103.543 125.001C103.739 125.176 103.88 125.404 103.949 125.658C104.501 127.671 106.103 132.158 109.578 132.274C114.08 132.422 114.476 130.774 113.675 129.164C112.875 127.555 108.116 128.2 107.829 125.277C107.564 122.548 103.482 119.407 101.609 122.408C101.444 122.64 101.359 122.918 101.365 123.202C101.37 123.486 101.467 123.761 101.64 123.986Z" fill="#24285B"/>
<path d="M117.928 135.867C119.168 139.175 119.649 142.72 119.335 146.239H109.018L100.201 142.087L100.784 140.205L113.535 143.859C112.715 141.666 112.223 139.363 112.074 137.025C112.062 136.315 112.3 135.622 112.746 135.069C113.193 134.516 113.82 134.138 114.517 134C115.214 133.862 115.938 133.973 116.561 134.314C117.185 134.656 117.669 135.205 117.928 135.867V135.867Z" fill="#F4A28C"/>
<path d="M100.785 140.197C100.785 140.197 97.2003 138.728 96.5394 140.197C95.8786 141.667 100.201 142.079 100.201 142.079L100.785 140.197Z" fill="#F4A28C"/>
<path d="M91.2446 146.246L89.9307 138.813H99.2529L100.061 145.15L104.346 145.212V146.246H91.2446Z" fill="#13B2EA"/>
<path d="M95.14 143.168C95.6553 143.168 96.073 142.75 96.073 142.235C96.073 141.719 95.6553 141.302 95.14 141.302C94.6247 141.302 94.207 141.719 94.207 142.235C94.207 142.75 94.6247 143.168 95.14 143.168Z" fill="white"/>
<path d="M183.324 61.1177H84.9707V73.1611H183.324V61.1177Z" fill="white"/>
<path opacity="0.27" d="M183.324 61.1177H84.9707V73.1611H183.324V61.1177Z" fill="#C9C9C9"/>
<path opacity="0.51" d="M132.546 146.231H84.9707V157.217H132.546V146.231Z" fill="#C9C9C9"/>
<path opacity="0.51" d="M183.324 146.231H135.749V157.217H183.324V146.231Z" fill="#C9C9C9"/>
<path opacity="0.51" d="M183.324 101.454H135.749V112.44H183.324V101.454Z" fill="#C9C9C9"/>
<path opacity="0.51" d="M132.546 101.454H84.9707V112.44H132.546V101.454Z" fill="#C9C9C9"/>
<path d="M93.5072 70.7818C95.4824 70.7818 97.0837 69.1805 97.0837 67.2053C97.0837 65.23 95.4824 63.6288 93.5072 63.6288C91.5319 63.6288 89.9307 65.23 89.9307 67.2053C89.9307 69.1805 91.5319 70.7818 93.5072 70.7818Z" fill="#C9C9C9"/>
<path d="M98.3744 70.7818C100.35 70.7818 101.951 69.1805 101.951 67.2053C101.951 65.23 100.35 63.6288 98.3744 63.6288C96.3991 63.6288 94.7979 65.23 94.7979 67.2053C94.7979 69.1805 96.3991 70.7818 98.3744 70.7818Z" fill="#D1D1D1"/>
<path d="M102.627 70.7818C104.603 70.7818 106.204 69.1805 106.204 67.2053C106.204 65.23 104.603 63.6288 102.627 63.6288C100.652 63.6288 99.0508 65.23 99.0508 67.2053C99.0508 69.1805 100.652 70.7818 102.627 70.7818Z" fill="#E0E0E0"/>
<path d="M107.028 70.7818C109.003 70.7818 110.604 69.1805 110.604 67.2053C110.604 65.23 109.003 63.6288 107.028 63.6288C105.052 63.6288 103.451 65.23 103.451 67.2053C103.451 69.1805 105.052 70.7818 107.028 70.7818Z" fill="#E5E5E5"/>
<path d="M177.399 64.2201H158.529V70.0747H177.399V64.2201Z" fill="#13B2EA"/>
</g>
<defs>
<clipPath id="clip0_958_1298">
<rect width="271" height="385" fill="white"/>
</clipPath>
</defs>
</svg>
