<svg width="271" height="385" viewBox="0 0 271 385" fill="none" xmlns="http://www.w3.org/2000/svg">
<g clip-path="url(#clip0_958_1251)">
<path d="M28.3533 235.4V233H19.9533V247H28.5533V244.6H22.6533V240.7H26.9533V238.3H22.6533V235.4H28.3533ZM37.3587 244.8C37.1787 244.84 36.6787 244.9 36.2987 244.9C35.6587 244.9 35.2387 244.72 34.9787 244.42C34.7587 244.16 34.6587 243.8 34.6587 243.2V239.5H37.8587V237.3H34.6587V234.6H32.0587V237.3H29.3587V239.5H32.0587V242.9C32.0587 244.28 32.2787 245.14 32.7787 245.8C33.4387 246.68 34.5787 247.2 36.1387 247.2C36.6387 247.2 37.4187 247.12 37.7587 247L37.3587 244.8ZM42.5704 240.7C42.9304 240.2 43.8304 239.5 44.9304 239.5C45.5304 239.5 46.0504 239.7 46.3904 240.04C46.7504 240.4 46.9704 240.9 46.9704 241.86V247H49.5704V242.06C49.5704 240.4 49.2104 239.42 48.5704 238.66C47.7704 237.7 46.5504 237.1 45.2104 237.1C44.2104 237.1 43.2904 237.44 42.5704 238V232.8H39.9704V247H42.5704V240.7ZM54.9728 247V240.7C55.3328 240.2 56.2328 239.5 57.3328 239.5C57.9328 239.5 58.4528 239.7 58.7928 240.04C59.1528 240.4 59.3728 240.9 59.3728 241.86V247H61.9728V242.06C61.9728 240.4 61.6128 239.42 60.9728 238.66C60.1728 237.7 58.9528 237.1 57.6128 237.1C56.5328 237.1 55.6128 237.48 54.8728 238.08V237.3H52.3728V247H54.9728ZM63.9751 242.16C63.9751 244.96 66.1951 247.2 69.1351 247.2C72.0751 247.2 74.2951 244.96 74.2951 242.16C74.2951 239.36 72.0751 237.1 69.1351 237.1C66.1951 237.1 63.9751 239.36 63.9751 242.16ZM66.5751 242.16C66.5751 240.7 67.6151 239.5 69.1351 239.5C70.6551 239.5 71.6951 240.7 71.6951 242.16C71.6951 243.62 70.6551 244.8 69.1351 244.8C67.6151 244.8 66.5751 243.62 66.5751 242.16ZM85.9892 237.3H83.4892V238.08C82.7292 237.46 81.7492 237.1 80.6492 237.1C78.0092 237.1 75.8892 239.3 75.8892 242.16C75.8892 243.48 76.3492 244.68 77.1092 245.56C77.9692 246.56 79.3492 247.2 80.7892 247.2C81.7692 247.2 82.6092 246.92 83.3892 246.32V246.64C83.3892 247.88 83.1892 248.48 82.7892 248.92C82.3492 249.44 81.6492 249.7 80.8092 249.7C79.2092 249.7 78.3092 248.86 77.7892 248.3L76.1492 250C77.1092 251.12 78.9092 252 80.8092 252C82.6692 252 84.2292 251.28 85.1092 250.06C85.6892 249.24 85.9892 248.2 85.9892 246.46V237.3ZM83.3892 243.6C82.8892 244.32 82.0292 244.8 81.0492 244.8C79.5892 244.8 78.4892 243.68 78.4892 242.16C78.4892 240.76 79.4692 239.5 80.9892 239.5C81.9892 239.5 82.8492 239.98 83.3892 240.7V243.6ZM95.1939 237.18C94.9139 237.14 94.6939 237.1 94.3139 237.1C93.1339 237.1 92.0739 237.56 91.4939 238.28V237.3H88.9939V247H91.5939V240.9C91.9139 240.32 92.8139 239.5 93.9539 239.5C94.3339 239.5 94.7139 239.54 94.8939 239.6L95.1939 237.18ZM103.604 243.6C103.104 244.32 102.244 244.8 101.264 244.8C99.804 244.8 98.704 243.68 98.704 242.16C98.704 240.76 99.684 239.5 101.204 239.5C102.204 239.5 103.064 239.98 103.604 240.7V243.6ZM106.204 237.3H103.704V238.08C102.944 237.46 101.964 237.1 100.864 237.1C98.224 237.1 96.104 239.3 96.104 242.16C96.104 243.48 96.584 244.68 97.344 245.56C98.204 246.56 99.564 247.2 101.004 247.2C101.984 247.2 102.904 246.9 103.704 246.22V247H106.204V237.3ZM109.209 251.8H111.809V246.32C112.589 246.92 113.429 247.2 114.409 247.2C115.849 247.2 117.229 246.56 118.089 245.56C118.849 244.68 119.309 243.48 119.309 242.16C119.309 239.3 117.189 237.1 114.549 237.1C113.449 237.1 112.469 237.46 111.709 238.08V237.3H109.209V251.8ZM111.809 240.7C112.349 239.98 113.209 239.5 114.209 239.5C115.729 239.5 116.709 240.76 116.709 242.16C116.709 243.68 115.609 244.8 114.149 244.8C113.169 244.8 112.309 244.32 111.809 243.6V240.7ZM124.113 240.7C124.473 240.2 125.373 239.5 126.473 239.5C127.073 239.5 127.593 239.7 127.933 240.04C128.293 240.4 128.513 240.9 128.513 241.86V247H131.113V242.06C131.113 240.4 130.753 239.42 130.113 238.66C129.313 237.7 128.093 237.1 126.753 237.1C125.753 237.1 124.833 237.44 124.113 238V232.8H121.513V247H124.113V240.7ZM136.516 237.3H133.916V247H136.516V237.3ZM133.516 233.86C133.516 234.8 134.276 235.52 135.216 235.52C136.156 235.52 136.916 234.8 136.916 233.86C136.916 232.92 136.156 232.2 135.216 232.2C134.276 232.2 133.516 232.92 133.516 233.86ZM146.321 243.52C145.901 244.16 145.061 244.8 144.001 244.8C142.421 244.8 141.321 243.68 141.321 242.16C141.321 240.68 142.441 239.5 143.941 239.5C144.881 239.5 145.661 239.98 146.181 240.66L148.021 239.04C147.121 237.88 145.621 237.1 143.941 237.1C140.981 237.1 138.721 239.34 138.721 242.16C138.721 244.96 140.921 247.2 143.921 247.2C145.741 247.2 147.181 246.54 148.321 245.02L146.321 243.52ZM155.813 247H158.513V233H155.813V247ZM164.211 247V240.7C164.571 240.2 165.471 239.5 166.571 239.5C167.171 239.5 167.691 239.7 168.031 240.04C168.391 240.4 168.611 240.9 168.611 241.86V247H171.211V242.06C171.211 240.4 170.851 239.42 170.211 238.66C169.411 237.7 168.191 237.1 166.851 237.1C165.771 237.1 164.851 237.48 164.111 238.08V237.3H161.611V247H164.211ZM180.523 244.8C180.343 244.84 179.843 244.9 179.463 244.9C178.823 244.9 178.403 244.72 178.143 244.42C177.923 244.16 177.823 243.8 177.823 243.2V239.5H181.023V237.3H177.823V234.6H175.223V237.3H172.523V239.5H175.223V242.9C175.223 244.28 175.443 245.14 175.943 245.8C176.603 246.68 177.743 247.2 179.303 247.2C179.803 247.2 180.583 247.12 180.923 247L180.523 244.8ZM190.012 243.98C189.552 244.48 188.672 245.1 187.572 245.1C186.192 245.1 185.092 244.16 184.952 242.8H191.672C191.712 242.58 191.732 242.32 191.732 242.06C191.732 239.36 189.832 237.1 187.152 237.1C184.272 237.1 182.432 239.46 182.432 242.16C182.432 245.2 184.612 247.2 187.512 247.2C189.012 247.2 190.552 246.58 191.492 245.46L190.012 243.98ZM185.072 240.9C185.192 240.02 186.072 239.2 187.152 239.2C188.212 239.2 188.992 240.04 189.072 240.9H185.072ZM200.135 237.18C199.855 237.14 199.635 237.1 199.255 237.1C198.075 237.1 197.015 237.56 196.435 238.28V237.3H193.935V247H196.535V240.9C196.855 240.32 197.755 239.5 198.895 239.5C199.275 239.5 199.655 239.54 199.835 239.6L200.135 237.18ZM204.144 237.3H201.444L205.904 247H207.704L212.164 237.3H209.464L206.804 243.22L204.144 237.3ZM216.457 237.3H213.857V247H216.457V237.3ZM213.457 233.86C213.457 234.8 214.217 235.52 215.157 235.52C216.097 235.52 216.857 234.8 216.857 233.86C216.857 232.92 216.097 232.2 215.157 232.2C214.217 232.2 213.457 232.92 213.457 233.86ZM226.243 243.98C225.783 244.48 224.903 245.1 223.803 245.1C222.423 245.1 221.323 244.16 221.183 242.8H227.903C227.943 242.58 227.963 242.32 227.963 242.06C227.963 239.36 226.063 237.1 223.383 237.1C220.503 237.1 218.663 239.46 218.663 242.16C218.663 245.2 220.843 247.2 223.743 247.2C225.243 247.2 226.783 246.58 227.723 245.46L226.243 243.98ZM221.303 240.9C221.423 240.02 222.303 239.2 223.383 239.2C224.443 239.2 225.223 240.04 225.303 240.9H221.303ZM236.99 241.36L239.43 247H241.23L245.31 237.3H242.69L240.31 242.96L237.89 237.3H236.09L233.65 242.96L231.29 237.3H228.67L232.75 247H234.55L236.99 241.36ZM245.944 245.9C247.084 246.74 248.504 247.2 249.844 247.2C251.884 247.2 253.704 246.06 253.704 244.2C253.704 240.84 249.004 241.34 249.004 240.08C249.004 239.58 249.604 239.3 250.324 239.3C251.024 239.3 251.684 239.6 252.184 239.96L253.404 238.08C252.764 237.58 251.384 237.1 250.124 237.1C248.204 237.1 246.404 238.26 246.404 240.12C246.404 243.24 251.104 242.72 251.104 244.18C251.104 244.66 250.564 245 249.864 245C248.884 245 247.864 244.64 247.204 244.04L245.944 245.9Z" fill="white"/>
<path d="M42.8171 283.926C42.8171 286.824 44.9731 288.966 47.8991 288.966C49.4111 288.966 50.8671 288.224 51.7071 287.146L50.7131 286.25C50.1671 286.908 49.2151 287.636 47.8991 287.636C45.8131 287.636 44.2171 286.138 44.2171 283.926C44.2171 281.812 45.7711 280.216 47.7731 280.216C48.8231 280.216 49.8451 280.692 50.4191 281.322L51.3571 280.398C50.5031 279.46 49.1731 278.886 47.7731 278.886C44.9451 278.886 42.8171 281.098 42.8171 283.926ZM52.6231 285.536C52.6231 287.496 54.0791 288.966 56.0251 288.966C57.9711 288.966 59.4271 287.496 59.4271 285.536C59.4271 283.576 57.9711 282.106 56.0251 282.106C54.0791 282.106 52.6231 283.576 52.6231 285.536ZM53.9531 285.536C53.9531 284.332 54.8071 283.366 56.0251 283.366C57.2431 283.366 58.0971 284.332 58.0971 285.536C58.0971 286.74 57.2431 287.706 56.0251 287.706C54.8071 287.706 53.9531 286.74 53.9531 285.536ZM62.5375 282.246H61.2495V288.826H62.5795V284.304C62.9715 283.828 63.6015 283.366 64.4695 283.366C65.0155 283.366 65.5195 283.618 65.8275 284.01C66.0655 284.304 66.2195 284.696 66.2195 285.536V288.826H67.5495V285.606C67.5495 284.472 67.3255 283.8 66.9055 283.268C66.3455 282.554 65.4775 282.106 64.5115 282.106C63.5595 282.106 62.8875 282.54 62.5375 282.876V282.246ZM71.4637 288.826H72.3877L75.2437 282.246H73.8717L71.9257 286.726L69.9797 282.246H68.6077L71.4637 288.826ZM82.3033 285.816C82.3173 285.69 82.3173 285.592 82.3173 285.536C82.3173 283.59 80.9873 282.106 79.1533 282.106C77.2913 282.106 75.9473 283.562 75.9473 285.536C75.9473 287.51 77.4313 288.966 79.3493 288.966C80.6933 288.966 81.6313 288.364 82.1213 287.734L81.2533 286.908C80.8753 287.328 80.3433 287.804 79.3633 287.804C78.2153 287.804 77.3053 286.922 77.2353 285.816H82.3033ZM79.1953 283.268C79.9793 283.268 80.7353 283.856 80.9313 284.696H77.3473C77.5713 283.842 78.3413 283.268 79.1953 283.268ZM87.9162 282.148C87.7622 282.12 87.5382 282.106 87.3982 282.106C86.4322 282.106 85.7462 282.554 85.4242 283.002V282.246H84.1362V288.826H85.4662V284.472C85.8302 283.842 86.5582 283.366 87.2442 283.366C87.4542 283.366 87.6082 283.38 87.7622 283.422L87.9162 282.148ZM88.8246 288.056C89.5526 288.644 90.4346 288.966 91.4846 288.966C92.7726 288.966 93.9346 288.196 93.9346 286.95C93.9346 285.592 92.5766 285.13 91.5406 284.864C90.8826 284.696 90.3646 284.542 90.3646 284.094C90.3646 283.576 90.9106 283.268 91.5546 283.268C92.0866 283.268 92.5626 283.478 92.9686 283.786L93.6546 282.834C93.1366 282.414 92.4366 282.106 91.4706 282.106C90.2946 282.106 89.0346 282.75 89.0346 284.164C89.0346 285.088 89.7486 285.592 90.5466 285.858C91.5126 286.18 92.6046 286.222 92.6046 286.978C92.6046 287.496 92.0306 287.804 91.4566 287.804C90.7986 287.804 90.1266 287.552 89.5106 287.076L88.8246 288.056ZM101.622 285.816C101.636 285.69 101.636 285.592 101.636 285.536C101.636 283.59 100.306 282.106 98.4717 282.106C96.6097 282.106 95.2657 283.562 95.2657 285.536C95.2657 287.51 96.7497 288.966 98.6677 288.966C100.012 288.966 100.95 288.364 101.44 287.734L100.572 286.908C100.194 287.328 99.6617 287.804 98.6817 287.804C97.5337 287.804 96.6237 286.922 96.5537 285.816H101.622ZM98.5137 283.268C99.2977 283.268 100.054 283.856 100.25 284.696H96.6657C96.8897 283.842 97.6597 283.268 98.5137 283.268ZM108.257 288.826H109.545V278.886H108.215V282.82C107.627 282.33 106.913 282.106 106.199 282.106C105.583 282.106 105.037 282.26 104.589 282.526C103.595 283.114 102.895 284.22 102.895 285.536C102.895 286.852 103.581 287.944 104.575 288.532C105.023 288.798 105.639 288.966 106.227 288.966C107.011 288.966 107.725 288.7 108.257 288.224V288.826ZM108.215 286.768C107.767 287.37 107.081 287.706 106.409 287.706C105.135 287.706 104.225 286.712 104.225 285.536C104.225 284.388 105.065 283.366 106.339 283.366C107.137 283.366 107.809 283.772 108.215 284.304V286.768ZM119.502 282.246L117.696 286.74L115.89 282.246H114.518L117.192 288.826H118.116L119.964 284.206L121.812 288.826H122.736L125.41 282.246H124.038L122.232 286.74L120.426 282.246H119.502ZM126.738 288.826H128.068V282.246H126.738V288.826ZM126.528 279.908C126.528 280.398 126.906 280.776 127.396 280.776C127.886 280.776 128.278 280.398 128.278 279.908C128.278 279.418 127.886 279.026 127.396 279.026C126.906 279.026 126.528 279.418 126.528 279.908ZM134.237 287.622C134.041 287.678 133.705 287.706 133.509 287.706C133.159 287.706 132.781 287.58 132.599 287.356C132.431 287.16 132.403 286.866 132.403 286.516V283.436H134.503V282.246H132.403V280.426H131.073V282.246H129.393V283.436H131.073V286.446C131.073 287.16 131.213 287.762 131.605 288.196C132.025 288.672 132.641 288.966 133.467 288.966C133.845 288.966 134.251 288.91 134.503 288.826L134.237 287.622ZM137.652 278.886H136.322V288.826H137.652V284.304C138.044 283.828 138.674 283.366 139.542 283.366C140.088 283.366 140.592 283.618 140.9 284.01C141.138 284.304 141.292 284.696 141.292 285.536V288.826H142.622V285.606C142.622 284.472 142.398 283.8 141.978 283.268C141.418 282.554 140.55 282.106 139.584 282.106C138.674 282.106 138.016 282.512 137.652 282.82V278.886ZM217.725 285.536C217.725 287.496 219.181 288.966 221.127 288.966C223.073 288.966 224.529 287.496 224.529 285.536C224.529 283.576 223.073 282.106 221.127 282.106C219.181 282.106 217.725 283.576 217.725 285.536ZM219.055 285.536C219.055 284.332 219.909 283.366 221.127 283.366C222.345 283.366 223.199 284.332 223.199 285.536C223.199 286.74 222.345 287.706 221.127 287.706C219.909 287.706 219.055 286.74 219.055 285.536ZM230.343 278.844C230.161 278.788 229.839 278.746 229.559 278.746C228.663 278.746 227.879 279.152 227.403 279.838C227.109 280.258 226.983 280.804 226.983 281.686V282.246H225.443V283.436H226.983V288.826H228.313V283.436H230.343V282.246H228.313V281.644C228.313 281.042 228.383 280.706 228.565 280.468C228.789 280.174 229.195 280.006 229.573 280.006C229.755 280.006 229.965 280.034 230.063 280.062L230.343 278.844ZM34.9461 305.826H35.8701L38.7261 299.246H37.3541L35.4081 303.726L33.4621 299.246H32.0901L34.9461 305.826ZM44.7917 305.826H46.0797V299.246H44.7917V299.848C44.1897 299.33 43.4757 299.106 42.7337 299.106C42.1177 299.106 41.5717 299.26 41.1237 299.526C40.1297 300.114 39.4297 301.22 39.4297 302.536C39.4297 303.852 40.1157 304.944 41.1097 305.532C41.5577 305.798 42.1737 305.966 42.7617 305.966C43.5457 305.966 44.2597 305.7 44.7917 305.224V305.826ZM44.7497 303.768C44.3017 304.37 43.6157 304.706 42.9437 304.706C41.6697 304.706 40.7597 303.712 40.7597 302.536C40.7597 301.388 41.5997 300.366 42.8737 300.366C43.6717 300.366 44.3437 300.772 44.7497 301.304V303.768ZM52.2463 299.148C52.0923 299.12 51.8683 299.106 51.7283 299.106C50.7623 299.106 50.0763 299.554 49.7543 300.002V299.246H48.4663V305.826H49.7963V301.472C50.1603 300.842 50.8883 300.366 51.5743 300.366C51.7843 300.366 51.9383 300.38 52.0923 300.422L52.2463 299.148ZM55.6768 309.186L60.0028 299.246H58.6028L56.7128 303.586L54.6548 299.246H53.2268L56.0408 305.14L54.2628 309.186H55.6768ZM61.3999 305.826H62.7299V299.246H61.3999V305.826ZM61.1899 296.908C61.1899 297.398 61.5679 297.776 62.0579 297.776C62.5479 297.776 62.9399 297.398 62.9399 296.908C62.9399 296.418 62.5479 296.026 62.0579 296.026C61.5679 296.026 61.1899 296.418 61.1899 296.908ZM66.3929 299.246H65.1049V305.826H66.4349V301.304C66.8269 300.828 67.4569 300.366 68.3249 300.366C68.8709 300.366 69.3749 300.618 69.6829 301.01C69.9209 301.304 70.0749 301.696 70.0749 302.536V305.826H71.4049V302.606C71.4049 301.472 71.1809 300.8 70.7609 300.268C70.2009 299.554 69.3329 299.106 68.3669 299.106C67.4149 299.106 66.7429 299.54 66.3929 299.876V299.246ZM78.4099 305.252V305.616C78.4099 306.442 78.2839 306.946 78.0459 307.31C77.7239 307.8 77.1639 308.066 76.4499 308.066C75.3719 308.066 74.7559 307.52 74.2799 306.89L73.2999 307.8C73.7199 308.458 74.7979 309.326 76.5059 309.326C77.8079 309.326 78.8159 308.724 79.3479 307.702C79.6139 307.184 79.7399 306.526 79.7399 305.546V299.246H78.4519V299.848C77.8499 299.33 77.1359 299.106 76.3939 299.106C75.7779 299.106 75.2319 299.26 74.7839 299.526C73.7899 300.114 73.0899 301.22 73.0899 302.536C73.0899 303.852 73.7759 304.944 74.7699 305.532C75.2179 305.798 75.8339 305.966 76.4219 305.966C77.2059 305.966 77.8779 305.714 78.4099 305.252ZM78.4099 303.768C77.9619 304.37 77.2759 304.706 76.6039 304.706C75.3299 304.706 74.4199 303.712 74.4199 302.536C74.4199 301.388 75.2599 300.366 76.5339 300.366C77.3319 300.366 78.0039 300.772 78.4099 301.304V303.768ZM91.6959 302.816C91.7099 302.69 91.7099 302.592 91.7099 302.536C91.7099 300.59 90.3799 299.106 88.5459 299.106C86.6839 299.106 85.3399 300.562 85.3399 302.536C85.3399 304.51 86.8239 305.966 88.7419 305.966C90.0859 305.966 91.0239 305.364 91.5139 304.734L90.6459 303.908C90.2679 304.328 89.7359 304.804 88.7559 304.804C87.6079 304.804 86.6979 303.922 86.6279 302.816H91.6959ZM88.5879 300.268C89.3719 300.268 90.1279 300.856 90.3239 301.696H86.7399C86.9639 300.842 87.7339 300.268 88.5879 300.268ZM94.8168 299.246H93.5288V305.826H94.8588V301.304C95.2508 300.828 95.8808 300.366 96.7488 300.366C97.2948 300.366 97.7988 300.618 98.1068 301.01C98.3448 301.304 98.4988 301.696 98.4988 302.536V305.826H99.8288V302.606C99.8288 301.472 99.6048 300.8 99.1848 300.268C98.6248 299.554 97.7568 299.106 96.7908 299.106C95.8388 299.106 95.1668 299.54 94.8168 299.876V299.246ZM106.834 305.252V305.616C106.834 306.442 106.708 306.946 106.47 307.31C106.148 307.8 105.588 308.066 104.874 308.066C103.796 308.066 103.18 307.52 102.704 306.89L101.724 307.8C102.144 308.458 103.222 309.326 104.93 309.326C106.232 309.326 107.24 308.724 107.772 307.702C108.038 307.184 108.164 306.526 108.164 305.546V299.246H106.876V299.848C106.274 299.33 105.56 299.106 104.818 299.106C104.202 299.106 103.656 299.26 103.208 299.526C102.214 300.114 101.514 301.22 101.514 302.536C101.514 303.852 102.2 304.944 103.194 305.532C103.642 305.798 104.258 305.966 104.846 305.966C105.63 305.966 106.302 305.714 106.834 305.252ZM106.834 303.768C106.386 304.37 105.7 304.706 105.028 304.706C103.754 304.706 102.844 303.712 102.844 302.536C102.844 301.388 103.684 300.366 104.958 300.366C105.756 300.366 106.428 300.772 106.834 301.304V303.768ZM115.352 305.826H116.64V299.246H115.352V299.848C114.75 299.33 114.036 299.106 113.294 299.106C112.678 299.106 112.132 299.26 111.684 299.526C110.69 300.114 109.99 301.22 109.99 302.536C109.99 303.852 110.676 304.944 111.67 305.532C112.118 305.798 112.734 305.966 113.322 305.966C114.106 305.966 114.82 305.7 115.352 305.224V305.826ZM115.31 303.768C114.862 304.37 114.176 304.706 113.504 304.706C112.23 304.706 111.32 303.712 111.32 302.536C111.32 301.388 112.16 300.366 113.434 300.366C114.232 300.366 114.904 300.772 115.31 301.304V303.768ZM123.787 305.252V305.616C123.787 306.442 123.661 306.946 123.423 307.31C123.101 307.8 122.541 308.066 121.827 308.066C120.749 308.066 120.133 307.52 119.657 306.89L118.677 307.8C119.097 308.458 120.175 309.326 121.883 309.326C123.185 309.326 124.193 308.724 124.725 307.702C124.991 307.184 125.117 306.526 125.117 305.546V299.246H123.829V299.848C123.227 299.33 122.513 299.106 121.771 299.106C121.155 299.106 120.609 299.26 120.161 299.526C119.167 300.114 118.467 301.22 118.467 302.536C118.467 303.852 119.153 304.944 120.147 305.532C120.595 305.798 121.211 305.966 121.799 305.966C122.583 305.966 123.255 305.714 123.787 305.252ZM123.787 303.768C123.339 304.37 122.653 304.706 121.981 304.706C120.707 304.706 119.797 303.712 119.797 302.536C119.797 301.388 120.637 300.366 121.911 300.366C122.709 300.366 123.381 300.772 123.787 301.304V303.768ZM133.299 302.816C133.313 302.69 133.313 302.592 133.313 302.536C133.313 300.59 131.983 299.106 130.149 299.106C128.287 299.106 126.943 300.562 126.943 302.536C126.943 304.51 128.427 305.966 130.345 305.966C131.689 305.966 132.627 305.364 133.117 304.734L132.249 303.908C131.871 304.328 131.339 304.804 130.359 304.804C129.211 304.804 128.301 303.922 128.231 302.816H133.299ZM130.191 300.268C130.975 300.268 131.731 300.856 131.927 301.696H128.343C128.567 300.842 129.337 300.268 130.191 300.268ZM135.132 299.246V305.826H136.462V301.304C136.84 300.856 137.498 300.366 138.31 300.366C138.814 300.366 139.29 300.59 139.584 300.94C139.822 301.22 139.962 301.584 139.962 302.256V305.826H141.292V302.466C141.292 302.004 141.25 301.626 141.18 301.304C141.614 300.856 142.23 300.366 143.182 300.366C143.672 300.366 144.12 300.59 144.414 300.94C144.652 301.22 144.792 301.584 144.792 302.256V305.826H146.122V302.466C146.122 301.36 145.926 300.716 145.52 300.212C144.974 299.526 144.12 299.106 143.182 299.106C141.992 299.106 141.278 299.596 140.676 300.198C140.13 299.54 139.318 299.106 138.352 299.106C137.456 299.106 136.686 299.582 136.42 299.876V299.246H135.132ZM154.163 302.816C154.177 302.69 154.177 302.592 154.177 302.536C154.177 300.59 152.847 299.106 151.013 299.106C149.151 299.106 147.807 300.562 147.807 302.536C147.807 304.51 149.291 305.966 151.209 305.966C152.553 305.966 153.491 305.364 153.981 304.734L153.113 303.908C152.735 304.328 152.203 304.804 151.223 304.804C150.075 304.804 149.165 303.922 149.095 302.816H154.163ZM151.055 300.268C151.839 300.268 152.595 300.856 152.791 301.696H149.207C149.431 300.842 150.201 300.268 151.055 300.268ZM157.284 299.246H155.996V305.826H157.326V301.304C157.718 300.828 158.348 300.366 159.216 300.366C159.762 300.366 160.266 300.618 160.574 301.01C160.812 301.304 160.966 301.696 160.966 302.536V305.826H162.296V302.606C162.296 301.472 162.072 300.8 161.652 300.268C161.092 299.554 160.224 299.106 159.258 299.106C158.306 299.106 157.634 299.54 157.284 299.876V299.246ZM168.266 304.622C168.07 304.678 167.734 304.706 167.538 304.706C167.188 304.706 166.81 304.58 166.628 304.356C166.46 304.16 166.432 303.866 166.432 303.516V300.436H168.532V299.246H166.432V297.426H165.102V299.246H163.422V300.436H165.102V303.446C165.102 304.16 165.242 304.762 165.634 305.196C166.054 305.672 166.67 305.966 167.496 305.966C167.874 305.966 168.28 305.91 168.532 305.826L168.266 304.622ZM169.789 305.056C170.517 305.644 171.399 305.966 172.449 305.966C173.737 305.966 174.899 305.196 174.899 303.95C174.899 302.592 173.541 302.13 172.505 301.864C171.847 301.696 171.329 301.542 171.329 301.094C171.329 300.576 171.875 300.268 172.519 300.268C173.051 300.268 173.527 300.478 173.933 300.786L174.619 299.834C174.101 299.414 173.401 299.106 172.435 299.106C171.259 299.106 169.999 299.75 169.999 301.164C169.999 302.088 170.713 302.592 171.511 302.858C172.477 303.18 173.569 303.222 173.569 303.978C173.569 304.496 172.995 304.804 172.421 304.804C171.763 304.804 171.091 304.552 170.475 304.076L169.789 305.056ZM184.624 295.844C184.442 295.788 184.12 295.746 183.84 295.746C182.944 295.746 182.16 296.152 181.684 296.838C181.39 297.258 181.264 297.804 181.264 298.686V299.246H179.724V300.436H181.264V305.826H182.594V300.436H184.624V299.246H182.594V298.644C182.594 298.042 182.664 297.706 182.846 297.468C183.07 297.174 183.476 297.006 183.854 297.006C184.036 297.006 184.246 297.034 184.344 297.062L184.624 295.844ZM185.404 302.536C185.404 304.496 186.86 305.966 188.806 305.966C190.752 305.966 192.208 304.496 192.208 302.536C192.208 300.576 190.752 299.106 188.806 299.106C186.86 299.106 185.404 300.576 185.404 302.536ZM186.734 302.536C186.734 301.332 187.588 300.366 188.806 300.366C190.024 300.366 190.878 301.332 190.878 302.536C190.878 303.74 190.024 304.706 188.806 304.706C187.588 304.706 186.734 303.74 186.734 302.536ZM197.811 299.148C197.657 299.12 197.433 299.106 197.293 299.106C196.327 299.106 195.641 299.554 195.319 300.002V299.246H194.031V305.826H195.361V301.472C195.725 300.842 196.453 300.366 197.139 300.366C197.349 300.366 197.503 300.38 197.657 300.422L197.811 299.148ZM203.757 297.776V305.826H205.157V296.026H204.177L201.867 297.342V298.728L203.757 297.776ZM213.134 295.886H211.804V305.826H213.134V301.304C213.526 300.828 214.156 300.366 215.024 300.366C215.57 300.366 216.074 300.618 216.382 301.01C216.62 301.304 216.774 301.696 216.774 302.536V305.826H218.104V302.606C218.104 301.472 217.88 300.8 217.46 300.268C216.9 299.554 216.032 299.106 215.066 299.106C214.156 299.106 213.498 299.512 213.134 299.82V295.886ZM219.789 302.536C219.789 304.496 221.245 305.966 223.191 305.966C225.137 305.966 226.593 304.496 226.593 302.536C226.593 300.576 225.137 299.106 223.191 299.106C221.245 299.106 219.789 300.576 219.789 302.536ZM221.119 302.536C221.119 301.332 221.973 300.366 223.191 300.366C224.409 300.366 225.263 301.332 225.263 302.536C225.263 303.74 224.409 304.706 223.191 304.706C221.973 304.706 221.119 303.74 221.119 302.536ZM231.216 305.966C232.126 305.966 232.854 305.504 233.148 305.224V305.826H234.436V299.246H233.106V303.768C232.728 304.216 232.07 304.706 231.258 304.706C230.754 304.706 230.278 304.482 229.984 304.132C229.746 303.852 229.606 303.488 229.606 302.816V299.246H228.276V302.606C228.276 303.712 228.472 304.356 228.878 304.86C229.424 305.546 230.278 305.966 231.216 305.966ZM240.59 299.148C240.436 299.12 240.212 299.106 240.072 299.106C239.106 299.106 238.42 299.554 238.098 300.002V299.246H236.81V305.826H238.14V301.472C238.504 300.842 239.232 300.366 239.918 300.366C240.128 300.366 240.282 300.38 240.436 300.422L240.59 299.148ZM104.49 333.246L102.684 337.74L100.878 333.246H99.5061L102.18 339.826H103.104L104.952 335.206L106.8 339.826H107.724L110.398 333.246H109.026L107.22 337.74L105.414 333.246H104.49ZM113.056 329.886H111.726V339.826H113.056V335.304C113.448 334.828 114.078 334.366 114.946 334.366C115.492 334.366 115.996 334.618 116.304 335.01C116.542 335.304 116.696 335.696 116.696 336.536V339.826H118.026V336.606C118.026 335.472 117.802 334.8 117.382 334.268C116.822 333.554 115.954 333.106 114.988 333.106C114.078 333.106 113.42 333.512 113.056 333.82V329.886ZM119.711 336.536C119.711 338.496 121.167 339.966 123.113 339.966C125.059 339.966 126.515 338.496 126.515 336.536C126.515 334.576 125.059 333.106 123.113 333.106C121.167 333.106 119.711 334.576 119.711 336.536ZM121.041 336.536C121.041 335.332 121.895 334.366 123.113 334.366C124.331 334.366 125.185 335.332 125.185 336.536C125.185 337.74 124.331 338.706 123.113 338.706C121.895 338.706 121.041 337.74 121.041 336.536ZM136.913 339.826H138.201V333.246H136.913V333.848C136.311 333.33 135.597 333.106 134.855 333.106C134.239 333.106 133.693 333.26 133.245 333.526C132.251 334.114 131.551 335.22 131.551 336.536C131.551 337.852 132.237 338.944 133.231 339.532C133.679 339.798 134.295 339.966 134.883 339.966C135.667 339.966 136.381 339.7 136.913 339.224V339.826ZM136.871 337.768C136.423 338.37 135.737 338.706 135.065 338.706C133.791 338.706 132.881 337.712 132.881 336.536C132.881 335.388 133.721 334.366 134.995 334.366C135.793 334.366 136.465 334.772 136.871 335.304V337.768ZM144.367 333.148C144.213 333.12 143.989 333.106 143.849 333.106C142.883 333.106 142.197 333.554 141.875 334.002V333.246H140.587V339.826H141.917V335.472C142.281 334.842 143.009 334.366 143.695 334.366C143.905 334.366 144.059 334.38 144.213 334.422L144.367 333.148ZM151.77 336.816C151.784 336.69 151.784 336.592 151.784 336.536C151.784 334.59 150.454 333.106 148.62 333.106C146.758 333.106 145.414 334.562 145.414 336.536C145.414 338.51 146.898 339.966 148.816 339.966C150.16 339.966 151.098 339.364 151.588 338.734L150.72 337.908C150.342 338.328 149.81 338.804 148.83 338.804C147.682 338.804 146.772 337.922 146.702 336.816H151.77ZM148.662 334.268C149.446 334.268 150.202 334.856 150.398 335.696H146.814C147.038 334.842 147.808 334.268 148.662 334.268ZM161.17 338.622C160.974 338.678 160.638 338.706 160.442 338.706C160.092 338.706 159.714 338.58 159.532 338.356C159.364 338.16 159.336 337.866 159.336 337.516V334.436H161.436V333.246H159.336V331.426H158.006V333.246H156.326V334.436H158.006V337.446C158.006 338.16 158.146 338.762 158.538 339.196C158.958 339.672 159.574 339.966 160.4 339.966C160.778 339.966 161.184 339.91 161.436 339.826L161.17 338.622ZM164.585 329.886H163.255V339.826H164.585V335.304C164.977 334.828 165.607 334.366 166.475 334.366C167.021 334.366 167.525 334.618 167.833 335.01C168.071 335.304 168.225 335.696 168.225 336.536V339.826H169.555V336.606C169.555 335.472 169.331 334.8 168.911 334.268C168.351 333.554 167.483 333.106 166.517 333.106C165.607 333.106 164.949 333.512 164.585 333.82V329.886ZM177.596 336.816C177.61 336.69 177.61 336.592 177.61 336.536C177.61 334.59 176.28 333.106 174.446 333.106C172.584 333.106 171.24 334.562 171.24 336.536C171.24 338.51 172.724 339.966 174.642 339.966C175.986 339.966 176.924 339.364 177.414 338.734L176.546 337.908C176.168 338.328 175.636 338.804 174.656 338.804C173.508 338.804 172.598 337.922 172.528 336.816H177.596ZM174.488 334.268C175.272 334.268 176.028 334.856 176.224 335.696H172.64C172.864 334.842 173.634 334.268 174.488 334.268ZM184.533 339.252C185.065 339.714 185.737 339.966 186.521 339.966C187.109 339.966 187.725 339.798 188.173 339.532C189.167 338.944 189.853 337.852 189.853 336.536C189.853 335.22 189.153 334.114 188.159 333.526C187.711 333.26 187.165 333.106 186.549 333.106C185.807 333.106 185.093 333.33 184.491 333.848V333.246H183.203V343.186H184.533V339.252ZM184.533 335.304C184.939 334.772 185.611 334.366 186.409 334.366C187.683 334.366 188.523 335.388 188.523 336.536C188.523 337.712 187.613 338.706 186.339 338.706C185.667 338.706 184.981 338.37 184.533 337.768V335.304ZM191.679 339.826H193.009V329.886H191.679V339.826ZM200.186 339.826H201.474V333.246H200.186V333.848C199.584 333.33 198.87 333.106 198.128 333.106C197.512 333.106 196.966 333.26 196.518 333.526C195.524 334.114 194.824 335.22 194.824 336.536C194.824 337.852 195.51 338.944 196.504 339.532C196.952 339.798 197.568 339.966 198.156 339.966C198.94 339.966 199.654 339.7 200.186 339.224V339.826ZM200.144 337.768C199.696 338.37 199.01 338.706 198.338 338.706C197.064 338.706 196.154 337.712 196.154 336.536C196.154 335.388 196.994 334.366 198.268 334.366C199.066 334.366 199.738 334.772 200.144 335.304V337.768ZM205.261 343.186L209.587 333.246H208.187L206.297 337.586L204.239 333.246H202.811L205.625 339.14L203.847 343.186H205.261ZM216.712 336.816C216.726 336.69 216.726 336.592 216.726 336.536C216.726 334.59 215.396 333.106 213.562 333.106C211.7 333.106 210.356 334.562 210.356 336.536C210.356 338.51 211.84 339.966 213.758 339.966C215.102 339.966 216.04 339.364 216.53 338.734L215.662 337.908C215.284 338.328 214.752 338.804 213.772 338.804C212.624 338.804 211.714 337.922 211.644 336.816H216.712ZM213.604 334.268C214.388 334.268 215.144 334.856 215.34 335.696H211.756C211.98 334.842 212.75 334.268 213.604 334.268ZM222.324 333.148C222.17 333.12 221.946 333.106 221.806 333.106C220.84 333.106 220.154 333.554 219.832 334.002V333.246H218.544V339.826H219.874V335.472C220.238 334.842 220.966 334.366 221.652 334.366C221.862 334.366 222.016 334.38 222.17 334.422L222.324 333.148ZM223.233 339.056C223.961 339.644 224.843 339.966 225.893 339.966C227.181 339.966 228.343 339.196 228.343 337.95C228.343 336.592 226.985 336.13 225.949 335.864C225.291 335.696 224.773 335.542 224.773 335.094C224.773 334.576 225.319 334.268 225.963 334.268C226.495 334.268 226.971 334.478 227.377 334.786L228.063 333.834C227.545 333.414 226.845 333.106 225.879 333.106C224.703 333.106 223.443 333.75 223.443 335.164C223.443 336.088 224.157 336.592 224.955 336.858C225.921 337.18 227.013 337.222 227.013 337.978C227.013 338.496 226.439 338.804 225.865 338.804C225.207 338.804 224.535 338.552 223.919 338.076L223.233 339.056ZM231.214 332.21C231.354 331.622 231.998 331.146 232.74 331.146C233.58 331.146 234.154 331.72 234.154 332.434C234.154 333.946 231.718 334.226 231.718 335.962C231.718 336.48 231.956 337.026 232.53 337.46L233.412 336.536C233.174 336.326 233.048 336.13 233.048 335.948C233.048 335.22 235.484 334.59 235.484 332.434C235.484 331.034 234.322 329.886 232.74 329.886C231.382 329.886 230.234 330.712 229.954 331.846L231.214 332.21ZM231.704 338.986C231.704 339.532 232.138 339.966 232.684 339.966C233.23 339.966 233.664 339.532 233.664 338.986C233.664 338.44 233.23 338.006 232.684 338.006C232.138 338.006 231.704 338.44 231.704 338.986ZM45.7421 350.246L43.9361 354.74L42.1301 350.246H40.7581L43.4321 356.826H44.3561L46.2041 352.206L48.0521 356.826H48.9761L51.6501 350.246H50.2781L48.4721 354.74L46.6661 350.246H45.7421ZM54.308 346.886H52.978V356.826H54.308V352.304C54.7 351.828 55.33 351.366 56.198 351.366C56.744 351.366 57.248 351.618 57.556 352.01C57.794 352.304 57.948 352.696 57.948 353.536V356.826H59.278V353.606C59.278 352.472 59.054 351.8 58.634 351.268C58.074 350.554 57.206 350.106 56.24 350.106C55.33 350.106 54.672 350.512 54.308 350.82V346.886ZM66.3249 356.826H67.6129V350.246H66.3249V350.848C65.7229 350.33 65.0089 350.106 64.2669 350.106C63.6509 350.106 63.1049 350.26 62.6569 350.526C61.6629 351.114 60.9629 352.22 60.9629 353.536C60.9629 354.852 61.6489 355.944 62.6429 356.532C63.0909 356.798 63.7069 356.966 64.2949 356.966C65.0789 356.966 65.7929 356.7 66.3249 356.224V356.826ZM66.2829 354.768C65.8349 355.37 65.1489 355.706 64.4769 355.706C63.2029 355.706 62.2929 354.712 62.2929 353.536C62.2929 352.388 63.1329 351.366 64.4069 351.366C65.2049 351.366 65.8769 351.772 66.2829 352.304V354.768ZM73.7935 355.622C73.5975 355.678 73.2615 355.706 73.0655 355.706C72.7155 355.706 72.3375 355.58 72.1555 355.356C71.9875 355.16 71.9595 354.866 71.9595 354.516V351.436H74.0595V350.246H71.9595V348.426H70.6295V350.246H68.9495V351.436H70.6295V354.446C70.6295 355.16 70.7695 355.762 71.1615 356.196C71.5815 356.672 72.1975 356.966 73.0235 356.966C73.4015 356.966 73.8075 356.91 74.0595 356.826L73.7935 355.622ZM79.5151 356.826H80.8451V350.246H79.5151V356.826ZM79.3051 347.908C79.3051 348.398 79.6831 348.776 80.1731 348.776C80.6631 348.776 81.0551 348.398 81.0551 347.908C81.0551 347.418 80.6631 347.026 80.1731 347.026C79.6831 347.026 79.3051 347.418 79.3051 347.908ZM82.5902 356.056C83.3182 356.644 84.2002 356.966 85.2502 356.966C86.5382 356.966 87.7002 356.196 87.7002 354.95C87.7002 353.592 86.3422 353.13 85.3062 352.864C84.6482 352.696 84.1302 352.542 84.1302 352.094C84.1302 351.576 84.6762 351.268 85.3202 351.268C85.8522 351.268 86.3282 351.478 86.7342 351.786L87.4202 350.834C86.9022 350.414 86.2022 350.106 85.2362 350.106C84.0602 350.106 82.8002 350.75 82.8002 352.164C82.8002 353.088 83.5142 353.592 84.3122 353.858C85.2782 354.18 86.3702 354.222 86.3702 354.978C86.3702 355.496 85.7962 355.804 85.2222 355.804C84.5642 355.804 83.8922 355.552 83.2762 355.076L82.5902 356.056ZM97.022 355.622C96.826 355.678 96.49 355.706 96.294 355.706C95.944 355.706 95.566 355.58 95.384 355.356C95.216 355.16 95.188 354.866 95.188 354.516V351.436H97.288V350.246H95.188V348.426H93.858V350.246H92.178V351.436H93.858V354.446C93.858 355.16 93.998 355.762 94.39 356.196C94.81 356.672 95.426 356.966 96.252 356.966C96.63 356.966 97.036 356.91 97.288 356.826L97.022 355.622ZM100.437 346.886H99.1069V356.826H100.437V352.304C100.829 351.828 101.459 351.366 102.327 351.366C102.873 351.366 103.377 351.618 103.685 352.01C103.923 352.304 104.077 352.696 104.077 353.536V356.826H105.407V353.606C105.407 352.472 105.183 351.8 104.763 351.268C104.203 350.554 103.335 350.106 102.369 350.106C101.459 350.106 100.801 350.512 100.437 350.82V346.886ZM113.448 353.816C113.462 353.69 113.462 353.592 113.462 353.536C113.462 351.59 112.132 350.106 110.298 350.106C108.436 350.106 107.092 351.562 107.092 353.536C107.092 355.51 108.576 356.966 110.494 356.966C111.838 356.966 112.776 356.364 113.266 355.734L112.398 354.908C112.02 355.328 111.488 355.804 110.508 355.804C109.36 355.804 108.45 354.922 108.38 353.816H113.448ZM110.34 351.268C111.124 351.268 111.88 351.856 112.076 352.696H108.492C108.716 351.842 109.486 351.268 110.34 351.268ZM119.054 350.246V356.826H120.384V352.304C120.762 351.856 121.42 351.366 122.232 351.366C122.736 351.366 123.212 351.59 123.506 351.94C123.744 352.22 123.884 352.584 123.884 353.256V356.826H125.214V353.466C125.214 353.004 125.172 352.626 125.102 352.304C125.536 351.856 126.152 351.366 127.104 351.366C127.594 351.366 128.042 351.59 128.336 351.94C128.574 352.22 128.714 352.584 128.714 353.256V356.826H130.044V353.466C130.044 352.36 129.848 351.716 129.442 351.212C128.896 350.526 128.042 350.106 127.104 350.106C125.914 350.106 125.2 350.596 124.598 351.198C124.052 350.54 123.24 350.106 122.274 350.106C121.378 350.106 120.608 350.582 120.342 350.876V350.246H119.054ZM138.085 353.816C138.099 353.69 138.099 353.592 138.099 353.536C138.099 351.59 136.769 350.106 134.935 350.106C133.073 350.106 131.729 351.562 131.729 353.536C131.729 355.51 133.213 356.966 135.131 356.966C136.475 356.966 137.413 356.364 137.903 355.734L137.035 354.908C136.657 355.328 136.125 355.804 135.145 355.804C133.997 355.804 133.087 354.922 133.017 353.816H138.085ZM134.977 351.268C135.761 351.268 136.517 351.856 136.713 352.696H133.129C133.353 351.842 134.123 351.268 134.977 351.268ZM144.719 356.826H146.007V350.246H144.719V350.848C144.117 350.33 143.403 350.106 142.661 350.106C142.045 350.106 141.499 350.26 141.051 350.526C140.057 351.114 139.357 352.22 139.357 353.536C139.357 354.852 140.043 355.944 141.037 356.532C141.485 356.798 142.101 356.966 142.689 356.966C143.473 356.966 144.187 356.7 144.719 356.224V356.826ZM144.677 354.768C144.229 355.37 143.543 355.706 142.871 355.706C141.597 355.706 140.687 354.712 140.687 353.536C140.687 352.388 141.527 351.366 142.801 351.366C143.599 351.366 144.271 351.772 144.677 352.304V354.768ZM149.682 350.246H148.394V356.826H149.724V352.304C150.116 351.828 150.746 351.366 151.614 351.366C152.16 351.366 152.664 351.618 152.972 352.01C153.21 352.304 153.364 352.696 153.364 353.536V356.826H154.694V353.606C154.694 352.472 154.47 351.8 154.05 351.268C153.49 350.554 152.622 350.106 151.656 350.106C150.704 350.106 150.032 350.54 149.682 350.876V350.246ZM156.939 356.826H158.269V350.246H156.939V356.826ZM156.729 347.908C156.729 348.398 157.107 348.776 157.597 348.776C158.087 348.776 158.479 348.398 158.479 347.908C158.479 347.418 158.087 347.026 157.597 347.026C157.107 347.026 156.729 347.418 156.729 347.908ZM161.932 350.246H160.644V356.826H161.974V352.304C162.366 351.828 162.996 351.366 163.864 351.366C164.41 351.366 164.914 351.618 165.222 352.01C165.46 352.304 165.614 352.696 165.614 353.536V356.826H166.944V353.606C166.944 352.472 166.72 351.8 166.3 351.268C165.74 350.554 164.872 350.106 163.906 350.106C162.954 350.106 162.282 350.54 161.932 350.876V350.246ZM173.949 356.252V356.616C173.949 357.442 173.823 357.946 173.585 358.31C173.263 358.8 172.703 359.066 171.989 359.066C170.911 359.066 170.295 358.52 169.819 357.89L168.839 358.8C169.259 359.458 170.337 360.326 172.045 360.326C173.347 360.326 174.355 359.724 174.887 358.702C175.153 358.184 175.279 357.526 175.279 356.546V350.246H173.991V350.848C173.389 350.33 172.675 350.106 171.933 350.106C171.317 350.106 170.771 350.26 170.323 350.526C169.329 351.114 168.629 352.22 168.629 353.536C168.629 354.852 169.315 355.944 170.309 356.532C170.757 356.798 171.373 356.966 171.961 356.966C172.745 356.966 173.417 356.714 173.949 356.252ZM173.949 354.768C173.501 355.37 172.815 355.706 172.143 355.706C170.869 355.706 169.959 354.712 169.959 353.536C169.959 352.388 170.799 351.366 172.073 351.366C172.871 351.366 173.543 351.772 173.949 352.304V354.768ZM180.879 353.536C180.879 355.496 182.335 356.966 184.281 356.966C186.227 356.966 187.683 355.496 187.683 353.536C187.683 351.576 186.227 350.106 184.281 350.106C182.335 350.106 180.879 351.576 180.879 353.536ZM182.209 353.536C182.209 352.332 183.063 351.366 184.281 351.366C185.499 351.366 186.353 352.332 186.353 353.536C186.353 354.74 185.499 355.706 184.281 355.706C183.063 355.706 182.209 354.74 182.209 353.536ZM193.497 346.844C193.315 346.788 192.993 346.746 192.713 346.746C191.817 346.746 191.033 347.152 190.557 347.838C190.263 348.258 190.137 348.804 190.137 349.686V350.246H188.597V351.436H190.137V356.826H191.467V351.436H193.497V350.246H191.467V349.644C191.467 349.042 191.537 348.706 191.719 348.468C191.943 348.174 192.349 348.006 192.727 348.006C192.909 348.006 193.119 348.034 193.217 348.062L193.497 346.844ZM200.078 356.252C200.61 356.714 201.282 356.966 202.066 356.966C202.654 356.966 203.27 356.798 203.718 356.532C204.712 355.944 205.398 354.852 205.398 353.536C205.398 352.22 204.698 351.114 203.704 350.526C203.256 350.26 202.71 350.106 202.094 350.106C201.352 350.106 200.638 350.33 200.036 350.848V350.246H198.748V360.186H200.078V356.252ZM200.078 352.304C200.484 351.772 201.156 351.366 201.954 351.366C203.228 351.366 204.068 352.388 204.068 353.536C204.068 354.712 203.158 355.706 201.884 355.706C201.212 355.706 200.526 355.37 200.078 354.768V352.304ZM207.224 356.826H208.554V346.886H207.224V356.826ZM215.731 356.826H217.019V350.246H215.731V350.848C215.129 350.33 214.415 350.106 213.673 350.106C213.057 350.106 212.511 350.26 212.063 350.526C211.069 351.114 210.369 352.22 210.369 353.536C210.369 354.852 211.055 355.944 212.049 356.532C212.497 356.798 213.113 356.966 213.701 356.966C214.485 356.966 215.199 356.7 215.731 356.224V356.826ZM215.689 354.768C215.241 355.37 214.555 355.706 213.883 355.706C212.609 355.706 211.699 354.712 211.699 353.536C211.699 352.388 212.539 351.366 213.813 351.366C214.611 351.366 215.283 351.772 215.689 352.304V354.768ZM220.806 360.186L225.132 350.246H223.732L221.842 354.586L219.784 350.246H218.356L221.17 356.14L219.392 360.186H220.806ZM227.509 349.21C227.649 348.622 228.293 348.146 229.035 348.146C229.875 348.146 230.449 348.72 230.449 349.434C230.449 350.946 228.013 351.226 228.013 352.962C228.013 353.48 228.251 354.026 228.825 354.46L229.707 353.536C229.469 353.326 229.343 353.13 229.343 352.948C229.343 352.22 231.779 351.59 231.779 349.434C231.779 348.034 230.617 346.886 229.035 346.886C227.677 346.886 226.529 347.712 226.249 348.846L227.509 349.21ZM227.999 355.986C227.999 356.532 228.433 356.966 228.979 356.966C229.525 356.966 229.959 356.532 229.959 355.986C229.959 355.44 229.525 355.006 228.979 355.006C228.433 355.006 227.999 355.44 227.999 355.986Z" fill="white" fill-opacity="0.5"/>
<path d="M148.22 282.218L150.04 281.21V288.826H151.93V279.026H150.6L148.22 280.426V282.218ZM154.236 282.218L156.056 281.21V288.826H157.946V279.026H156.616L154.236 280.426V282.218ZM170.746 282.036H168.996V282.582C168.464 282.148 167.778 281.896 167.008 281.896C165.16 281.896 163.676 283.436 163.676 285.438C163.676 286.362 163.998 287.202 164.53 287.818C165.132 288.518 166.098 288.966 167.106 288.966C167.792 288.966 168.38 288.77 168.926 288.35V288.574C168.926 289.442 168.786 289.862 168.506 290.17C168.198 290.534 167.708 290.716 167.12 290.716C166 290.716 165.37 290.128 165.006 289.736L163.858 290.926C164.53 291.71 165.79 292.326 167.12 292.326C168.422 292.326 169.514 291.822 170.13 290.968C170.536 290.394 170.746 289.666 170.746 288.448V282.036ZM168.926 286.446C168.576 286.95 167.974 287.286 167.288 287.286C166.266 287.286 165.496 286.502 165.496 285.438C165.496 284.458 166.182 283.576 167.246 283.576C167.946 283.576 168.548 283.912 168.926 284.416V286.446ZM177.54 286.446C177.19 286.95 176.588 287.286 175.902 287.286C174.88 287.286 174.11 286.502 174.11 285.438C174.11 284.458 174.796 283.576 175.86 283.576C176.56 283.576 177.162 283.912 177.54 284.416V286.446ZM179.36 282.036H177.61V282.582C177.078 282.148 176.392 281.896 175.622 281.896C173.774 281.896 172.29 283.436 172.29 285.438C172.29 286.362 172.626 287.202 173.158 287.818C173.76 288.518 174.712 288.966 175.72 288.966C176.406 288.966 177.05 288.756 177.61 288.28V288.826H179.36V282.036ZM183.283 288.826V284.416C183.535 284.094 184.095 283.576 184.865 283.576C185.215 283.576 185.607 283.688 185.887 283.996C186.097 284.234 186.223 284.542 186.223 285.158V288.826H188.043V285.228C188.043 284.948 188.015 284.696 187.987 284.472C188.225 284.122 188.841 283.576 189.625 283.576C189.975 283.576 190.367 283.688 190.647 283.996C190.857 284.234 190.983 284.542 190.983 285.158V288.826H192.803V285.228C192.803 284.22 192.551 283.52 192.117 282.988C191.571 282.316 190.675 281.896 189.737 281.896C188.729 281.896 187.875 282.386 187.329 282.96C186.797 282.316 185.971 281.896 185.047 281.896C184.389 281.896 183.745 282.106 183.213 282.582V282.036H181.463V288.826H183.283ZM199.512 286.712C199.19 287.062 198.574 287.496 197.804 287.496C196.838 287.496 196.068 286.838 195.97 285.886H200.674C200.702 285.732 200.716 285.55 200.716 285.368C200.716 283.478 199.386 281.896 197.51 281.896C195.494 281.896 194.206 283.548 194.206 285.438C194.206 287.566 195.732 288.966 197.762 288.966C198.812 288.966 199.89 288.532 200.548 287.748L199.512 286.712ZM196.054 284.556C196.138 283.94 196.754 283.366 197.51 283.366C198.252 283.366 198.798 283.954 198.854 284.556H196.054ZM206.598 281.952C206.402 281.924 206.248 281.896 205.982 281.896C205.156 281.896 204.414 282.218 204.008 282.722V282.036H202.258V288.826H204.078V284.556C204.302 284.15 204.932 283.576 205.73 283.576C205.996 283.576 206.262 283.604 206.388 283.646L206.598 281.952ZM207.26 288.056C208.058 288.644 209.052 288.966 209.99 288.966C211.418 288.966 212.692 288.168 212.692 286.866C212.692 284.514 209.402 284.864 209.402 283.982C209.402 283.632 209.822 283.436 210.326 283.436C210.816 283.436 211.278 283.646 211.628 283.898L212.482 282.582C212.034 282.232 211.068 281.896 210.186 281.896C208.842 281.896 207.582 282.708 207.582 284.01C207.582 286.194 210.872 285.83 210.872 286.852C210.872 287.188 210.494 287.426 210.004 287.426C209.318 287.426 208.604 287.174 208.142 286.754L207.26 288.056ZM41.715 335.836C42.975 335.836 43.731 335.528 44.263 334.968C44.753 334.464 45.033 333.708 45.033 332.938C45.033 332.168 44.753 331.412 44.263 330.908C43.717 330.334 42.975 330.026 41.715 330.026H38.033V339.826H39.923V335.836H41.715ZM39.923 334.156V331.706H41.631C42.275 331.706 42.597 331.86 42.821 332.098C43.031 332.322 43.143 332.616 43.143 332.938C43.143 333.26 43.031 333.54 42.821 333.764C42.597 334.002 42.275 334.156 41.631 334.156H39.923ZM50.9775 333.036V337.446C50.7255 337.768 50.1655 338.286 49.3955 338.286C49.0455 338.286 48.6535 338.174 48.3735 337.866C48.1635 337.628 48.0375 337.32 48.0375 336.704V333.036H46.2175V336.634C46.2175 337.642 46.4695 338.342 46.9035 338.874C47.4355 339.532 48.2755 339.966 49.2135 339.966C49.8715 339.966 50.5155 339.756 51.0475 339.28V339.826H52.7975V333.036H50.9775ZM59.2424 332.952C59.0464 332.924 58.8924 332.896 58.6264 332.896C57.8004 332.896 57.0584 333.218 56.6524 333.722V333.036H54.9024V339.826H56.7224V335.556C56.9464 335.15 57.5764 334.576 58.3744 334.576C58.6404 334.576 58.9064 334.604 59.0324 334.646L59.2424 332.952ZM60.6446 343.186H62.4646V339.35C63.0106 339.77 63.5986 339.966 64.2846 339.966C65.2926 339.966 66.2586 339.518 66.8606 338.818C67.3926 338.202 67.7146 337.362 67.7146 336.438C67.7146 334.436 66.2306 332.896 64.3826 332.896C63.6126 332.896 62.9266 333.148 62.3946 333.582V333.036H60.6446V343.186ZM62.4646 335.416C62.8426 334.912 63.4446 334.576 64.1446 334.576C65.2086 334.576 65.8946 335.458 65.8946 336.438C65.8946 337.502 65.1246 338.286 64.1026 338.286C63.4166 338.286 62.8146 337.95 62.4646 337.446V335.416ZM68.6979 336.438C68.6979 338.398 70.2519 339.966 72.3099 339.966C74.3679 339.966 75.9219 338.398 75.9219 336.438C75.9219 334.478 74.3679 332.896 72.3099 332.896C70.2519 332.896 68.6979 334.478 68.6979 336.438ZM70.5179 336.438C70.5179 335.416 71.2459 334.576 72.3099 334.576C73.3739 334.576 74.1019 335.416 74.1019 336.438C74.1019 337.46 73.3739 338.286 72.3099 338.286C71.2459 338.286 70.5179 337.46 70.5179 336.438ZM76.789 339.056C77.587 339.644 78.581 339.966 79.519 339.966C80.947 339.966 82.221 339.168 82.221 337.866C82.221 335.514 78.931 335.864 78.931 334.982C78.931 334.632 79.351 334.436 79.855 334.436C80.345 334.436 80.807 334.646 81.157 334.898L82.011 333.582C81.563 333.232 80.597 332.896 79.715 332.896C78.371 332.896 77.111 333.708 77.111 335.01C77.111 337.194 80.401 336.83 80.401 337.852C80.401 338.188 80.023 338.426 79.533 338.426C78.847 338.426 78.133 338.174 77.671 337.754L76.789 339.056ZM88.6465 337.712C88.3245 338.062 87.7085 338.496 86.9385 338.496C85.9725 338.496 85.2025 337.838 85.1045 336.886H89.8085C89.8365 336.732 89.8505 336.55 89.8505 336.368C89.8505 334.478 88.5205 332.896 86.6445 332.896C84.6285 332.896 83.3405 334.548 83.3405 336.438C83.3405 338.566 84.8665 339.966 86.8965 339.966C87.9465 339.966 89.0245 339.532 89.6825 338.748L88.6465 337.712ZM85.1885 335.556C85.2725 334.94 85.8885 334.366 86.6445 334.366C87.3865 334.366 87.9325 334.954 87.9885 335.556H85.1885ZM91.8827 334.1C91.8827 334.786 92.4147 335.29 93.1007 335.29C93.7867 335.29 94.3327 334.786 94.3327 334.1C94.3327 333.414 93.7867 332.896 93.1007 332.896C92.4147 332.896 91.8827 333.414 91.8827 334.1ZM91.8827 338.776C91.8827 339.462 92.4147 339.966 93.1007 339.966C93.7867 339.966 94.3327 339.462 94.3327 338.776C94.3327 338.09 93.7867 337.572 93.1007 337.572C92.4147 337.572 91.8827 338.09 91.8827 338.776Z" fill="white" fill-opacity="0.8"/>
<path opacity="0.58" d="M216.43 164.928C216.43 164.928 208.901 162.887 207.202 155.868C207.202 155.868 218.891 153.467 219.27 165.528L216.43 164.928Z" fill="#13B2EA"/>
<path opacity="0.73" d="M217.354 164.165C217.354 164.165 212.047 155.85 216.652 148.033C216.652 148.033 225.567 153.647 221.665 164.165H217.354Z" fill="#13B2EA"/>
<path d="M218.711 164.165C218.711 164.165 221.461 155.346 229.878 153.647C229.878 153.647 231.481 159.356 224.475 164.165H218.711Z" fill="#13B2EA"/>
<path d="M213.235 163.991L214.808 174.45H224.45L225.825 163.991H213.235Z" fill="#24285B"/>
<path d="M189.527 174.45L196.929 149.36H160.973L155.756 169.833L142.728 170.529V174.45H189.527Z" fill="#C9C9C9"/>
<path d="M235.917 174.45H39.1562V182.266H235.917V174.45Z" fill="#E6E6E6"/>
<path opacity="0.4" d="M235.917 182.273H39.1562V189.273H235.917V182.273Z" fill="#A5A5A5"/>
<path d="M71.4873 131.481C71.4873 131.481 85.6682 121.275 102.215 123.394C118.761 125.513 125.113 129.662 126.284 149.108C127.454 168.554 118.305 189.267 118.305 189.267L91.1796 189.021L71.4873 131.481Z" fill="#13B2EA"/>
<path opacity="0.08" d="M81.7297 126.215C81.7297 126.215 95.4423 133.378 96.8472 151.827C98.2521 170.277 100.738 183.515 120.556 183.419L118.305 189.267L91.1796 189.021L71.4873 131.48C71.4873 131.48 77.7372 127.542 81.7297 126.215Z" fill="black"/>
<path d="M36.2747 189.021H91.173C91.173 189.021 92.4398 157.994 82.6537 140.175C72.8676 122.355 10.3805 124.205 36.2747 189.021Z" fill="#24285B"/>
<path d="M85.9016 115.475L89.2757 123.988L81.729 126.216L79.6396 113.53L85.9016 115.475Z" fill="#F4A28C"/>
<path d="M76.6621 106.931C78.061 103.413 82.7139 102.65 85.3255 105.388C88.1953 108.39 91.6655 113.193 87.8231 115.835C81.9394 119.911 76.416 112.461 76.416 112.461C75.9516 110.633 76.0372 108.71 76.6621 106.931V106.931Z" fill="#F4A28C"/>
<path d="M78.8238 112.173C78.8238 112.173 76.9326 111.572 77.0226 113.512C77.1127 115.451 79.8924 115.211 80.2827 114.064C80.6729 112.917 78.8238 112.173 78.8238 112.173Z" fill="#F4A28C"/>
<path d="M102.754 139.111C101.392 130.868 110.685 125.051 117.518 129.86C121.906 132.952 126.079 137.767 128.324 145.277C134.544 165.936 145.687 178.298 174.265 171.28L175.976 178.652C175.976 178.652 112.841 200.032 102.754 139.111Z" fill="#F4A28C"/>
<path d="M75.2813 110.396C75.2813 110.396 76.7943 117.066 80.3065 117.054C83.8187 117.042 83.5425 114.79 82.8221 110.396C82.1016 106.001 87.3189 107.304 86.6164 102.285C85.914 97.2655 85.5778 97.4816 80.9849 97.7758C76.392 98.07 70.5684 101.954 75.2813 110.396Z" fill="#C673D3"/>
<path d="M176.354 170.331C176.354 170.331 179.759 168.368 182.742 169.13C185.726 169.893 186.111 174.18 183.277 175.572L177.603 178.358L176.354 170.331Z" fill="#F4A28C"/>
<path d="M220.38 60.8286H135.535V125.753H220.38V60.8286Z" fill="#24285B"/>
<path d="M181.193 67.0726L186.489 78.7319L179.596 83.8411L178.228 72.8723L181.193 67.0726Z" fill="#F4A28C"/>
<path opacity="0.31" d="M178.281 73.1847C178.281 73.1847 182.61 72.5123 183.162 71.2335C183.162 71.2335 186.801 77.7956 178.96 78.438L178.281 73.1847Z" fill="#CE8172"/>
<path d="M175.394 87.7915C175.394 87.7915 140.35 117.414 127.412 82.136L121.408 85.7382C121.408 85.7382 125.611 130.388 178.276 110.12L175.394 87.7915Z" fill="#13B2EA"/>
<path opacity="0.2" d="M175.394 87.7915C175.394 87.7915 140.35 117.414 127.412 82.136L121.408 85.7382C121.408 85.7382 125.611 130.388 178.276 110.12L175.394 87.7915Z" fill="white"/>
<path d="M179.597 83.8412C179.597 83.8412 166.154 93.7894 170.399 105.221C174.644 116.652 184.286 125.753 184.286 125.753H220.392C220.392 125.753 220.002 116.838 218.951 107.088C217.438 93.057 212.347 76.7988 186.501 78.732L179.597 83.8412Z" fill="#13B2EA"/>
<path opacity="0.08" d="M199.523 87.7913C199.523 87.7913 194.72 92.6363 196.707 98.7781C198.694 104.92 205.334 124.462 190.493 122.613L202.459 124.06L214.958 122.613L220.464 109.597L210.75 95.8843L199.523 87.7913Z" fill="black"/>
<path d="M147.561 69.5638V87.3049L165.506 77.6629L147.561 69.5638Z" fill="white"/>
<path d="M169.57 125.753L164.017 104.122H195.02L198.022 121.773L210.75 122.373V125.753H169.57Z" fill="#C673D3"/>
<path d="M164.641 152.782L160.126 168.956H186.002L190.415 152.782H164.641Z" fill="white"/>
<path d="M181.794 117.402C183.246 117.402 184.423 116.224 184.423 114.772C184.423 113.32 183.246 112.142 181.794 112.142C180.341 112.142 179.164 113.32 179.164 114.772C179.164 116.224 180.341 117.402 181.794 117.402Z" fill="white"/>
<path d="M122.447 85.1261C122.447 85.1261 117.434 80.221 119.842 76.3246C122.249 72.4282 128.007 73.0405 127.406 82.1362L122.447 85.1261Z" fill="#F4A28C"/>
<path d="M208.414 83.2769C212.995 85.2941 217.78 88.7583 220.464 94.72L220.38 125.783H214.16L211.542 120.44C211.542 120.44 214.748 107.508 204.626 97.5838C203.175 96.1739 201.84 94.65 200.633 93.027C196.749 87.6896 202.398 80.5992 208.414 83.2769Z" fill="#13B2EA"/>
<path opacity="0.2" d="M208.414 83.2769C212.995 85.2941 217.78 88.7583 220.464 94.72L220.38 125.783H214.16L211.542 120.44C211.542 120.44 214.748 107.508 204.626 97.5838C203.175 96.1739 201.84 94.65 200.633 93.027C196.749 87.6896 202.398 80.5992 208.414 83.2769Z" fill="white"/>
<path d="M183.127 68.0388C183.067 69.1026 183.067 70.169 183.127 71.2328C183.235 72.6977 182.995 74.9071 180.725 75.5735C177.255 76.6062 175.718 71.1067 175.718 71.1067C175.718 71.1067 172.932 66.0936 176.691 64.9649C180.113 63.9503 183.319 63.1398 183.127 68.0388Z" fill="#F4A28C"/>
<path d="M173.659 63.182C172.858 63.5879 172.234 64.2737 171.906 65.1093C171.719 65.5206 171.656 65.9775 171.724 66.4241C171.792 66.8708 171.989 67.288 172.29 67.6248C173.881 69.2879 175.754 71.107 175.754 71.107C175.754 71.107 174.313 68.2672 176.853 68.2672C179.392 68.2672 181.572 69.9543 183.127 68.0331C184.682 66.1119 185.69 65.0312 184.988 63.2301C184.285 61.4289 184.388 59.0635 181.632 60.0961C178.876 61.1288 179.945 59.0034 178.378 57.6346C176.811 56.2657 174.277 56.4698 174.499 58.391C174.679 60.0601 175.238 62.3115 173.659 63.182Z" fill="#C673D3"/>
<path d="M176 71.3112C176 71.3112 175.616 69.6302 174.145 69.8583C172.674 70.0865 173.586 73.2024 176 71.3112Z" fill="#F4A28C"/>
<path d="M182.611 71.3294C182.611 71.3294 181.914 69.7565 183.211 69.06C184.508 68.3636 185.679 71.4135 182.611 71.3294Z" fill="#F4A28C"/>
<path d="M109.575 159.765L129.892 149.955C129.892 149.955 127.322 127.687 109.575 126.216C91.8281 124.745 103.235 153.467 109.575 159.765Z" fill="#13B2EA"/>
<path opacity="0.2" d="M109.575 159.765L129.892 149.955C129.892 149.955 127.322 127.687 109.575 126.216C91.8281 124.745 103.235 153.467 109.575 159.765Z" fill="white"/>
<path d="M171.635 157.147L169.828 163.961L180.059 160.557L171.635 157.147Z" fill="#A5A5A5"/>
<path d="M214.161 125.753C214.165 124.207 213.594 122.714 212.561 121.564C211.527 120.414 210.103 119.688 208.565 119.527C206.764 119.347 205.161 119.618 204.735 121.016C203.678 124.481 210.738 125.753 210.738 125.753H214.161Z" fill="#F4A28C"/>
<path opacity="0.31" d="M81.7298 126.216L84.7977 125.315L82.7024 116.297C82.7024 116.297 78.5958 114.862 78.6498 109.447C78.6498 109.447 73.5406 105.052 79.3403 98.0399C79.3403 98.0399 74.159 98.9645 73.5526 104.2C73.5254 106.392 74.1254 108.546 75.2817 110.408C75.2817 110.408 76.8067 117.078 80.3069 117.066L81.7298 126.216Z" fill="#CE8172"/>
<path d="M176.169 170.04L170.917 171.359L173.172 180.338L178.425 179.019L176.169 170.04Z" fill="#24285B"/>
<path d="M174.662 178.641C176.562 178.641 178.102 177.1 178.102 175.2C178.102 173.3 176.562 171.76 174.662 171.76C172.762 171.76 171.222 173.3 171.222 175.2C171.222 177.1 172.762 178.641 174.662 178.641Z" fill="#C673D3"/>
<path opacity="0.31" d="M116.983 156.186C116.983 156.186 127.231 187.027 172.313 176.971L172.962 179.547C172.962 179.547 127.772 193.511 109.574 159.764L116.983 156.186Z" fill="#CE8172"/>
<path opacity="0.08" d="M116.984 156.186L109.575 159.789C109.575 159.789 94.1453 138.271 102.623 128.089C102.635 128.065 105.979 147.517 116.984 156.186Z" fill="black"/>
<path d="M185.756 77.1169C185.756 77.1169 178.51 79.6745 178.228 84.9758C178.228 84.9758 185.684 84.5255 189.202 78.5938C188.858 78.0145 188.339 77.5593 187.72 77.2939C187.101 77.0285 186.413 76.9665 185.756 77.1169V77.1169Z" fill="white"/>
</g>
<defs>
<clipPath id="clip0_958_1251">
<rect width="271" height="385" fill="white"/>
</clipPath>
</defs>
</svg>
