<svg width="26" height="26" viewBox="0 0 26 26" fill="none" xmlns="http://www.w3.org/2000/svg">
<g clip-path="url(#clip0_911_347)">
<path d="M20.443 0H5.37974C2.40905 0 0 2.40905 0 5.37974V20.443C0 23.4137 2.40905 25.8228 5.37974 25.8228H20.443C23.4148 25.8228 25.8228 23.4137 25.8228 20.443V5.37974C25.8228 2.40905 23.4148 0 20.443 0ZM8.60759 20.443H5.37974V8.60759H8.60759V20.443ZM6.99366 7.24328C5.9543 7.24328 5.11075 6.39329 5.11075 5.34531C5.11075 4.29734 5.9543 3.44734 6.99366 3.44734C8.03303 3.44734 8.87657 4.29734 8.87657 5.34531C8.87657 6.39329 8.03411 7.24328 6.99366 7.24328ZM21.519 20.443H18.2911V14.4134C18.2911 10.7896 13.9873 11.064 13.9873 14.4134V20.443H10.7595V8.60759H13.9873V10.5066C15.4894 7.72423 21.519 7.51873 21.519 13.1707V20.443Z" fill="white"/>
</g>
<defs>
<clipPath id="clip0_911_347">
<rect width="25.8228" height="25.8228" fill="white"/>
</clipPath>
</defs>
</svg>
