<svg width="234" height="45" viewBox="0 0 234 45" fill="none" xmlns="http://www.w3.org/2000/svg">
<path d="M190.815 33.506L186.189 27.7692L181.615 33.4531L179.923 31.9727L184.814 26.2888L180.108 20.8428L181.959 19.2302L186.215 24.729L190.392 19.3359L192.163 20.8428L187.59 26.183L192.613 31.9727L190.815 33.506Z" fill="white"/>
<path d="M231.538 3.38448C231.538 4.97763 230.294 6.26908 228.76 6.26908C227.226 6.26908 225.982 4.97763 225.982 3.38448C225.982 1.79134 227.225 0.499878 228.759 0.499878C230.294 0.499878 231.538 1.79134 231.538 3.38448Z" fill="white"/>
<path d="M215.628 22.7698H213.122V13.7287H222.558C222.558 13.7287 224.642 14.1549 225.407 15.7964V8.26807H206.911V27.4524L215.628 22.7698Z" fill="white"/>
<path d="M228.878 23.6217L220.466 28.1418H223.341C226.346 28.2568 226.292 31.5676 226.292 31.5676C226.466 35.174 222.646 35.5353 222.646 35.5353H213.122V31.2079L218.717 28.1427H218.834L229.906 22.1928L229.921 22.2222C231.855 20.7267 231.913 19.0575 231.913 14.8503C231.913 10.593 227.799 8.93499 226.156 8.44226V17.9891L206.92 28.3242L206.911 28.3052V28.4642V41.2267H223.145C223.145 41.2267 232.066 41.2907 233.173 32.6351C234.012 26.075 230.586 24.1637 228.878 23.6217Z" fill="white"/>
<path fill-rule="evenodd" clip-rule="evenodd" d="M4.36894 35.4566V12.4835H0.398438V35.4566H4.36894Z" fill="white"/>
<path fill-rule="evenodd" clip-rule="evenodd" d="M14.6739 18.7329C9.77311 18.7329 6.06055 22.4497 6.06055 27.2617C6.06055 32.0779 9.85768 35.8792 14.6739 35.8792C19.4858 35.8792 23.2872 32.1624 23.2872 27.3462C23.2872 22.5343 19.5704 18.7329 14.6739 18.7329ZM14.6739 31.9933C12.0522 31.9933 10.0268 29.9636 10.0268 27.2617C10.0268 24.6443 12.0522 22.6188 14.6739 22.6188C17.2913 22.6188 19.3167 24.6443 19.3167 27.2617C19.3167 29.8791 17.3758 31.9933 14.6739 31.9933Z" fill="white"/>
<path fill-rule="evenodd" clip-rule="evenodd" d="M33.5073 18.7329C28.6065 18.7329 24.8052 22.4497 24.8052 27.3462C24.8052 32.247 28.6065 35.8792 33.4227 35.8792C38.2347 35.8792 42.036 32.1624 42.036 27.3462C42.036 25.6591 41.5286 24.1369 40.6829 22.9571L41.9515 22.4497V19.2403H36.2938C35.3636 18.8175 34.4375 18.7329 33.5073 18.7329ZM33.5073 31.9933C30.8857 31.9933 28.8602 29.9636 28.8602 27.2617C28.8602 24.6443 30.8857 22.6188 33.5073 22.6188C36.1247 22.6188 38.1501 24.6443 38.1501 27.2617C38.1501 29.8791 36.0401 31.9933 33.5073 31.9933Z" fill="white"/>
<path fill-rule="evenodd" clip-rule="evenodd" d="M38.1501 36.467C38.0655 39.169 36.0401 41.1141 33.5073 41.1141C30.8857 41.1141 28.8602 39.0844 28.8602 36.467H24.8052C24.8052 41.3678 28.6065 45 33.4227 45C38.2347 45 42.1206 41.2832 42.1206 36.467H38.1501Z" fill="white"/>
<path fill-rule="evenodd" clip-rule="evenodd" d="M43.7231 19.2404V35.4564H47.6936V19.2404H43.7231Z" fill="white"/>
<path fill-rule="evenodd" clip-rule="evenodd" d="M45.837 17.3842C47.4395 17.3842 48.6235 16.2002 48.6235 14.7626C48.4544 13.16 47.2704 11.976 45.837 11.976C44.3993 11.976 43.2153 13.16 43.2153 14.7626C43.2153 16.2002 44.3993 17.3842 45.837 17.3842Z" fill="white"/>
<path fill-rule="evenodd" clip-rule="evenodd" d="M51.8331 19.2404H49.7231V22.7881H51.8331V35.3719H55.7994V22.7881H58.0828V19.2404H55.7994V14.2593H51.8331V19.2404Z" fill="white"/>
<path fill-rule="evenodd" clip-rule="evenodd" d="M67.0351 18.7329C62.1343 18.7329 58.5063 22.4497 58.5063 27.3462C58.5063 32.247 61.8003 35.7101 67.0351 35.7101C69.8216 35.7101 72.439 34.6107 74.3841 32.6698L71.5976 29.8791C70.2445 31.2322 68.8068 31.9933 67.1197 31.9933C64.8405 31.9933 63.2337 30.6402 62.7263 28.6993H75.3101V27.7691C75.3101 22.4497 71.8471 18.7329 67.0351 18.7329ZM62.6418 25.6591C63.2337 23.5449 64.756 22.3651 66.866 22.3651C68.976 22.3651 70.5828 23.5449 71.0014 25.6591H62.6418Z" fill="white"/>
<path fill-rule="evenodd" clip-rule="evenodd" d="M85.1919 18.8176C80.2954 18.8176 76.5786 22.5344 76.5786 27.3463C76.5786 32.1625 80.38 35.8793 85.1919 35.8793C87.9785 35.8793 90.5113 34.5262 92.1181 32.6699L89.3316 29.8792C88.2322 31.0631 86.7987 31.9934 85.1919 31.9934C82.5745 31.9934 80.714 29.9638 80.714 27.3463C80.5449 24.7289 82.6591 22.7035 85.1919 22.7035C86.8791 22.7035 88.2322 23.545 89.3316 24.8135L92.1181 22.027C90.5113 20.0016 88.1476 18.8176 85.1919 18.8176Z" fill="white"/>
<path fill-rule="evenodd" clip-rule="evenodd" d="M139.835 4.71576C128.939 4.71576 120.072 13.4982 120.072 24.3907C120.072 35.2873 128.939 44.0698 139.835 44.0698V35.8793C133.412 35.8793 128.347 30.6403 128.347 24.3907C128.347 17.9719 133.412 12.9062 139.835 12.9062V4.71576Z" fill="white"/>
<path fill-rule="evenodd" clip-rule="evenodd" d="M157.739 20.843H140.085V28.8686H149.629V38.4122H157.739V20.843Z" fill="white"/>
<path fill-rule="evenodd" clip-rule="evenodd" d="M109.176 25.9128C109.345 21.4349 106.474 18.733 102.672 18.733C100.647 18.733 98.9596 19.4095 97.7757 20.7584V12.3988H93.8052V35.3719H97.7757V26.5894C97.7757 24.2215 99.2133 22.7035 101.662 22.7035C103.941 22.7035 105.209 24.1369 105.209 26.5894V35.3719H109.176V25.9128Z" fill="white"/>
</svg>
