<svg width="317" height="48" viewBox="0 0 317 48" fill="none" xmlns="http://www.w3.org/2000/svg">
<path d="M267.451 34.2443L262.703 28.3558L258.008 34.1901L256.271 32.6705L261.292 26.8362L256.461 21.2462L258.361 19.5909L262.73 25.2352L267.017 19.6994L268.835 21.2462L264.141 26.7277L269.297 32.6705L267.451 34.2443Z" fill="white"/>
<path d="M309.251 2.96078C309.251 4.59606 307.975 5.92168 306.4 5.92168C304.825 5.92168 303.549 4.59606 303.549 2.96078C303.548 1.3255 304.824 -0.00012207 306.399 -0.00012207C307.975 -0.00012207 309.251 1.3255 309.251 2.96078Z" fill="white"/>
<path d="M292.92 22.8588H290.348V13.5786H300.034C300.034 13.5786 302.173 14.016 302.958 15.701V7.97351H283.973V27.6653L292.92 22.8588Z" fill="white"/>
<path d="M306.521 23.7333L297.886 28.3729H300.837C303.922 28.491 303.867 31.8893 303.867 31.8893C304.045 35.5911 300.125 35.962 300.125 35.962H290.348V31.5202L296.091 28.3738H296.211L307.577 22.2666L307.592 22.2967C309.577 20.7617 309.637 19.0483 309.637 14.7299C309.637 10.3599 305.413 8.6581 303.727 8.15234V17.9516L283.983 28.5602L283.973 28.5406V28.7039V41.804H300.636C300.636 41.804 309.793 41.8696 310.929 32.9851C311.791 26.2514 308.274 24.2896 306.521 23.7333Z" fill="white"/>
<path d="M22.9042 2C10.2372 2 0 12.277 0 24.9042C0 37.5712 10.277 47.8083 22.9042 47.8083C35.5712 47.8083 45.8482 37.5313 45.8482 24.9042C45.8482 12.277 35.5712 2 22.9042 2Z" fill="#D00A2C"/>
<path d="M38.9171 35.1014C38.0408 35.5396 36.3678 36.2566 34.9338 36.2566C34.2168 36.2566 33.5396 36.0574 32.8624 35.5794C29.1579 33.1098 30.4326 30.1621 32.9421 25.5813C34.0176 23.6294 35.1329 21.6378 35.6109 19.5664C36.1288 17.3358 36.6068 14.1093 34.6948 11.6396C33.7786 10.4844 32.4243 9.6081 30.5919 9.0106C28.7198 8.37327 26.2899 8.0546 23.3821 8.01477H23.1829H22.4261C19.5183 8.0546 17.0884 8.37327 15.2163 9.0106C13.3839 9.6081 12.0296 10.4844 11.1134 11.6396C9.20145 14.1093 9.67945 17.3358 10.1973 19.5664C10.6753 21.6378 11.7906 23.6294 12.8661 25.5813C15.4154 30.1621 16.6503 33.1098 12.9458 35.5794C12.2686 36.0176 11.5914 36.2566 10.8744 36.2566C9.44045 36.2566 7.76745 35.5396 6.89111 35.1014L7.09028 35.4998C8.92261 38.2483 11.2728 39.7221 13.9018 39.7221C15.0569 39.7221 16.2519 39.4433 17.4868 38.8856C18.8013 38.2881 19.9564 37.2524 20.7531 35.8981C21.5498 34.5438 21.8286 33.0699 21.6294 31.7953C21.3506 30.6401 20.7531 29.0866 20.0361 27.2543C18.2038 22.5141 15.6943 16.0611 17.8851 12.9143C18.8013 11.5998 20.4344 10.9226 22.9041 10.9226C25.3738 10.9226 27.0069 11.5998 27.9231 12.9143C30.0741 16.0611 27.5646 22.5141 25.7721 27.2543C25.0551 29.0866 24.4576 30.6401 24.1788 31.7953C23.9398 33.1098 24.2584 34.5836 25.0551 35.9379C25.8518 37.2923 27.0069 38.3678 28.3214 38.9254C29.5563 39.4831 30.7911 39.7619 31.9064 39.7619C34.5354 39.7619 36.8856 38.2881 38.7179 35.5396L38.9171 35.1014Z" fill="white"/>
<path d="M65.8442 8.21399H61.0244V39.4433H65.8442V8.21399Z" fill="white"/>
<path d="M89.5054 39.4433H84.6856V37.4118C83.5304 38.7662 81.4591 39.9213 78.9496 39.9213C74.0899 39.9213 71.4609 36.6948 71.4609 31.9945V18.0927H76.2808V31.158C76.2808 33.787 77.5156 35.5396 80.2641 35.5396C82.3354 35.5396 84.1678 34.2251 84.6856 32.114V18.0927H89.5054V39.4433V39.4433Z" fill="white"/>
<path d="M100.3 8.21399H95.4805V39.4433H100.3V8.21399Z" fill="white"/>
<path d="M124.002 39.4433H119.182V37.4118C118.027 38.7662 115.955 39.9213 113.446 39.9213C108.586 39.9213 105.957 36.6948 105.957 31.9945V18.0927H110.777V31.158C110.777 33.787 112.012 35.5396 114.76 35.5396C116.832 35.5396 118.664 34.2251 119.182 32.114V18.0927H124.002V39.4433V39.4433Z" fill="white"/>
<path d="M134.756 8.21399H129.937V39.4433H134.756V8.21399Z" fill="white"/>
<path d="M158.298 32.8309C157.581 37.0533 154.434 39.9611 149.296 39.9611C143.321 39.9611 139.218 35.4599 139.218 28.8476C139.218 22.4743 143.4 17.6544 149.216 17.6544C155.231 17.6544 158.497 21.9166 158.497 28.1704V29.8832H143.918C144.077 33.6276 146.228 35.8981 149.296 35.8981C151.606 35.8981 153.319 34.9023 153.876 32.8309H158.298ZM144.077 26.3779H153.757C153.717 23.7887 152.203 21.6776 149.296 21.6776C146.627 21.6776 144.675 23.3108 144.077 26.3779Z" fill="white"/>
<path d="M185.026 17.6544C189.408 17.6544 191.957 20.7216 191.957 25.5813V39.4831H187.137V26.3779C187.137 23.7489 185.982 21.9963 183.632 21.9963C181.919 21.9963 180.286 23.0718 179.848 25.1829V39.5229H175.028V26.4178C175.028 23.7888 173.873 22.0361 171.522 22.0361C169.81 22.0361 168.176 23.1116 167.738 25.2228V39.5628H162.918V18.2121H167.738V20.0046C168.734 18.6502 170.686 17.7341 173.076 17.7341C175.466 17.7341 177.577 18.9291 178.692 20.5622C180.166 18.7299 182.158 17.6544 185.026 17.6544Z" fill="white"/>
<path d="M206.257 39.9213C200.242 39.9213 196.1 35.3006 196.1 28.768C196.1 22.2353 200.242 17.6146 206.257 17.6146C212.272 17.6146 216.415 22.2353 216.415 28.768C216.415 35.3405 212.272 39.9213 206.257 39.9213ZM206.257 21.7573C202.792 21.7573 200.919 24.7448 200.919 28.768C200.919 32.7911 202.792 35.7786 206.257 35.7786C209.723 35.7786 211.595 32.7911 211.595 28.768C211.595 24.7448 209.723 21.7573 206.257 21.7573Z" fill="white"/>
<path d="M220.876 18.1324H225.696V20.1639C226.851 18.8096 228.962 17.6544 231.472 17.6544C236.331 17.6544 239 20.8809 239 25.5812V39.4831H234.18V26.3779C234.18 23.7489 232.866 21.9962 230.157 21.9962C228.086 21.9962 226.214 23.3108 225.696 25.4219V39.4432H220.876V18.1324V18.1324Z" fill="white"/>
</svg>
