<svg width="1294" height="930" viewBox="0 0 1294 930" fill="none" xmlns="http://www.w3.org/2000/svg">
<g clip-path="url(#clip0_879_597)">
<path fill-rule="evenodd" clip-rule="evenodd" d="M381.527 10.6898C275.464 40.1435 273.363 150.066 244.034 252.182C184.806 402.291 103.659 289.333 23.2699 420.779C-52.1332 522.892 116.221 822.324 237.236 895.345C358.725 968.653 526.932 861.662 676.285 865.29C779.174 867.789 899.726 935.967 1001.79 914.56C1113.44 891.141 1209.45 920.229 1270.75 828.98C1331 739.281 1249.16 596.022 1255.17 493.563C1261.67 382.774 1288.97 254.359 1197.6 188.304C1098.41 116.603 1048.3 121.779 921.437 101.792C812.039 84.5561 491.08 -19.7329 381.527 10.6898Z" fill="white"/>
<path d="M735.063 492.319H499.637C487.812 492.319 478.234 482.741 478.234 470.916V235.49C478.234 223.665 487.812 214.088 499.637 214.088H735.063C746.887 214.088 756.465 223.666 756.465 235.49V470.916C756.465 482.741 746.888 492.319 735.063 492.319Z" fill="#48A0DC"/>
<path d="M628.049 278.294H521.037C515.129 278.294 510.335 273.5 510.335 267.593C510.335 261.686 515.129 256.891 521.037 256.891H628.049C633.956 256.891 638.75 261.686 638.75 267.593C638.75 273.5 633.956 278.294 628.049 278.294Z" fill="white"/>
<path d="M670.855 321.1H553.141C547.234 321.1 542.439 316.305 542.439 310.398C542.439 304.491 547.234 299.696 553.141 299.696H670.854C676.761 299.696 681.555 304.491 681.555 310.398C681.555 316.305 676.761 321.1 670.855 321.1Z" fill="white"/>
<path d="M628.049 363.904H521.037C515.129 363.904 510.335 359.11 510.335 353.203C510.335 347.295 515.129 342.501 521.037 342.501H628.049C633.956 342.501 638.75 347.295 638.75 353.203C638.75 359.11 633.956 363.904 628.049 363.904Z" fill="white"/>
<path d="M563.842 406.709H521.037C515.129 406.709 510.335 401.914 510.335 396.007C510.335 390.1 515.129 385.305 521.037 385.305H563.841C569.748 385.305 574.543 390.1 574.543 396.007C574.543 401.914 569.75 406.709 563.842 406.709Z" fill="white"/>
<path d="M628.05 449.514H542.441C536.534 449.514 531.739 444.72 531.739 438.812C531.739 432.905 536.534 428.111 542.441 428.111H628.051C633.958 428.111 638.753 432.905 638.753 438.812C638.751 444.72 633.957 449.514 628.05 449.514Z" fill="white"/>
<path d="M708.402 483.206C708.402 502.279 641.41 517.738 558.765 517.738C476.12 517.738 409.129 502.28 409.129 483.206C409.129 464.134 476.12 448.674 558.765 448.674C641.41 448.674 708.402 464.134 708.402 483.206Z" fill="#ED7161"/>
<path d="M558.765 517.738C476.12 517.738 409.129 502.28 409.129 483.206V552.27C409.129 571.342 476.12 586.801 558.765 586.801C641.41 586.801 708.402 571.342 708.402 552.268V483.205C708.402 502.279 641.41 517.738 558.765 517.738Z" fill="#C9554C"/>
<path d="M558.765 586.8C476.12 586.8 409.129 571.342 409.129 552.268V621.332C409.129 640.404 476.12 655.863 558.765 655.863C641.41 655.863 708.402 640.404 708.402 621.332V552.268C708.402 571.342 641.41 586.8 558.765 586.8Z" fill="#ECBA16"/>
<path d="M558.765 655.864C476.12 655.864 409.129 640.406 409.129 621.332V690.395C409.129 709.468 476.12 724.927 558.765 724.927C641.41 724.927 708.402 709.468 708.402 690.394V621.331C708.402 640.404 641.41 655.864 558.765 655.864Z" fill="#25AE88"/>
<g filter="url(#filter0_d_879_597)">
<path d="M940.472 609.045C875.463 674.055 770.21 674.055 705.2 609.045C640.191 544.036 640.191 438.783 705.2 373.773C770.21 308.764 875.463 308.764 940.472 373.773C1005.48 438.783 1005.48 544.036 940.472 609.045Z" fill="#FDFDFD"/>
<path d="M955.566 405.504C958.661 415.952 960.596 426.787 960.596 438.009C960.596 474.77 942.409 506.888 914.935 527.396C867.339 562.61 797.686 562.61 701.72 592.793C730.742 627.619 774.081 649.676 822.838 649.676C910.291 649.676 980.718 578.862 980.718 491.796C980.718 459.678 971.431 430.269 955.566 405.504Z" fill="#48A0DC"/>
<path d="M917.641 364.872C891.328 345.137 858.436 333.141 822.836 333.141C735.383 333.141 664.956 403.955 664.956 491.408C664.956 526.621 676.565 559.126 695.913 585.052C801.94 554.095 885.91 470.899 917.641 364.872" fill="#F47464"/>
</g>
</g>
<defs>
<filter id="filter0_d_879_597" x="649.169" y="325.016" width="347.334" height="347.334" filterUnits="userSpaceOnUse" color-interpolation-filters="sRGB">
<feFlood flood-opacity="0" result="BackgroundImageFix"/>
<feColorMatrix in="SourceAlpha" type="matrix" values="0 0 0 0 0 0 0 0 0 0 0 0 0 0 0 0 0 0 127 0" result="hardAlpha"/>
<feOffset dy="7.27401"/>
<feGaussianBlur stdDeviation="3.637"/>
<feComposite in2="hardAlpha" operator="out"/>
<feColorMatrix type="matrix" values="0 0 0 0 0 0 0 0 0 0 0 0 0 0 0 0 0 0 0.25 0"/>
<feBlend mode="normal" in2="BackgroundImageFix" result="effect1_dropShadow_879_597"/>
<feBlend mode="normal" in="SourceGraphic" in2="effect1_dropShadow_879_597" result="shape"/>
</filter>
<clipPath id="clip0_879_597">
<rect width="1294" height="929.248" fill="white"/>
</clipPath>
</defs>
</svg>
