<svg width="271" height="385" viewBox="0 0 271 385" fill="none" xmlns="http://www.w3.org/2000/svg">
<g clip-path="url(#clip0_958_1157)">
<path d="M35.5146 245.1C36.9546 246.42 38.6946 247.2 40.5746 247.2C43.0946 247.2 45.3146 245.48 45.3146 243C45.3146 238.28 38.8546 238.98 38.8546 236.72C38.8546 235.64 39.9946 235.2 41.0146 235.2C41.9346 235.2 42.8746 235.6 43.4346 236.12L44.8346 234.12C43.5146 233.14 42.1946 232.8 40.7746 232.8C38.4546 232.8 36.1546 234.24 36.1546 236.74C36.1546 238.32 37.0346 239.28 38.1346 239.92C40.0146 241.02 42.6146 241.24 42.6146 243.04C42.6146 244.06 41.7746 244.8 40.5746 244.8C39.2946 244.8 38.0746 244.14 37.2746 243.26L35.5146 245.1ZM54.493 243.98C54.033 244.48 53.153 245.1 52.053 245.1C50.673 245.1 49.573 244.16 49.433 242.8H56.153C56.193 242.58 56.213 242.32 56.213 242.06C56.213 239.36 54.313 237.1 51.633 237.1C48.753 237.1 46.913 239.46 46.913 242.16C46.913 245.2 49.093 247.2 51.993 247.2C53.493 247.2 55.033 246.58 55.973 245.46L54.493 243.98ZM49.553 240.9C49.673 240.02 50.553 239.2 51.633 239.2C52.693 239.2 53.473 240.04 53.553 240.9H49.553ZM65.4115 243.52C64.9915 244.16 64.1515 244.8 63.0915 244.8C61.5115 244.8 60.4115 243.68 60.4115 242.16C60.4115 240.68 61.5315 239.5 63.0315 239.5C63.9715 239.5 64.7515 239.98 65.2715 240.66L67.1115 239.04C66.2115 237.88 64.7115 237.1 63.0315 237.1C60.0715 237.1 57.8115 239.34 57.8115 242.16C57.8115 244.96 60.0115 247.2 63.0115 247.2C64.8315 247.2 66.2715 246.54 67.4115 245.02L65.4115 243.52ZM68.6122 242.16C68.6122 244.96 70.8322 247.2 73.7722 247.2C76.7122 247.2 78.9322 244.96 78.9322 242.16C78.9322 239.36 76.7122 237.1 73.7722 237.1C70.8322 237.1 68.6122 239.36 68.6122 242.16ZM71.2122 242.16C71.2122 240.7 72.2522 239.5 73.7722 239.5C75.2922 239.5 76.3322 240.7 76.3322 242.16C76.3322 243.62 75.2922 244.8 73.7722 244.8C72.2522 244.8 71.2122 243.62 71.2122 242.16ZM83.731 247V240.7C84.091 240.2 84.991 239.5 86.091 239.5C86.691 239.5 87.211 239.7 87.551 240.04C87.911 240.4 88.131 240.9 88.131 241.86V247H90.731V242.06C90.731 240.4 90.371 239.42 89.731 238.66C88.931 237.7 87.711 237.1 86.371 237.1C85.291 237.1 84.371 237.48 83.631 238.08V237.3H81.131V247H83.731ZM100.233 243.6C99.7333 244.32 98.8733 244.8 97.8933 244.8C96.4333 244.8 95.3333 243.68 95.3333 242.16C95.3333 240.76 96.3133 239.5 97.8333 239.5C98.8333 239.5 99.6933 239.98 100.233 240.7V243.6ZM102.833 247V232.8H100.233V238C99.4733 237.4 98.5533 237.1 97.4933 237.1C94.8533 237.1 92.7333 239.3 92.7333 242.16C92.7333 243.48 93.2133 244.68 93.9733 245.56C94.8333 246.56 96.1933 247.2 97.6333 247.2C98.6133 247.2 99.5333 246.9 100.333 246.22V247H102.833ZM112.538 243.6C112.038 244.32 111.178 244.8 110.198 244.8C108.738 244.8 107.638 243.68 107.638 242.16C107.638 240.76 108.618 239.5 110.138 239.5C111.138 239.5 111.998 239.98 112.538 240.7V243.6ZM115.138 237.3H112.638V238.08C111.878 237.46 110.898 237.1 109.798 237.1C107.158 237.1 105.038 239.3 105.038 242.16C105.038 243.48 105.518 244.68 106.278 245.56C107.138 246.56 108.498 247.2 109.938 247.2C110.918 247.2 111.838 246.9 112.638 246.22V247H115.138V237.3ZM124.343 237.18C124.063 237.14 123.843 237.1 123.463 237.1C122.283 237.1 121.223 237.56 120.643 238.28V237.3H118.143V247H120.743V240.9C121.063 240.32 121.963 239.5 123.103 239.5C123.483 239.5 123.863 239.54 124.043 239.6L124.343 237.18ZM130.129 251.8L136.809 237.3H134.069L131.449 243.12L128.609 237.3H125.749L130.089 246.02L127.409 251.8H130.129ZM147.294 240.8L152.274 247H155.614L150.374 240.58C150.934 240.4 151.394 240.12 151.774 239.76C152.534 239.04 153.014 238.02 153.014 236.9C153.014 235.78 152.534 234.76 151.774 234.04C151.074 233.4 150.154 233 148.714 233H143.614V247H146.314V240.8H147.294ZM146.314 238.4V235.4H148.554C149.334 235.4 149.674 235.58 149.914 235.84C150.154 236.1 150.314 236.5 150.314 236.92C150.314 237.32 150.154 237.72 149.914 237.98C149.674 238.24 149.334 238.4 148.554 238.4H146.314ZM163.302 243.98C162.842 244.48 161.962 245.1 160.862 245.1C159.482 245.1 158.382 244.16 158.242 242.8H164.962C165.002 242.58 165.022 242.32 165.022 242.06C165.022 239.36 163.122 237.1 160.442 237.1C157.562 237.1 155.722 239.46 155.722 242.16C155.722 245.2 157.902 247.2 160.802 247.2C162.302 247.2 163.842 246.58 164.782 245.46L163.302 243.98ZM158.362 240.9C158.482 240.02 159.362 239.2 160.442 239.2C161.502 239.2 162.282 240.04 162.362 240.9H158.362ZM166.362 245.9C167.502 246.74 168.922 247.2 170.262 247.2C172.302 247.2 174.122 246.06 174.122 244.2C174.122 240.84 169.422 241.34 169.422 240.08C169.422 239.58 170.022 239.3 170.742 239.3C171.442 239.3 172.102 239.6 172.602 239.96L173.822 238.08C173.182 237.58 171.802 237.1 170.542 237.1C168.622 237.1 166.822 238.26 166.822 240.12C166.822 243.24 171.522 242.72 171.522 244.18C171.522 244.66 170.982 245 170.282 245C169.302 245 168.282 244.64 167.622 244.04L166.362 245.9ZM183.302 243.98C182.842 244.48 181.962 245.1 180.862 245.1C179.482 245.1 178.382 244.16 178.242 242.8H184.962C185.002 242.58 185.022 242.32 185.022 242.06C185.022 239.36 183.122 237.1 180.442 237.1C177.562 237.1 175.722 239.46 175.722 242.16C175.722 245.2 177.902 247.2 180.802 247.2C182.302 247.2 183.842 246.58 184.782 245.46L183.302 243.98ZM178.362 240.9C178.482 240.02 179.362 239.2 180.442 239.2C181.502 239.2 182.282 240.04 182.362 240.9H178.362ZM194.12 243.6C193.62 244.32 192.76 244.8 191.78 244.8C190.32 244.8 189.22 243.68 189.22 242.16C189.22 240.76 190.2 239.5 191.72 239.5C192.72 239.5 193.58 239.98 194.12 240.7V243.6ZM196.72 237.3H194.22V238.08C193.46 237.46 192.48 237.1 191.38 237.1C188.74 237.1 186.62 239.3 186.62 242.16C186.62 243.48 187.1 244.68 187.86 245.56C188.72 246.56 190.08 247.2 191.52 247.2C192.5 247.2 193.42 246.9 194.22 246.22V247H196.72V237.3ZM205.925 237.18C205.645 237.14 205.425 237.1 205.045 237.1C203.865 237.1 202.805 237.56 202.225 238.28V237.3H199.725V247H202.325V240.9C202.645 240.32 203.545 239.5 204.685 239.5C205.065 239.5 205.445 239.54 205.625 239.6L205.925 237.18ZM214.435 243.52C214.015 244.16 213.175 244.8 212.115 244.8C210.535 244.8 209.435 243.68 209.435 242.16C209.435 240.68 210.555 239.5 212.055 239.5C212.995 239.5 213.775 239.98 214.295 240.66L216.135 239.04C215.235 237.88 213.735 237.1 212.055 237.1C209.095 237.1 206.835 239.34 206.835 242.16C206.835 244.96 209.035 247.2 212.035 247.2C213.855 247.2 215.295 246.54 216.435 245.02L214.435 243.52ZM221.036 240.7C221.396 240.2 222.296 239.5 223.396 239.5C223.996 239.5 224.516 239.7 224.856 240.04C225.216 240.4 225.436 240.9 225.436 241.86V247H228.036V242.06C228.036 240.4 227.676 239.42 227.036 238.66C226.236 237.7 225.016 237.1 223.676 237.1C222.676 237.1 221.756 237.44 221.036 238V232.8H218.436V247H221.036V240.7Z" fill="white"/>
<path d="M24.5964 283.926C24.5964 286.824 26.7524 288.966 29.6784 288.966C31.1904 288.966 32.6464 288.224 33.4864 287.146L32.4924 286.25C31.9464 286.908 30.9944 287.636 29.6784 287.636C27.5924 287.636 25.9964 286.138 25.9964 283.926C25.9964 281.812 27.5504 280.216 29.5524 280.216C30.6024 280.216 31.6244 280.692 32.1984 281.322L33.1364 280.398C32.2824 279.46 30.9524 278.886 29.5524 278.886C26.7244 278.886 24.5964 281.098 24.5964 283.926ZM34.4024 285.536C34.4024 287.496 35.8584 288.966 37.8044 288.966C39.7504 288.966 41.2064 287.496 41.2064 285.536C41.2064 283.576 39.7504 282.106 37.8044 282.106C35.8584 282.106 34.4024 283.576 34.4024 285.536ZM35.7324 285.536C35.7324 284.332 36.5864 283.366 37.8044 283.366C39.0224 283.366 39.8764 284.332 39.8764 285.536C39.8764 286.74 39.0224 287.706 37.8044 287.706C36.5864 287.706 35.7324 286.74 35.7324 285.536ZM44.3168 282.246H43.0288V288.826H44.3588V284.304C44.7508 283.828 45.3808 283.366 46.2488 283.366C46.7948 283.366 47.2988 283.618 47.6068 284.01C47.8448 284.304 47.9988 284.696 47.9988 285.536V288.826H49.3288V285.606C49.3288 284.472 49.1048 283.8 48.6848 283.268C48.1248 282.554 47.2568 282.106 46.2908 282.106C45.3388 282.106 44.6668 282.54 44.3168 282.876V282.246ZM56.3757 288.826H57.6637V278.886H56.3337V282.82C55.7457 282.33 55.0317 282.106 54.3177 282.106C53.7017 282.106 53.1557 282.26 52.7077 282.526C51.7137 283.114 51.0137 284.22 51.0137 285.536C51.0137 286.852 51.6997 287.944 52.6937 288.532C53.1417 288.798 53.7577 288.966 54.3457 288.966C55.1297 288.966 55.8437 288.7 56.3757 288.224V288.826ZM56.3337 286.768C55.8857 287.37 55.1997 287.706 54.5277 287.706C53.2537 287.706 52.3437 286.712 52.3437 285.536C52.3437 284.388 53.1837 283.366 54.4577 283.366C55.2557 283.366 55.9277 283.772 56.3337 284.304V286.768ZM62.8503 288.966C63.7603 288.966 64.4883 288.504 64.7823 288.224V288.826H66.0703V282.246H64.7403V286.768C64.3623 287.216 63.7043 287.706 62.8923 287.706C62.3883 287.706 61.9123 287.482 61.6183 287.132C61.3803 286.852 61.2403 286.488 61.2403 285.816V282.246H59.9103V285.606C59.9103 286.712 60.1063 287.356 60.5123 287.86C61.0583 288.546 61.9123 288.966 62.8503 288.966ZM73.3028 286.684C72.8828 287.244 72.2668 287.706 71.3988 287.706C70.1388 287.706 69.2148 286.824 69.2148 285.536C69.2148 284.29 70.1248 283.366 71.3148 283.366C72.1548 283.366 72.7708 283.856 73.1348 284.36L74.1148 283.534C73.4988 282.68 72.4628 282.106 71.3148 282.106C69.3408 282.106 67.8848 283.59 67.8848 285.536C67.8848 287.482 69.3688 288.966 71.3988 288.966C72.6028 288.966 73.7788 288.336 74.3248 287.426L73.3028 286.684ZM79.6626 287.622C79.4666 287.678 79.1306 287.706 78.9346 287.706C78.5846 287.706 78.2066 287.58 78.0246 287.356C77.8566 287.16 77.8286 286.866 77.8286 286.516V283.436H79.9286V282.246H77.8286V280.426H76.4986V282.246H74.8186V283.436H76.4986V286.446C76.4986 287.16 76.6386 287.762 77.0306 288.196C77.4506 288.672 78.0666 288.966 78.8926 288.966C79.2706 288.966 79.6766 288.91 79.9286 288.826L79.6626 287.622ZM87.3384 285.816C87.3524 285.69 87.3524 285.592 87.3524 285.536C87.3524 283.59 86.0224 282.106 84.1884 282.106C82.3264 282.106 80.9824 283.562 80.9824 285.536C80.9824 287.51 82.4664 288.966 84.3844 288.966C85.7284 288.966 86.6664 288.364 87.1564 287.734L86.2884 286.908C85.9104 287.328 85.3784 287.804 84.3984 287.804C83.2504 287.804 82.3404 286.922 82.2704 285.816H87.3384ZM84.2304 283.268C85.0144 283.268 85.7704 283.856 85.9664 284.696H82.3824C82.6064 283.842 83.3764 283.268 84.2304 283.268ZM93.9734 288.826H95.2614V278.886H93.9314V282.82C93.3434 282.33 92.6294 282.106 91.9154 282.106C91.2994 282.106 90.7534 282.26 90.3054 282.526C89.3114 283.114 88.6114 284.22 88.6114 285.536C88.6114 286.852 89.2974 287.944 90.2914 288.532C90.7394 288.798 91.3554 288.966 91.9434 288.966C92.7274 288.966 93.4414 288.7 93.9734 288.224V288.826ZM93.9314 286.768C93.4834 287.37 92.7974 287.706 92.1254 287.706C90.8514 287.706 89.9414 286.712 89.9414 285.536C89.9414 284.388 90.7814 283.366 92.0554 283.366C92.8534 283.366 93.5254 283.772 93.9314 284.304V286.768ZM37.5837 305.826H38.8717V299.246H37.5837V299.848C36.9817 299.33 36.2677 299.106 35.5257 299.106C34.9097 299.106 34.3637 299.26 33.9157 299.526C32.9217 300.114 32.2217 301.22 32.2217 302.536C32.2217 303.852 32.9077 304.944 33.9017 305.532C34.3497 305.798 34.9657 305.966 35.5537 305.966C36.3377 305.966 37.0517 305.7 37.5837 305.224V305.826ZM37.5417 303.768C37.0937 304.37 36.4077 304.706 35.7357 304.706C34.4617 304.706 33.5517 303.712 33.5517 302.536C33.5517 301.388 34.3917 300.366 35.6657 300.366C36.4637 300.366 37.1357 300.772 37.5417 301.304V303.768ZM42.5463 299.246H41.2583V305.826H42.5883V301.304C42.9803 300.828 43.6103 300.366 44.4783 300.366C45.0243 300.366 45.5283 300.618 45.8363 301.01C46.0743 301.304 46.2283 301.696 46.2283 302.536V305.826H47.5583V302.606C47.5583 301.472 47.3343 300.8 46.9143 300.268C46.3543 299.554 45.4863 299.106 44.5203 299.106C43.5683 299.106 42.8963 299.54 42.5463 299.876V299.246ZM54.6052 305.826H55.8932V295.886H54.5632V299.82C53.9752 299.33 53.2612 299.106 52.5472 299.106C51.9312 299.106 51.3852 299.26 50.9372 299.526C49.9432 300.114 49.2432 301.22 49.2432 302.536C49.2432 303.852 49.9292 304.944 50.9232 305.532C51.3712 305.798 51.9872 305.966 52.5752 305.966C53.3592 305.966 54.0732 305.7 54.6052 305.224V305.826ZM54.5632 303.768C54.1152 304.37 53.4292 304.706 52.7572 304.706C51.4832 304.706 50.5732 303.712 50.5732 302.536C50.5732 301.388 51.4132 300.366 52.6872 300.366C53.4852 300.366 54.1572 300.772 54.5632 301.304V303.768ZM65.8332 299.148C65.6792 299.12 65.4552 299.106 65.3152 299.106C64.3492 299.106 63.6632 299.554 63.3412 300.002V299.246H62.0532V305.826H63.3832V301.472C63.7472 300.842 64.4752 300.366 65.1612 300.366C65.3712 300.366 65.5252 300.38 65.6792 300.422L65.8332 299.148ZM72.9625 302.816C72.9765 302.69 72.9765 302.592 72.9765 302.536C72.9765 300.59 71.6465 299.106 69.8125 299.106C67.9505 299.106 66.6065 300.562 66.6065 302.536C66.6065 304.51 68.0905 305.966 70.0085 305.966C71.3525 305.966 72.2905 305.364 72.7805 304.734L71.9125 303.908C71.5345 304.328 71.0025 304.804 70.0225 304.804C68.8745 304.804 67.9645 303.922 67.8945 302.816H72.9625ZM69.8545 300.268C70.6385 300.268 71.3945 300.856 71.5905 301.696H68.0065C68.2305 300.842 69.0005 300.268 69.8545 300.268ZM76.533 305.826H77.457L80.313 299.246H78.941L76.995 303.726L75.049 299.246H73.677L76.533 305.826ZM81.645 305.826H82.975V299.246H81.645V305.826ZM81.435 296.908C81.435 297.398 81.813 297.776 82.303 297.776C82.793 297.776 83.185 297.398 83.185 296.908C83.185 296.418 82.793 296.026 82.303 296.026C81.813 296.026 81.435 296.418 81.435 296.908ZM91.1461 302.816C91.1601 302.69 91.1601 302.592 91.1601 302.536C91.1601 300.59 89.8301 299.106 87.9961 299.106C86.1341 299.106 84.7901 300.562 84.7901 302.536C84.7901 304.51 86.2741 305.966 88.1921 305.966C89.5361 305.966 90.4741 305.364 90.9641 304.734L90.0961 303.908C89.7181 304.328 89.1861 304.804 88.2061 304.804C87.0581 304.804 86.1481 303.922 86.0781 302.816H91.1461ZM88.0381 300.268C88.8221 300.268 89.5781 300.856 89.7741 301.696H86.1901C86.4141 300.842 87.1841 300.268 88.0381 300.268ZM96.8446 299.246L95.0386 303.74L93.2326 299.246H91.8606L94.5346 305.826H95.4586L97.3066 301.206L99.1546 305.826H100.079L102.753 299.246H101.381L99.5746 303.74L97.7686 299.246H96.8446ZM109.808 302.816C109.822 302.69 109.822 302.592 109.822 302.536C109.822 300.59 108.492 299.106 106.658 299.106C104.796 299.106 103.452 300.562 103.452 302.536C103.452 304.51 104.936 305.966 106.854 305.966C108.198 305.966 109.136 305.364 109.626 304.734L108.758 303.908C108.38 304.328 107.848 304.804 106.868 304.804C105.72 304.804 104.81 303.922 104.74 302.816H109.808ZM106.7 300.268C107.484 300.268 108.24 300.856 108.436 301.696H104.852C105.076 300.842 105.846 300.268 106.7 300.268ZM116.443 305.826H117.731V295.886H116.401V299.82C115.813 299.33 115.099 299.106 114.385 299.106C113.769 299.106 113.223 299.26 112.775 299.526C111.781 300.114 111.081 301.22 111.081 302.536C111.081 303.852 111.767 304.944 112.761 305.532C113.209 305.798 113.825 305.966 114.413 305.966C115.197 305.966 115.911 305.7 116.443 305.224V305.826ZM116.401 303.768C115.953 304.37 115.267 304.706 114.595 304.706C113.321 304.706 112.411 303.712 112.411 302.536C112.411 301.388 113.251 300.366 114.525 300.366C115.323 300.366 115.995 300.772 116.401 301.304V303.768ZM97.6781 339.224C98.2101 339.7 98.9241 339.966 99.7081 339.966C100.296 339.966 100.912 339.798 101.36 339.532C102.354 338.944 103.04 337.852 103.04 336.536C103.04 335.22 102.34 334.114 101.346 333.526C100.898 333.26 100.352 333.106 99.7361 333.106C99.0221 333.106 98.3081 333.33 97.7201 333.82V329.886H96.3901V339.826H97.6781V339.224ZM97.7201 335.304C98.1261 334.772 98.7981 334.366 99.5961 334.366C100.87 334.366 101.71 335.388 101.71 336.536C101.71 337.712 100.8 338.706 99.5261 338.706C98.8541 338.706 98.1681 338.37 97.7201 337.768V335.304ZM109.669 339.826H110.957V333.246H109.669V333.848C109.067 333.33 108.353 333.106 107.611 333.106C106.995 333.106 106.449 333.26 106.001 333.526C105.007 334.114 104.307 335.22 104.307 336.536C104.307 337.852 104.993 338.944 105.987 339.532C106.435 339.798 107.051 339.966 107.639 339.966C108.423 339.966 109.137 339.7 109.669 339.224V339.826ZM109.627 337.768C109.179 338.37 108.493 338.706 107.821 338.706C106.547 338.706 105.637 337.712 105.637 336.536C105.637 335.388 106.477 334.366 107.751 334.366C108.549 334.366 109.221 334.772 109.627 335.304V337.768ZM118.201 337.684C117.781 338.244 117.165 338.706 116.297 338.706C115.037 338.706 114.113 337.824 114.113 336.536C114.113 335.29 115.023 334.366 116.213 334.366C117.053 334.366 117.669 334.856 118.033 335.36L119.013 334.534C118.397 333.68 117.361 333.106 116.213 333.106C114.239 333.106 112.783 334.59 112.783 336.536C112.783 338.482 114.267 339.966 116.297 339.966C117.501 339.966 118.677 339.336 119.223 338.426L118.201 337.684ZM123.427 336.214L126.717 333.246H124.841L122.097 335.766V329.886H120.767V339.826H122.097V336.606L125.359 339.826H127.137L123.427 336.214ZM132.8 339.252V339.616C132.8 340.442 132.674 340.946 132.436 341.31C132.114 341.8 131.554 342.066 130.84 342.066C129.762 342.066 129.146 341.52 128.67 340.89L127.69 341.8C128.11 342.458 129.188 343.326 130.896 343.326C132.198 343.326 133.206 342.724 133.738 341.702C134.004 341.184 134.13 340.526 134.13 339.546V333.246H132.842V333.848C132.24 333.33 131.526 333.106 130.784 333.106C130.168 333.106 129.622 333.26 129.174 333.526C128.18 334.114 127.48 335.22 127.48 336.536C127.48 337.852 128.166 338.944 129.16 339.532C129.608 339.798 130.224 339.966 130.812 339.966C131.596 339.966 132.268 339.714 132.8 339.252ZM132.8 337.768C132.352 338.37 131.666 338.706 130.994 338.706C129.72 338.706 128.81 337.712 128.81 336.536C128.81 335.388 129.65 334.366 130.924 334.366C131.722 334.366 132.394 334.772 132.8 335.304V337.768ZM140.297 333.148C140.143 333.12 139.919 333.106 139.779 333.106C138.813 333.106 138.127 333.554 137.805 334.002V333.246H136.517V339.826H137.847V335.472C138.211 334.842 138.939 334.366 139.625 334.366C139.835 334.366 139.989 334.38 140.143 334.422L140.297 333.148ZM141.07 336.536C141.07 338.496 142.526 339.966 144.472 339.966C146.418 339.966 147.874 338.496 147.874 336.536C147.874 334.576 146.418 333.106 144.472 333.106C142.526 333.106 141.07 334.576 141.07 336.536ZM142.4 336.536C142.4 335.332 143.254 334.366 144.472 334.366C145.69 334.366 146.544 335.332 146.544 336.536C146.544 337.74 145.69 338.706 144.472 338.706C143.254 338.706 142.4 337.74 142.4 336.536ZM152.497 339.966C153.407 339.966 154.135 339.504 154.429 339.224V339.826H155.717V333.246H154.387V337.768C154.009 338.216 153.351 338.706 152.539 338.706C152.035 338.706 151.559 338.482 151.265 338.132C151.027 337.852 150.887 337.488 150.887 336.816V333.246H149.557V336.606C149.557 337.712 149.753 338.356 150.159 338.86C150.705 339.546 151.559 339.966 152.497 339.966ZM159.379 333.246H158.091V339.826H159.421V335.304C159.813 334.828 160.443 334.366 161.311 334.366C161.857 334.366 162.361 334.618 162.669 335.01C162.907 335.304 163.061 335.696 163.061 336.536V339.826H164.391V336.606C164.391 335.472 164.167 334.8 163.747 334.268C163.187 333.554 162.319 333.106 161.353 333.106C160.401 333.106 159.729 333.54 159.379 333.876V333.246ZM171.438 339.826H172.726V329.886H171.396V333.82C170.808 333.33 170.094 333.106 169.38 333.106C168.764 333.106 168.218 333.26 167.77 333.526C166.776 334.114 166.076 335.22 166.076 336.536C166.076 337.852 166.762 338.944 167.756 339.532C168.204 339.798 168.82 339.966 169.408 339.966C170.192 339.966 170.906 339.7 171.438 339.224V339.826ZM171.396 337.768C170.948 338.37 170.262 338.706 169.59 338.706C168.316 338.706 167.406 337.712 167.406 336.536C167.406 335.388 168.246 334.366 169.52 334.366C170.318 334.366 170.99 334.772 171.396 335.304V337.768ZM183.744 337.684C183.324 338.244 182.708 338.706 181.84 338.706C180.58 338.706 179.656 337.824 179.656 336.536C179.656 335.29 180.566 334.366 181.756 334.366C182.596 334.366 183.212 334.856 183.576 335.36L184.556 334.534C183.94 333.68 182.904 333.106 181.756 333.106C179.782 333.106 178.326 334.59 178.326 336.536C178.326 338.482 179.81 339.966 181.84 339.966C183.044 339.966 184.22 339.336 184.766 338.426L183.744 337.684ZM185.75 336.536C185.75 338.496 187.206 339.966 189.152 339.966C191.098 339.966 192.554 338.496 192.554 336.536C192.554 334.576 191.098 333.106 189.152 333.106C187.206 333.106 185.75 334.576 185.75 336.536ZM187.08 336.536C187.08 335.332 187.934 334.366 189.152 334.366C190.37 334.366 191.224 335.332 191.224 336.536C191.224 337.74 190.37 338.706 189.152 338.706C187.934 338.706 187.08 337.74 187.08 336.536ZM195.664 333.246H194.376V339.826H195.706V335.304C196.098 334.828 196.728 334.366 197.596 334.366C198.142 334.366 198.646 334.618 198.954 335.01C199.192 335.304 199.346 335.696 199.346 336.536V339.826H200.676V336.606C200.676 335.472 200.452 334.8 200.032 334.268C199.472 333.554 198.604 333.106 197.638 333.106C196.686 333.106 196.014 333.54 195.664 333.876V333.246ZM206.647 338.622C206.451 338.678 206.115 338.706 205.919 338.706C205.569 338.706 205.191 338.58 205.009 338.356C204.841 338.16 204.813 337.866 204.813 337.516V334.436H206.913V333.246H204.813V331.426H203.483V333.246H201.803V334.436H203.483V337.446C203.483 338.16 203.623 338.762 204.015 339.196C204.435 339.672 205.051 339.966 205.877 339.966C206.255 339.966 206.661 339.91 206.913 339.826L206.647 338.622ZM214.323 336.816C214.337 336.69 214.337 336.592 214.337 336.536C214.337 334.59 213.007 333.106 211.173 333.106C209.311 333.106 207.967 334.562 207.967 336.536C207.967 338.51 209.451 339.966 211.369 339.966C212.713 339.966 213.651 339.364 214.141 338.734L213.273 337.908C212.895 338.328 212.363 338.804 211.383 338.804C210.235 338.804 209.325 337.922 209.255 336.816H214.323ZM211.215 334.268C211.999 334.268 212.755 334.856 212.951 335.696H209.367C209.591 334.842 210.361 334.268 211.215 334.268ZM220.177 339.826H221.759L219.267 336.368L221.521 333.246H219.953L218.399 335.374L216.845 333.246H215.277L217.531 336.368L215.039 339.826H216.621L218.399 337.362L220.177 339.826ZM227.086 338.622C226.89 338.678 226.554 338.706 226.358 338.706C226.008 338.706 225.63 338.58 225.448 338.356C225.28 338.16 225.252 337.866 225.252 337.516V334.436H227.352V333.246H225.252V331.426H223.922V333.246H222.242V334.436H223.922V337.446C223.922 338.16 224.062 338.762 224.454 339.196C224.874 339.672 225.49 339.966 226.316 339.966C226.694 339.966 227.1 339.91 227.352 339.826L227.086 338.622ZM229.661 338.146L228.611 341.786H229.521L231.201 338.146H229.661ZM42.3012 356.252C42.8332 356.714 43.5052 356.966 44.2892 356.966C44.8772 356.966 45.4932 356.798 45.9412 356.532C46.9352 355.944 47.6212 354.852 47.6212 353.536C47.6212 352.22 46.9212 351.114 45.9272 350.526C45.4792 350.26 44.9332 350.106 44.3172 350.106C43.5752 350.106 42.8612 350.33 42.2592 350.848V350.246H40.9712V360.186H42.3012V356.252ZM42.3012 352.304C42.7072 351.772 43.3792 351.366 44.1772 351.366C45.4512 351.366 46.2912 352.388 46.2912 353.536C46.2912 354.712 45.3812 355.706 44.1072 355.706C43.4352 355.706 42.7492 355.37 42.3012 354.768V352.304ZM48.8177 356.056C49.5457 356.644 50.4277 356.966 51.4777 356.966C52.7657 356.966 53.9277 356.196 53.9277 354.95C53.9277 353.592 52.5697 353.13 51.5337 352.864C50.8757 352.696 50.3577 352.542 50.3577 352.094C50.3577 351.576 50.9037 351.268 51.5477 351.268C52.0797 351.268 52.5557 351.478 52.9617 351.786L53.6477 350.834C53.1297 350.414 52.4297 350.106 51.4637 350.106C50.2877 350.106 49.0277 350.75 49.0277 352.164C49.0277 353.088 49.7417 353.592 50.5397 353.858C51.5057 354.18 52.5977 354.222 52.5977 354.978C52.5977 355.496 52.0237 355.804 51.4497 355.804C50.7917 355.804 50.1197 355.552 49.5037 355.076L48.8177 356.056ZM57.0821 360.186L61.4081 350.246H60.0081L58.1181 354.586L56.0601 350.246H54.6321L57.4461 356.14L55.6681 360.186H57.0821ZM67.5948 354.684C67.1748 355.244 66.5588 355.706 65.6908 355.706C64.4308 355.706 63.5068 354.824 63.5068 353.536C63.5068 352.29 64.4168 351.366 65.6068 351.366C66.4468 351.366 67.0628 351.856 67.4268 352.36L68.4068 351.534C67.7908 350.68 66.7548 350.106 65.6068 350.106C63.6328 350.106 62.1768 351.59 62.1768 353.536C62.1768 355.482 63.6608 356.966 65.6908 356.966C66.8948 356.966 68.0708 356.336 68.6168 355.426L67.5948 354.684ZM71.4906 346.886H70.1606V356.826H71.4906V352.304C71.8826 351.828 72.5126 351.366 73.3806 351.366C73.9266 351.366 74.4306 351.618 74.7386 352.01C74.9766 352.304 75.1306 352.696 75.1306 353.536V356.826H76.4606V353.606C76.4606 352.472 76.2366 351.8 75.8166 351.268C75.2566 350.554 74.3886 350.106 73.4226 350.106C72.5126 350.106 71.8546 350.512 71.4906 350.82V346.886ZM79.6688 356.826L84.2328 347.026H82.8468L78.2828 356.826H79.6688ZM85.4868 350.246V356.826H86.8168V352.304C87.1948 351.856 87.8528 351.366 88.6648 351.366C89.1688 351.366 89.6448 351.59 89.9388 351.94C90.1768 352.22 90.3168 352.584 90.3168 353.256V356.826H91.6468V353.466C91.6468 353.004 91.6048 352.626 91.5348 352.304C91.9688 351.856 92.5848 351.366 93.5368 351.366C94.0268 351.366 94.4748 351.59 94.7688 351.94C95.0068 352.22 95.1468 352.584 95.1468 353.256V356.826H96.4768V353.466C96.4768 352.36 96.2808 351.716 95.8748 351.212C95.3288 350.526 94.4748 350.106 93.5368 350.106C92.3468 350.106 91.6328 350.596 91.0308 351.198C90.4848 350.54 89.6728 350.106 88.7068 350.106C87.8108 350.106 87.0408 350.582 86.7748 350.876V350.246H85.4868ZM104.517 353.816C104.531 353.69 104.531 353.592 104.531 353.536C104.531 351.59 103.201 350.106 101.367 350.106C99.5052 350.106 98.1612 351.562 98.1612 353.536C98.1612 355.51 99.6452 356.966 101.563 356.966C102.907 356.966 103.845 356.364 104.335 355.734L103.467 354.908C103.089 355.328 102.557 355.804 101.577 355.804C100.429 355.804 99.5192 354.922 99.4492 353.816H104.517ZM101.409 351.268C102.193 351.268 102.949 351.856 103.145 352.696H99.5612C99.7852 351.842 100.555 351.268 101.409 351.268ZM111.152 356.826H112.44V346.886H111.11V350.82C110.522 350.33 109.808 350.106 109.094 350.106C108.478 350.106 107.932 350.26 107.484 350.526C106.49 351.114 105.79 352.22 105.79 353.536C105.79 354.852 106.476 355.944 107.47 356.532C107.918 356.798 108.534 356.966 109.122 356.966C109.906 356.966 110.62 356.7 111.152 356.224V356.826ZM111.11 354.768C110.662 355.37 109.976 355.706 109.304 355.706C108.03 355.706 107.12 354.712 107.12 353.536C107.12 352.388 107.96 351.366 109.234 351.366C110.032 351.366 110.704 351.772 111.11 352.304V354.768ZM114.827 356.826H116.157V350.246H114.827V356.826ZM114.617 347.908C114.617 348.398 114.995 348.776 115.485 348.776C115.975 348.776 116.367 348.398 116.367 347.908C116.367 347.418 115.975 347.026 115.485 347.026C114.995 347.026 114.617 347.418 114.617 347.908ZM123.334 356.826H124.622V350.246H123.334V350.848C122.732 350.33 122.018 350.106 121.276 350.106C120.66 350.106 120.114 350.26 119.666 350.526C118.672 351.114 117.972 352.22 117.972 353.536C117.972 354.852 118.658 355.944 119.652 356.532C120.1 356.798 120.716 356.966 121.304 356.966C122.088 356.966 122.802 356.7 123.334 356.224V356.826ZM123.292 354.768C122.844 355.37 122.158 355.706 121.486 355.706C120.212 355.706 119.302 354.712 119.302 353.536C119.302 352.388 120.142 351.366 121.416 351.366C122.214 351.366 122.886 351.772 123.292 352.304V354.768ZM130.152 356.056C130.88 356.644 131.762 356.966 132.812 356.966C134.1 356.966 135.262 356.196 135.262 354.95C135.262 353.592 133.904 353.13 132.868 352.864C132.21 352.696 131.692 352.542 131.692 352.094C131.692 351.576 132.238 351.268 132.882 351.268C133.414 351.268 133.89 351.478 134.296 351.786L134.982 350.834C134.464 350.414 133.764 350.106 132.798 350.106C131.622 350.106 130.362 350.75 130.362 352.164C130.362 353.088 131.076 353.592 131.874 353.858C132.84 354.18 133.932 354.222 133.932 354.978C133.932 355.496 133.358 355.804 132.784 355.804C132.126 355.804 131.454 355.552 130.838 355.076L130.152 356.056ZM140.878 355.622C140.682 355.678 140.346 355.706 140.15 355.706C139.8 355.706 139.422 355.58 139.24 355.356C139.072 355.16 139.044 354.866 139.044 354.516V351.436H141.144V350.246H139.044V348.426H137.714V350.246H136.034V351.436H137.714V354.446C137.714 355.16 137.854 355.762 138.246 356.196C138.666 356.672 139.282 356.966 140.108 356.966C140.486 356.966 140.892 356.91 141.144 356.826L140.878 355.622ZM145.763 356.966C146.673 356.966 147.401 356.504 147.695 356.224V356.826H148.983V350.246H147.653V354.768C147.275 355.216 146.617 355.706 145.805 355.706C145.301 355.706 144.825 355.482 144.531 355.132C144.293 354.852 144.153 354.488 144.153 353.816V350.246H142.823V353.606C142.823 354.712 143.019 355.356 143.425 355.86C143.971 356.546 144.825 356.966 145.763 356.966ZM156.16 356.826H157.448V346.886H156.118V350.82C155.53 350.33 154.816 350.106 154.102 350.106C153.486 350.106 152.94 350.26 152.492 350.526C151.498 351.114 150.798 352.22 150.798 353.536C150.798 354.852 151.484 355.944 152.478 356.532C152.926 356.798 153.542 356.966 154.13 356.966C154.914 356.966 155.628 356.7 156.16 356.224V356.826ZM156.118 354.768C155.67 355.37 154.984 355.706 154.312 355.706C153.038 355.706 152.128 354.712 152.128 353.536C152.128 352.388 152.968 351.366 154.242 351.366C155.04 351.366 155.712 351.772 156.118 352.304V354.768ZM159.834 356.826H161.164V350.246H159.834V356.826ZM159.624 347.908C159.624 348.398 160.002 348.776 160.492 348.776C160.982 348.776 161.374 348.398 161.374 347.908C161.374 347.418 160.982 347.026 160.492 347.026C160.002 347.026 159.624 347.418 159.624 347.908ZM169.336 353.816C169.35 353.69 169.35 353.592 169.35 353.536C169.35 351.59 168.02 350.106 166.186 350.106C164.324 350.106 162.98 351.562 162.98 353.536C162.98 355.51 164.464 356.966 166.382 356.966C167.726 356.966 168.664 356.364 169.154 355.734L168.286 354.908C167.908 355.328 167.376 355.804 166.396 355.804C165.248 355.804 164.338 354.922 164.268 353.816H169.336ZM166.228 351.268C167.012 351.268 167.768 351.856 167.964 352.696H164.38C164.604 351.842 165.374 351.268 166.228 351.268ZM170.538 356.056C171.266 356.644 172.148 356.966 173.198 356.966C174.486 356.966 175.648 356.196 175.648 354.95C175.648 353.592 174.29 353.13 173.254 352.864C172.596 352.696 172.078 352.542 172.078 352.094C172.078 351.576 172.624 351.268 173.268 351.268C173.8 351.268 174.276 351.478 174.682 351.786L175.368 350.834C174.85 350.414 174.15 350.106 173.184 350.106C172.008 350.106 170.748 350.75 170.748 352.164C170.748 353.088 171.462 353.592 172.26 353.858C173.226 354.18 174.318 354.222 174.318 354.978C174.318 355.496 173.744 355.804 173.17 355.804C172.512 355.804 171.84 355.552 171.224 355.076L170.538 356.056ZM182.643 356.252C183.175 356.714 183.847 356.966 184.631 356.966C185.219 356.966 185.835 356.798 186.283 356.532C187.277 355.944 187.963 354.852 187.963 353.536C187.963 352.22 187.263 351.114 186.269 350.526C185.821 350.26 185.275 350.106 184.659 350.106C183.917 350.106 183.203 350.33 182.601 350.848V350.246H181.313V360.186H182.643V356.252ZM182.643 352.304C183.049 351.772 183.721 351.366 184.519 351.366C185.793 351.366 186.633 352.388 186.633 353.536C186.633 354.712 185.723 355.706 184.449 355.706C183.777 355.706 183.091 355.37 182.643 354.768V352.304ZM194.592 356.826H195.88V350.246H194.592V350.848C193.99 350.33 193.276 350.106 192.534 350.106C191.918 350.106 191.372 350.26 190.924 350.526C189.93 351.114 189.23 352.22 189.23 353.536C189.23 354.852 189.916 355.944 190.91 356.532C191.358 356.798 191.974 356.966 192.562 356.966C193.346 356.966 194.06 356.7 194.592 356.224V356.826ZM194.55 354.768C194.102 355.37 193.416 355.706 192.744 355.706C191.47 355.706 190.56 354.712 190.56 353.536C190.56 352.388 191.4 351.366 192.674 351.366C193.472 351.366 194.144 351.772 194.55 352.304V354.768ZM199.596 356.252C200.128 356.714 200.8 356.966 201.584 356.966C202.172 356.966 202.788 356.798 203.236 356.532C204.23 355.944 204.916 354.852 204.916 353.536C204.916 352.22 204.216 351.114 203.222 350.526C202.774 350.26 202.228 350.106 201.612 350.106C200.87 350.106 200.156 350.33 199.554 350.848V350.246H198.266V360.186H199.596V356.252ZM199.596 352.304C200.002 351.772 200.674 351.366 201.472 351.366C202.746 351.366 203.586 352.388 203.586 353.536C203.586 354.712 202.676 355.706 201.402 355.706C200.73 355.706 200.044 355.37 199.596 354.768V352.304ZM212.539 353.816C212.553 353.69 212.553 353.592 212.553 353.536C212.553 351.59 211.223 350.106 209.389 350.106C207.527 350.106 206.183 351.562 206.183 353.536C206.183 355.51 207.667 356.966 209.585 356.966C210.929 356.966 211.867 356.364 212.357 355.734L211.489 354.908C211.111 355.328 210.579 355.804 209.599 355.804C208.451 355.804 207.541 354.922 207.471 353.816H212.539ZM209.431 351.268C210.215 351.268 210.971 351.856 211.167 352.696H207.583C207.807 351.842 208.577 351.268 209.431 351.268ZM218.152 350.148C217.998 350.12 217.774 350.106 217.634 350.106C216.668 350.106 215.982 350.554 215.66 351.002V350.246H214.372V356.826H215.702V352.472C216.066 351.842 216.794 351.366 217.48 351.366C217.69 351.366 217.844 351.38 217.998 351.422L218.152 350.148ZM219.06 356.056C219.788 356.644 220.67 356.966 221.72 356.966C223.008 356.966 224.17 356.196 224.17 354.95C224.17 353.592 222.812 353.13 221.776 352.864C221.118 352.696 220.6 352.542 220.6 352.094C220.6 351.576 221.146 351.268 221.79 351.268C222.322 351.268 222.798 351.478 223.204 351.786L223.89 350.834C223.372 350.414 222.672 350.106 221.706 350.106C220.53 350.106 219.27 350.75 219.27 352.164C219.27 353.088 219.984 353.592 220.782 353.858C221.748 354.18 222.84 354.222 222.84 354.978C222.84 355.496 222.266 355.804 221.692 355.804C221.034 355.804 220.362 355.552 219.746 355.076L219.06 356.056Z" fill="white" fill-opacity="0.5"/>
<path d="M106.041 286.39C105.747 286.838 105.159 287.286 104.417 287.286C103.311 287.286 102.541 286.502 102.541 285.438C102.541 284.402 103.325 283.576 104.375 283.576C105.033 283.576 105.579 283.912 105.943 284.388L107.231 283.254C106.601 282.442 105.551 281.896 104.375 281.896C102.303 281.896 100.721 283.464 100.721 285.438C100.721 287.398 102.261 288.966 104.361 288.966C105.635 288.966 106.643 288.504 107.441 287.44L106.041 286.39ZM108.282 285.438C108.282 287.398 109.836 288.966 111.894 288.966C113.952 288.966 115.506 287.398 115.506 285.438C115.506 283.478 113.952 281.896 111.894 281.896C109.836 281.896 108.282 283.478 108.282 285.438ZM110.102 285.438C110.102 284.416 110.83 283.576 111.894 283.576C112.958 283.576 113.686 284.416 113.686 285.438C113.686 286.46 112.958 287.286 111.894 287.286C110.83 287.286 110.102 286.46 110.102 285.438ZM118.865 288.826V284.416C119.117 284.094 119.677 283.576 120.447 283.576C120.797 283.576 121.189 283.688 121.469 283.996C121.679 284.234 121.805 284.542 121.805 285.158V288.826H123.625V285.228C123.625 284.948 123.597 284.696 123.569 284.472C123.807 284.122 124.423 283.576 125.207 283.576C125.557 283.576 125.949 283.688 126.229 283.996C126.439 284.234 126.565 284.542 126.565 285.158V288.826H128.385V285.228C128.385 284.22 128.133 283.52 127.699 282.988C127.153 282.316 126.257 281.896 125.319 281.896C124.311 281.896 123.457 282.386 122.911 282.96C122.379 282.316 121.553 281.896 120.629 281.896C119.971 281.896 119.327 282.106 118.795 282.582V282.036H117.045V288.826H118.865ZM130.348 292.186H132.168V288.35C132.714 288.77 133.302 288.966 133.988 288.966C134.996 288.966 135.962 288.518 136.564 287.818C137.096 287.202 137.418 286.362 137.418 285.438C137.418 283.436 135.934 281.896 134.086 281.896C133.316 281.896 132.63 282.148 132.098 282.582V282.036H130.348V292.186ZM132.168 284.416C132.546 283.912 133.148 283.576 133.848 283.576C134.912 283.576 135.598 284.458 135.598 285.438C135.598 286.502 134.828 287.286 133.806 287.286C133.12 287.286 132.518 286.95 132.168 286.446V284.416ZM143.844 286.712C143.522 287.062 142.906 287.496 142.136 287.496C141.17 287.496 140.4 286.838 140.302 285.886H145.006C145.034 285.732 145.048 285.55 145.048 285.368C145.048 283.478 143.718 281.896 141.842 281.896C139.826 281.896 138.538 283.548 138.538 285.438C138.538 287.566 140.064 288.966 142.094 288.966C143.144 288.966 144.222 288.532 144.88 287.748L143.844 286.712ZM140.386 284.556C140.47 283.94 141.086 283.366 141.842 283.366C142.584 283.366 143.13 283.954 143.186 284.556H140.386ZM151.283 287.286C151.157 287.314 150.807 287.356 150.541 287.356C150.093 287.356 149.799 287.23 149.617 287.02C149.463 286.838 149.393 286.586 149.393 286.166V283.576H151.633V282.036H149.393V280.146H147.573V282.036H145.683V283.576H147.573V285.956C147.573 286.922 147.727 287.524 148.077 287.986C148.539 288.602 149.337 288.966 150.429 288.966C150.779 288.966 151.325 288.91 151.563 288.826L151.283 287.286ZM155.205 282.036H153.385V288.826H155.205V282.036ZM153.105 279.628C153.105 280.286 153.637 280.79 154.295 280.79C154.953 280.79 155.485 280.286 155.485 279.628C155.485 278.97 154.953 278.466 154.295 278.466C153.637 278.466 153.105 278.97 153.105 279.628ZM162.139 287.286C162.013 287.314 161.663 287.356 161.397 287.356C160.949 287.356 160.655 287.23 160.473 287.02C160.319 286.838 160.249 286.586 160.249 286.166V283.576H162.489V282.036H160.249V280.146H158.429V282.036H156.539V283.576H158.429V285.956C158.429 286.922 158.583 287.524 158.933 287.986C159.395 288.602 160.193 288.966 161.285 288.966C161.635 288.966 162.181 288.91 162.419 288.826L162.139 287.286ZM166.06 282.036H164.24V288.826H166.06V282.036ZM163.96 279.628C163.96 280.286 164.492 280.79 165.15 280.79C165.808 280.79 166.34 280.286 166.34 279.628C166.34 278.97 165.808 278.466 165.15 278.466C164.492 278.466 163.96 278.97 163.96 279.628ZM169.144 282.036H167.254L170.376 288.826H171.636L174.758 282.036H172.868L171.006 286.18L169.144 282.036ZM180.484 286.712C180.162 287.062 179.546 287.496 178.776 287.496C177.81 287.496 177.04 286.838 176.942 285.886H181.646C181.674 285.732 181.688 285.55 181.688 285.368C181.688 283.478 180.358 281.896 178.482 281.896C176.466 281.896 175.178 283.548 175.178 285.438C175.178 287.566 176.704 288.966 178.734 288.966C179.784 288.966 180.862 288.532 181.52 287.748L180.484 286.712ZM177.026 284.556C177.11 283.94 177.726 283.366 178.482 283.366C179.224 283.366 179.77 283.954 179.826 284.556H177.026ZM191.694 286.446C191.344 286.95 190.742 287.286 190.056 287.286C189.034 287.286 188.264 286.502 188.264 285.438C188.264 284.458 188.95 283.576 190.014 283.576C190.714 283.576 191.316 283.912 191.694 284.416V286.446ZM193.514 282.036H191.764V282.582C191.232 282.148 190.546 281.896 189.776 281.896C187.928 281.896 186.444 283.436 186.444 285.438C186.444 286.362 186.78 287.202 187.312 287.818C187.914 288.518 188.866 288.966 189.874 288.966C190.56 288.966 191.204 288.756 191.764 288.28V288.826H193.514V282.036ZM197.437 288.826V284.416C197.689 284.066 198.319 283.576 199.089 283.576C199.509 283.576 199.873 283.716 200.111 283.954C200.363 284.206 200.517 284.556 200.517 285.228V288.826H202.337V285.368C202.337 284.206 202.085 283.52 201.637 282.988C201.077 282.316 200.223 281.896 199.285 281.896C198.529 281.896 197.885 282.162 197.367 282.582V282.036H195.617V288.826H197.437ZM208.989 286.446C208.639 286.95 208.037 287.286 207.351 287.286C206.329 287.286 205.559 286.502 205.559 285.438C205.559 284.458 206.245 283.576 207.309 283.576C208.009 283.576 208.611 283.912 208.989 284.416V286.446ZM210.809 282.036H209.059V282.582C208.527 282.148 207.841 281.896 207.071 281.896C205.223 281.896 203.739 283.436 203.739 285.438C203.739 286.362 204.075 287.202 204.607 287.818C205.209 288.518 206.161 288.966 207.169 288.966C207.855 288.966 208.499 288.756 209.059 288.28V288.826H210.809V282.036ZM214.732 278.886H212.912V288.826H214.732V278.886ZM218.992 292.186L223.668 282.036H221.75L219.916 286.11L217.928 282.036H215.926L218.964 288.14L217.088 292.186H218.992ZM224.121 288.056C224.919 288.644 225.913 288.966 226.851 288.966C228.279 288.966 229.553 288.168 229.553 286.866C229.553 284.514 226.263 284.864 226.263 283.982C226.263 283.632 226.683 283.436 227.187 283.436C227.677 283.436 228.139 283.646 228.489 283.898L229.343 282.582C228.895 282.232 227.929 281.896 227.047 281.896C225.703 281.896 224.443 282.708 224.443 284.01C224.443 286.194 227.733 285.83 227.733 286.852C227.733 287.188 227.355 287.426 226.865 287.426C226.179 287.426 225.465 287.174 225.003 286.754L224.121 288.056ZM233.053 282.036H231.233V288.826H233.053V282.036ZM230.953 279.628C230.953 280.286 231.485 280.79 232.143 280.79C232.801 280.79 233.333 280.286 233.333 279.628C233.333 278.97 232.801 278.466 232.143 278.466C231.485 278.466 230.953 278.97 230.953 279.628ZM234.484 288.056C235.282 288.644 236.276 288.966 237.214 288.966C238.642 288.966 239.916 288.168 239.916 286.866C239.916 284.514 236.626 284.864 236.626 283.982C236.626 283.632 237.046 283.436 237.55 283.436C238.04 283.436 238.502 283.646 238.852 283.898L239.706 282.582C239.258 282.232 238.292 281.896 237.41 281.896C236.066 281.896 234.806 282.708 234.806 284.01C234.806 286.194 238.096 285.83 238.096 286.852C238.096 287.188 237.718 287.426 237.228 287.426C236.542 287.426 235.828 287.174 235.366 286.754L234.484 288.056ZM128.091 298.952C127.895 298.924 127.741 298.896 127.475 298.896C126.649 298.896 125.907 299.218 125.501 299.722V299.036H123.751V305.826H125.571V301.556C125.795 301.15 126.425 300.576 127.223 300.576C127.489 300.576 127.755 300.604 127.881 300.646L128.091 298.952ZM134.034 303.712C133.712 304.062 133.096 304.496 132.326 304.496C131.36 304.496 130.59 303.838 130.492 302.886H135.196C135.224 302.732 135.238 302.55 135.238 302.368C135.238 300.478 133.908 298.896 132.032 298.896C130.016 298.896 128.728 300.548 128.728 302.438C128.728 304.566 130.254 305.966 132.284 305.966C133.334 305.966 134.412 305.532 135.07 304.748L134.034 303.712ZM130.576 301.556C130.66 300.94 131.276 300.366 132.032 300.366C132.774 300.366 133.32 300.954 133.376 301.556H130.576ZM138.6 295.886H136.78V305.826H138.6V295.886ZM145.394 303.446C145.044 303.95 144.442 304.286 143.756 304.286C142.734 304.286 141.964 303.502 141.964 302.438C141.964 301.458 142.65 300.576 143.714 300.576C144.414 300.576 145.016 300.912 145.394 301.416V303.446ZM147.214 299.036H145.464V299.582C144.932 299.148 144.246 298.896 143.476 298.896C141.628 298.896 140.144 300.436 140.144 302.438C140.144 303.362 140.48 304.202 141.012 304.818C141.614 305.518 142.566 305.966 143.574 305.966C144.26 305.966 144.904 305.756 145.464 305.28V305.826H147.214V299.036ZM154.148 304.286C154.022 304.314 153.672 304.356 153.406 304.356C152.958 304.356 152.664 304.23 152.482 304.02C152.328 303.838 152.258 303.586 152.258 303.166V300.576H154.498V299.036H152.258V297.146H150.438V299.036H148.548V300.576H150.438V302.956C150.438 303.922 150.592 304.524 150.942 304.986C151.404 305.602 152.202 305.966 153.294 305.966C153.644 305.966 154.19 305.91 154.428 305.826L154.148 304.286ZM160.79 303.712C160.468 304.062 159.852 304.496 159.082 304.496C158.116 304.496 157.346 303.838 157.248 302.886H161.952C161.98 302.732 161.994 302.55 161.994 302.368C161.994 300.478 160.664 298.896 158.788 298.896C156.772 298.896 155.484 300.548 155.484 302.438C155.484 304.566 157.01 305.966 159.04 305.966C160.09 305.966 161.168 305.532 161.826 304.748L160.79 303.712ZM157.332 301.556C157.416 300.94 158.032 300.366 158.788 300.366C159.53 300.366 160.076 300.954 160.132 301.556H157.332ZM168.363 303.446C168.013 303.95 167.411 304.286 166.725 304.286C165.703 304.286 164.933 303.502 164.933 302.438C164.933 301.458 165.619 300.576 166.683 300.576C167.383 300.576 167.985 300.912 168.363 301.416V303.446ZM170.183 305.826V295.886H168.363V299.526C167.831 299.106 167.187 298.896 166.445 298.896C164.597 298.896 163.113 300.436 163.113 302.438C163.113 303.362 163.449 304.202 163.981 304.818C164.583 305.518 165.535 305.966 166.543 305.966C167.229 305.966 167.873 305.756 168.433 305.28V305.826H170.183ZM180.4 298.952C180.204 298.924 180.05 298.896 179.784 298.896C178.958 298.896 178.216 299.218 177.81 299.722V299.036H176.06V305.826H177.88V301.556C178.104 301.15 178.734 300.576 179.532 300.576C179.798 300.576 180.064 300.604 180.19 300.646L180.4 298.952ZM186.343 303.712C186.021 304.062 185.405 304.496 184.635 304.496C183.669 304.496 182.899 303.838 182.801 302.886H187.505C187.533 302.732 187.547 302.55 187.547 302.368C187.547 300.478 186.217 298.896 184.341 298.896C182.325 298.896 181.037 300.548 181.037 302.438C181.037 304.566 182.563 305.966 184.593 305.966C185.643 305.966 186.721 305.532 187.379 304.748L186.343 303.712ZM182.885 301.556C182.969 300.94 183.585 300.366 184.341 300.366C185.083 300.366 185.629 300.954 185.685 301.556H182.885ZM193.916 303.446C193.566 303.95 192.964 304.286 192.278 304.286C191.256 304.286 190.486 303.502 190.486 302.438C190.486 301.458 191.172 300.576 192.236 300.576C192.936 300.576 193.538 300.912 193.916 301.416V303.446ZM195.736 299.036H193.986V299.582C193.454 299.148 192.768 298.896 191.998 298.896C190.15 298.896 188.666 300.436 188.666 302.438C188.666 303.362 189.002 304.202 189.534 304.818C190.136 305.518 191.088 305.966 192.096 305.966C192.782 305.966 193.426 305.756 193.986 305.28V305.826H195.736V299.036ZM202.529 303.446C202.179 303.95 201.577 304.286 200.891 304.286C199.869 304.286 199.099 303.502 199.099 302.438C199.099 301.458 199.785 300.576 200.849 300.576C201.549 300.576 202.151 300.912 202.529 301.416V303.446ZM204.349 305.826V295.886H202.529V299.526C201.997 299.106 201.353 298.896 200.611 298.896C198.763 298.896 197.279 300.436 197.279 302.438C197.279 303.362 197.615 304.202 198.147 304.818C198.749 305.518 199.701 305.966 200.709 305.966C201.395 305.966 202.039 305.756 202.599 305.28V305.826H204.349ZM208.272 299.036H206.452V305.826H208.272V299.036ZM206.172 296.628C206.172 297.286 206.704 297.79 207.362 297.79C208.02 297.79 208.552 297.286 208.552 296.628C208.552 295.97 208.02 295.466 207.362 295.466C206.704 295.466 206.172 295.97 206.172 296.628ZM212.196 305.826V301.416C212.448 301.066 213.078 300.576 213.848 300.576C214.268 300.576 214.632 300.716 214.87 300.954C215.122 301.206 215.276 301.556 215.276 302.228V305.826H217.096V302.368C217.096 301.206 216.844 300.52 216.396 299.988C215.836 299.316 214.982 298.896 214.044 298.896C213.288 298.896 212.644 299.162 212.126 299.582V299.036H210.376V305.826H212.196ZM225.568 299.036H223.818V299.582C223.286 299.148 222.6 298.896 221.83 298.896C219.982 298.896 218.498 300.436 218.498 302.438C218.498 303.362 218.82 304.202 219.352 304.818C219.954 305.518 220.92 305.966 221.928 305.966C222.614 305.966 223.202 305.77 223.748 305.35V305.574C223.748 306.442 223.608 306.862 223.328 307.17C223.02 307.534 222.53 307.716 221.942 307.716C220.822 307.716 220.192 307.128 219.828 306.736L218.68 307.926C219.352 308.71 220.612 309.326 221.942 309.326C223.244 309.326 224.336 308.822 224.952 307.968C225.358 307.394 225.568 306.666 225.568 305.448V299.036ZM223.748 303.446C223.398 303.95 222.796 304.286 222.11 304.286C221.088 304.286 220.318 303.502 220.318 302.438C220.318 301.458 221.004 300.576 222.068 300.576C222.768 300.576 223.37 300.912 223.748 301.416V303.446ZM226.999 305.056C227.797 305.644 228.791 305.966 229.729 305.966C231.157 305.966 232.431 305.168 232.431 303.866C232.431 301.514 229.141 301.864 229.141 300.982C229.141 300.632 229.561 300.436 230.065 300.436C230.555 300.436 231.017 300.646 231.367 300.898L232.221 299.582C231.773 299.232 230.807 298.896 229.925 298.896C228.581 298.896 227.321 299.708 227.321 301.01C227.321 303.194 230.611 302.83 230.611 303.852C230.611 304.188 230.233 304.426 229.743 304.426C229.057 304.426 228.343 304.174 227.881 303.754L226.999 305.056ZM37.4123 335.836C38.6723 335.836 39.4283 335.528 39.9603 334.968C40.4503 334.464 40.7303 333.708 40.7303 332.938C40.7303 332.168 40.4503 331.412 39.9603 330.908C39.4143 330.334 38.6723 330.026 37.4123 330.026H33.7303V339.826H35.6203V335.836H37.4123ZM35.6203 334.156V331.706H37.3283C37.9723 331.706 38.2943 331.86 38.5183 332.098C38.7283 332.322 38.8403 332.616 38.8403 332.938C38.8403 333.26 38.7283 333.54 38.5183 333.764C38.2943 334.002 37.9723 334.156 37.3283 334.156H35.6203ZM46.6748 333.036V337.446C46.4228 337.768 45.8628 338.286 45.0928 338.286C44.7428 338.286 44.3508 338.174 44.0708 337.866C43.8608 337.628 43.7348 337.32 43.7348 336.704V333.036H41.9148V336.634C41.9148 337.642 42.1668 338.342 42.6008 338.874C43.1328 339.532 43.9728 339.966 44.9108 339.966C45.5688 339.966 46.2128 339.756 46.7448 339.28V339.826H48.4948V333.036H46.6748ZM54.9397 332.952C54.7437 332.924 54.5897 332.896 54.3237 332.896C53.4977 332.896 52.7557 333.218 52.3497 333.722V333.036H50.5997V339.826H52.4197V335.556C52.6437 335.15 53.2737 334.576 54.0717 334.576C54.3377 334.576 54.6037 334.604 54.7297 334.646L54.9397 332.952ZM56.3419 343.186H58.1619V339.35C58.7079 339.77 59.2959 339.966 59.9819 339.966C60.9899 339.966 61.9559 339.518 62.5579 338.818C63.0899 338.202 63.4119 337.362 63.4119 336.438C63.4119 334.436 61.9279 332.896 60.0799 332.896C59.3099 332.896 58.6239 333.148 58.0919 333.582V333.036H56.3419V343.186ZM58.1619 335.416C58.5399 334.912 59.1419 334.576 59.8419 334.576C60.9059 334.576 61.5919 335.458 61.5919 336.438C61.5919 337.502 60.8219 338.286 59.7999 338.286C59.1139 338.286 58.5119 337.95 58.1619 337.446V335.416ZM64.5319 336.438C64.5319 338.398 66.0859 339.966 68.1439 339.966C70.2019 339.966 71.7559 338.398 71.7559 336.438C71.7559 334.478 70.2019 332.896 68.1439 332.896C66.0859 332.896 64.5319 334.478 64.5319 336.438ZM66.3519 336.438C66.3519 335.416 67.0799 334.576 68.1439 334.576C69.2079 334.576 69.9359 335.416 69.9359 336.438C69.9359 337.46 69.2079 338.286 68.1439 338.286C67.0799 338.286 66.3519 337.46 66.3519 336.438ZM72.623 339.056C73.421 339.644 74.415 339.966 75.353 339.966C76.781 339.966 78.055 339.168 78.055 337.866C78.055 335.514 74.765 335.864 74.765 334.982C74.765 334.632 75.185 334.436 75.689 334.436C76.179 334.436 76.641 334.646 76.991 334.898L77.845 333.582C77.397 333.232 76.431 332.896 75.549 332.896C74.205 332.896 72.945 333.708 72.945 335.01C72.945 337.194 76.235 336.83 76.235 337.852C76.235 338.188 75.857 338.426 75.367 338.426C74.681 338.426 73.967 338.174 73.505 337.754L72.623 339.056ZM84.4805 337.712C84.1585 338.062 83.5425 338.496 82.7725 338.496C81.8065 338.496 81.0365 337.838 80.9385 336.886H85.6425C85.6705 336.732 85.6845 336.55 85.6845 336.368C85.6845 334.478 84.3545 332.896 82.4785 332.896C80.4625 332.896 79.1745 334.548 79.1745 336.438C79.1745 338.566 80.7005 339.966 82.7305 339.966C83.7805 339.966 84.8585 339.532 85.5165 338.748L84.4805 337.712ZM81.0225 335.556C81.1065 334.94 81.7225 334.366 82.4785 334.366C83.2205 334.366 83.7665 334.954 83.8225 335.556H81.0225ZM87.7167 334.1C87.7167 334.786 88.2487 335.29 88.9347 335.29C89.6207 335.29 90.1667 334.786 90.1667 334.1C90.1667 333.414 89.6207 332.896 88.9347 332.896C88.2487 332.896 87.7167 333.414 87.7167 334.1ZM87.7167 338.776C87.7167 339.462 88.2487 339.966 88.9347 339.966C89.6207 339.966 90.1667 339.462 90.1667 338.776C90.1667 338.09 89.6207 337.572 88.9347 337.572C88.2487 337.572 87.7167 338.09 87.7167 338.776Z" fill="white" fill-opacity="0.8"/>
<path d="M208.195 41.3966H63.5049V170.056H208.195V41.3966Z" fill="#13B2EA"/>
<path d="M74.9589 56.1977C76.8692 56.1977 78.4178 54.6515 78.4178 52.7441C78.4178 50.8368 76.8692 49.2905 74.9589 49.2905C73.0486 49.2905 71.5 50.8368 71.5 52.7441C71.5 54.6515 73.0486 56.1977 74.9589 56.1977Z" fill="#E5ECEF"/>
<path d="M84.7011 56.1977C86.6113 56.1977 88.1599 54.6515 88.1599 52.7441C88.1599 50.8368 86.6113 49.2905 84.7011 49.2905C82.7908 49.2905 81.2422 50.8368 81.2422 52.7441C81.2422 54.6515 82.7908 56.1977 84.7011 56.1977Z" fill="#1084AC"/>
<path d="M94.038 56.1977C95.9483 56.1977 97.4969 54.6515 97.4969 52.7441C97.4969 50.8368 95.9483 49.2905 94.038 49.2905C92.1277 49.2905 90.5791 50.8368 90.5791 52.7441C90.5791 54.6515 92.1277 56.1977 94.038 56.1977Z" fill="#24285B"/>
<path d="M162.957 48.7531H109.363V56.7353H162.957V48.7531Z" fill="white"/>
<path opacity="0.09" d="M134.836 76.6249C134.836 76.6249 150.095 91.3523 142.292 105.145C142.041 105.586 141.783 106.006 141.51 106.426C137.823 112.081 132.063 116.043 126.023 118.797C123.646 119.878 121.196 120.793 118.692 121.536C116.701 122.133 114.171 122.346 112.792 124.069C112.289 124.749 111.877 125.492 111.568 126.278C110.608 128.276 109.974 130.414 109.687 132.611C109.51 134.68 110.115 136.713 110.218 138.789C110.528 145.13 108.175 151.396 104.599 156.654C102.383 159.834 99.8312 162.767 96.9875 165.402C95.5863 166.727 94.1481 168.068 92.6363 169.275C91.5374 170.144 90.9621 170.063 89.6199 170.012C85.7775 170.012 81.9351 170.012 78.0928 170.012L91.589 134.577L103.234 111.75C103.234 111.75 124.061 110.947 130.566 102.501C137.071 94.0548 134.836 76.6249 134.836 76.6249Z" fill="black"/>
<path d="M227.466 66.2791H161.128V157.251H227.466V66.2791Z" fill="#24285B"/>
<path d="M70.4971 144.916C70.4971 144.916 80.9622 117.368 96.2137 119.717C111.465 122.066 112.667 168.097 74.8262 167.25L70.4971 144.916Z" fill="#F4A28C"/>
<path opacity="0.1" d="M105.941 141.647C104.975 149.658 101.014 157.942 93.0494 162.847C89.3003 165.099 85.1051 166.508 80.7553 166.978C78.7804 167.21 76.7915 167.301 74.8036 167.25L70.4893 144.916C70.4893 144.916 80.9618 117.368 96.2133 119.717C100.638 120.402 103.905 124.798 105.351 130.66C106.197 134.258 106.397 137.978 105.941 141.647V141.647Z" fill="black"/>
<path opacity="0.1" d="M105.941 141.646C102.151 146.064 95.4026 148.627 94.2447 155.453C93.8317 157.891 93.4187 160.46 93.05 162.817C89.3009 165.069 85.1057 166.478 80.7559 166.948L82.9684 152.589L104.525 129.879C104.809 130.123 105.077 130.383 105.329 130.659C106.183 134.257 106.39 137.977 105.941 141.646V141.646Z" fill="black"/>
<path d="M108.569 112.208L99.8203 109.377L93.9645 127.415L102.713 130.246L108.569 112.208Z" fill="#C9C9C9"/>
<path d="M119.82 63.245C114.667 61.5772 109.134 61.4728 103.921 62.9449C98.7079 64.417 94.0492 67.3995 90.5339 71.5152C87.0186 75.631 84.8046 80.6951 84.1719 86.0673C83.5391 91.4394 84.5161 96.8782 86.9792 101.696C89.4423 106.514 93.2809 110.494 98.0096 113.133C102.738 115.773 108.145 116.953 113.545 116.524C118.945 116.096 124.097 114.078 128.349 110.726C132.601 107.374 135.762 102.838 137.432 97.6925C139.671 90.7926 139.074 83.2871 135.771 76.827C132.468 70.3669 126.731 65.4813 119.82 63.245ZM105.019 108.826C101.142 107.574 97.7238 105.202 95.1968 102.01C92.6699 98.8182 91.1475 94.95 90.8221 90.8944C90.4967 86.8388 91.3828 82.7779 93.3686 79.2251C95.3544 75.6723 98.3505 72.7871 101.978 70.9343C105.606 69.0814 109.703 68.3442 113.75 68.8157C117.797 69.2872 121.614 70.9463 124.717 73.5833C127.82 76.2203 130.071 79.7167 131.184 83.6305C132.297 87.5444 132.223 91.6999 130.971 95.5718C129.287 100.763 125.607 105.073 120.74 107.555C115.873 110.036 110.218 110.486 105.019 108.804V108.826Z" fill="#24285B"/>
<path d="M103.985 124.923L96.0438 122.353C94.215 121.761 92.2519 122.762 91.659 124.588L83.8339 148.691C83.241 150.517 84.243 152.478 86.0719 153.07L94.0135 155.64C95.8424 156.232 97.8055 155.231 98.3983 153.405L106.223 129.301C106.816 127.475 105.814 125.515 103.985 124.923Z" fill="#24285B"/>
<path d="M84.0817 136.182C84.0817 136.182 97.7181 125.969 102.637 127.817C106.693 129.349 105.41 137.692 95.1958 143.222C93.1229 144.33 91.3127 145.871 89.8876 147.738C88.4625 149.606 87.4559 151.757 86.9358 154.047C86.0803 157.891 84.0817 162.309 79.5608 165.188C70.1282 171.248 64.9583 163.907 67.2962 154.143C69.6341 144.378 70.6518 141.499 84.0817 136.182Z" fill="#F4A28C"/>
<path d="M77.9308 192.603L84.4208 164.312L62.9891 154.047L44.6475 192.603H77.9308Z" fill="#1084AC"/>
<path opacity="0.1" d="M77.9304 192.603L84.4204 164.312L74.1913 159.407L64.6406 192.603H77.9304Z" fill="black"/>
<path opacity="0.43" d="M198.682 86.5437H184.33V90.6527H198.682V86.5437Z" fill="#13B2EA"/>
<path opacity="0.36" d="M174.764 94.946C177.786 94.946 180.236 92.4997 180.236 89.4821C180.236 86.4645 177.786 84.0182 174.764 84.0182C171.742 84.0182 169.292 86.4645 169.292 89.4821C169.292 92.4997 171.742 94.946 174.764 94.946Z" fill="#13B2EA"/>
<path d="M203.195 136.757H173.245V145.49H203.195V136.757Z" fill="#1084AC"/>
<path d="M202.716 101.544H173.245V105.174H202.716V101.544Z" fill="#13B2EA"/>
<path opacity="0.44" d="M219.302 111.043H173.245V114.673H219.302V111.043Z" fill="#13B2EA"/>
<path opacity="0.44" d="M219.302 118.996H173.245V122.626H219.302V118.996Z" fill="#13B2EA"/>
<path opacity="0.44" d="M209.397 127.258H173.245V130.888H209.397V127.258Z" fill="#13B2EA"/>
<path d="M167.56 76.0065C168.932 76.0065 170.045 74.8955 170.045 73.5249C170.045 72.1544 168.932 71.0433 167.56 71.0433C166.187 71.0433 165.074 72.1544 165.074 73.5249C165.074 74.8955 166.187 76.0065 167.56 76.0065Z" fill="#E5ECEF"/>
<path d="M174.565 76.0065C175.938 76.0065 177.051 74.8955 177.051 73.5249C177.051 72.1544 175.938 71.0433 174.565 71.0433C173.193 71.0433 172.08 72.1544 172.08 73.5249C172.08 74.8955 173.193 76.0065 174.565 76.0065Z" fill="#1084AC"/>
<path d="M181.276 76.0065C182.649 76.0065 183.762 74.8955 183.762 73.5249C183.762 72.1544 182.649 71.0433 181.276 71.0433C179.904 71.0433 178.791 72.1544 178.791 73.5249C178.791 74.8955 179.904 76.0065 181.276 76.0065Z" fill="white"/>
<path d="M111.597 106.5C108.175 106.506 104.828 105.498 101.98 103.603C99.1322 101.709 96.911 99.014 95.5977 95.8588C94.2844 92.7036 93.9381 89.2303 94.6027 85.8785C95.2673 82.5267 96.9128 79.4471 99.331 77.0295C101.749 74.6119 104.831 72.9649 108.188 72.2971C111.544 71.6292 115.023 71.9705 118.184 73.2777C121.346 74.585 124.048 76.7994 125.949 79.6407C127.85 82.482 128.864 85.8224 128.862 89.2393C128.856 93.8114 127.036 98.195 123.8 101.43C120.564 104.665 116.176 106.488 111.597 106.5V106.5ZM111.597 76.6252C109.099 76.6252 106.656 77.365 104.579 78.7511C102.501 80.1371 100.882 82.1072 99.9256 84.4121C98.9694 86.717 98.7192 89.2533 99.2067 91.7002C99.6942 94.147 100.897 96.3947 102.664 98.1588C104.431 99.9229 106.682 101.124 109.133 101.611C111.583 102.098 114.123 101.848 116.432 100.893C118.74 99.9384 120.713 98.3216 122.102 96.2473C123.49 94.1729 124.231 91.7341 124.231 89.2393C124.229 85.8944 122.897 82.6871 120.528 80.3219C118.16 77.9568 114.947 76.6272 111.597 76.6252V76.6252Z" fill="#D670E7"/>
<path d="M111.598 106.499C107.372 106.502 103.291 104.956 100.13 102.155L103.22 98.6792C105.529 100.727 108.51 101.856 111.598 101.853V106.499Z" fill="#24285B"/>
<path d="M128.862 89.2384H124.209C124.205 85.8941 122.872 82.688 120.504 80.3232C118.136 77.9585 114.925 76.6282 111.575 76.6243V71.9705C116.159 71.9763 120.554 73.7977 123.795 77.035C127.036 80.2723 128.858 84.6611 128.862 89.2384V89.2384Z" fill="#1084AC"/>
<path d="M111.598 106.499V101.852C114.946 101.846 118.156 100.516 120.524 98.1513C122.892 95.787 124.225 92.5819 124.231 89.2383H128.863C128.857 93.8105 127.037 98.194 123.801 101.429C120.565 104.664 116.177 106.487 111.598 106.499Z" fill="#E5ECEF"/>
<path opacity="0.15" d="M123.471 143.59H116.347V155.129H123.471V143.59Z" fill="black"/>
<path opacity="0.15" d="M135.486 131.198H128.361V155.137H135.486V131.198Z" fill="black"/>
<path opacity="0.15" d="M148.156 122.862H141.031V155.137H148.156V122.862Z" fill="black"/>
<path d="M190.812 45.8C192.206 45.7794 193.592 46.0295 194.89 46.5364C195.996 46.9568 197.017 47.5702 197.907 48.3478C198.261 48.6498 198.585 48.9738 198.91 49.2978C199.094 49.5034 199.194 49.7709 199.19 50.0468C199.185 50.3228 199.077 50.587 198.886 50.7867C198.696 50.9865 198.436 51.1071 198.161 51.1246C197.885 51.142 197.612 51.0551 197.398 50.881C197.066 50.5864 196.771 50.2624 196.439 49.9752C195.02 48.7739 193.236 48.085 191.376 48.0195C189.516 47.9541 187.689 48.5159 186.188 49.6144C185.662 50.0055 185.168 50.439 184.713 50.9104C184.517 51.1529 184.239 51.3154 183.931 51.367C183.721 51.397 183.506 51.3649 183.313 51.2746C183.12 51.1844 182.958 51.0399 182.847 50.8589C182.72 50.6708 182.658 50.4457 182.673 50.2191C182.688 49.9925 182.777 49.7772 182.928 49.607C183.555 48.8923 184.263 48.2523 185.037 47.6998C185.971 47.0428 187.008 46.5451 188.105 46.2271C188.983 45.9587 189.894 45.8149 190.812 45.8V45.8Z" fill="#1084AC"/>
<path d="M191.351 49.7765C192.223 49.8183 193.078 50.0336 193.866 50.4098C194.746 50.841 195.526 51.4534 196.152 52.2065C196.337 52.4193 196.438 52.6911 196.438 52.9723C196.438 53.2536 196.337 53.5254 196.152 53.7382C195.986 53.9427 195.754 54.0826 195.495 54.1337C195.236 54.1849 194.968 54.1439 194.736 54.018C194.451 53.8336 194.189 53.6161 193.955 53.37C193.48 52.8849 192.886 52.5335 192.232 52.3512C191.578 52.1689 190.888 52.1622 190.23 52.3317C189.448 52.538 188.743 52.9679 188.202 53.5688C187.983 53.8114 187.735 54.0265 187.465 54.2095C187.235 54.3387 186.968 54.3858 186.708 54.343C186.448 54.3001 186.21 54.1699 186.034 53.9738C185.852 53.7762 185.743 53.5229 185.725 53.2554C185.706 52.988 185.778 52.722 185.931 52.5011C186.177 52.2036 186.443 51.9231 186.727 51.6616C187.09 51.3069 187.49 50.9932 187.922 50.7264C188.634 50.2963 189.427 50.0156 190.252 49.9017C190.614 49.8133 190.982 49.8059 191.351 49.7765Z" fill="#1084AC"/>
<path d="M192.922 56.2347C192.929 56.6132 192.823 56.9854 192.619 57.3042C192.414 57.623 192.12 57.874 191.772 58.0256C191.424 58.1772 191.04 58.2224 190.666 58.1557C190.293 58.089 189.948 57.9132 189.675 57.6507C189.402 57.3882 189.212 57.0506 189.131 56.6807C189.05 56.3109 189.081 55.9253 189.219 55.5727C189.357 55.2202 189.597 54.9165 189.908 54.7001C190.22 54.4837 190.588 54.3643 190.967 54.3569C191.22 54.35 191.471 54.3934 191.706 54.4844C191.941 54.5754 192.156 54.7123 192.338 54.8871C192.52 55.0618 192.665 55.271 192.766 55.5023C192.866 55.7337 192.919 55.9826 192.922 56.2347Z" fill="#1084AC"/>
<g opacity="0.08">
<path opacity="0.08" d="M112.092 49.8807L112.829 52.7231C112.991 53.3491 113.146 53.9308 113.249 54.5052C113.382 53.9382 113.567 53.3417 113.751 52.7379L114.665 49.8807H115.587L116.458 52.679C116.664 53.3491 116.826 53.9382 116.952 54.5052C117.059 53.8935 117.201 53.2886 117.379 52.6937L118.176 49.8807H119.186L117.379 55.4772H116.45L115.587 52.8041C115.396 52.1856 115.233 51.6259 115.093 50.9706C114.956 51.5952 114.786 52.2121 114.584 52.8189L113.677 55.4772H112.755L111.066 49.8807H112.092Z" fill="black"/>
<path opacity="0.08" d="M120.75 49.8798L121.487 52.7222C121.65 53.3481 121.797 53.9298 121.9 54.5042H121.937C122.063 53.9372 122.247 53.3407 122.431 52.7369L123.346 49.8798H124.201L125.072 52.678C125.278 53.3481 125.44 53.9372 125.573 54.5042C125.684 53.8932 125.826 53.2886 126.001 52.6927L126.805 49.8798H127.808L126.001 55.4762H125.079L124.224 52.8032C124.024 52.2012 123.857 51.5891 123.722 50.9696V50.9696C123.588 51.595 123.419 52.2122 123.213 52.8179L122.313 55.4762H121.384L119.695 49.8798H120.75Z" fill="black"/>
<path opacity="0.08" d="M129.416 49.8798L130.153 52.7222C130.316 53.3481 130.47 53.9298 130.574 54.5042C130.706 53.9372 130.891 53.3407 131.075 52.7369L131.99 49.8798H132.845L133.715 52.678C133.922 53.3481 134.084 53.9372 134.21 54.5042H134.246C134.353 53.8925 134.496 53.2876 134.674 52.6927L135.5 49.8798H136.51L134.704 55.4762H133.774L132.919 52.8032C132.727 52.1846 132.565 51.625 132.425 50.9696C132.288 51.5942 132.118 52.2111 131.916 52.8179L131.009 55.4762H130.087L128.391 49.8798H129.416Z" fill="black"/>
<path opacity="0.08" d="M136.835 54.8721C136.825 54.7757 136.835 54.6782 136.865 54.586C136.895 54.4939 136.945 54.409 137.01 54.337C137.075 54.265 137.154 54.2074 137.243 54.168C137.332 54.1286 137.428 54.1083 137.525 54.1083C137.622 54.1083 137.718 54.1286 137.806 54.168C137.895 54.2074 137.975 54.265 138.04 54.337C138.105 54.409 138.154 54.4939 138.184 54.586C138.214 54.6782 138.225 54.7757 138.215 54.8721C138.225 54.9686 138.214 55.066 138.184 55.1582C138.154 55.2504 138.105 55.3352 138.04 55.4072C137.975 55.4792 137.895 55.5368 137.806 55.5762C137.718 55.6156 137.622 55.636 137.525 55.636C137.428 55.636 137.332 55.6156 137.243 55.5762C137.154 55.5368 137.075 55.4792 137.01 55.4072C136.945 55.3352 136.895 55.2504 136.865 55.1582C136.835 55.066 136.825 54.9686 136.835 54.8721V54.8721Z" fill="black"/>
</g>
</g>
<defs>
<clipPath id="clip0_958_1157">
<rect width="271" height="385" fill="white"/>
</clipPath>
</defs>
</svg>
