<svg width="48" height="48" viewBox="0 0 48 48" fill="none" xmlns="http://www.w3.org/2000/svg">
<path fill-rule="evenodd" clip-rule="evenodd" d="M13.144 4.07223C13.9392 5.69676 16.5505 9.8724 16.6179 9.83938C16.6854 9.80636 14.9896 5.18259 14.1945 3.55806C13.3993 1.93352 12.9148 2.10299 12.8474 2.13601C12.7799 2.16903 12.3489 2.44769 13.144 4.07223ZM23.1883 20.3675C21.2881 16.4853 16.7671 9.76637 16.6206 9.83808C16.4741 9.90979 19.0068 17.602 20.9071 21.4841C20.939 21.5494 20.9707 21.6135 21.0022 21.6764C20.7511 21.579 20.4794 21.4798 20.1853 21.379C16.106 19.9808 8.17652 18.4303 8.12376 18.5842C8.071 18.7381 15.2844 22.3779 19.3637 23.7761C20.1144 24.0335 20.7437 24.2096 21.2713 24.3248C20.6977 24.507 19.9899 24.7911 19.1172 25.2183C15.235 27.1185 8.51607 31.6396 8.58778 31.7861C8.65948 31.9326 16.3516 29.3998 20.2338 27.4996C20.7663 27.2389 21.2191 26.9941 21.6038 26.7653C21.4951 27.0414 21.384 27.3431 21.2709 27.6731C19.8727 31.7523 18.3222 39.6818 18.4761 39.7346C18.63 39.7874 22.2698 32.574 23.668 28.4947C23.7782 28.1734 23.8734 27.8744 23.9554 27.596C24.114 27.9938 24.3119 28.44 24.5569 28.9405C26.4571 32.8227 30.9782 39.5416 31.1247 39.4699C31.2712 39.3982 28.7384 31.706 26.8382 27.8239C26.5911 27.319 26.3582 26.8858 26.1397 26.5144C26.4137 26.6222 26.7131 26.7323 27.04 26.8443C31.1193 28.2425 39.0488 29.7931 39.1016 29.6392C39.1544 29.4852 31.941 25.8454 27.8617 24.4472C27.5316 24.3341 27.225 24.2366 26.9402 24.1532C27.3395 23.9943 27.7878 23.7956 28.2911 23.5492C32.1643 21.6534 38.8677 17.1428 38.7962 16.9967C38.7246 16.8505 31.0503 19.3774 27.1771 21.2732C26.3475 21.6793 25.7119 22.0468 25.2259 22.3751C25.456 21.891 25.6999 21.2917 25.954 20.5504C27.3522 16.4711 28.9028 8.54165 28.7488 8.48889C28.5949 8.43612 24.9551 15.6495 23.5569 19.7288C23.4543 20.0282 23.3646 20.3083 23.2865 20.5703C23.2546 20.5037 23.2219 20.4361 23.1883 20.3675ZM33.5452 45.7525C32.75 44.128 31.0543 39.5042 31.1217 39.4712C31.1892 39.4382 33.8005 43.6138 34.5956 45.2384C35.3908 46.8629 34.9598 47.1416 34.8923 47.1746C34.8248 47.2076 34.3403 47.3771 33.5452 45.7525ZM8.58928 31.7887C8.6223 31.8562 4.44666 34.4675 2.82213 35.2626C1.19759 36.0578 0.918932 35.6267 0.885914 35.5593C0.852896 35.4918 0.683425 35.0073 2.30796 34.2122C3.93249 33.417 8.55626 31.7212 8.58928 31.7887ZM45.0644 14.5814C43.4437 15.3748 38.8306 17.0666 38.7977 16.9993C38.7647 16.932 42.9307 14.3267 44.5515 13.5334C46.1722 12.7401 46.4503 13.1701 46.4832 13.2374C46.5161 13.3047 46.6852 13.7881 45.0644 14.5814ZM39.1009 29.6419C39.0766 29.7128 43.5348 31.7785 45.2418 32.3635C46.9489 32.9486 47.1711 32.4873 47.1954 32.4164C47.2197 32.3455 47.3272 31.8448 45.6202 31.2597C43.9132 30.6747 39.1252 29.5711 39.1009 29.6419ZM16.8612 46.2549C17.4463 44.5478 18.5499 39.7598 18.4791 39.7356C18.4082 39.7113 16.3425 44.1695 15.7574 45.8765C15.1724 47.5835 15.6337 47.8058 15.7046 47.8301C15.7755 47.8544 16.2762 47.9619 16.8612 46.2549ZM8.12481 18.5814C8.14911 18.5105 3.69087 16.4449 1.98384 15.8598C0.276817 15.2747 0.0545766 15.7361 0.0302809 15.8069C0.0059855 15.8778 -0.101519 16.3785 1.60551 16.9636C3.31253 17.5487 8.10052 18.6523 8.12481 18.5814ZM30.364 1.96864C29.7789 3.67566 28.6753 8.46365 28.7462 8.48794C28.8171 8.51224 30.8827 4.054 31.4678 2.34697C32.0529 0.639947 31.5916 0.417706 31.5207 0.39341C31.4498 0.369115 30.9491 0.26161 30.364 1.96864Z" fill="white"/>
</svg>
